<?xml version="1.0"?>
<!DOCTYPE svg PUBLIC "-//W3C//DTD SVG 1.1//EN" "http://www.w3.org/Graphics/SVG/1.1/DTD/svg11.dtd">
<svg width="468.9544731945773mm" height="330.8682780193658mm" viewBox="0 0 468.9544731945773 330.8682780193658" xmlns="http://www.w3.org/2000/svg" version="1.1">
<g id="Part__Part2DObjectPython001" transform="translate(140.522398,164.979863) scale(1,-1)">
<path id="Part__Part2DObjectPython001_w0000"  d="M 138.10202707533696 58.641207566713454 A 7.58 7.58 0 0 0 153.118 57.9856L 157.48 8.128 L 153.67 -12.217399999999998 L 141.64795850574245 -37.99875118308836 A 10.3124 10.3124 0 0 0 122.146 -31.8498L 126.57290374019632 -6.7437000000000005 L 99.77895546539987 -6.7437000000000005 L 91.72361349102339 -36.806645520715236 A 10.3124 10.3124 0 0 0 71.4502 -34.1376L 71.4502 -6.7437000000000005 L 40.622355465399885 -6.7437000000000005 L 32.56701349102339 -36.806645520715236 A 10.3124 10.3124 0 0 0 12.2936 -34.1376L 12.293599999999998 34.1376 A 10.3124 10.3124 0 0 0 32.567 36.8066L 40.622355465399885 6.743699999999998 L 71.4502 6.743699999999999 L 71.4502 34.13759999999999 A 10.3124 10.3124 0 0 0 91.7236 36.8066L 99.77895546539986 6.743699999999997 L 128.95109625980368 6.743699999999997 L 138.10202707533696 58.641207566713454 " stroke="#f1f3f5" stroke-width="0.7 px" style="stroke-width:0.7;stroke-miterlimit:4;stroke-dasharray:none;stroke-linecap:square;fill:none;fill-opacity:1;fill-rule: evenodd"/>
<title>b'Part__Part2DObjectPython001'</title>
</g>
<g id="Part__Part2DObjectPython002" transform="translate(140.522398,164.979863) scale(1,-1)">
<path id="Part__Part2DObjectPython002_w0000"  d="M -71.43749999999999 27.781591208044983 A 4.7625 4.7625 0 0 1 -76.2 23.0191L -76.19999999999999 -22.093093249060004 A 4.7625 4.7625 0 0 1 -71.5073 -26.8551L -8.361843909776375 -27.780908791955024 A 6.35 6.35 0 0 1 -2.01974 -22.5596A 127 127 0 0 1 -2.01974 22.5596A 6.35 6.35 0 0 1 -8.26875 27.7816L -71.43749999999999 27.781591208044983 " stroke="#f1f3f5" stroke-width="0.7 px" style="stroke-width:0.7;stroke-miterlimit:4;stroke-dasharray:none;stroke-linecap:square;fill:none;fill-opacity:1;fill-rule: evenodd"/>
<title>b'Part__Part2DObjectPython002'</title>
</g>
<g id="Part__Part2DObjectPython003" transform="translate(140.522398,164.979863) scale(1,-1)">
<path id="Part__Part2DObjectPython003_w0000"  d="M -28.09117285945802 27.78159120804498 A 12.14 12.14 0 0 1 -17.5619 33.8789A 49.5027 49.5027 0 0 1 -11.0034 59.4858A 37.713 37.713 0 0 1 -31.3102 92.2088A 62.8803 62.8803 0 0 1 -55.8037 99.1381A 16.8203 16.8203 0 0 0 -63.8689 129.948A 60.6863 60.6863 0 0 0 -19.8304 139.074A 259.48 259.48 0 0 0 43.8871 119.064A 62.9649 62.9649 0 0 1 96.7676 119.064A 3023.11 3023.11 0 0 0 148.742 142.52A 212.728 212.728 0 0 0 226.366 160.382A 89.6239 89.6239 0 0 0 318.591 82.6969A 597.727 597.727 0 0 0 317.018 -86.6817A 88.3856 88.3856 0 0 0 220.828 -161.291A 354.011 354.011 0 0 0 97.2312 -125.387A 118.118 118.118 0 0 1 -11.6422 -126.859A 111.976 111.976 0 0 0 -129.94 -119.121A 14.3727 14.3727 0 0 0 -120.551 -93.1123A 81.1195 81.1195 0 0 1 -82.1019 -86.3833A 44.0623 44.0623 0 0 1 -56.2048 -40.5403A 15.6564 15.6564 0 0 1 -71.5073 -26.8551A 4.7625 4.7625 0 0 0 -76.2 -22.0931L -76.19999999999999 23.01909120804498 A 4.7625 4.7625 0 0 0 -71.4375 27.7816L -8.268751382413026 27.78159120804498 A 6.35 6.35 0 0 0 -2.01974 22.5596A 127 127 0 0 0 -2.01974 -22.5596A 6.35 6.35 0 0 0 -8.36184 -27.7809L -71.5073193955225 -26.855081436992513 " stroke="#f1f3f5" stroke-width="0.7 px" style="stroke-width:0.7;stroke-miterlimit:4;stroke-dasharray:none;stroke-linecap:square;fill:none;fill-opacity:1;fill-rule: evenodd"/>
<title>b'Part__Part2DObjectPython003'</title>
</g>
<g id="Part__Part2DObjectPython004" transform="translate(140.522398,164.979863) scale(1,-1)">
<path id="Part__Part2DObjectPython004_w0000"  d="M 208.9188986143125 116.31884084408873 A 14.4925 14.4925 0 0 1 190.497 138.31L 163.11264011361197 121.37267506838755 A 15.875 15.875 0 0 0 149.471 119.907A 12.7 12.7 0 0 1 137.038 117.631L 105.5930741446597 91.045625415276 A 11.1252 11.1252 0 0 1 105.083 74.5136L 142.0033258175691 39.16969506108032 A 9.525 9.525 0 0 1 156.969 41.5211L 179.832 83.82 L 208.9188986143125 116.31884084408873 " stroke="#f1f3f5" stroke-width="0.7 px" style="stroke-width:0.7;stroke-miterlimit:4;stroke-dasharray:none;stroke-linecap:square;fill:none;fill-opacity:1;fill-rule: evenodd"/>
<path id="Part__Part2DObjectPython004_w0001"  d="M 259.00759355654066 109.70461239717628 A 6.7564 6.7564 0 0 1 249.096 117.31A 76.2 76.2 0 0 1 216.584 79.745A 9.525 9.525 0 0 1 231.137 68.5781A 76.2 76.2 0 0 1 259.008 109.705" stroke="#f1f3f5" stroke-width="0.7 px" style="stroke-width:0.7;stroke-miterlimit:4;stroke-dasharray:none;stroke-linecap:square;fill:none;fill-opacity:1;fill-rule: evenodd"/>
<title>b'Part__Part2DObjectPython004'</title>
</g>
<g id="Part__Part2DObjectPython005" transform="translate(140.522398,164.979863) scale(1,-1)">
<path id="Part__Part2DObjectPython005_w0000"  d="M 185.7502 38.099999999999966 L 185.7502 -28.57500000000003 A 6.35 6.35 0 0 1 192.1 -34.925L 196.85 -34.92500000000003 A 6.35 6.35 0 0 1 203.2 -28.575L 203.2 38.099999999999966 A 6.35 6.35 0 0 1 196.85 44.45L 192.1002 44.44999999999997 A 6.35 6.35 0 0 1 185.75 38.1" stroke="#f1f3f5" stroke-width="0.7 px" style="stroke-width:0.7;stroke-miterlimit:4;stroke-dasharray:none;stroke-linecap:square;fill:none;fill-opacity:1;fill-rule: evenodd"/>
<title>b'Part__Part2DObjectPython005'</title>
</g>
</svg>