<?xml version="1.0"?>
<!DOCTYPE svg PUBLIC "-//W3C//DTD SVG 1.1//EN" "http://www.w3.org/Graphics/SVG/1.1/DTD/svg11.dtd">
<svg width="468.53828771425833mm" height="330.8601175197875mm" viewBox="0 0 468.53828771425833 330.8601175197875" xmlns="http://www.w3.org/2000/svg" version="1.1">
<g id="Pad" transform="translate(140.518317,164.975783) scale(1,-1)">
<path id="Pad_f0000"  d="M -120.55115264998167 -93.11230779115621 L -120.55115264998167 -93.11230779115621 A 81.1195 81.1195 0 0 1 -82.1019 -86.3833L -82.10192388010981 -86.38330534492606 A 81.1195 81.1195 0 0 0 -120.551 -93.1123Z " stroke="#191919" stroke-width="0.7 px" style="stroke-width:0.7;stroke-miterlimit:4;stroke-dasharray:none;stroke-linecap:square;fill:#727980;fill-opacity:1.0;fill-rule: evenodd"/>
<path id="Pad_f0001"  d="M -82.10192388010981 -86.38330534492606 L -82.10192388010981 -86.38330534492606 A 44.0623 44.0623 0 0 1 -56.205 -40.5393L -56.20495976135713 -40.53934207943823 A 44.0623 44.0623 0 0 0 -82.1019 -86.3833Z " stroke="#191919" stroke-width="0.7 px" style="stroke-width:0.7;stroke-miterlimit:4;stroke-dasharray:none;stroke-linecap:square;fill:#727980;fill-opacity:1.0;fill-rule: evenodd"/>
<path id="Pad_f0002"  d="M -56.20495976135713 -40.53934207943823 L -56.20495976135713 -40.53934207943823 A 15.65 15.65 0 0 1 -71.5059 -26.86L -71.5058829555702 -26.86 A 15.65 15.65 0 0 0 -56.205 -40.5393Z " stroke="#191919" stroke-width="0.7 px" style="stroke-width:0.7;stroke-miterlimit:4;stroke-dasharray:none;stroke-linecap:square;fill:#727980;fill-opacity:1.0;fill-rule: evenodd"/>
<path id="Pad_f0003"  d="M -71.5058829555702 -26.86 A 4.7625 4.7625 0 0 0 -76.2 -22.098L -76.19999999999999 -22.09799096794352 A 4.7625 4.7625 0 0 1 -71.5059 -26.86L -71.5058829555702 -26.86 Z " stroke="#191919" stroke-width="0.7 px" style="stroke-width:0.7;stroke-miterlimit:4;stroke-dasharray:none;stroke-linecap:square;fill:#727980;fill-opacity:1.0;fill-rule: evenodd"/>
<path id="Pad_f0004"  d="M -76.19999999999999 -22.09799096794352 L -76.19999999999999 23.017500000000002 L -76.19999999999999 23.017500000000002 L -76.19999999999999 -22.09799096794352 L -76.19999999999999 -22.09799096794352 Z " stroke="#191919" stroke-width="0.7 px" style="stroke-width:0.7;stroke-miterlimit:4;stroke-dasharray:none;stroke-linecap:square;fill:#727980;fill-opacity:1.0;fill-rule: evenodd"/>
<path id="Pad_f0005"  d="M -76.19999999999999 23.0175 A 4.7625 4.7625 0 0 0 -71.4375 27.78L -71.43749999999999 27.78 A 4.7625 4.7625 0 0 1 -76.2 23.0175L -76.19999999999999 23.017500000000002 Z " stroke="#191919" stroke-width="0.7 px" style="stroke-width:0.7;stroke-miterlimit:4;stroke-dasharray:none;stroke-linecap:square;fill:#727980;fill-opacity:1.0;fill-rule: evenodd"/>
<path id="Pad_f0006"  d="M -71.43749999999999 27.78 L -71.43749999999999 27.78 L -28.091767672618012 27.78 L -28.091767672618012 27.78 L -71.43749999999999 27.78 Z " stroke="#191919" stroke-width="0.7 px" style="stroke-width:0.7;stroke-miterlimit:4;stroke-dasharray:none;stroke-linecap:square;fill:#727980;fill-opacity:1.0;fill-rule: evenodd"/>
<path id="Pad_f0007"  d="M -28.091767672618012 27.78 L -28.091767672618012 27.78 A 12.14 12.14 0 0 1 -17.5626 33.8772L -17.56257596307301 33.87717599597268 A 12.14 12.14 0 0 0 -28.0918 27.78Z " stroke="#191919" stroke-width="0.7 px" style="stroke-width:0.7;stroke-miterlimit:4;stroke-dasharray:none;stroke-linecap:square;fill:#727980;fill-opacity:1.0;fill-rule: evenodd"/>
<path id="Pad_f0008"  d="M -17.56257596307301 33.87717599597268 L -17.56257596307301 33.87717599597268 A 49.505 49.505 0 0 1 -11.0034 59.486L -11.003396775954279 59.485987467150494 A 49.505 49.505 0 0 0 -17.5626 33.8772Z " stroke="#191919" stroke-width="0.7 px" style="stroke-width:0.7;stroke-miterlimit:4;stroke-dasharray:none;stroke-linecap:square;fill:#727980;fill-opacity:1.0;fill-rule: evenodd"/>
<path id="Pad_f0009"  d="M -11.003396775954279 59.485987467150494 L -11.003396775954279 59.485987467150494 A 37.7128 37.7128 0 0 1 -31.3101 92.2087L -31.310142251725587 92.20872145620332 A 37.7128 37.7128 0 0 0 -11.0034 59.486Z " stroke="#191919" stroke-width="0.7 px" style="stroke-width:0.7;stroke-miterlimit:4;stroke-dasharray:none;stroke-linecap:square;fill:#727980;fill-opacity:1.0;fill-rule: evenodd"/>
<path id="Pad_f0010"  d="M -31.310142251725587 92.20872145620332 L -31.310142251725587 92.20872145620332 A 62.8803 62.8803 0 0 1 -55.8037 99.1381L -55.803666477850776 99.13813458659601 A 62.8803 62.8803 0 0 0 -31.3101 92.2087Z " stroke="#191919" stroke-width="0.7 px" style="stroke-width:0.7;stroke-miterlimit:4;stroke-dasharray:none;stroke-linecap:square;fill:#727980;fill-opacity:1.0;fill-rule: evenodd"/>
<path id="Pad_f0011"  d="M -55.80366647785077 99.13813458659601 A 16.8203 16.8203 0 0 0 -63.8689 129.948L -63.86885737713537 129.94799545489164 A 16.8203 16.8203 0 0 1 -55.8037 99.1381L -55.803666477850776 99.13813458659601 Z " stroke="#191919" stroke-width="0.7 px" style="stroke-width:0.7;stroke-miterlimit:4;stroke-dasharray:none;stroke-linecap:square;fill:#727980;fill-opacity:1.0;fill-rule: evenodd"/>
<path id="Pad_f0012"  d="M -63.86885737713541 129.9479954548916 A 60.6863 60.6863 0 0 0 -19.8304 139.074L -19.830358889413283 139.07448540546608 A 60.6863 60.6863 0 0 1 -63.8689 129.948L -63.86885737713537 129.94799545489164 Z " stroke="#191919" stroke-width="0.7 px" style="stroke-width:0.7;stroke-miterlimit:4;stroke-dasharray:none;stroke-linecap:square;fill:#727980;fill-opacity:1.0;fill-rule: evenodd"/>
<path id="Pad_f0013"  d="M -19.830358889413212 139.07448540546608 A 259.48 259.48 0 0 0 43.8871 119.064L 43.887072137236956 119.06369820199336 A 259.48 259.48 0 0 1 -19.8304 139.074L -19.830358889413283 139.07448540546608 Z " stroke="#191919" stroke-width="0.7 px" style="stroke-width:0.7;stroke-miterlimit:4;stroke-dasharray:none;stroke-linecap:square;fill:#727980;fill-opacity:1.0;fill-rule: evenodd"/>
<path id="Pad_f0014"  d="M 43.887072137236956 119.06369820199336 L 43.887072137236956 119.06369820199336 A 62.9649 62.9649 0 0 1 96.7676 119.064L 96.76763045923497 119.0640945745271 A 62.9649 62.9649 0 0 0 43.8871 119.064Z " stroke="#191919" stroke-width="0.7 px" style="stroke-width:0.7;stroke-miterlimit:4;stroke-dasharray:none;stroke-linecap:square;fill:#727980;fill-opacity:1.0;fill-rule: evenodd"/>
<path id="Pad_f0015"  d="M 96.76763045923303 119.06409457452628 A 3023.11 3023.11 0 0 0 148.742 142.52L 148.74185239522512 142.52005026525651 A 3023.11 3023.11 0 0 1 96.7676 119.064L 96.76763045923497 119.0640945745271 Z " stroke="#191919" stroke-width="0.7 px" style="stroke-width:0.7;stroke-miterlimit:4;stroke-dasharray:none;stroke-linecap:square;fill:#727980;fill-opacity:1.0;fill-rule: evenodd"/>
<path id="Pad_f0016"  d="M 148.74185239522507 142.52005026525654 A 212.728 212.728 0 0 0 226.366 160.382L 226.36599908435792 160.3822706034577 A 212.728 212.728 0 0 1 148.742 142.52L 148.74185239522512 142.52005026525651 Z " stroke="#191919" stroke-width="0.7 px" style="stroke-width:0.7;stroke-miterlimit:4;stroke-dasharray:none;stroke-linecap:square;fill:#727980;fill-opacity:1.0;fill-rule: evenodd"/>
<path id="Pad_f0017"  d="M 226.36599908435784 160.3822706034577 A 89.6239 89.6239 0 0 0 318.591 82.6969L 318.59085657174074 82.69688674044511 A 89.6239 89.6239 0 0 1 226.366 160.382L 226.36599908435792 160.3822706034577 Z " stroke="#191919" stroke-width="0.7 px" style="stroke-width:0.7;stroke-miterlimit:4;stroke-dasharray:none;stroke-linecap:square;fill:#727980;fill-opacity:1.0;fill-rule: evenodd"/>
<path id="Pad_f0018"  d="M 318.5908565717407 82.6968867404455 A 597.727 597.727 0 0 0 317.018 -86.6817L 317.01750080985215 -86.68166996864505 A 597.727 597.727 0 0 1 318.591 82.6969L 318.59085657174074 82.69688674044511 Z " stroke="#191919" stroke-width="0.7 px" style="stroke-width:0.7;stroke-miterlimit:4;stroke-dasharray:none;stroke-linecap:square;fill:#727980;fill-opacity:1.0;fill-rule: evenodd"/>
<path id="Pad_f0019"  d="M 317.0175008098522 -86.68166996864502 A 88.3856 88.3856 0 0 0 220.828 -161.291L 220.8277553495909 -161.29082166703057 A 88.3856 88.3856 0 0 1 317.018 -86.6817L 317.01750080985215 -86.68166996864505 Z " stroke="#191919" stroke-width="0.7 px" style="stroke-width:0.7;stroke-miterlimit:4;stroke-dasharray:none;stroke-linecap:square;fill:#727980;fill-opacity:1.0;fill-rule: evenodd"/>
<path id="Pad_f0020"  d="M 220.82775534959097 -161.2908216670306 A 354.011 354.011 0 0 0 97.2312 -125.387L 97.23119427580683 -125.38727736358564 A 354.011 354.011 0 0 1 220.828 -161.291L 220.8277553495909 -161.29082166703057 Z " stroke="#191919" stroke-width="0.7 px" style="stroke-width:0.7;stroke-miterlimit:4;stroke-dasharray:none;stroke-linecap:square;fill:#727980;fill-opacity:1.0;fill-rule: evenodd"/>
<path id="Pad_f0021"  d="M 97.23119427580683 -125.38727736358564 L 97.23119427580683 -125.38727736358564 A 118.118 118.118 0 0 1 -11.6422 -126.859L -11.64215301297849 -126.85850862167653 A 118.118 118.118 0 0 0 97.2312 -125.387Z " stroke="#191919" stroke-width="0.7 px" style="stroke-width:0.7;stroke-miterlimit:4;stroke-dasharray:none;stroke-linecap:square;fill:#727980;fill-opacity:1.0;fill-rule: evenodd"/>
<path id="Pad_f0022"  d="M -11.642153012978476 -126.85850862167653 A 111.976 111.976 0 0 0 -129.94 -119.121L -129.94032849464014 -119.12127284659095 A 111.976 111.976 0 0 1 -11.6422 -126.859L -11.64215301297849 -126.85850862167653 Z " stroke="#191919" stroke-width="0.7 px" style="stroke-width:0.7;stroke-miterlimit:4;stroke-dasharray:none;stroke-linecap:square;fill:#727980;fill-opacity:1.0;fill-rule: evenodd"/>
<path id="Pad_f0023"  d="M -129.9403284946401 -119.12127284659095 A 14.3727 14.3727 0 0 0 -120.551 -93.1123L -120.55115264998167 -93.11230779115621 A 14.3727 14.3727 0 0 1 -129.94 -119.121L -129.94032849464014 -119.12127284659095 Z " stroke="#191919" stroke-width="0.7 px" style="stroke-width:0.7;stroke-miterlimit:4;stroke-dasharray:none;stroke-linecap:square;fill:#727980;fill-opacity:1.0;fill-rule: evenodd"/>
<path id="Pad_f0024"  d="M -120.55115264998167 -93.11230779115621 A 81.1195 81.1195 0 0 1 -82.1019 -86.3833A 44.0623 44.0623 0 0 1 -56.205 -40.5393A 15.65 15.65 0 0 1 -71.5059 -26.86A 4.7625 4.7625 0 0 0 -76.2 -22.098L -76.19999999999999 23.017500000000002 A 4.7625 4.7625 0 0 0 -71.4375 27.78L -28.091767672618012 27.78 A 12.14 12.14 0 0 1 -17.5626 33.8772A 49.505 49.505 0 0 1 -11.0034 59.486A 37.7128 37.7128 0 0 1 -31.3101 92.2087A 62.8803 62.8803 0 0 1 -55.8037 99.1381A 16.8203 16.8203 0 0 0 -63.8689 129.948A 60.6863 60.6863 0 0 0 -19.8304 139.074A 259.48 259.48 0 0 0 43.8871 119.064A 62.9649 62.9649 0 0 1 96.7676 119.064A 3023.11 3023.11 0 0 0 148.742 142.52A 212.728 212.728 0 0 0 226.366 160.382A 89.6239 89.6239 0 0 0 318.591 82.6969A 597.727 597.727 0 0 0 317.018 -86.6817A 88.3856 88.3856 0 0 0 220.828 -161.291A 354.011 354.011 0 0 0 97.2312 -125.387A 118.118 118.118 0 0 1 -11.6422 -126.859A 111.976 111.976 0 0 0 -129.94 -119.121A 14.3727 14.3727 0 0 0 -120.551 -93.1123Z " stroke="#191919" stroke-width="0.7 px" style="stroke-width:0.7;stroke-miterlimit:4;stroke-dasharray:none;stroke-linecap:square;fill:#727980;fill-opacity:1.0;fill-rule: evenodd"/>
<path id="Pad_f0025"  d="M -120.55115264998167 -93.11230779115621 A 14.3727 14.3727 0 0 1 -129.94 -119.121A 111.976 111.976 0 0 1 -11.6422 -126.859A 118.118 118.118 0 0 0 97.2312 -125.387A 354.011 354.011 0 0 1 220.828 -161.291A 88.3856 88.3856 0 0 1 317.018 -86.6817A 597.727 597.727 0 0 1 318.591 82.6969A 89.6239 89.6239 0 0 1 226.366 160.382A 212.728 212.728 0 0 1 148.742 142.52A 3023.11 3023.11 0 0 1 96.7676 119.064A 62.9649 62.9649 0 0 0 43.8871 119.064A 259.48 259.48 0 0 1 -19.8304 139.074A 60.6863 60.6863 0 0 1 -63.8689 129.948A 16.8203 16.8203 0 0 1 -55.8037 99.1381A 62.8803 62.8803 0 0 0 -31.3101 92.2087A 37.7128 37.7128 0 0 0 -11.0034 59.486A 49.505 49.505 0 0 0 -17.5626 33.8772A 12.14 12.14 0 0 0 -28.0918 27.78L -71.43749999999999 27.78 A 4.7625 4.7625 0 0 1 -76.2 23.0175L -76.19999999999999 -22.09799096794352 A 4.7625 4.7625 0 0 1 -71.5059 -26.86A 15.65 15.65 0 0 0 -56.205 -40.5393A 44.0623 44.0623 0 0 0 -82.1019 -86.3833A 81.1195 81.1195 0 0 0 -120.551 -93.1123Z " stroke="#191919" stroke-width="0.7 px" style="stroke-width:0.7;stroke-miterlimit:4;stroke-dasharray:none;stroke-linecap:square;fill:#727980;fill-opacity:1.0;fill-rule: evenodd"/>
<title>b'Pad'</title>
</g>
<g id="Part__Part2DObjectPython" transform="translate(140.518317,164.975783) scale(1,-1)">
<path id="Part__Part2DObjectPython_w0000"  d="M 138.10202707533696 58.64120756671346 A 7.58 7.58 0 0 0 153.118 57.9856L 157.48 8.128 L 153.67 -12.217399999999998 L 141.64795850574245 -37.99875118308836 A 10.3124 10.3124 0 0 0 122.146 -31.8498L 126.57290374019632 -6.7437000000000005 L 99.77895546539987 -6.7437000000000005 L 91.72361349102339 -36.806645520715236 A 10.3124 10.3124 0 0 0 71.4502 -34.1376L 71.4502 -6.7437000000000005 L 40.622355465399885 -6.7437000000000005 L 32.56701349102339 -36.806645520715236 A 10.3124 10.3124 0 0 0 12.2936 -34.1376L 12.293599999999998 34.1376 A 10.3124 10.3124 0 0 0 32.567 36.8066L 40.622355465399885 6.743699999999997 L 71.4502 6.743699999999997 L 71.4502 34.13759999999999 A 10.3124 10.3124 0 0 0 91.7236 36.8066L 99.77895546539986 6.743699999999997 L 128.95109625980368 6.743699999999997 L 138.10202707533696 58.641207566713454 " stroke="#f1f3f5" stroke-width="0.7 px" style="stroke-width:0.7;stroke-miterlimit:4;stroke-dasharray:none;stroke-linecap:square;fill:none;fill-opacity:1;fill-rule: evenodd"/>
<title>b'Part__Part2DObjectPython'</title>
</g>
<g id="Part__Part2DObjectPython001" transform="translate(140.518317,164.975783) scale(1,-1)">
<path id="Part__Part2DObjectPython001_w0000"  d="M -71.43749999999999 27.781591208044983 A 4.7625 4.7625 0 0 1 -76.2 23.0191L -76.19999999999999 -22.093093249060004 A 4.7625 4.7625 0 0 1 -71.5073 -26.8551L -8.361843909776375 -27.780908791955028 A 6.35 6.35 0 0 1 -2.01974 -22.5596A 127 127 0 0 1 -2.01974 22.5596A 6.35 6.35 0 0 1 -8.26875 27.7816L -71.43749999999999 27.781591208044983 " stroke="#f1f3f5" stroke-width="0.7 px" style="stroke-width:0.7;stroke-miterlimit:4;stroke-dasharray:none;stroke-linecap:square;fill:none;fill-opacity:1;fill-rule: evenodd"/>
<title>b'Part__Part2DObjectPython001'</title>
</g>
<g id="Part__Part2DObjectPython002" transform="translate(140.518317,164.975783) scale(1,-1)">
<path id="Part__Part2DObjectPython002_w0000"  d="M 208.9188986143125 116.31884084408873 A 14.4925 14.4925 0 0 1 190.497 138.31L 163.11264011361197 121.37267506838755 A 15.875 15.875 0 0 0 149.471 119.907A 12.7 12.7 0 0 1 137.038 117.631L 105.5930741446597 91.045625415276 A 11.1252 11.1252 0 0 1 105.083 74.5136L 142.0033258175691 39.16969506108032 A 9.525 9.525 0 0 1 156.969 41.5211L 179.832 83.82 L 208.9188986143125 116.31884084408873 " stroke="#f1f3f5" stroke-width="0.7 px" style="stroke-width:0.7;stroke-miterlimit:4;stroke-dasharray:none;stroke-linecap:square;fill:none;fill-opacity:1;fill-rule: evenodd"/>
<path id="Part__Part2DObjectPython002_w0001"  d="M 259.00759355654066 109.70461239717628 A 6.7564 6.7564 0 0 1 249.096 117.31A 76.2 76.2 0 0 1 216.584 79.745A 9.525 9.525 0 0 1 231.137 68.5781A 76.2 76.2 0 0 1 259.008 109.705" stroke="#f1f3f5" stroke-width="0.7 px" style="stroke-width:0.7;stroke-miterlimit:4;stroke-dasharray:none;stroke-linecap:square;fill:none;fill-opacity:1;fill-rule: evenodd"/>
<title>b'Part__Part2DObjectPython002'</title>
</g>
<g id="Part__Part2DObjectPython003" transform="translate(140.518317,164.975783) scale(1,-1)">
<path id="Part__Part2DObjectPython003_w0000"  d="M 185.7502 38.099999999999966 L 185.7502 -28.57500000000003 A 6.35 6.35 0 0 1 192.1 -34.925L 196.85 -34.92500000000003 A 6.35 6.35 0 0 1 203.2 -28.575L 203.2 38.099999999999966 A 6.35 6.35 0 0 1 196.85 44.45L 192.1002 44.44999999999997 A 6.35 6.35 0 0 1 185.75 38.1" stroke="#f1f3f5" stroke-width="0.7 px" style="stroke-width:0.7;stroke-miterlimit:4;stroke-dasharray:none;stroke-linecap:square;fill:none;fill-opacity:1;fill-rule: evenodd"/>
<title>b'Part__Part2DObjectPython003'</title>
</g>
</svg>