<?xml version="1.0" encoding="UTF-8" standalone="no"?>
<!-- Created with Inkscape (http://www.inkscape.org/) -->

<svg
   width="283.98553mm"
   height="222.23413mm"
   viewBox="0 0 283.98553 222.23412"
   version="1.1"
   id="svg1"
   inkscape:version="1.4.3 (0d15f75042, 2025-12-25)"
   sodipodi:docname="pickguard.svg"
   xmlns:inkscape="http://www.inkscape.org/namespaces/inkscape"
   xmlns:sodipodi="http://sodipodi.sourceforge.net/DTD/sodipodi-0.dtd"
   xmlns="http://www.w3.org/2000/svg"
   xmlns:svg="http://www.w3.org/2000/svg">
  <sodipodi:namedview
     id="namedview1"
     pagecolor="#ffffff"
     bordercolor="#000000"
     borderopacity="0.25"
     inkscape:showpageshadow="2"
     inkscape:pageopacity="0.0"
     inkscape:pagecheckerboard="0"
     inkscape:deskcolor="#d1d1d1"
     inkscape:document-units="mm"
     inkscape:zoom="1.4142136"
     inkscape:cx="433.1029"
     inkscape:cy="406.5864"
     inkscape:window-width="1753"
     inkscape:window-height="1269"
     inkscape:window-x="26"
     inkscape:window-y="23"
     inkscape:window-maximized="0"
     inkscape:current-layer="layer2" />
  <defs
     id="defs1" />
  <g
     inkscape:label="Layer 1"
     inkscape:groupmode="layer"
     id="layer1"
     transform="translate(39.088185,-29.494969)">
    <g
       id="svg44187"
       transform="matrix(0.396875,0,0,0.396875,-647.12723,-314.23824)"
       style="fill:none;stroke:#00fd00;stroke-opacity:1;fill-opacity:1">
      <path
         fill="none"
         stroke-width="0.44304"
         stroke-linecap="butt"
         stroke-linejoin="round"
         stroke="#121314"
         stroke-opacity="1"
         stroke-miterlimit="10"
         d="m 2212.3489,1354.2215 c 3.7749,0 6.8287,-3.0538 6.8287,-6.8251 0,-3.775 -3.0538,-6.8288 -6.8287,-6.8288 -3.7713,0 -6.8216,3.0538 -6.8216,6.8288 0,3.7713 3.0503,6.8251 6.8216,6.8251"
         id="path44021"
         style="fill:none;stroke:#00fd00;stroke-opacity:1;fill-opacity:1" />
      <path
         fill="none"
         stroke-width="0.44304"
         stroke-linecap="butt"
         stroke-linejoin="round"
         stroke="#121314"
         stroke-opacity="1"
         stroke-miterlimit="10"
         d="m 2212.3489,1355.1733 c 4.2977,0 7.7806,-3.4828 7.7806,-7.7769 0,-4.2978 -3.4829,-7.7806 -7.7806,-7.7806 -4.2941,0 -7.7806,3.4828 -7.7806,7.7806 0,4.2941 3.4865,7.7769 7.7806,7.7769"
         id="path44022"
         style="fill:none;stroke:#00fd00;stroke-opacity:1;fill-opacity:1" />
      <path
         fill="none"
         stroke-width="0.44304"
         stroke-linecap="butt"
         stroke-linejoin="round"
         stroke="#121314"
         stroke-opacity="1"
         stroke-miterlimit="10"
         d="m 2117.4962,984.35089 c 0.068,0 0.1226,-0.0577 0.1226,-0.12619 0,-0.0685 -0.054,-0.12619 -0.1226,-0.12619 -0.068,0 -0.1298,0.0577 -0.1298,0.12619 0,0.0685 0.061,0.12619 0.1298,0.12619"
         id="path44029"
         style="fill:none;stroke:#00fd00;stroke-opacity:1;fill-opacity:1" />
      <path
         fill="none"
         stroke-width="0.44304"
         stroke-linecap="butt"
         stroke-linejoin="round"
         stroke="#121314"
         stroke-opacity="1"
         stroke-miterlimit="10"
         d="m 2142.8499,984.35089 c 0.068,0 0.1225,-0.0577 0.1225,-0.12619 0,-0.0685 -0.054,-0.12619 -0.1225,-0.12619 -0.069,0 -0.1262,0.0577 -0.1262,0.12619 0,0.0685 0.058,0.12619 0.1262,0.12619"
         id="path44030"
         style="fill:none;stroke:#00fd00;stroke-opacity:1;fill-opacity:1" />
      <path
         fill="none"
         stroke-width="0.44304"
         stroke-linecap="butt"
         stroke-linejoin="round"
         stroke="#121314"
         stroke-opacity="1"
         stroke-miterlimit="10"
         d="m 2169.0364,947.54627 c 3.7677,0 6.8287,-3.05744 6.8287,-6.82876 0,-3.76772 -3.061,-6.82876 -6.8287,-6.82876 -3.7713,0 -6.8288,3.06104 -6.8288,6.82876 0,3.77132 3.0575,6.82876 6.8288,6.82876"
         id="path44034"
         style="fill:none;stroke:#00fd00;stroke-opacity:1;fill-opacity:1" />
      <path
         fill="none"
         stroke-width="0.44304"
         stroke-linecap="butt"
         stroke-linejoin="round"
         stroke="#121314"
         stroke-opacity="1"
         stroke-miterlimit="10"
         d="m 2169.0364,948.49811 c 4.2941,0 7.7806,-3.48289 7.7806,-7.7806 0,-4.29411 -3.4865,-7.78061 -7.7806,-7.78061 -4.3013,0 -7.7806,3.4865 -7.7806,7.78061 0,4.29771 3.4793,7.7806 7.7806,7.7806"
         id="path44035"
         style="fill:none;stroke:#00fd00;stroke-opacity:1;fill-opacity:1" />
      <path
         fill="none"
         stroke-width="0.44304"
         stroke-linecap="butt"
         stroke-linejoin="round"
         stroke="#121314"
         stroke-opacity="1"
         stroke-miterlimit="10"
         d="m 2063.1582,1337.7698 c 3.7677,0 6.8287,-3.0539 6.8287,-6.8252 0,-3.7749 -3.061,-6.8252 -6.8287,-6.8252 -3.7713,0 -6.8288,3.0503 -6.8288,6.8252 0,3.7713 3.0575,6.8252 6.8288,6.8252"
         id="path44039"
         style="fill:none;stroke:#00fd00;stroke-opacity:1;fill-opacity:1" />
      <path
         fill="none"
         stroke-width="0.44304"
         stroke-linecap="butt"
         stroke-linejoin="round"
         stroke="#121314"
         stroke-opacity="1"
         stroke-miterlimit="10"
         d="m 2063.1582,1338.7252 c 4.3013,0 7.7806,-3.4829 7.7806,-7.7806 0,-4.2977 -3.4793,-7.7806 -7.7806,-7.7806 -4.2941,0 -7.7806,3.4829 -7.7806,7.7806 0,4.2977 3.4865,7.7806 7.7806,7.7806"
         id="path44040"
         style="fill:none;stroke:#00fd00;stroke-opacity:1;fill-opacity:1" />
      <path
         fill="none"
         stroke-width="0.44304"
         stroke-linecap="butt"
         stroke-linejoin="round"
         stroke="#121314"
         stroke-opacity="1"
         stroke-miterlimit="10"
         d="m 2090.466,1147.2027 c 2.7402,0 4.9575,-2.221 4.9575,-4.9575 0,-2.7366 -2.2173,-4.9503 -4.9575,-4.9503 -2.7329,0 -4.9539,2.2137 -4.9539,4.9503 0,2.7365 2.221,4.9575 4.9539,4.9575"
         id="path44046"
         style="fill:none;stroke:#00fd00;stroke-opacity:1;fill-opacity:1" />
      <path
         fill="none"
         stroke-width="0.44304"
         stroke-linecap="butt"
         stroke-linejoin="round"
         stroke="#121314"
         stroke-opacity="1"
         stroke-miterlimit="10"
         d="m 2090.466,1150.0258 c 4.3013,0 7.7842,-3.4829 7.7842,-7.7806 0,-4.2977 -3.4829,-7.7806 -7.7842,-7.7806 -4.2905,0 -7.777,3.4829 -7.777,7.7806 0,4.2977 3.4865,7.7806 7.777,7.7806"
         id="path44047"
         style="fill:none;stroke:#00fd00;stroke-opacity:1;fill-opacity:1" />
      <path
         fill="none"
         stroke-width="0.44304"
         stroke-linecap="butt"
         stroke-linejoin="round"
         stroke="#121314"
         stroke-opacity="1"
         stroke-miterlimit="10"
         d="m 2040.231,1158.8231 c 4.5609,0 8.2565,-3.6992 8.2565,-8.2565 0,-4.5609 -3.6956,-8.2565 -8.2565,-8.2565 -4.5609,0 -8.2565,3.6956 -8.2565,8.2565 0,4.5573 3.6956,8.2565 8.2565,8.2565"
         id="path44052"
         style="fill:none;stroke:#00fd00;stroke-opacity:1;fill-opacity:1" />
      <path
         fill="none"
         stroke-width="0.44304"
         stroke-linecap="butt"
         stroke-linejoin="round"
         stroke="#121314"
         stroke-opacity="1"
         stroke-miterlimit="10"
         d="m 2020.8588,1119.0332 c 0,10.6974 8.6748,19.3686 19.3722,19.3686 10.701,0 19.3722,-8.6712 19.3722,-19.3686"
         id="path44053"
         style="fill:none;stroke:#00fd00;stroke-opacity:1;fill-opacity:1" />
      <path
         fill="none"
         stroke-width="0.44304"
         stroke-linecap="butt"
         stroke-linejoin="round"
         stroke="#121314"
         stroke-opacity="1"
         stroke-miterlimit="10"
         d="m 2040.231,966.75981 c 4.5609,0 8.2565,-3.69922 8.2565,-8.25653 0,-4.56091 -3.6956,-8.25652 -8.2565,-8.25652 -4.5609,0 -8.2565,3.69561 -8.2565,8.25652 0,4.55731 3.6956,8.25653 8.2565,8.25653"
         id="path44062"
         style="fill:none;stroke:#00fd00;stroke-opacity:1;fill-opacity:1" />
      <path
         fill="none"
         stroke-width="0.44304"
         stroke-linecap="butt"
         stroke-linejoin="round"
         stroke="#121314"
         stroke-opacity="1"
         stroke-miterlimit="10"
         d="m 2059.6032,990.03672 c 0,-10.69743 -8.6712,-19.37219 -19.3722,-19.37219 -10.6974,0 -19.3722,8.67476 -19.3722,19.37219"
         id="path44063"
         style="fill:none;stroke:#00fd00;stroke-opacity:1;fill-opacity:1" />
      <path
         fill="none"
         stroke-width="0.44304"
         stroke-linecap="butt"
         stroke-linejoin="round"
         stroke="#121314"
         stroke-opacity="1"
         stroke-miterlimit="10"
         d="m 1916.1849,936.62169 c 3.7785,0 6.8287,-3.05743 6.8287,-6.82515 0,-3.77492 -3.0502,-6.82876 -6.8287,-6.82876 -3.7678,0 -6.8216,3.05384 -6.8216,6.82876 0,3.76772 3.0538,6.82515 6.8216,6.82515"
         id="path44066"
         style="fill:none;stroke:#00fd00;stroke-opacity:1;fill-opacity:1" />
      <path
         fill="none"
         stroke-width="0.44304"
         stroke-linecap="butt"
         stroke-linejoin="round"
         stroke="#121314"
         stroke-opacity="1"
         stroke-miterlimit="10"
         d="m 1916.1849,937.57715 c 4.3013,0 7.7806,-3.4865 7.7806,-7.78061 0,-4.30133 -3.4793,-7.7806 -7.7806,-7.7806 -4.2906,0 -7.7807,3.47927 -7.7807,7.7806 0,4.29411 3.4901,7.78061 7.7807,7.78061"
         id="path44067"
         style="fill:none;stroke:#00fd00;stroke-opacity:1;fill-opacity:1" />
      <path
         fill="none"
         stroke-width="0.44304"
         stroke-linecap="butt"
         stroke-linejoin="round"
         stroke="#121314"
         stroke-opacity="1"
         stroke-miterlimit="10"
         d="M 1909.5219,1119.0332 V 990.03672"
         id="path44070"
         style="fill:none;stroke:#00fd00;stroke-opacity:1;fill-opacity:1" />
      <path
         fill="none"
         stroke-width="0.44304"
         stroke-linecap="butt"
         stroke-linejoin="round"
         stroke="#121314"
         stroke-opacity="1"
         stroke-miterlimit="10"
         d="M 2020.8588,1119.0332 V 990.03672"
         id="path44071"
         style="fill:none;stroke:#00fd00;stroke-opacity:1;fill-opacity:1" />
      <path
         fill="none"
         stroke-width="0.44304"
         stroke-linecap="butt"
         stroke-linejoin="round"
         stroke="#121314"
         stroke-opacity="1"
         stroke-miterlimit="10"
         d="M 2059.6032,1119.0332 V 990.03672"
         id="path44072"
         style="fill:none;stroke:#00fd00;stroke-opacity:1;fill-opacity:1" />
      <path
         fill="none"
         stroke-width="0.44304"
         stroke-linecap="butt"
         stroke-linejoin="round"
         stroke="#121314"
         stroke-opacity="1"
         stroke-miterlimit="10"
         d="m 1827.4615,1319.9876 c 3.7677,0 6.8287,-3.0575 6.8287,-6.8252 0,-3.7713 -3.061,-6.8323 -6.8287,-6.8323 -3.7713,0 -6.8324,3.061 -6.8324,6.8323 0,3.7677 3.0611,6.8252 6.8324,6.8252"
         id="path44075"
         style="fill:none;stroke:#00fd00;stroke-opacity:1;fill-opacity:1" />
      <path
         fill="none"
         stroke-width="0.44304"
         stroke-linecap="butt"
         stroke-linejoin="round"
         stroke="#121314"
         stroke-opacity="1"
         stroke-miterlimit="10"
         d="m 1827.4615,1320.943 c 4.2977,0 7.7806,-3.4865 7.7806,-7.7806 0,-4.3013 -3.4829,-7.7806 -7.7806,-7.7806 -4.2941,0 -7.7806,3.4793 -7.7806,7.7806 0,4.2941 3.4865,7.7806 7.7806,7.7806"
         id="path44076"
         style="fill:none;stroke:#00fd00;stroke-opacity:1;fill-opacity:1" />
      <path
         fill="none"
         stroke-width="0.44304"
         stroke-linecap="butt"
         stroke-linejoin="round"
         stroke="#121314"
         stroke-opacity="1"
         stroke-miterlimit="10"
         d="m 1821.0437,1268.1626 c 3.7714,0 6.8288,-3.0575 6.8288,-6.8288 0,-3.7713 -3.0574,-6.8287 -6.8288,-6.8287 -3.7677,0 -6.8215,3.0574 -6.8215,6.8287 0,3.7713 3.0538,6.8288 6.8215,6.8288"
         id="path44079"
         style="fill:none;stroke:#00fd00;stroke-opacity:1;fill-opacity:1" />
      <path
         fill="none"
         stroke-width="0.44304"
         stroke-linecap="butt"
         stroke-linejoin="round"
         stroke="#121314"
         stroke-opacity="1"
         stroke-miterlimit="10"
         d="m 1807.772,1276.0838 c 0.393,-0.3642 0.6202,-0.8725 0.6202,-1.4025 0,-1.0528 -0.8545,-1.9109 -1.9109,-1.9109 -0.4724,0 -0.9375,0.1802 -1.2872,0.5047"
         id="path44080"
         style="fill:none;stroke:#00fd00;stroke-opacity:1;fill-opacity:1" />
      <path
         fill="none"
         stroke-width="0.44304"
         stroke-linecap="butt"
         stroke-linejoin="round"
         stroke="#121314"
         stroke-opacity="1"
         stroke-miterlimit="10"
         d="m 1791.1688,1291.2953 16.6032,-15.2115"
         id="path44081"
         style="fill:none;stroke:#00fd00;stroke-opacity:1;fill-opacity:1" />
      <path
         fill="none"
         stroke-width="0.44304"
         stroke-linecap="butt"
         stroke-linejoin="round"
         stroke="#121314"
         stroke-opacity="1"
         stroke-miterlimit="10"
         d="m 1789.0092,1288.209 -30.7799,28.101"
         id="path44082"
         style="fill:none;stroke:#00fd00;stroke-opacity:1;fill-opacity:1" />
      <path
         fill="none"
         stroke-width="0.44304"
         stroke-linecap="butt"
         stroke-linejoin="round"
         stroke="#121314"
         stroke-opacity="1"
         stroke-miterlimit="10"
         d="M 1791.2121,1291.3854 1760.8,1319.1223"
         id="path44083"
         style="fill:none;stroke:#00fd00;stroke-opacity:1;fill-opacity:1" />
      <path
         fill="none"
         stroke-width="0.44304"
         stroke-linecap="butt"
         stroke-linejoin="round"
         stroke="#121314"
         stroke-opacity="1"
         stroke-miterlimit="10"
         d="m 1744.9503,1337.8887 c 3.775,0 6.8288,-3.0574 6.8288,-6.8323 0,-3.7677 -3.0538,-6.8252 -6.8288,-6.8252 -3.7713,0 -6.8215,3.0575 -6.8215,6.8252 0,3.7749 3.0502,6.8323 6.8215,6.8323"
         id="path44085"
         style="fill:none;stroke:#00fd00;stroke-opacity:1;fill-opacity:1" />
      <path
         fill="none"
         stroke-width="0.44304"
         stroke-linecap="butt"
         stroke-linejoin="round"
         stroke="#121314"
         stroke-opacity="1"
         stroke-miterlimit="10"
         d="m 1758.2293,1316.31 c -0.393,0.3642 -0.6202,0.8725 -0.6202,1.4061 0,1.0528 0.8545,1.9073 1.9109,1.9073 0.4723,0 0.9302,-0.1802 1.28,-0.5011"
         id="path44086"
         style="fill:none;stroke:#00fd00;stroke-opacity:1;fill-opacity:1" />
      <path
         fill="none"
         stroke-width="0.44304"
         stroke-linecap="butt"
         stroke-linejoin="round"
         stroke="#121314"
         stroke-opacity="1"
         stroke-miterlimit="10"
         d="m 1702.9106,1375.9408 c 3.7713,0 6.8323,-3.0502 6.8323,-6.8251 0,-3.7749 -3.061,-6.8252 -6.8323,-6.8252 -3.7678,0 -6.8288,3.0503 -6.8288,6.8252 0,3.7749 3.061,6.8251 6.8288,6.8251"
         id="path44088"
         style="fill:none;stroke:#00fd00;stroke-opacity:1;fill-opacity:1" />
      <path
         fill="none"
         stroke-width="0.44304"
         stroke-linecap="butt"
         stroke-linejoin="round"
         stroke="#121314"
         stroke-opacity="1"
         stroke-miterlimit="10"
         d="m 1702.9106,1376.8963 c 4.2941,0 7.7806,-3.4829 7.7806,-7.7806 0,-4.2977 -3.4865,-7.7806 -7.7806,-7.7806 -4.2978,0 -7.777,3.4829 -7.777,7.7806 0,4.2977 3.4792,7.7806 7.777,7.7806"
         id="path44089"
         style="fill:none;stroke:#00fd00;stroke-opacity:1;fill-opacity:1" />
      <path
         fill="none"
         stroke-width="0.44304"
         stroke-linecap="butt"
         stroke-linejoin="round"
         stroke="#121314"
         stroke-opacity="1"
         stroke-miterlimit="10"
         d="m 1731.181,1155.8414 c 4.5574,0 8.2566,-3.6992 8.2566,-8.2601 0,-4.5609 -3.6992,-8.2529 -8.2566,-8.2529 -4.5609,0 -8.2637,3.692 -8.2637,8.2529 0,4.5609 3.7028,8.2601 8.2637,8.2601"
         id="path44090"
         style="fill:none;stroke:#00fd00;stroke-opacity:1;fill-opacity:1" />
      <path
         fill="none"
         stroke-width="0.44304"
         stroke-linecap="butt"
         stroke-linejoin="round"
         stroke="#121314"
         stroke-opacity="1"
         stroke-miterlimit="10"
         d="m 1788.5909,1288.483 16.6032,-15.2079"
         id="path44093"
         style="fill:none;stroke:#00fd00;stroke-opacity:1;fill-opacity:1" />
      <path
         fill="none"
         stroke-width="0.44304"
         stroke-linecap="butt"
         stroke-linejoin="round"
         stroke="#121314"
         stroke-opacity="1"
         stroke-miterlimit="10"
         d="m 1778.4343,992.94633 c 0.2055,-1.1213 0.3029,-2.25702 0.3029,-3.40356 0,-10.69383 -8.6676,-19.36859 -19.3722,-19.36859 -9.385,0 -17.4216,6.73141 -19.0657,15.97223"
         id="path44096"
         style="fill:none;stroke:#00fd00;stroke-opacity:1;fill-opacity:1" />
      <path
         fill="none"
         stroke-width="0.44304"
         stroke-linecap="butt"
         stroke-linejoin="round"
         stroke="#121314"
         stroke-opacity="1"
         stroke-miterlimit="10"
         d="m 1764.9066,966.75981 c 4.5573,0 8.2565,-3.69922 8.2565,-8.25653 0,-4.56091 -3.6992,-8.25652 -8.2565,-8.25652 -4.5609,0 -8.2565,3.69561 -8.2565,8.25652 0,4.55731 3.6956,8.25653 8.2565,8.25653"
         id="path44097"
         style="fill:none;stroke:#1a1a1a;stroke-opacity:1;fill-opacity:1" />
      <path
         fill="none"
         stroke-width="0.44304"
         stroke-linecap="butt"
         stroke-linejoin="round"
         stroke="#121314"
         stroke-opacity="1"
         stroke-miterlimit="10"
         d="m 1717.6461,1113.1346 22.6532,-126.98819"
         id="path44098"
         style="fill:none;stroke:#00fd00;stroke-opacity:1;fill-opacity:1" />
      <path
         fill="none"
         stroke-width="0.44304"
         stroke-linecap="butt"
         stroke-linejoin="round"
         stroke="#121314"
         stroke-opacity="1"
         stroke-miterlimit="10"
         d="m 1789.2255,894.9569 c 3.7713,0 6.8287,-3.05744 6.8287,-6.82515 0,-3.77493 -3.0574,-6.82876 -6.8287,-6.82876 -3.7677,0 -6.8288,3.05383 -6.8288,6.82876 0,3.76771 3.0611,6.82515 6.8288,6.82515"
         id="path44099"
         style="fill:none;stroke:#1a1a1a;stroke-opacity:1;fill-opacity:1" />
      <path
         fill="none"
         stroke-width="0.44304"
         stroke-linecap="butt"
         stroke-linejoin="round"
         stroke="#121314"
         stroke-opacity="1"
         stroke-miterlimit="10"
         d="m 1789.2255,895.91234 c 4.2941,0 7.7806,-3.48648 7.7806,-7.78059 0,-4.30133 -3.4865,-7.7806 -7.7806,-7.7806 -4.2977,0 -7.7806,3.47927 -7.7806,7.7806 0,4.29411 3.4829,7.78059 7.7806,7.78059"
         id="path44100"
         style="fill:none;stroke:#1a1a1a;stroke-opacity:1;fill-opacity:1" />
      <path
         fill="none"
         stroke-width="0.44304"
         stroke-linecap="butt"
         stroke-linejoin="round"
         stroke="#121314"
         stroke-opacity="1"
         stroke-miterlimit="10"
         d="M 1870.7776,1119.0332 V 990.03672"
         id="path44103"
         style="fill:none;stroke:#00fd00;stroke-opacity:1;fill-opacity:1" />
      <path
         fill="none"
         stroke-width="0.44304"
         stroke-linecap="butt"
         stroke-linejoin="round"
         stroke="#121314"
         stroke-opacity="1"
         stroke-miterlimit="10"
         d="m 1755.7848,1119.9381 22.6495,-126.99177"
         id="path44104"
         style="fill:none;stroke:#00fd00;stroke-opacity:1;fill-opacity:1" />
      <path
         fill="none"
         stroke-width="0.44304"
         stroke-linecap="butt"
         stroke-linejoin="round"
         stroke="#121314"
         stroke-opacity="1"
         stroke-miterlimit="10"
         d="m 1717.6461,1113.1346 c -0.1983,1.1213 -0.3028,2.2607 -0.3028,3.4036 0,10.6974 8.6747,19.3722 19.3721,19.3722 9.3851,0 17.4217,-6.7314 19.0694,-15.9723"
         id="path44105"
         style="fill:none;stroke:#00fd00;stroke-opacity:1;fill-opacity:1" />
      <path
         fill="none"
         stroke-width="0.44304"
         stroke-linecap="butt"
         stroke-linejoin="round"
         stroke="#121314"
         stroke-opacity="1"
         stroke-miterlimit="10"
         d="m 1909.5219,990.03672 c 0,-10.69743 -8.6747,-19.37219 -19.3721,-19.37219 -10.7011,0 -19.3722,8.67476 -19.3722,19.37219"
         id="path44106"
         style="fill:none;stroke:#00fd00;stroke-opacity:1;fill-opacity:1" />
      <path
         fill="none"
         stroke-width="0.44304"
         stroke-linecap="butt"
         stroke-linejoin="round"
         stroke="#121314"
         stroke-opacity="1"
         stroke-miterlimit="10"
         d="m 1890.1498,966.75981 c 4.5573,0 8.2565,-3.69922 8.2565,-8.25653 0,-4.56091 -3.6992,-8.25652 -8.2565,-8.25652 -4.561,0 -8.2566,3.69561 -8.2566,8.25652 0,4.55731 3.6956,8.25653 8.2566,8.25653"
         id="path44108"
         style="fill:none;stroke:#1a1a1a;stroke-opacity:1;fill-opacity:1" />
      <path
         fill="none"
         stroke-width="0.44304"
         stroke-linecap="butt"
         stroke-linejoin="round"
         stroke="#121314"
         stroke-opacity="1"
         stroke-miterlimit="10"
         d="m 1870.7776,1119.0332 c 0,10.6974 8.6711,19.3686 19.3722,19.3686 10.6974,0 19.3721,-8.6712 19.3721,-19.3686"
         id="path44110"
         style="fill:none;stroke:#00fd00;stroke-opacity:1;fill-opacity:1" />
      <path
         fill="none"
         stroke-width="0.44304"
         stroke-linecap="butt"
         stroke-linejoin="round"
         stroke="#121314"
         stroke-opacity="1"
         stroke-miterlimit="10"
         d="m 1890.1498,1158.8231 c 4.5573,0 8.2565,-3.6992 8.2565,-8.2565 0,-4.5609 -3.6992,-8.2565 -8.2565,-8.2565 -4.561,0 -8.2566,3.6956 -8.2566,8.2565 0,4.5573 3.6956,8.2565 8.2566,8.2565"
         id="path44111"
         style="fill:none;stroke:#00fd00;stroke-opacity:1;fill-opacity:1" />
      <path
         fill="none"
         stroke-width="0.44304"
         stroke-linecap="butt"
         stroke-linejoin="round"
         stroke="#121314"
         stroke-opacity="1"
         stroke-miterlimit="10"
         d="m 2116.6201,1124.2719 h 0.2415"
         id="path44121"
         sodipodi:nodetypes="cc"
         style="fill:none;stroke:#00fd00;stroke-opacity:1;fill-opacity:1" />
      <path
         fill="none"
         stroke-width="0.44304"
         stroke-linecap="butt"
         stroke-linejoin="round"
         stroke="#121314"
         stroke-opacity="1"
         stroke-miterlimit="10"
         d="m 1657.4997,1170.22 c 3.7677,0 6.8287,-3.0502 6.8287,-6.8251 0,-3.7678 -3.061,-6.8252 -6.8287,-6.8252 -3.7713,0 -6.8288,3.0574 -6.8288,6.8252 0,3.7749 3.0575,6.8251 6.8288,6.8251"
         id="path44134"
         style="fill:none;stroke:#00fd00;stroke-opacity:1;fill-opacity:1" />
      <path
         fill="none"
         stroke-width="0.44304"
         stroke-linecap="butt"
         stroke-linejoin="round"
         stroke="#121314"
         stroke-opacity="1"
         stroke-miterlimit="10"
         d="m 1657.4997,1171.1755 c 4.2977,0 7.7806,-3.4829 7.7806,-7.7806 0,-4.2942 -3.4829,-7.7806 -7.7806,-7.7806 -4.2941,0 -7.7806,3.4864 -7.7806,7.7806 0,4.2977 3.4865,7.7806 7.7806,7.7806"
         id="path44135"
         style="fill:none;stroke:#00fd00;stroke-opacity:1;fill-opacity:1" />
      <path
         fill="none"
         stroke-width="0.44304"
         stroke-linecap="butt"
         stroke-linejoin="round"
         stroke="#121314"
         stroke-opacity="1"
         stroke-miterlimit="10"
         d="m 1563.5628,1401.6659 c 3.7713,0 6.8288,-3.0575 6.8288,-6.8288 0,-3.7713 -3.0575,-6.8287 -6.8288,-6.8287 -3.7677,0 -6.8288,3.0574 -6.8288,6.8287 0,3.7713 3.0611,6.8288 6.8288,6.8288"
         id="path44148"
         style="fill:none;stroke:#00fd00;stroke-opacity:1;fill-opacity:1" />
      <path
         fill="none"
         stroke-width="0.44304"
         stroke-linecap="butt"
         stroke-linejoin="round"
         stroke="#121314"
         stroke-opacity="1"
         stroke-miterlimit="10"
         d="m 1563.5628,1402.6177 c 4.3013,0 7.7806,-3.4793 7.7806,-7.7806 0,-4.2941 -3.4793,-7.7806 -7.7806,-7.7806 -4.3013,0 -7.7806,3.4865 -7.7806,7.7806 0,4.3013 3.4793,7.7806 7.7806,7.7806"
         id="path44149"
         style="fill:none;stroke:#00fd00;stroke-opacity:1;fill-opacity:1" />
      <path
         fill="none"
         stroke-width="0.44304"
         stroke-linecap="butt"
         stroke-linejoin="round"
         stroke="#121314"
         stroke-opacity="1"
         stroke-miterlimit="10"
         d="m 1660.8672,937.06517 c 3.7713,0 6.8251,-3.05383 6.8251,-6.82876 0,-3.76772 -3.0538,-6.82515 -6.8251,-6.82515 -3.7749,0 -6.8288,3.05743 -6.8288,6.82515 0,3.77493 3.0539,6.82876 6.8288,6.82876"
         id="path44163"
         style="fill:none;stroke:#00fd00;stroke-opacity:1;fill-opacity:1" />
      <path
         fill="none"
         stroke-width="0.44304"
         stroke-linecap="butt"
         stroke-linejoin="round"
         stroke="#121314"
         stroke-opacity="1"
         stroke-miterlimit="10"
         d="m 1660.8672,938.01701 c 4.2941,0 7.7806,-4.11279 7.7806,-7.7806 0,-3.66781 -3.4865,-7.7806 -7.7806,-7.7806 -4.2977,0 -7.777,3.4901 -7.777,7.7806 0,4.30132 3.4793,7.7806 7.777,7.7806"
         id="path44167"
         style="fill:#800080;fill-opacity:1;stroke:#1a1a1a;stroke-opacity:1"
         sodipodi:nodetypes="cassc" />
      <path
         fill="none"
         stroke-width="0.946075"
         stroke-linecap="butt"
         stroke-linejoin="miter"
         stroke="#e3652e"
         stroke-opacity="1"
         stroke-miterlimit="10"
         d="m 1725.25,1181.6349 h 0.9014 l 1.3449,0.3462 0.8797,0.2271 1.2258,0.6706 0.8005,0.4399 1.0347,0.959 0.6779,0.6274 0.7859,1.1898 0.512,0.7788 0.494,1.352 0.3209,0.8834 0.1658,1.4385 0.1082,0.9375 -0.1659,1.4386 -0.1081,0.9374 -0.4904,1.352 -0.3245,0.8834 -0.7824,1.1934 -0.5155,0.7788 -1.0348,0.959 -0.6778,0.6274 -1.2259,0.6742 -0.8004,0.4362 -1.3449,0.3462 -0.8797,0.2271 h -2.2859 l -1.3448,-0.3461 -0.8761,-0.2272 -1.2295,-0.6706 -0.8004,-0.4398 -1.0348,-0.9591 -0.6778,-0.6273 -0.786,-1.1935 -0.512,-0.7787 -0.4939,-1.3521 -0.3173,-0.8833 -0.1695,-1.435 -0.1081,-0.941 0.1658,-1.435 0.1118,-0.941 0.4903,-1.3521 0.3209,-0.8833 0.786,-1.1898 0.512,-0.7788 1.0384,-0.9591 0.6742,-0.6273 1.2259,-0.6742 0.804,-0.4363 1.3412,-0.3497 0.8797,-0.2236 z m 0,0"
         id="path44177"
         style="fill:none;stroke:#00fd00;stroke-opacity:1;fill-opacity:1" />
      <path
         fill="none"
         stroke-width="0.946075"
         stroke-linecap="butt"
         stroke-linejoin="miter"
         stroke="#e3652e"
         stroke-opacity="1"
         stroke-miterlimit="10"
         d="m 1673.9586,1279.5378 h 0.905 l 1.3449,0.3462 0.8761,0.2271 1.2258,0.6706 0.8005,0.4435 1.0347,0.9554 0.6779,0.6274 0.786,1.1934 0.5155,0.7788 0.4904,1.352 0.3209,0.8834 0.1658,1.4385 0.1082,0.9375 -0.1659,1.435 -0.1081,0.941 -0.4904,1.352 -0.3209,0.8834 -0.786,1.1898 -0.5155,0.7788 -1.0348,0.9626 -0.6778,0.6238 -1.2259,0.6742 -0.8004,0.4399 -1.3449,0.3461 -0.8761,0.2271 h -2.2895 l -1.3448,-0.3461 -0.8797,-0.2271 -1.2223,-0.6743 -0.8004,-0.4398 -1.0384,-0.9591 -0.6778,-0.6273 -0.786,-1.1899 -0.512,-0.7787 -0.4903,-1.3521 -0.3209,-0.8833 -0.1695,-1.4386 -0.1081,-0.9374 0.1658,-1.4386 0.1118,-0.9374 0.4903,-1.3521 0.3209,-0.8833 0.786,-1.1934 0.512,-0.7788 1.0384,-0.9591 0.6778,-0.6237 1.2223,-0.6742 0.8004,-0.4399 1.3448,-0.3461 0.8797,-0.2272 z m 0,0"
         id="path44178"
         style="fill:none;stroke:#00fd00;stroke-opacity:1;fill-opacity:1" />
      <path
         fill="none"
         stroke-width="0.946075"
         stroke-linecap="butt"
         stroke-linejoin="miter"
         stroke="#e3652e"
         stroke-opacity="1"
         stroke-miterlimit="10"
         d="m 1601.3842,1362.3627 h 0.9049 l 1.3449,0.3461 0.8761,0.2271 1.2259,0.6706 0.8004,0.4435 1.0348,0.9591 0.6778,0.6273 0.786,1.1898 0.5119,0.7788 0.494,1.3521 0.3209,0.8833 0.1658,1.4386 0.1082,0.9374 -0.1659,1.435 -0.1081,0.941 -0.4904,1.3521 -0.3245,0.8833 -0.7823,1.1934 -0.5156,0.7752 -1.0348,0.9626 -0.6778,0.6238 -1.2259,0.6742 -0.8004,0.4399 -1.3448,0.3461 -0.8762,0.2235 h -1.3845 -0.9049 l -1.3449,-0.3425 -0.8797,-0.2271 -1.2223,-0.6742 -0.8004,-0.4399 -1.0384,-0.9555 -0.6778,-0.6309 -0.786,-1.1898 -0.5119,-0.7788 -0.4904,-1.3521 -0.3209,-0.8833 -0.1694,-1.4386 -0.1082,-0.9374 0.1659,-1.435 0.1117,-0.941 0.4904,-1.3521 0.3209,-0.8833 0.7859,-1.1934 0.512,-0.7752 1.0384,-0.9626 0.6778,-0.6238 1.2223,-0.6742 0.8004,-0.4399 1.3448,-0.3461 0.8798,-0.2271 z m 0,0"
         id="path44179"
         style="fill:none;stroke:#00fd00;stroke-opacity:1;fill-opacity:1" />
      <path
         fill="none"
         stroke-width="0.44304"
         stroke-linecap="butt"
         stroke-linejoin="round"
         stroke="#121314"
         stroke-opacity="1"
         stroke-miterlimit="10"
         d="m 2039.9534,965.44021 c 3.7713,0 6.8287,-3.06105 6.8287,-6.82876 0,-3.77132 -3.0574,-6.82876 -6.8287,-6.82876 -3.7677,0 -6.8288,3.05744 -6.8288,6.82876 0,3.76771 3.0611,6.82876 6.8288,6.82876"
         id="path44180"
         style="fill:none;stroke:#00fd00;stroke-opacity:1;fill-opacity:1" />
      <path
         fill="none"
         stroke-width="0.44304"
         stroke-linecap="butt"
         stroke-linejoin="round"
         stroke="#121314"
         stroke-opacity="1"
         stroke-miterlimit="10"
         d="m 1890.3877,965.28517 c 3.7677,0 6.8288,-3.06104 6.8288,-6.83236 0,-3.76772 -3.0611,-6.82876 -6.8288,-6.82876 -3.7713,0 -6.8287,3.06104 -6.8287,6.82876 0,3.77132 3.0574,6.83236 6.8287,6.83236"
         id="path44181"
         style="fill:none;stroke:#1a1a1a;stroke-opacity:1;fill-opacity:1" />
      <path
         fill="none"
         stroke-width="0.44304"
         stroke-linecap="butt"
         stroke-linejoin="round"
         stroke="#121314"
         stroke-opacity="1"
         stroke-miterlimit="10"
         d="m 1764.9499,965.44021 c 3.7713,0 6.8323,-3.06105 6.8323,-6.82876 0,-3.77132 -3.061,-6.82876 -6.8323,-6.82876 -3.7678,0 -6.8288,3.05744 -6.8288,6.82876 0,3.76771 3.061,6.82876 6.8288,6.82876"
         id="path44182"
         style="fill:none;stroke:#1a1a1a;stroke-opacity:1;fill-opacity:1" />
      <path
         fill="none"
         stroke-width="0.44304"
         stroke-linecap="butt"
         stroke-linejoin="round"
         stroke="#121314"
         stroke-opacity="1"
         stroke-miterlimit="10"
         d="m 1731.282,1154.3956 c 3.7677,0 6.8288,-3.0502 6.8288,-6.8251 0,-3.7678 -3.0611,-6.8252 -6.8288,-6.8252 -3.7713,0 -6.8288,3.0574 -6.8288,6.8252 0,3.7749 3.0575,6.8251 6.8288,6.8251"
         id="path44183"
         style="fill:none;stroke:#00fd00;stroke-opacity:1;fill-opacity:1" />
      <path
         fill="none"
         stroke-width="0.44304"
         stroke-linecap="butt"
         stroke-linejoin="round"
         stroke="#121314"
         stroke-opacity="1"
         stroke-miterlimit="10"
         d="m 1890.2327,1157.4458 c 3.7713,0 6.8287,-3.0502 6.8287,-6.8251 0,-3.7677 -3.0574,-6.8252 -6.8287,-6.8252 -3.7677,0 -6.8288,3.0575 -6.8288,6.8252 0,3.7749 3.0611,6.8251 6.8288,6.8251"
         id="path44184"
         style="fill:none;stroke:#00fd00;stroke-opacity:1;fill-opacity:1" />
      <path
         fill="none"
         stroke-width="0.44304"
         stroke-linecap="butt"
         stroke-linejoin="round"
         stroke="#121314"
         stroke-opacity="1"
         stroke-miterlimit="10"
         d="m 2040.505,1157.4458 c 3.7677,0 6.8288,-3.0502 6.8288,-6.8251 0,-3.7677 -3.0611,-6.8252 -6.8288,-6.8252 -3.7713,0 -6.8287,3.0575 -6.8287,6.8252 0,3.7749 3.0574,6.8251 6.8287,6.8251"
         id="path44185"
         style="fill:none;stroke:#00fd00;stroke-opacity:1;fill-opacity:1" />
      <path
         fill="none"
         stroke-width="0.44304"
         stroke-linecap="butt"
         stroke-linejoin="round"
         stroke="#121314"
         stroke-opacity="1"
         stroke-miterlimit="10"
         d="m 1744.8818,1338.9163 c 4.2941,0 7.7842,-3.4829 7.7842,-7.7806 0,-4.2977 -3.4901,-7.7806 -7.7842,-7.7806 -4.2977,0 -7.777,3.4829 -7.777,7.7806 0,4.2977 3.4793,7.7806 7.777,7.7806"
         id="path44186"
         style="fill:none;stroke:#00fd00;stroke-opacity:1;fill-opacity:1" />
      <path
         fill="none"
         stroke-width="0.44304"
         stroke-linecap="butt"
         stroke-linejoin="round"
         stroke="#121314"
         stroke-opacity="1"
         stroke-miterlimit="10"
         d="m 1821.0401,1269.0351 c 4.2941,0 7.7806,-3.4829 7.7806,-7.7806 0,-4.2941 -3.4865,-7.777 -7.7806,-7.777 -4.2977,0 -7.7806,3.4829 -7.7806,7.777 0,4.2977 3.4829,7.7806 7.7806,7.7806"
         id="path44187"
         style="fill:none;stroke:#00fd00;stroke-opacity:1;fill-opacity:1" />
    </g>
    <path
       style="fill:none;fill-opacity:1;fill-rule:evenodd;stroke:#4300ff;stroke-width:0.692249;stroke-dasharray:none;stroke-opacity:1"
       d="m 100.82285,136.97116 c -2.062879,-0.73486 -3.187065,-1.66828 -4.233812,-3.51533 l -0.915789,-1.61597 v -27.5024 -27.502401 l 1.102214,-1.782792 c 3.078891,-4.979983 10.079737,-4.686209 12.726207,0.53403 l 1.00736,1.987061 v 26.541272 c 0,19.93942 -0.11206,26.91632 -0.45051,28.04904 -0.63244,2.11664 -3.00121,4.389 -5.13543,4.92639 -2.09251,0.52691 -2.30464,0.52075 -4.10024,-0.1189 z"
       id="path136" />
    <path
       style="fill:none;fill-opacity:1;fill-rule:evenodd;stroke:#4300ff;stroke-width:0.692249;stroke-dasharray:none;stroke-opacity:1"
       d="m 160.19508,137.00049 c -1.81666,-0.67244 -3.44291,-2.20818 -4.30106,-4.06169 -0.6407,-1.38386 -0.67884,-2.96686 -0.68644,-28.4928 -0.008,-29.217359 -0.0556,-28.474793 1.9326,-30.606241 1.92111,-2.059551 5.23632,-2.848511 8.05732,-1.917497 1.40628,0.464115 3.73353,2.778353 4.3047,4.280617 0.21108,0.555199 0.34996,11.790766 0.34996,28.312701 v 27.3922 l -0.85265,1.61447 c -1.58591,3.00284 -5.69896,4.62773 -8.80443,3.47824 z"
       id="path137" />
    <path
       style="fill:none;fill-opacity:1;fill-rule:evenodd;stroke:#4300ff;stroke-width:0.692249;stroke-dasharray:none;stroke-opacity:1"
       d="m 39.257501,135.73563 c -1.870177,-0.84961 -3.682597,-2.90851 -4.26165,-4.84122 -0.415351,-1.38631 -0.07774,-3.61006 4.213732,-27.75448 3.507725,-19.734963 4.870353,-26.655588 5.491858,-27.892486 1.086471,-2.162251 3.181605,-3.615912 5.629378,-3.905815 3.755412,-0.444773 7.506437,2.418446 8.011,6.114929 0.291144,2.132957 -8.705626,52.908662 -9.727808,54.901512 -1.810431,3.52964 -5.828744,4.98019 -9.35651,3.37756 z"
       id="path138" />
    <path
       style="fill:none;fill-opacity:1;fill-rule:evenodd;stroke:#4300ff;stroke-width:0.692249;stroke-dasharray:none;stroke-opacity:1"
       d="m 51.558804,67.685221 c -0.41757,-0.530854 -0.759218,-1.197717 -0.759218,-1.481913 0,-0.75862 1.685447,-2.315 2.506976,-2.315 1.122442,0 2.346705,1.212285 2.346705,2.323746 0,2.315095 -2.675107,3.277586 -4.094463,1.473167 z"
       id="path139" />
    <path
       style="fill:none;fill-opacity:1;fill-rule:evenodd;stroke:#4300ff;stroke-width:0.692249;stroke-dasharray:none;stroke-opacity:1"
       d="m 101.37773,67.685221 c -0.94984,-1.207523 -0.94984,-1.624199 0,-2.831723 1.39799,-1.777256 4.00288,-0.855878 4.00288,1.415861 0,2.27174 -2.60489,3.193119 -4.00288,1.415862 z"
       id="path140" />
    <path
       style="fill:none;fill-opacity:1;fill-rule:evenodd;stroke:#4300ff;stroke-width:0.692249;stroke-dasharray:none;stroke-opacity:1"
       d="m 160.92759,68.098769 c -0.91062,-0.91062 -1.07146,-1.98013 -0.44222,-2.940476 1.31848,-2.012247 4.23837,-1.280106 4.23837,1.062737 0,0.713679 -0.27701,1.467579 -0.66989,1.823133 -0.83573,0.756331 -2.39726,0.783604 -3.12626,0.05461 z"
       id="path141" />
    <path
       style="fill:none;fill-opacity:1;fill-rule:evenodd;stroke:#4300ff;stroke-width:0.692249;stroke-dasharray:none;stroke-opacity:1"
       d="m 160.8982,144.02992 c -0.31363,-0.44778 -0.57025,-1.16083 -0.57025,-1.58456 0,-0.95824 1.44618,-2.3634 2.43239,-2.3634 0.95633,0 2.32972,1.47155 2.32972,2.49624 0,2.00393 -3.06226,3.06445 -4.19186,1.45172 z"
       id="path142" />
    <path
       style="fill:none;fill-opacity:1;fill-rule:evenodd;stroke:#4300ff;stroke-width:0.692249;stroke-dasharray:none;stroke-opacity:1"
       d="m 180.5019,140.94834 c -0.41756,-0.53085 -0.75921,-1.36256 -0.75921,-1.84822 0,-1.16483 1.55384,-2.68132 2.74736,-2.68132 1.27691,0 2.74737,1.5254 2.74737,2.85002 0,2.40657 -3.25542,3.56115 -4.73552,1.67952 z m 3.47007,-0.30026 c 1.04774,-1.04774 1.11122,-1.56556 0.32889,-2.68251 -0.63581,-0.90775 -2.63196,-1.12856 -3.38596,-0.37456 -0.75401,0.754 -0.53319,2.75016 0.37455,3.38596 1.11695,0.78234 1.63477,0.71886 2.68252,-0.32889 z"
       id="path143" />
    <path
       style="fill:none;fill-opacity:1;fill-rule:evenodd;stroke:#4300ff;stroke-width:0.692249;stroke-dasharray:none;stroke-opacity:1"
       d="m 212.14496,60.791276 c -0.49452,-0.494526 -0.89913,-1.236315 -0.89913,-1.648421 0,-1.074311 1.29103,-2.214544 2.50743,-2.214544 2.05344,0 3.01249,2.539022 1.52204,4.029472 -0.98002,0.98001 -2.04021,0.923617 -3.13034,-0.166507 z"
       id="path144" />
    <path
       style="fill:none;fill-opacity:1;fill-rule:evenodd;stroke:#4300ff;stroke-width:0.346125;stroke-dasharray:none;stroke-opacity:1"
       d="m 61.864387,40.555661 c -0.903371,-0.550871 -1.357525,-1.255555 -1.356752,-2.105199 0.0015,-1.445671 1.074455,-2.554773 2.471945,-2.554773 2.669452,0 3.383526,3.493573 0.970674,4.74898 -0.678098,0.352814 -1.412733,0.321466 -2.085867,-0.08901 z"
       id="path145" />
    <path
       style="fill:none;fill-opacity:1;fill-rule:evenodd;stroke:#4300ff;stroke-width:0.346125;stroke-dasharray:none;stroke-opacity:1"
       d="m 112.09175,57.038593 c -2.13373,-1.406745 -1.26188,-4.597648 1.25622,-4.597648 1.93555,0 3.12485,2.133359 2.11374,3.791632 -0.67921,1.113935 -2.31094,1.504209 -3.36996,0.806016 z"
       id="path146" />
    <path
       style="fill:none;fill-opacity:1;fill-rule:evenodd;stroke:#4300ff;stroke-width:0.346125;stroke-dasharray:none;stroke-opacity:1"
       d="m 10.742705,57.210463 c -1.5711862,-0.95801 -1.5063189,-3.466239 0.111283,-4.302731 1.768477,-0.914515 3.889415,0.53201 3.628818,2.474926 -0.238907,1.781171 -2.224847,2.751709 -3.740101,1.827805 z"
       id="path147" />
    <path
       style="fill:none;fill-opacity:1;fill-rule:evenodd;stroke:#4300ff;stroke-width:0.346125;stroke-dasharray:none;stroke-opacity:1"
       d="m 36.055382,162.05741 c -0.860395,-0.43213 -1.688063,-1.48916 -1.918647,-2.45034 -0.740794,-3.08798 2.526482,-5.55173 5.153232,-3.88589 2.908887,1.84475 1.639163,6.61747 -1.759392,6.61332 -0.509145,-7.3e-4 -1.172982,-0.12531 -1.475193,-0.27709 z"
       id="path148" />
    <path
       style="fill:none;fill-opacity:1;fill-rule:evenodd;stroke:#4300ff;stroke-width:0.346125;stroke-dasharray:none;stroke-opacity:1"
       d="m 38.766912,143.47843 c -1.231868,-0.75111 -1.632548,-2.08961 -0.975487,-3.25869 0.520168,-0.92552 1.216831,-1.32831 2.297448,-1.32831 0.755361,0 0.950284,0.087 1.559177,0.69589 0.887815,0.88782 1.082188,1.7602 0.607799,2.72794 -0.677094,1.38123 -2.263769,1.91021 -3.488937,1.16317 z"
       id="path149" />
    <path
       style="fill:none;fill-opacity:1;fill-rule:evenodd;stroke:#4300ff;stroke-width:0.346125;stroke-dasharray:none;stroke-opacity:1"
       d="m 9.0332494,149.36816 c -0.8878135,-0.88781 -1.0821879,-1.7602 -0.6077982,-2.72793 0.974949,-1.98884 3.5501988,-1.98884 4.5251478,0 0.47439,0.96773 0.280016,1.84012 -0.607798,2.72793 -0.628521,0.62853 -0.788725,0.6959 -1.654776,0.6959 -0.8660505,0 -1.0262586,-0.0674 -1.6547756,-0.6959 z"
       id="path150" />
    <path
       style="fill:none;fill-opacity:1;fill-rule:evenodd;stroke:#4300ff;stroke-width:0.346125;stroke-dasharray:none;stroke-opacity:1"
       d="m 27.410066,231.39354 c -1.571186,-0.95801 -1.506319,-3.46624 0.111283,-4.30273 1.648296,-0.85237 3.677757,0.30601 3.679666,2.10027 0.0022,1.94185 -2.159116,3.19744 -3.790949,2.20246 z"
       id="path151" />
    <path
       style="fill:none;fill-opacity:1;fill-rule:evenodd;stroke:#4300ff;stroke-width:0.346125;stroke-dasharray:none;stroke-opacity:1"
       d="m 16.091181,201.07898 c -1.326026,-0.47989 -2.46788,-2.09866 -2.471609,-3.50393 -0.0029,-1.15934 0.929618,-2.63374 2.017029,-3.1885 1.365892,-0.69682 2.93709,-0.38649 3.96384,0.78292 0.737836,0.84035 1.042218,1.78393 0.935097,2.89878 -0.21002,2.18571 -2.478242,3.72227 -4.444357,3.01073 z"
       id="path152" />
    <path
       style="fill:none;fill-opacity:1;fill-rule:evenodd;stroke:#4300ff;stroke-width:0.346125;stroke-dasharray:none;stroke-opacity:1"
       d="m -13.127021,233.72139 c -1.785705,-0.90319 -2.524392,-3.16735 -1.598463,-4.89948 1.003154,-1.87659 3.186935,-2.50376 4.8476972,-1.39224 0.8716387,0.58337 1.7005573,2.02508 1.7005573,2.95771 0,1.39267 -0.899277,2.85723 -2.0850525,3.39571 -1.004631,0.45622 -1.877929,0.43741 -2.864739,-0.0616 z"
       id="path153" />
    <path
       style="fill:none;fill-opacity:1;fill-rule:evenodd;stroke:#4300ff;stroke-width:0.346125;stroke-dasharray:none;stroke-opacity:1"
       d="m -27.683536,241.6685 c -0.901907,-0.5571 -1.238598,-1.06339 -1.325135,-1.99263 -0.06516,-0.6997 0.0042,-0.99843 0.350885,-1.5129 1.490062,-2.21074 4.717956,-1.12031 4.490756,1.51702 -0.154568,1.79423 -2.073923,2.87959 -3.516506,1.98851 z"
       id="path154" />
    <path
       style="fill:none;fill-opacity:1;fill-rule:evenodd;stroke:#4300ff;stroke-width:0.346125;stroke-dasharray:none;stroke-opacity:1"
       d="m 44.392715,216.42174 c -1.938791,-1.00161 -1.909106,-3.55341 0.05252,-4.51502 0.910166,-0.44618 1.787548,-0.28013 2.637964,0.49921 2.004269,1.83678 -0.287379,5.25729 -2.690482,4.01581 z"
       id="path155" />
    <path
       style="fill:none;fill-opacity:1;fill-rule:evenodd;stroke:#4300ff;stroke-width:0.346125;stroke-dasharray:none;stroke-opacity:1"
       d="m 77.038081,209.29892 c -1.346734,-0.68615 -1.778345,-2.6265 -0.833903,-3.7489 0.950132,-1.12916 2.242068,-1.31971 3.399735,-0.5014 1.874287,1.32483 1.052421,4.20115 -1.277888,4.47228 -0.429249,0.0499 -0.920375,-0.0347 -1.287944,-0.22198 z"
       id="path156" />
    <path
       style="fill:none;fill-opacity:1;fill-rule:evenodd;stroke:#4300ff;stroke-width:0.346125;stroke-dasharray:none;stroke-opacity:1"
       d="m 74.910945,188.89024 c -1.479439,-0.44869 -2.237752,-2.34704 -1.462079,-3.66015 0.373067,-0.63155 1.486871,-1.28207 2.193542,-1.28115 0.703853,9.2e-4 1.636837,0.59481 2.082365,1.32554 1.139248,1.86851 -0.715678,4.25208 -2.813828,3.61576 z"
       id="path157" />
    <path
       style="fill:none;fill-opacity:1;fill-rule:evenodd;stroke:#4300ff;stroke-width:0.346125;stroke-dasharray:none;stroke-opacity:1"
       d="m 102.16627,144.86989 c -0.94401,-0.42593 -1.54776,-1.30569 -1.54776,-2.25531 0,-1.08636 0.45202,-1.81172 1.4215,-2.28103 1.25982,-0.60987 2.59267,-0.14717 3.25268,1.12917 1.01267,1.95827 -1.13948,4.30369 -3.12642,3.40717 z"
       id="path158" />
    <path
       style="fill:none;fill-opacity:1;fill-rule:evenodd;stroke:#4300ff;stroke-width:0.346125;stroke-dasharray:none;stroke-opacity:1"
       d="m 170.02896,215.85445 c -1.23937,-1.23937 -1.08848,-2.87409 0.35397,-3.83485 2.04876,-1.36459 4.59807,0.88606 3.52185,3.10925 -0.47507,0.98136 -1.19236,1.42149 -2.31664,1.42149 -0.75537,0 -0.95028,-0.087 -1.55918,-0.69589 z"
       id="path159" />
    <path
       style="fill:none;fill-opacity:1;fill-rule:evenodd;stroke:#4300ff;stroke-width:0.346125;stroke-dasharray:none;stroke-opacity:1"
       d="m 229.79416,222.87248 c -0.81917,-0.35613 -1.32997,-1.26195 -1.33082,-2.36 -9.2e-4,-1.3059 1.00714,-2.31404 2.31303,-2.31303 1.10516,7.4e-4 1.91324,0.4641 2.32569,1.33326 0.40363,0.85062 0.38529,1.55563 -0.0594,2.28509 -0.72192,1.18405 -1.99788,1.59832 -3.24843,1.05468 z"
       id="path160" />
    <path
       style="fill:none;fill-opacity:1;fill-rule:evenodd;stroke:#4300ff;stroke-width:0.173063;stroke-dasharray:none;stroke-opacity:1"
       d="m 50.714652,209.21168 c -0.206313,-0.26228 -0.218328,-0.31044 -0.132951,-0.53293 0.03128,-0.0815 2.823282,-2.67828 6.204471,-5.77065 3.381189,-3.09238 7.589986,-6.94888 9.35288,-8.57002 1.762894,-1.62114 3.298229,-3.00943 3.411853,-3.08509 0.448678,-0.29877 0.999507,0.22956 0.791036,0.7587 -0.08999,0.22843 -2.155507,2.13659 -17.364386,16.04157 -1.684081,1.53969 -1.882921,1.64149 -2.262903,1.15842 z"
       id="path161" />
  </g>
  <g
     inkscape:groupmode="layer"
     id="layer2"
     inkscape:label="perimeter">
    <path
       fill="none"
       stroke-width="0.48"
       stroke-linecap="butt"
       stroke-linejoin="round"
       stroke="#121314"
       stroke-opacity="1"
       stroke-miterlimit="10"
       d="m 1675.7902,1132.8457 -15.8785,15.8785 h -21.6832 c -0.025,2.34 -0.047,4.6799 -0.047,7.0199 0,0.8328 0.01,1.6729 0.01,2.5058 -0.04,2.2462 -0.068,4.4924 -0.068,6.7386 v 1.1465 c 0.01,0.2921 0.01,0.5841 0.01,0.8761 0,20.1366 -1.828,40.2263 -5.4479,60.0311 -3.6703,19.9815 -11.8908,38.8417 -24.0268,55.1258 -8.6495,11.6006 -17.7389,22.8605 -27.2465,33.7562 -8.6928,9.9511 -17.1693,20.0861 -25.4294,30.3905 -6.0716,7.5787 -11.8404,15.399 -17.2774,23.4464 -3.948,5.8625 -6.0572,12.7742 -6.0572,19.8445 0,19.3866 15.5251,35.1966 34.9118,35.5391 h 0.083 c 10.3296,0 20.6305,-1.0745 30.7402,-3.2089 4.8061,-1.0997 9.6266,-2.1092 14.4724,-3.0286 14.3281,-3.4396 28.4687,-7.6147 42.3606,-12.511 9.504,-3.0538 18.9035,-6.4105 28.1912,-10.0556 25.6998,-10.0845 51.1147,-20.8937 76.2052,-32.4024 8.7252,-4.0056 17.3675,-8.1628 25.9341,-12.4821 14.4147,-6.7783 28.9627,-13.2862 43.637,-19.4948 9.5509,-3.6956 19.1631,-7.2289 28.8329,-10.6073 6.9586,-1.8243 13.8775,-3.7749 20.7675,-5.8408 6.9261,-1.7739 13.9424,-3.1512 21.0271,-4.1283 6.1834,-0.6057 12.392,-0.9158 18.6006,-0.9158 7.5787,0 15.1538,0.4507 22.6784,1.3557 11.88,0.7932 23.623,2.9709 34.9947,6.479 8.2493,2.5274 16.4842,5.0909 24.7119,7.6869 7.0451,2.9528 14.1154,5.83 21.211,8.6387 12.8462,5.181 25.6312,10.4955 38.3657,15.9397 11.1554,4.6042 22.5883,8.509 34.2268,11.6854 14.3065,3.8758 28.8077,6.9657 43.4459,9.2768 8.343,1.3773 16.7942,2.066 25.2491,2.066 13.0806,0 26.1108,-1.6513 38.7696,-4.9251 12.9436,-2.6536 25.3753,-7.3479 36.8406,-13.9063 2.8484,-1.6297 5.2244,-3.9732 6.9081,-6.7963 0.7968,-1.3484 1.2259,-2.8952 1.2259,-4.4636 0,-3.5838 -2.1921,-6.8035 -5.5272,-8.1159 -4.9828,-1.0131 -9.9799,-1.9469 -14.9879,-2.7942 -5.5921,-0.8473 -11.159,-1.8027 -16.7078,-2.8591 -7.1929,-1.4603 -14.3534,-3.0899 -21.4669,-4.8891 -8.8406,-2.7077 -17.5154,-5.9274 -25.9774,-9.6554 -12.0892,-5.5957 -23.1976,-13.0987 -32.8999,-22.2313 -9.6411,-8.6676 -17.4757,-19.1595 -23.0534,-30.8628 -5.0909,-9.3454 -8.7288,-19.4155 -10.7984,-29.8533 -2.8123,-9.1399 -4.2436,-18.6511 -4.2436,-28.2128 0,-1.9434 0.061,-3.8867 0.1803,-5.8337 1.3484,-10.5207 3.7532,-20.8864 7.1712,-30.9277 6.1365,-14.0649 18.5321,-42.9988 18.5321,-42.9988 -7.6832,0 -14.2596,-5.4947 -15.6297,-13.0518 -3.3711,-18.6439 -5.0657,-37.551 -5.0657,-56.4977 0,-18.9431 1.6946,-37.8466 5.0657,-56.49051 1.3701,-7.55711 7.9465,-13.05545 15.3431,-13.21405 l 57.39,0.59855 14.9447,-36.26741 c 1.1646,-2.82669 1.7631,-5.85167 1.7631,-8.91272 0,-12.90757 -10.4667,-23.37425 -23.3743,-23.37425 -0.4254,0 -0.8473,0.0108 -1.2655,0.0325 -4.6943,0.26318 -9.3454,1.01311 -13.881,2.23897 -25.8476,6.99821 -52.2577,11.73581 -78.9274,14.16228 -9.504,0.86531 -19.0332,1.29797 -28.5697,1.29797 -6.9261,0 -13.8522,-0.23075 -20.7711,-0.68503 -39.2924,-2.59594 -78.0043,-10.92818 -114.8919,-24.72631 -9.6121,-3.59466 -19.145,-7.42006 -28.5733,-11.4726 -24.0232,-10.42341 -48.8036,-19.01885 -74.1212,-25.72142 -16.7402,-3.88308 -33.8662,-5.84086 -51.0463,-5.84086 -7.5787,0 -15.1537,0.37858 -22.6928,1.13933 -25.0436,1.34123 -49.0452,10.46668 -68.6589,26.1072 -1.0132,0.76797 -2.0047,1.57199 -2.9673,2.40125 -13.2898,11.41851 -21.6761,27.50612 -23.4247,44.93495 -0.3462,3.40356 -0.5192,6.82515 -0.5192,10.24314 0,3.19084 0.1514,6.37807 0.4506,9.55088 h 22.0799 c 8.7721,0 15.8785,7.10999 15.8785,15.87849 v 156.24295"
       id="path44133"
       sodipodi:nodetypes="cccscscscccccscsccccccccccscccccccscccsccccccccsccscsccccsscccsccccsccccscccc"
       style="fill:none;stroke:#ffff00;stroke-opacity:1;fill-opacity:1;stroke-width:1.16283;stroke-dasharray:none"
       transform="matrix(0.396875,0,0,0.396875,-608.03904,-343.7332)" />
  </g>
</svg>
