<?xml version="1.0" encoding="UTF-8" standalone="no"?>
<!-- Created with Inkscape (http://www.inkscape.org/) -->

<svg
   id="svg1"
   width="204.90678mm"
   height="160.30692mm"
   version="1.1"
   viewBox="0 0 204.90678 160.30692"
   sodipodi:docname="pickguard-scour-colors.svg"
   inkscape:version="1.4.3 (0d15f75042, 2025-12-25)"
   xmlns:inkscape="http://www.inkscape.org/namespaces/inkscape"
   xmlns:sodipodi="http://sodipodi.sourceforge.net/DTD/sodipodi-0.dtd"
   xmlns="http://www.w3.org/2000/svg"
   xmlns:svg="http://www.w3.org/2000/svg">
  <defs
     id="defs1" />
  <sodipodi:namedview
     id="namedview1"
     pagecolor="#ffffff"
     bordercolor="#000000"
     borderopacity="0.25"
     inkscape:showpageshadow="2"
     inkscape:pageopacity="0.0"
     inkscape:pagecheckerboard="0"
     inkscape:deskcolor="#d1d1d1"
     inkscape:document-units="mm"
     inkscape:zoom="1.825344"
     inkscape:cx="208.72778"
     inkscape:cy="376.91526"
     inkscape:window-width="1128"
     inkscape:window-height="1269"
     inkscape:window-x="26"
     inkscape:window-y="23"
     inkscape:window-maximized="0"
     inkscape:current-layer="svg1" />
  <g
     id="layer1"
     transform="translate(-0.43989235,-60.458527)">
    <g
       id="svg44187"
       transform="matrix(0.26458,0,0,0.26458,-397.12,-162.53)"
       fill="none"
       stroke-miterlimit="10">
      <path
         id="path44005"
         transform="matrix(1,0,0,-1,1620,1145)"
         d="m 617.91,-205.5 c 6.0781,-1.1562 12.18,-2.1953 18.305,-3.1289"
         stroke="#121314"
         stroke-linejoin="round"
         stroke-width="0.48" />
      <path
         id="path44009"
         transform="matrix(1,0,0,-1,1620,1145)"
         d="m 652.19,-211.61 c -5.3398,1.082 -10.691,2.082 -16.066,2.9961"
         stroke="#121314"
         stroke-linejoin="round"
         stroke-width="0.48" />
      <path
         id="path44010"
         transform="matrix(1,0,0,-1,1620,1145)"
         d="m 653.21,-217.02 c 0.36328,0.61328 0.55078,1.3047 0.55078,2.0195 0,1.6211 -0.99219,3.0781 -2.5,3.6719"
         stroke="#121314"
         stroke-linejoin="round"
         stroke-width="0.48" />
      <path
         id="path44011"
         transform="matrix(1,0,0,-1,1620,1145)"
         d="m 647.72,-222.43 c 2.2617,1.2969 4.1484,3.1562 5.4883,5.4062"
         stroke="#121314"
         stroke-linejoin="round"
         stroke-width="0.48" />
      <path
         id="path44013"
         transform="matrix(1,0,0,-1,1620,1145)"
         d="m 565.32,-189.37 c 9.3633,-4.125 18.965,-7.6914 28.754,-10.688"
         stroke="#121314"
         stroke-linejoin="round"
         stroke-width="0.48" />
      <path
         id="path44015"
         transform="matrix(1,0,0,-1,1620,1145)"
         d="m 528.13,-164.25 c 10.938,-10.297 23.465,-18.762 37.098,-25.07"
         stroke="#121314"
         stroke-linejoin="round"
         stroke-width="0.48" />
      <path
         id="path44017"
         transform="matrix(1,0,0,-1,1620,1145)"
         d="m 542.08,-239.93 c 8.75,-1.4492 17.598,-2.1758 26.461,-2.1758 13.707,0 27.355,1.7383 40.633,5.168"
         stroke="#121314"
         stroke-linejoin="round"
         stroke-width="0.48" />
      <path
         id="path44018"
         transform="matrix(1,0,0,-1,1620,1145)"
         d="m 515.61,22.035 c 0.0742,0 0.13672,0.06641 0.13672,0.14062 0,0.07813 -0.0625,0.13672 -0.13672,0.13672 -0.082,0 -0.14063,-0.05859 -0.14063,-0.13672 0,-0.07422 0.0586,-0.14062 0.14063,-0.14062"
         stroke="#121314"
         stroke-linejoin="round"
         stroke-width="0.48" />
      <path
         id="path44021"
         transform="matrix(1,0,0,-1,1620,1145)"
         d="m 619.25,-226.61 c 4.0898,0 7.3984,3.3086 7.3984,7.3945 0,4.0898 -3.3086,7.3984 -7.3984,7.3984 -4.0859,0 -7.3906,-3.3086 -7.3906,-7.3984 0,-4.0859 3.3047,-7.3945 7.3906,-7.3945"
         stroke="#121314"
         stroke-linejoin="round"
         stroke-width="0.48" />
      <path
         id="path44022"
         transform="matrix(1,0,0,-1,1620,1145)"
         d="m 619.25,-227.64 c 4.6562,0 8.4297,3.7734 8.4297,8.4258 0,4.6562 -3.7734,8.4297 -8.4297,8.4297 -4.6524,0 -8.4297,-3.7734 -8.4297,-8.4297 0,-4.6523 3.7773,-8.4258 8.4297,-8.4258"
         stroke="#121314"
         stroke-linejoin="round"
         stroke-width="0.48" />
      <path
         id="path44023"
         transform="matrix(1,0,0,-1,1620,1145)"
         d="m 609.44,-236.88 c 13.449,2.7656 26.371,7.6406 38.289,14.453"
         stroke="#121314"
         stroke-linejoin="round"
         stroke-width="0.48" />
      <path
         id="path44025"
         transform="matrix(1,0,0,-1,1620,1145)"
         d="m 594.34,-200.12 c 7.793,-1.9727 15.633,-3.7578 23.512,-5.3555"
         stroke="#121314"
         stroke-linejoin="round"
         stroke-width="0.48" />
      <path
         id="path44027"
         d="m 2195.1666,970.81454 16.4838,-39.95842"
         stroke="#121314"
         stroke-linejoin="round"
         stroke-width="0.45956"
         style="stroke:none" />
      <path
         id="path44028"
         transform="matrix(1,0,0,-1,1620,1145)"
         d="M 591.64,214.14 575.445,174.843"
         stroke="#121314"
         stroke-linejoin="round"
         stroke-width="0.48" />
      <path
         id="path44029"
         transform="matrix(1,0,0,-1,1620,1145)"
         d="m 516.49,174.11 c 0.0742,0 0.13281,0.0625 0.13281,0.13672 0,0.0742 -0.0586,0.13672 -0.13281,0.13672 -0.0742,0 -0.14062,-0.0625 -0.14062,-0.13672 0,-0.0742 0.0664,-0.13672 0.14062,-0.13672"
         stroke="#121314"
         stroke-linejoin="round"
         stroke-width="0.48" />
      <path
         id="path44030"
         transform="matrix(1,0,0,-1,1620,1145)"
         d="m 543.96,174.11 c 0.0742,0 0.13281,0.0625 0.13281,0.13672 0,0.0742 -0.0586,0.13672 -0.13281,0.13672 -0.0742,0 -0.13672,-0.0625 -0.13672,-0.13672 0,-0.0742 0.0625,-0.13672 0.13672,-0.13672"
         stroke="#121314"
         stroke-linejoin="round"
         stroke-width="0.48" />
      <path
         id="path44033"
         transform="matrix(1,0,0,-1,1620,1145)"
         d="m 572.25,241.48 c -4.7031,-0.26171 -9.3633,-1.0156 -13.902,-2.2461"
         stroke="#121314"
         stroke-linejoin="round"
         stroke-width="0.48" />
      <path
         id="path44034"
         transform="matrix(1,0,0,-1,1620,1145)"
         d="m 572.33,213.99 c 4.082,0 7.3984,3.3125 7.3984,7.3984 0,4.082 -3.3164,7.3984 -7.3984,7.3984 -4.0859,0 -7.3984,-3.3164 -7.3984,-7.3984 0,-4.0859 3.3125,-7.3984 7.3984,-7.3984"
         stroke="#121314"
         stroke-linejoin="round"
         stroke-width="0.48" />
      <path
         id="path44035"
         transform="matrix(1,0,0,-1,1620,1145)"
         d="m 572.33,212.96 c 4.6524,0 8.4297,3.7734 8.4297,8.4297 0,4.6523 -3.7773,8.4297 -8.4297,8.4297 -4.6602,0 -8.4297,-3.7774 -8.4297,-8.4297 0,-4.6562 3.7695,-8.4297 8.4297,-8.4297"
         stroke="#121314"
         stroke-linejoin="round"
         stroke-width="0.48" />
      <path
         id="path44037"
         transform="matrix(1,0,0,-1,1620,1145)"
         d="m 591.64,214.14 c 0.98437,2.3945 1.4922,4.9609 1.4922,7.5547 0,10.945 -8.8711,19.824 -19.824,19.824 -0.35547,0 -0.70703,-0.0156 -1.0664,-0.0312"
         stroke="#121314"
         stroke-linejoin="round"
         stroke-width="0.48" />
      <path
         id="path44039"
         transform="matrix(1,0,0,-1,1620,1145)"
         d="m 457.62,-208.79 c 4.082,0 7.3984,3.3086 7.3984,7.3945 0,4.0898 -3.3164,7.3945 -7.3984,7.3945 -4.0859,0 -7.3984,-3.3047 -7.3984,-7.3945 0,-4.0859 3.3125,-7.3945 7.3984,-7.3945"
         stroke="#121314"
         stroke-linejoin="round"
         stroke-width="0.48" />
      <path
         id="path44040"
         transform="matrix(1,0,0,-1,1620,1145)"
         d="m 457.62,-209.82 c 4.6602,0 8.4297,3.7734 8.4297,8.4297 0,4.6563 -3.7695,8.4297 -8.4297,8.4297 -4.6524,0 -8.4297,-3.7734 -8.4297,-8.4297 0,-4.6563 3.7773,-8.4297 8.4297,-8.4297"
         stroke="#121314"
         stroke-linejoin="round"
         stroke-width="0.48" />
      <path
         id="path44041"
         transform="matrix(1,0,0,-1,1620,1145)"
         d="m 459.13,-217.57 c 11.871,-4.8984 24.039,-9.0586 36.434,-12.438"
         stroke="#121314"
         stroke-linejoin="round"
         stroke-width="0.48" />
      <path
         id="path44043"
         transform="matrix(1,0,0,-1,1620,1145)"
         d="m 394.61,-190.95 c 7.6016,-3.1836 15.223,-6.2891 22.883,-9.3164"
         stroke="#121314"
         stroke-linejoin="round"
         stroke-width="0.48" />
      <path
         id="path44045"
         transform="matrix(1,0,0,-1,1620,1145)"
         d="m 459.2,-217.6 c -13.836,5.918 -27.723,11.691 -41.668,17.32"
         stroke="#121314"
         stroke-linejoin="round"
         stroke-width="0.48" />
      <path
         id="path44046"
         transform="matrix(1,0,0,-1,1620,1145)"
         d="m 487.2,-2.3242 c 2.9688,0 5.3711,2.4063 5.3711,5.3711 0,2.9648 -2.4024,5.3633 -5.3711,5.3633 -2.9609,0 -5.3672,-2.3984 -5.3672,-5.3633 0,-2.9648 2.4062,-5.3711 5.3672,-5.3711"
         stroke="#121314"
         stroke-linejoin="round"
         stroke-width="0.48" />
      <path
         id="path44047"
         transform="matrix(1,0,0,-1,1620,1145)"
         d="m 487.2,-5.3828 c 4.6602,0 8.4336,3.7734 8.4336,8.4297 0,4.6563 -3.7734,8.4297 -8.4336,8.4297 -4.6484,0 -8.4258,-3.7734 -8.4258,-8.4297 0,-4.6563 3.7774,-8.4297 8.4258,-8.4297"
         stroke="#121314"
         stroke-linejoin="round"
         stroke-width="0.48" />
      <path
         id="path44049"
         transform="matrix(1,0,0,-1,1620,1145)"
         d="m 493.38,-22.289 c -3.8203,-11.23 -6.5117,-22.82 -8.0274,-34.586"
         stroke="#121314"
         stroke-linejoin="round"
         stroke-width="0.48" />
      <path
         id="path44051"
         transform="matrix(1,0,0,-1,1620,1145)"
         d="m 485.32,-57.238 c -0.13281,-2.2188 -0.20313,-4.4375 -0.20313,-6.6562 0,-10.914 1.6289,-21.758 4.8398,-32.184"
         stroke="#121314"
         stroke-linejoin="round"
         stroke-width="0.48" />
      <path
         id="path44052"
         transform="matrix(1,0,0,-1,1620,1145)"
         d="m 432.78,-14.914 c 4.9414,0 8.9453,4.0078 8.9453,8.9453 0,4.9414 -4.0039,8.9453 -8.9453,8.9453 -4.9414,0 -8.9453,-4.0039 -8.9453,-8.9453 0,-4.9375 4.0039,-8.9453 8.9453,-8.9453"
         stroke="#121314"
         stroke-linejoin="round"
         stroke-width="0.48" />
      <path
         id="path44053"
         transform="matrix(1,0,0,-1,1620,1145)"
         d="m 411.79,28.195 c 0,-11.59 9.3984,-20.984 20.988,-20.984 11.594,0 20.988,9.3945 20.988,20.984"
         stroke="#121314"
         stroke-linejoin="round"
         stroke-width="0.48" />
      <path
         id="path44054"
         transform="matrix(1,0,0,-1,1620,1145)"
         d="m 328.46,-175.21 c -8.3672,1 -16.797,1.5117 -25.227,1.5117 -6.9062,0 -13.82,-0.34375 -20.699,-1.0195"
         stroke="#121314"
         stroke-linejoin="round"
         stroke-width="0.48" />
      <path
         id="path44057"
         transform="matrix(1,0,0,-1,1620,1145)"
         d="m 367.34,-182.44 c -12.73,3.9297 -25.879,6.3672 -39.176,7.2539"
         stroke="#121314"
         stroke-linejoin="round"
         stroke-width="0.48" />
      <path
         id="path44059"
         transform="matrix(1,0,0,-1,1620,1145)"
         d="m 394.61,-190.95 c -9.0742,2.8906 -18.164,5.7266 -27.281,8.5117"
         stroke="#121314"
         stroke-linejoin="round"
         stroke-width="0.48" />
      <path
         id="path44061"
         transform="matrix(1,0,0,-1,1620,1145)"
         d="m 498.61,159.07 c -3.6484,-20.199 -5.4883,-40.68 -5.4883,-61.203 0,-20.527 1.8398,-41.012 5.4883,-61.211"
         stroke="#121314"
         stroke-linejoin="round"
         stroke-width="0.48" />
      <path
         id="path44062"
         transform="matrix(1,0,0,-1,1620,1145)"
         d="m 432.78,193.17 c 4.9414,0 8.9453,4.0078 8.9453,8.9453 0,4.9414 -4.0039,8.9453 -8.9453,8.9453 -4.9414,0 -8.9453,-4.0039 -8.9453,-8.9453 0,-4.9375 4.0039,-8.9453 8.9453,-8.9453"
         stroke="#121314"
         stroke-linejoin="round"
         stroke-width="0.48" />
      <path
         id="path44063"
         transform="matrix(1,0,0,-1,1620,1145)"
         d="m 453.77,167.95 c 0,11.59 -9.3945,20.988 -20.988,20.988 -11.59,0 -20.988,-9.3984 -20.988,-20.988"
         stroke="#121314"
         stroke-linejoin="round"
         stroke-width="0.48" />
      <path
         id="path44064"
         transform="matrix(1,0,0,-1,1620,1145)"
         d="m 417.57,223.05 c 7.6094,-0.50391 15.23,-0.75391 22.863,-0.75391 10.496,0 20.996,0.47266 31.449,1.4258"
         stroke="#121314"
         stroke-linejoin="round"
         stroke-width="0.48" />
      <path
         id="path44066"
         transform="matrix(1,0,0,-1,1620,1145)"
         d="m 298.38,225.82 c 4.0938,0 7.3984,3.3125 7.3984,7.3945 0,4.0898 -3.3047,7.3984 -7.3984,7.3984 -4.082,0 -7.3906,-3.3086 -7.3906,-7.3984 0,-4.082 3.3086,-7.3945 7.3906,-7.3945"
         stroke="#121314"
         stroke-linejoin="round"
         stroke-width="0.48" />
      <path
         id="path44067"
         transform="matrix(1,0,0,-1,1620,1145)"
         d="m 298.38,224.79 c 4.6602,0 8.4297,3.7774 8.4297,8.4297 0,4.6602 -3.7695,8.4297 -8.4297,8.4297 -4.6484,0 -8.4297,-3.7695 -8.4297,-8.4297 0,-4.6523 3.7812,-8.4297 8.4297,-8.4297"
         stroke="#121314"
         stroke-linejoin="round"
         stroke-width="0.48" />
      <path
         id="path44069"
         transform="matrix(1,0,0,-1,1620,1145)"
         d="m 291.52,250.18 c 40.465,-15.141 82.934,-24.277 126.05,-27.125"
         stroke="#121314"
         stroke-linejoin="round"
         stroke-width="0.48" />
      <path
         id="path44070"
         transform="matrix(1,0,0,-1,1620,1145)"
         d="m 291.16,28.195 v 139.76"
         stroke="#121314"
         stroke-linejoin="round"
         stroke-width="0.48" />
      <path
         id="path44071"
         transform="matrix(1,0,0,-1,1620,1145)"
         d="m 411.79,28.195 v 139.76"
         stroke="#121314"
         stroke-linejoin="round"
         stroke-width="0.48" />
      <path
         id="path44072"
         transform="matrix(1,0,0,-1,1620,1145)"
         d="m 453.77,28.195 v 139.76"
         stroke="#121314"
         stroke-linejoin="round"
         stroke-width="0.48" />
      <path
         id="path44074"
         transform="matrix(1,0,0,-1,1620,1145)"
         d="m 236.4,-185.68 c 7.4726,1.9609 14.91,4.0547 22.316,6.2774"
         stroke="#121314"
         stroke-linejoin="round"
         stroke-width="0.48" />
      <path
         id="path44075"
         transform="matrix(1,0,0,-1,1620,1145)"
         d="m 202.26,-189.52 c 4.082,0 7.3984,3.3125 7.3984,7.3945 0,4.0859 -3.3164,7.4024 -7.3984,7.4024 -4.0859,0 -7.4023,-3.3164 -7.4023,-7.4024 0,-4.082 3.3164,-7.3945 7.4023,-7.3945"
         stroke="#121314"
         stroke-linejoin="round"
         stroke-width="0.48" />
      <path
         id="path44076"
         transform="matrix(1,0,0,-1,1620,1145)"
         d="m 202.26,-190.56 c 4.6562,0 8.4297,3.7773 8.4297,8.4297 0,4.6602 -3.7734,8.4297 -8.4297,8.4297 -4.6523,0 -8.4297,-3.7695 -8.4297,-8.4297 0,-4.6523 3.7774,-8.4297 8.4297,-8.4297"
         stroke="#121314"
         stroke-linejoin="round"
         stroke-width="0.48" />
      <path
         id="path44078"
         transform="matrix(1,0,0,-1,1620,1145)"
         d="m 236.4,-185.68 c -10.676,-3.707 -21.293,-7.6016 -31.828,-11.68"
         stroke="#121314"
         stroke-linejoin="round"
         stroke-width="0.48" />
      <path
         id="path44079"
         transform="matrix(1,0,0,-1,1620,1145)"
         d="m 195.3,-133.38 c 4.0859,0 7.3984,3.3125 7.3984,7.3984 0,4.0859 -3.3125,7.3984 -7.3984,7.3984 -4.082,0 -7.3906,-3.3125 -7.3906,-7.3984 0,-4.0859 3.3086,-7.3984 7.3906,-7.3984"
         stroke="#121314"
         stroke-linejoin="round"
         stroke-width="0.48" />
      <path
         id="path44080"
         transform="matrix(1,0,0,-1,1620,1145)"
         d="m 180.93,-141.96 c 0.42578,0.39453 0.67188,0.94531 0.67188,1.5195 0,1.1406 -0.92579,2.0703 -2.0703,2.0703 -0.51172,0 -1.0156,-0.19531 -1.3945,-0.54687"
         stroke="#121314"
         stroke-linejoin="round"
         stroke-width="0.48" />
      <path
         id="path44081"
         transform="matrix(1,0,0,-1,1620,1145)"
         d="m 162.94,-158.44 17.988,16.48"
         stroke="#121314"
         stroke-linejoin="round"
         stroke-width="0.48" />
      <path
         id="path44082"
         transform="matrix(1,0,0,-1,1620,1145)"
         d="m 160.6,-155.09 -33.348,-30.445"
         stroke="#121314"
         stroke-linejoin="round"
         stroke-width="0.48" />
      <path
         id="path44083"
         transform="matrix(1,0,0,-1,1620,1145)"
         d="m 162.98,-158.54 -32.949,-30.051"
         stroke="#121314"
         stroke-linejoin="round"
         stroke-width="0.48" />
      <path
         id="path44085"
         transform="matrix(1,0,0,-1,1620,1145)"
         d="m 112.86,-208.92 c 4.0898,0 7.3984,3.3125 7.3984,7.4024 0,4.082 -3.3086,7.3945 -7.3984,7.3945 -4.0859,0 -7.3906,-3.3125 -7.3906,-7.3945 0,-4.0898 3.3047,-7.4024 7.3906,-7.4024"
         stroke="#121314"
         stroke-linejoin="round"
         stroke-width="0.48" />
      <path
         id="path44086"
         transform="matrix(1,0,0,-1,1620,1145)"
         d="m 127.25,-185.54 c -0.42578,-0.39453 -0.67187,-0.94531 -0.67187,-1.5234 0,-1.1406 0.92578,-2.0664 2.0703,-2.0664 0.51172,0 1.0078,0.19532 1.3867,0.54297"
         stroke="#121314"
         stroke-linejoin="round"
         stroke-width="0.48" />
      <path
         id="path44087"
         transform="matrix(1,0,0,-1,1620,1145)"
         d="m 128.89,-232.13 c 9.3828,4.3047 18.688,8.7852 27.906,13.43"
         stroke="#121314"
         stroke-linejoin="round"
         stroke-width="0.48" />
      <path
         id="path44088"
         transform="matrix(1,0,0,-1,1620,1145)"
         d="m 67.316,-250.14 c 4.0859,0 7.4023,3.3047 7.4023,7.3945 0,4.0898 -3.3164,7.3945 -7.4023,7.3945 -4.082,0 -7.3984,-3.3047 -7.3984,-7.3945 0,-4.0898 3.3164,-7.3945 7.3984,-7.3945"
         stroke="#121314"
         stroke-linejoin="round"
         stroke-width="0.48" />
      <path
         id="path44089"
         transform="matrix(1,0,0,-1,1620,1145)"
         d="m 67.316,-251.18 c 4.6523,0 8.4297,3.7734 8.4297,8.4297 0,4.6563 -3.7773,8.4297 -8.4297,8.4297 -4.6562,0 -8.4258,-3.7734 -8.4258,-8.4297 0,-4.6563 3.7695,-8.4297 8.4258,-8.4297"
         stroke="#121314"
         stroke-linejoin="round"
         stroke-width="0.48" />
      <path
         id="path44090"
         transform="matrix(1,0,0,-1,1620,1145)"
         d="m 97.945,-11.684 c 4.9375,0 8.9453,4.0078 8.9453,8.9492 0,4.9414 -4.0078,8.9414 -8.9453,8.9414 -4.9414,0 -8.9531,-4 -8.9531,-8.9414 0,-4.9414 4.0117,-8.9492 8.9531,-8.9492"
         stroke="#121314"
         stroke-linejoin="round"
         stroke-width="0.48" />
      <path
         id="path44092"
         transform="matrix(1,0,0,-1,1620,1145)"
         d="m 204.41,-197.43 c -15.961,-6.7578 -31.785,-13.832 -47.469,-21.211"
         stroke="#121314"
         stroke-linejoin="round"
         stroke-width="0.48" />
      <path
         id="path44093"
         transform="matrix(1,0,0,-1,1620,1145)"
         d="m 160.14,-155.39 17.988,16.477"
         stroke="#121314"
         stroke-linejoin="round"
         stroke-width="0.48" />
      <path
         id="path44095"
         transform="matrix(1,0,0,-1,1620,1145)"
         d="m 260.3,262.71 c -25.773,11.184 -52.352,20.41 -79.516,27.598"
         stroke="#121314"
         stroke-linejoin="round"
         stroke-width="0.48" />
      <path
         id="path44096"
         transform="matrix(1,0,0,-1,1620,1145)"
         d="m 149.14,164.8 c 0.22266,1.2148 0.32813,2.4453 0.32813,3.6875 0,11.586 -9.3906,20.984 -20.988,20.984 -10.168,0 -18.875,-7.293 -20.656,-17.305"
         stroke="#121314"
         stroke-linejoin="round"
         stroke-width="0.48" />
      <path
         id="path44097"
         transform="matrix(1,0,0,-1,1620,1145)"
         d="m 134.48,193.17 c 4.9375,0 8.9453,4.0078 8.9453,8.9453 0,4.9414 -4.0078,8.9453 -8.9453,8.9453 -4.9414,0 -8.9453,-4.0039 -8.9453,-8.9453 0,-4.9375 4.0039,-8.9453 8.9453,-8.9453"
         stroke="#121314"
         stroke-linejoin="round"
         stroke-width="0.48" />
      <path
         id="path44098"
         transform="matrix(1,0,0,-1,1620,1145)"
         d="m 83.281,34.586 24.543,137.58"
         stroke="#121314"
         stroke-linejoin="round"
         stroke-width="0.48" />
      <path
         id="path44099"
         transform="matrix(1,0,0,-1,1620,1145)"
         d="m 160.83,270.96 c 4.0859,0 7.3984,3.3125 7.3984,7.3945 0,4.0898 -3.3125,7.3984 -7.3984,7.3984 -4.082,0 -7.3984,-3.3086 -7.3984,-7.3984 0,-4.082 3.3164,-7.3945 7.3984,-7.3945"
         stroke="#121314"
         stroke-linejoin="round"
         stroke-width="0.48" />
      <path
         id="path44100"
         transform="matrix(1,0,0,-1,1620,1145)"
         d="m 160.83,269.93 c 4.6523,0 8.4297,3.7773 8.4297,8.4297 0,4.6602 -3.7774,8.4297 -8.4297,8.4297 -4.6562,0 -8.4297,-3.7695 -8.4297,-8.4297 0,-4.6523 3.7734,-8.4297 8.4297,-8.4297"
         stroke="#121314"
         stroke-linejoin="round"
         stroke-width="0.48" />
      <path
         id="path44102"
         transform="matrix(1,0,0,-1,1620,1145)"
         d="m 180.95,290.27 c -17.73,4.1133 -35.867,6.1914 -54.062,6.1914 -8.0274,0 -16.051,-0.40625 -24.031,-1.2109"
         stroke="#121314"
         stroke-linejoin="round"
         stroke-width="0.48" />
      <path
         id="path44103"
         transform="matrix(1,0,0,-1,1620,1145)"
         d="m 249.19,28.195 v 139.76"
         stroke="#121314"
         stroke-linejoin="round"
         stroke-width="0.48" />
      <path
         id="path44104"
         transform="matrix(1,0,0,-1,1620,1145)"
         d="m 124.6,27.215 24.539,137.59"
         stroke="#121314"
         stroke-linejoin="round"
         stroke-width="0.48" />
      <path
         id="path44105"
         transform="matrix(1,0,0,-1,1620,1145)"
         d="m 83.281,34.586 c -0.21484,-1.2148 -0.32812,-2.4492 -0.32812,-3.6875 0,-11.59 9.3984,-20.988 20.988,-20.988 10.168,0 18.875,7.293 20.66,17.305"
         stroke="#121314"
         stroke-linejoin="round"
         stroke-width="0.48" />
      <path
         id="path44106"
         transform="matrix(1,0,0,-1,1620,1145)"
         d="m 291.16,167.95 c 0,11.59 -9.3984,20.988 -20.988,20.988 -11.594,0 -20.988,-9.3984 -20.988,-20.988"
         stroke="#121314"
         stroke-linejoin="round"
         stroke-width="0.48" />
      <path
         id="path44108"
         transform="matrix(1,0,0,-1,1620,1145)"
         d="m 270.18,193.17 c 4.9375,0 8.9453,4.0078 8.9453,8.9453 0,4.9414 -4.0078,8.9453 -8.9453,8.9453 -4.9414,0 -8.9453,-4.0039 -8.9453,-8.9453 0,-4.9375 4.0039,-8.9453 8.9453,-8.9453"
         stroke="#121314"
         stroke-linejoin="round"
         stroke-width="0.48" />
      <path
         id="path44109"
         transform="matrix(1,0,0,-1,1620,1145)"
         d="m 260.33,262.71 c 10.297,-4.4258 20.695,-8.6055 31.195,-12.527"
         stroke="#121314"
         stroke-linejoin="round"
         stroke-width="0.48" />
      <path
         id="path44110"
         transform="matrix(1,0,0,-1,1620,1145)"
         d="m 249.19,28.195 c 0,-11.59 9.3945,-20.984 20.988,-20.984 11.59,0 20.988,9.3945 20.988,20.984"
         stroke="#121314"
         stroke-linejoin="round"
         stroke-width="0.48" />
      <path
         id="path44111"
         transform="matrix(1,0,0,-1,1620,1145)"
         d="m 270.18,-14.914 c 4.9375,0 8.9453,4.0078 8.9453,8.9453 0,4.9414 -4.0078,8.9453 -8.9453,8.9453 -4.9414,0 -8.9453,-4.0039 -8.9453,-8.9453 0,-4.9375 4.0039,-8.9453 8.9453,-8.9453"
         stroke="#121314"
         stroke-linejoin="round"
         stroke-width="0.48" />
      <path
         id="path44112"
         transform="matrix(1,0,0,-1,1620,1145)"
         d="m 282.32,-174.75 c -7.8711,-1.0898 -15.68,-2.625 -23.383,-4.5938"
         stroke="#121314"
         stroke-linejoin="round"
         stroke-width="0.48" />
      <path
         id="path44114"
         transform="matrix(1,0,0,-1,1620,1145)"
         d="m 516.48,173.21 c -0.082,0.004 -0.17188,0.004 -0.25391,0.004 -8.3242,0 -15.449,-5.957 -16.934,-14.145"
         stroke="#121314"
         stroke-linejoin="round"
         stroke-width="0.48" />
      <path
         id="path44117"
         transform="matrix(1,0,0,-1,1620,1145)"
         d="m 471.89,223.73 c 29.215,2.6602 58.137,7.8516 86.457,15.512"
         stroke="#121314"
         stroke-linejoin="round"
         stroke-width="0.48" />
      <path
         id="path44119"
         transform="matrix(1,0,0,-1,1620,1145)"
         d="m 493.54,-21.863 c 6.6016,15.141 12.762,30.469 18.48,45.969"
         stroke="#121314"
         stroke-linejoin="round"
         stroke-width="0.48" />
      <path
         id="path44121"
         transform="matrix(1,0,0,-1,1620,1145)"
         d="m 498.61,36.66 c 1.4805,-8.1875 8.6094,-14.141 16.926,-14.141 h 0.26172"
         stroke="#121314"
         stroke-linejoin="round"
         stroke-width="0.48" />
      <path
         id="path44123"
         transform="matrix(1,0,0,-1,1620,1145)"
         d="m 495.56,-230 c 15.309,-4.1406 30.824,-7.457 46.488,-9.9258"
         stroke="#121314"
         stroke-linejoin="round"
         stroke-width="0.48" />
      <path
         id="path44125"
         transform="matrix(1,0,0,-1,1620,1145)"
         d="m 489.82,-95.527 c 2.3516,-11.859 6.4805,-23.293 12.266,-33.906"
         stroke="#121314"
         stroke-linejoin="round"
         stroke-width="0.48" />
      <path
         id="path44126"
         transform="matrix(1,0,0,-1,1620,1145)"
         d="m 501.95,-129.17 c 6.3555,-13.336 15.285,-25.289 26.27,-35.168"
         stroke="#121314"
         stroke-linejoin="round"
         stroke-width="0.48" />
      <path
         id="path44128"
         transform="matrix(1,0,0,-1,1620,1145)"
         d="m 16.391,-277.91 c 10.184,3.2773 20.258,6.8789 30.215,10.781"
         stroke="#121314"
         stroke-linejoin="round"
         stroke-width="0.48" />
      <path
         id="path44130"
         transform="matrix(1,0,0,-1,1620,1145)"
         d="m -28.84,-291.29 c -5.3164,-1.0039 -10.617,-2.1133 -15.887,-3.3164"
         stroke="#121314"
         stroke-linejoin="round"
         stroke-width="0.48" />
      <path
         id="path44131"
         transform="matrix(1,0,0,-1,1620,1145)"
         d="m -29.105,-291.34 c 15.34,3.6836 30.477,8.1523 45.355,13.395"
         stroke="#121314"
         stroke-linejoin="round"
         stroke-width="0.48" />
      <path
         id="path44134"
         transform="matrix(1,0,0,-1,1620,1145)"
         d="m 18.117,-27.262 c 4.082,0 7.3984,3.3047 7.3984,7.3945 0,4.082 -3.3164,7.3945 -7.3984,7.3945 -4.0859,0 -7.3984,-3.3125 -7.3984,-7.3945 0,-4.0898 3.3125,-7.3945 7.3984,-7.3945"
         stroke="#121314"
         stroke-linejoin="round"
         stroke-width="0.48" />
      <path
         id="path44135"
         transform="matrix(1,0,0,-1,1620,1145)"
         d="m 18.117,-28.297 c 4.6562,0 8.4297,3.7734 8.4297,8.4297 0,4.6523 -3.7734,8.4297 -8.4297,8.4297 -4.6523,0 -8.4297,-3.7773 -8.4297,-8.4297 0,-4.6562 3.7773,-8.4297 8.4297,-8.4297"
         stroke="#121314"
         stroke-linejoin="round"
         stroke-width="0.48" />
      <path
         id="path44136"
         transform="matrix(1,0,0,-1,1620,1145)"
         d="m 5.1406,-9.4805 h 18.031"
         stroke="#121314"
         stroke-linejoin="round"
         stroke-width="0.48" />
      <path
         id="path44139"
         transform="matrix(1,0,0,-1,1620,1145)"
         d="m 5.1406,-14.406 c -0.042969,-2.3984 -0.074219,-4.793 -0.074219,-7.1875 0,-0.40625 0,-0.81641 0.00781,-1.2266"
         stroke="#121314"
         stroke-linejoin="round"
         stroke-width="0.48" />
      <path
         id="path44140"
         transform="matrix(1,0,0,-1,1620,1145)"
         d="m 5.1406,-9.4805 v -2.0977 -2.6914"
         stroke="#121314"
         stroke-linejoin="round"
         stroke-width="0.48" />
      <path
         id="path44143"
         transform="matrix(1,0,0,-1,1620,1145)"
         d="m -0.91406,-89.816 c 3.9805,21.785 5.9883,43.883 5.9883,66.031 v 0.96484"
         stroke="#121314"
         stroke-linejoin="round"
         stroke-width="0.48" />
      <path
         id="path44145"
         transform="matrix(1,0,0,-1,1620,1145)"
         d="m -27.949,-151.84 c 13.652,18.316 22.906,39.539 27.035,62.012"
         stroke="#121314"
         stroke-linejoin="round"
         stroke-width="0.48" />
      <path
         id="path44147"
         transform="matrix(1,0,0,-1,1620,1145)"
         d="m -57.742,-188.74 c 10.402,11.914 20.34,24.223 29.793,36.906"
         stroke="#121314"
         stroke-linejoin="round"
         stroke-width="0.48" />
      <path
         id="path44148"
         transform="matrix(1,0,0,-1,1620,1145)"
         d="m -83.656,-278.02 c 4.0859,0 7.3984,3.3125 7.3984,7.3984 0,4.0859 -3.3125,7.3984 -7.3984,7.3984 -4.082,0 -7.3984,-3.3125 -7.3984,-7.3984 0,-4.0859 3.3164,-7.3984 7.3984,-7.3984"
         stroke="#121314"
         stroke-linejoin="round"
         stroke-width="0.48" />
      <path
         id="path44149"
         transform="matrix(1,0,0,-1,1620,1145)"
         d="m -83.656,-279.05 c 4.6602,0 8.4297,3.7695 8.4297,8.4297 0,4.6524 -3.7695,8.4297 -8.4297,8.4297 -4.6602,0 -8.4297,-3.7773 -8.4297,-8.4297 0,-4.6602 3.7695,-8.4297 8.4297,-8.4297"
         stroke="#121314"
         stroke-linejoin="round"
         stroke-width="0.48" />
      <path
         id="path44151"
         transform="matrix(1,0,0,-1,1620,1145)"
         d="m -85.141,-221.49 c -6.4883,-8.0977 -12.641,-16.449 -18.449,-25.043"
         stroke="#121314"
         stroke-linejoin="round"
         stroke-width="0.48" />
      <path
         id="path44152"
         transform="matrix(1,0,0,-1,1620,1145)"
         d="m -103.59,-246.52 c -3.668,-5.4492 -5.625,-11.867 -5.625,-18.43 0,-18.004 14.418,-32.684 32.414,-33.004"
         stroke="#121314"
         stroke-linejoin="round"
         stroke-width="0.48" />
      <path
         id="path44155"
         transform="matrix(1,0,0,-1,1620,1145)"
         d="m -57.742,-188.74 c -9.3594,-10.727 -18.5,-21.645 -27.398,-32.746"
         stroke="#121314"
         stroke-linejoin="round"
         stroke-width="0.48" />
      <path
         id="path44157"
         transform="matrix(1,0,0,-1,1620,1145)"
         d="m -76.891,-297.95 h 0.08984 c 10.809,0 21.59,1.1289 32.164,3.3594"
         stroke="#121314"
         stroke-linejoin="round"
         stroke-width="0.48" />
      <path
         id="path44159"
         transform="matrix(1,0,0,-1,1620,1145)"
         d="m 4.3789,205.21 h 18.793"
         stroke="#121314"
         stroke-linejoin="round"
         stroke-width="0.48" />
      <path
         id="path44161"
         transform="matrix(1,0,0,-1,1620,1145)"
         d="m 4.7969,220.61 c -0.35156,-3.5078 -0.52344,-7.0273 -0.52344,-10.551 0,-1.6172 0.039062,-3.2344 0.10547,-4.8438"
         stroke="#121314"
         stroke-linejoin="round"
         stroke-width="0.48" />
      <path
         id="path44163"
         transform="matrix(1,0,0,-1,1620,1145)"
         d="m 21.766,225.34 c 4.0859,0 7.3945,3.3086 7.3945,7.3984 0,4.082 -3.3086,7.3945 -7.3945,7.3945 -4.0898,0 -7.3984,-3.3125 -7.3984,-7.3945 0,-4.0898 3.3086,-7.3984 7.3984,-7.3984"
         stroke="#121314"
         stroke-linejoin="round"
         stroke-width="0.48" />
      <path
         id="path44165"
         transform="matrix(1,0,0,-1,1620,1145)"
         d="m 31.258,268.06 c -1.0156,-0.76563 -2.0039,-1.5703 -2.9727,-2.3984"
         stroke="#121314"
         stroke-linejoin="round"
         stroke-width="0.48" />
      <path
         id="path44167"
         transform="matrix(1,0,0,-1,1620,1145)"
         d="m 21.766,224.31 c 4.6523,0 8.4297,3.7695 8.4297,8.4297 0,4.6484 -3.7773,8.4297 -8.4297,8.4297 -4.6562,0 -8.4258,-3.7812 -8.4258,-8.4297 0,-4.6602 3.7695,-8.4297 8.4258,-8.4297"
         stroke="#121314"
         stroke-linejoin="round"
         stroke-width="0.48" />
      <path
         id="path44168"
         transform="matrix(1,0,0,-1,1620,1145)"
         d="M 28.293,265.67 C 14.941,254.201 6.527,238.037 4.789,220.529"
         stroke="#121314"
         stroke-linejoin="round"
         stroke-width="0.48" />
      <path
         id="path44170"
         transform="matrix(1,0,0,-1,1620,1145)"
         d="M 45.875,182.51 V 13.23"
         stroke="#121314"
         stroke-linejoin="round"
         stroke-width="0.48" />
      <path
         id="path44171"
         style="baseline-shift:baseline;display:inline;overflow:visible;vector-effect:none;fill:#ff0000;stroke-linejoin:round;enable-background:accumulate;stop-color:#000000;stop-opacity:1;opacity:1"
         transform="matrix(1,0,0,-1,1620,1145)"
         d="m 25.625,272.25781 -0.298828,0.375 c 21.289042,16.97613 47.340562,26.88017 74.523437,28.33594 L 99.875,300.49023 C 72.791875,299.03981 46.835958,289.17168 25.625,272.25781 Z m -28.5039063,-51.125 -0.4765625,0.0469 c 1.9011457,18.94424 11.0162753,36.4307 25.4609378,48.84179 l 0.3125,-0.36328 C 8.066631,257.3273 -0.99005189,239.95457 -2.8789063,221.13281 Z m 25.2968753,48.52344 -0.3125,0.36328 c 1.046529,0.90163 2.124669,1.77611 3.226562,2.61133 l 0.289063,-0.38281 c -1.093507,-0.82887 -2.163855,-1.69643 -3.203125,-2.5918 z M -3.4296875,199.69141 c -0.32492,3.44522 -0.4902344,6.9065 -0.4902344,10.37109 0,3.7116 0.1886299,7.4255 0.5644531,11.12109 l 0.4765625,-0.0488 c -0.3741767,-3.67941 -0.5605468,-7.37687 -0.5605468,-11.07227 0,-3.44941 0.1628081,-6.89579 0.4863281,-10.32617 z m 472.4023475,29.27929 -0.0449,0.47852 c 28.88117,2.62764 57.48014,7.75727 85.47071,15.33594 l 0.12695,-0.46289 c -28.01743,-7.58594 -56.6439,-12.72141 -85.55273,-15.35157 z m -178.03907,26.14453 c -10.41756,3.89614 -20.75017,8.04146 -30.96875,12.4336 l 0.18946,0.4414 c 10.21142,-4.38906 20.53682,-8.53231 30.94726,-12.42578 z m -111.23828,40.28125 c -18.1192,4.20288 -36.65423,6.32227 -55.25,6.32227 -8.20291,0 -16.40256,-0.41095 -24.562498,-1.23438 l -0.04883,0.47852 c 8.176068,0.82505 16.392438,1.23438 24.611328,1.23438 18.63223,0 37.20458,-2.12286 55.35938,-6.33399 z m 80.26953,-27.8457 c -26.0159,11.28819 -52.85309,20.59459 -80.27148,27.85352 l 0.12305,0.46484 c 27.44161,-7.26507 54.30175,-16.58109 80.33984,-27.87891 z m 155.51953,-39.24023 c -42.59736,2.81354 -84.56191,11.84749 -124.54882,26.80468 l 0.16797,0.44922 c 39.94309,-14.9408 81.86147,-23.96298 124.4121,-26.77343 z m 22.50977,-0.74219 c -7.50933,0 -15.01828,0.24967 -22.51953,0.74219 l 0.0312,0.47851 c 7.49095,-0.49184 14.98961,-0.74219 22.48828,-0.74219 10.32474,0 20.64187,0.46946 30.93164,1.40625 l 0.043,-0.47851 c -10.30423,-0.93811 -20.63535,-1.40625 -30.97461,-1.40625 z m 156.51758,-15.61914 -0.44336,0.18164 c 1.24976,3.03352 1.89258,6.27934 1.89258,9.56445 0,13.85425 -11.22974,25.08399 -25.08399,25.08399 -0.45687,0 -0.91046,-0.01 -1.35937,-0.0332 l -0.0254,0.47852 c 0.45735,0.0237 0.91977,0.0352 1.38476,0.0352 14.11375,0 25.5625,-11.45071 25.5625,-25.56446 0,-3.34768 -0.65409,-6.65461 -1.92773,-9.74609 z m -39.98828,32.37305 -0.125,0.46289 c 4.93009,1.33245 9.98539,2.1475 15.08789,2.43359 l 0.0273,-0.47852 c -5.0693,-0.28423 -10.09232,-1.09421 -14.99023,-2.41796 z m 23.78906,-71.67383 -0.44531,0.18359 16.1914,39.29297 0.44336,-0.18359 z" />
      <path
         id="path44172"
         transform="matrix(1,0,0,-1,1620,1145)"
         d="M 102.6,295.23 C 76.608,293.8394 51.702,284.375 31.354,268.144"
         stroke="#121314"
         stroke-linejoin="round"
         stroke-width="0.48" />
      <path
         id="path44173"
         transform="matrix(1,0,0,-1,1620,1145)"
         d="m 45.875,182.51 c 0,12.539 -10.16,22.707 -22.703,22.707"
         stroke="#121314"
         stroke-linejoin="round"
         stroke-width="0.48" />
      <path
         id="path44174"
         transform="matrix(1,0,0,-1,1620,1145)"
         d="m 23.172,-9.4805 22.703,22.711"
         stroke="#121314"
         stroke-linejoin="round"
         stroke-width="0.48" />
      <path
         id="path44175"
         style="baseline-shift:baseline;display:inline;overflow:visible;vector-effect:none;fill:#ff0000;stroke-linejoin:round;enable-background:accumulate;stop-color:#000000;stop-opacity:1;opacity:1"
         transform="matrix(1,0,0,-1,1620,1145)"
         d="m 46.267578,-272.47266 -0.175781,0.44532 c 27.839799,10.92435 55.370843,22.63347 82.550783,35.09961 l 0.20117,-0.43555 c -27.18806,-12.46986 -54.727971,-24.18173 -82.576172,-35.10938 z M 37.693359,13.230469 V 182.50977 h 0.480469 V 13.230469 Z m 0,169.279301 c 0,9.37032 -7.588773,16.96289 -16.96289,16.96289 v 0.48046 c 9.633483,0 17.443359,-7.81368 17.443359,-17.44335 z M -3.1914063,199.4707 v 0.47852 H 20.730469 V 199.4707 Z M -79.332031,-303.68945 v 0.47851 h 0.08984 c 11.174356,0 22.319173,1.1636 33.255859,3.47266 l 0.09961,-0.4707 c -10.969314,-2.31595 -22.147825,-3.48047 -33.355468,-3.48047 z m -12.355469,85.49414 -0.375,0.29883 c 8.951083,11.16659 18.13833,22.15 27.558594,32.93359 l 0.361328,-0.31445 c -9.415737,-10.77841 -18.598005,-21.75657 -27.544922,-32.91797 z m 12.355469,-85.49805 c -21.132159,0.37326 -38.060549,17.61201 -38.060549,38.74414 0,7.70773 2.29952,15.24157 6.60352,21.63281 l 0.39843,-0.26757 c -4.2506,-6.31196 -6.52148,-13.75297 -6.52148,-21.36524 0,-20.87587 16.71205,-37.89689 37.587891,-38.26562 z m -31.062499,60.10742 -0.39844,0.26758 c 5.8947,8.72348 12.148376,17.20208 18.73047,25.41797 l 0.375,-0.29883 c -6.574106,-8.20591 -12.81973,-16.67419 -18.70703,-25.38672 z m 46.251952,58.3086 -0.361328,0.31445 c 10.296964,11.80037 20.139475,23.99555 29.507812,36.55664 l 0.384766,-0.28711 c -9.375662,-12.57091 -19.226214,-24.77436 -29.53125,-36.58398 z m 29.529297,36.58398 -0.384766,0.28711 c 13.125972,17.61144 22.018845,38.01026 25.9921876,59.623047 l 0.4726563,-0.08789 C -12.519861,-110.55631 -21.443253,-131.0228 -34.613281,-148.69336 Z m 26.0722654,59.826173 -0.4726563,0.08594 c 3.9232004,21.442791 5.9023438,43.194618 5.9023438,64.996094 0,0.31641 -9.99e-5,0.630895 -0.00781,0.943359 l 0.4804687,0.01172 c 0.00791,-0.320356 0.00781,-0.638668 0.00781,-0.955078 0,-21.830525 -1.9817566,-43.610823 -5.9101562,-65.082031 z M 20.900391,-4.1425781 20.560547,-3.8027344 37.763672,13.400391 38.103516,13.060547 Z M -3.1191406,-22.835937 v 1.242187 c 0,2.435655 0.031237,4.870317 0.074219,7.304687 l 0.4804688,-0.0078 c -0.042954,-2.43283 -0.074219,-4.86533 -0.074219,-7.296875 v -1.242187 z m 0.074219,8.542968 c 0,0.900915 -0.00781,1.811119 -0.00781,2.714844 0,2.5366792 0.023436,5.0719755 0.050781,7.6074219 l 0.4804687,-0.00391 c -0.02734,-2.5349536 -0.050781,-5.0697948 -0.050781,-7.6035159 0,-0.900955 0.00781,-1.811159 0.00781,-2.714844 z m 0.2832031,10.0800784 v 0.4804687 H 20.730469 V -4.2128906 Z M -30.201172,-296.93359 l -0.113281,0.46679 c 15.51499,3.72468 30.82791267,8.24659 45.871094,13.54883 l 0.160156,-0.45312 c -15.05881917,-5.30776 -30.386959,-9.83398 -45.917969,-13.5625 z m -15.683594,-3.28125 -0.107421,0.46679 c 5.209885,1.19206 10.436484,2.28654 15.689453,3.28321 l 0.08984,-0.47071 c -5.247031,-0.99553 -10.46776,-2.08855 -15.671875,-3.27929 z m 61.595704,16.8457 -0.146485,0.45703 c 10.292109,3.30703 20.468962,6.94274 30.527344,10.89063 l 0.175781,-0.44727 c -10.067618,-3.95151 -20.25475,-7.59022 -30.55664,-10.90039 z m 488.556642,156.44922 c -5.52707,10.14642 -9.47575,21.07936 -11.72266,32.412108 l 0.4707,0.09375 c 2.2375,-11.285258 6.1701,-22.171808 11.67383,-32.275388 z m 34.44531,-118.6875 c -15.86743,2.50543 -31.58727,5.85515 -47.0957,10.05664 l 0.125,0.46289 c 15.49156,-4.19692 31.19435,-7.54411 47.04492,-10.04688 z M 516.22461,22.279297 c -8.43903,0 -15.66512,6.037842 -17.16992,14.33789 l 0.4707,0.08594 c 1.464,-8.074951 8.48905,-13.943359 16.69922,-13.943359 h 0.25391 v -0.480469 z m -19.85547,-46.441406 -0.43945,0.191406 c 6.64653,15.2337264 12.84937,30.660391 18.59375,46.25 l 0.44922,-0.166016 C 509.22504,6.5148901 503.01941,-8.9198359 496.36914,-24.162109 Z m 2.47852,183.187499 -0.47071,0.0859 c 1.50138,8.30067 8.73111,14.34179 17.16211,14.34179 0.0899,0 0.17519,3.9e-4 0.27149,-0.004 l -0.0215,-0.47852 c -0.0833,0.004 -0.16015,0.004 -0.25,0.004 -8.20179,0 -15.23078,-5.87389 -16.6914,-13.94922 z m -240.92969,-343.92969 -0.11914,0.46485 c 7.51281,1.92415 15.1238,3.41672 22.80859,4.47656 l 0.0645,-0.47461 c -7.6668,-1.05736 -15.25871,-2.54715 -22.7539,-4.4668 z m -100.97266,-38.93359 -0.20508,0.43359 c 15.61975,7.34529 31.38612,14.39713 47.28711,21.125 l 0.18555,-0.4414 c -15.895,-6.72533 -31.65332,-13.77448 -47.26758,-21.11719 z m -28.10547,-13.51953 -0.19922,0.43555 c 9.45049,4.3386 18.8105,8.84166 28.08985,13.51953 l 0.21484,-0.42969 c -9.28465,-4.68054 -18.64975,-9.18439 -28.10547,-13.52539 z m 75.36914,34.64062 -0.17382,0.44922 c 10.34952,4.00468 20.76665,7.83309 31.24609,11.49414 l 0.1582,-0.45312 c -10.47456,-3.65935 -20.88599,-7.48751 -31.23047,-11.49024 z m 31.21094,11.48438 -0.12109,0.46484 c 7.53626,1.97586 15.02972,4.08863 22.49219,6.32617 l 0.13867,-0.46093 c -7.46753,-2.23906 -14.96783,-4.35274 -22.50977,-6.33008 z M 499.05469,36.613281 c -3.65495,20.213102 -5.49219,40.712596 -5.49219,61.253906 0,20.537313 1.83724,41.033003 5.49219,61.246093 l 0.4707,-0.0859 c -3.64985,-20.1849 -5.48437,-40.65147 -5.48437,-61.160153 0,-20.512689 1.83452,-40.98307 5.48437,-61.167968 z M 389.97852,-196.25977 c -8.91352,2.81232 -17.83517,5.59004 -26.77149,8.32813 l 0.14063,0.45898 c 8.93768,-2.73851 17.8607,-5.51544 26.77539,-8.32812 z m -26.7793,8.33008 c -12.30226,3.79533 -25.00702,6.15171 -37.85938,7.00977 l 0.0312,0.47851 c 12.88965,-0.86054 25.63101,-3.22302 37.96875,-7.02929 z m -37.86719,7.01172 c -8.14272,0.97932 -16.34148,1.4668 -24.54297,1.4668 -6.71861,0 -13.43556,-0.33473 -20.12695,-0.99024 l -0.0469,0.47657 c 6.70661,0.65699 13.43924,0.99414 20.17383,0.99414 8.22052,0 16.43773,-0.48908 24.59961,-1.47071 z m 167.2207,86.38672 c -3.05393,9.924856 -4.60742,20.253766 -4.60742,30.636719 0,2.110546 0.0661,4.221841 0.19531,6.335937 l 0.47852,-0.0293 c -0.12862,-2.104704 -0.19531,-4.206187 -0.19531,-6.30664 0,-10.335047 1.54802,-20.61695 4.58789,-30.496094 z m -3.93359,36.925781 -0.47656,0.0625 c 1.46295,11.414975 4.07103,22.660502 7.77929,33.554688 l 0.45508,-0.154297 c -3.69793,-10.863815 -6.29896,-22.079866 -7.75781,-33.462891 z M 454.49609,-222.88086 c -13.79552,5.89777 -27.64606,11.65421 -41.5625,17.26758 l 0.17969,0.44531 c 13.91957,-5.61463 27.77184,-11.37245 41.57031,-17.27148 z m -41.55468,17.26758 c -7.68842,3.04356 -15.35004,6.16148 -22.98438,9.36133 l 0.18555,0.44336 c 7.63126,-3.19856 15.29098,-6.31499 22.97656,-9.35743 z m 78.66796,-29.9375 c -12.61868,3.44384 -25.0161,7.67586 -37.11132,12.66797 l 0.18359,0.44531 c 12.07678,-4.98449 24.45342,-9.21183 37.05273,-12.65039 z M 578.0957,172.5 l -62.48828,0.82031 0.006,0.48047 62.48828,-0.82031 z m 38.36524,-372.82227 c -7.79669,1.58285 -15.55882,3.34869 -23.26953,5.29883 l 0.11718,0.4668 c 7.70329,-1.94826 15.45873,-3.71357 23.24805,-5.29492 z m -8.30274,-42.18359 -0.0957,0.4707 c 13.99807,2.86989 27.44185,7.94658 39.8418,15.03907 l 0.23828,-0.41602 c -12.44406,-7.11771 -25.93644,-12.21364 -39.98438,-15.09375 z m -78.86133,82.08984 c -10.46953,9.41216 -18.97661,20.80517 -25.0332,33.51368 l 0.4336,0.20507 c 6.02941,-12.65149 14.49745,-23.99148 24.91992,-33.36132 z m 36.8086,-87.43164 c -9.17303,0 -18.34242,0.74589 -27.39453,2.24024 l 0.0781,0.47461 c 9.02609,-1.49005 18.16944,-2.23633 27.31641,-2.23633 14.1518,0 28.24807,1.78642 41.94336,5.32812 l 0.12109,-0.46289 c -13.73471,-3.55189 -27.87225,-5.34375 -42.06445,-5.34375 z m -1.10156,63.30469 c -13.12135,6.07381 -25.17819,14.21671 -35.70899,24.12891 l 0.33008,0.34961 c 10.4932,-9.8768 22.50543,-17.99078 35.58008,-24.04297 z m 28.16992,-10.47656 c -9.58791,2.93633 -18.9932,6.42776 -28.16992,10.4707 l 0.19336,0.4375 c 9.15927,-4.03526 18.54709,-7.51835 28.11718,-10.44922 z m 54.96484,-32.38867 -0.23828,0.41601 c 3.04975,1.74492 5.59519,4.25583 7.39844,7.2793 l 0.41211,-0.24609 c -1.84515,-3.09373 -4.45022,-5.66294 -7.57227,-7.44922 z m 2.6543,20.96289 c -5.39592,1.09719 -10.80718,2.10785 -16.23047,3.02539 l 0.0801,0.47461 c 5.42871,-0.91846 10.84521,-1.93109 16.24609,-3.0293 z m 4.91406,-13.51758 -0.41406,0.24414 c 0.84158,1.42418 1.29492,3.05941 1.29492,4.71484 0,3.78494 -2.31375,7.18427 -5.83594,8.57032 l 0.17578,0.44531 c 3.70442,-1.45776 6.14063,-5.03496 6.14063,-9.01563 0,-1.74296 -0.47635,-3.46136 -1.36133,-4.95898 z m -21.14062,16.53711 c -6.0621,0.91837 -12.09678,1.95457 -18.11133,3.09961 l 0.0898,0.47265 c 6.00885,-1.14395 12.03785,-2.18022 18.09375,-3.09765 z" />
      <path
         id="path44176"
         transform="matrix(1,0,0,-1,1620,1145)"
         d="m 46.605,-267.12 c 27.754,10.895 55.191,22.559 82.289,34.992"
         stroke="#121314"
         stroke-linejoin="round"
         stroke-width="0.48" />
      <path
         id="path44177"
         transform="matrix(1,0,0,-1,1620,1145)"
         d="m 91.52,-39.629 0.97656,-0.0039 1.457,-0.375 0.95312,-0.24609 1.3281,-0.72656 0.86719,-0.47656 1.1211,-1.0391 0.73438,-0.67969 0.85156,-1.2891 0.55469,-0.84375 0.53516,-1.4648 0.34765,-0.95703 0.17969,-1.5586 0.11719,-1.0156 -0.17969,-1.5586 -0.11719,-1.0156 -0.53125,-1.4648 -0.35156,-0.95703 -0.84766,-1.293 -0.55859,-0.84375 -1.1211,-1.0391 -0.73438,-0.67969 -1.3281,-0.73047 -0.86719,-0.47266 -1.457,-0.375 -0.95312,-0.24609 h -2.4766 l -1.457,0.375 -0.94922,0.24609 -1.332,0.72656 -0.86719,0.47656 -1.1211,1.0391 -0.73438,0.67969 -0.85156,1.293 -0.55469,0.84375 -0.53516,1.4648 -0.34375,0.95703 -0.18359,1.5547 -0.11719,1.0195 0.17969,1.5547 0.12109,1.0195 0.53125,1.4648 0.34766,0.95703 0.85156,1.2891 0.55469,0.84375 1.125,1.0391 0.73047,0.67969 1.3281,0.73047 0.87109,0.47266 1.4531,0.37891 0.95312,0.24219 z"
         stroke="#e3652e"
         stroke-width="1.025" />
      <path
         id="path44178"
         transform="matrix(1,0,0,-1,1620,1145)"
         d="m 35.949,-145.7 h 0.98047 l 1.457,-0.375 0.94922,-0.24609 1.3281,-0.72656 0.86719,-0.48047 1.1211,-1.0352 0.73438,-0.67969 0.85156,-1.293 0.55859,-0.84375 0.53125,-1.4648 0.34766,-0.95703 0.17969,-1.5586 0.11719,-1.0156 -0.17969,-1.5547 -0.11719,-1.0195 -0.53125,-1.4648 -0.34766,-0.95703 -0.85156,-1.2891 -0.55859,-0.84375 -1.1211,-1.043 -0.73438,-0.67579 -1.3281,-0.73046 -0.86719,-0.47657 -1.457,-0.375 -0.94922,-0.24609 h -2.4805 l -1.457,0.375 -0.95313,0.24609 -1.3242,0.73047 -0.86719,0.47656 -1.125,1.0391 -0.73438,0.67968 -0.85156,1.2891 -0.55469,0.84375 -0.53125,1.4648 -0.34766,0.95703 -0.18359,1.5586 -0.11719,1.0156 0.17969,1.5586 0.12109,1.0156 0.53125,1.4648 0.34766,0.95703 0.85156,1.293 0.55469,0.84375 1.125,1.0391 0.73438,0.67578 1.3242,0.73047 0.86719,0.47656 1.457,0.375 0.95312,0.24609 z"
         stroke="#e3652e"
         stroke-width="1.025" />
      <path
         id="path44179"
         transform="matrix(1,0,0,-1,1620,1145)"
         d="m -42.68,-235.43 h 0.98047 l 1.457,-0.375 0.94922,-0.2461 1.3281,-0.72656 0.86719,-0.48047 1.1211,-1.0391 0.73437,-0.67969 0.85156,-1.2891 0.55469,-0.84375 0.53516,-1.4648 0.34766,-0.95704 0.17969,-1.5586 0.11719,-1.0156 -0.17969,-1.5547 -0.11719,-1.0195 -0.53125,-1.4648 -0.35156,-0.95703 -0.84766,-1.293 -0.55859,-0.83984 -1.1211,-1.043 -0.73438,-0.67578 -1.3281,-0.73047 -0.86719,-0.47656 -1.457,-0.375 -0.94922,-0.24219 -1.5,-0.004 -0.98047,0.004 -1.457,0.37109 -0.95312,0.2461 -1.3242,0.73047 -0.86719,0.47656 -1.125,1.0352 -0.73438,0.68359 -0.85156,1.2891 -0.55469,0.84375 -0.53125,1.4648 -0.34766,0.95703 -0.18359,1.5586 -0.11719,1.0156 0.17969,1.5547 0.12109,1.0195 0.53125,1.4648 0.34766,0.95703 0.85156,1.293 0.55469,0.83984 1.125,1.043 0.73438,0.67578 1.3242,0.73047 0.86719,0.47656 1.457,0.375 0.95312,0.2461 z"
         stroke="#e3652e"
         stroke-width="1.025" />
      <path
         id="path44180"
         transform="matrix(1,0,0,-1,1620,1145)"
         d="m 432.48,194.6 c 4.0859,0 7.3984,3.3164 7.3984,7.3984 0,4.0859 -3.3125,7.3984 -7.3984,7.3984 -4.082,0 -7.3984,-3.3125 -7.3984,-7.3984 0,-4.082 3.3164,-7.3984 7.3984,-7.3984"
         stroke="#121314"
         stroke-linejoin="round"
         stroke-width="0.48" />
      <path
         id="path44181"
         transform="matrix(1,0,0,-1,1620,1145)"
         d="m 270.43,194.77 c 4.082,0 7.3984,3.3164 7.3984,7.4023 0,4.082 -3.3164,7.3984 -7.3984,7.3984 -4.0859,0 -7.3984,-3.3164 -7.3984,-7.3984 0,-4.0859 3.3125,-7.4023 7.3984,-7.4023"
         stroke="#121314"
         stroke-linejoin="round"
         stroke-width="0.48" />
      <path
         id="path44182"
         transform="matrix(1,0,0,-1,1620,1145)"
         d="m 134.53,194.6 c 4.0859,0 7.4023,3.3164 7.4023,7.3984 0,4.0859 -3.3164,7.3984 -7.4023,7.3984 -4.082,0 -7.3984,-3.3125 -7.3984,-7.3984 0,-4.082 3.3164,-7.3984 7.3984,-7.3984"
         stroke="#121314"
         stroke-linejoin="round"
         stroke-width="0.48" />
      <path
         id="path44183"
         transform="matrix(1,0,0,-1,1620,1145)"
         d="m 98.055,-10.117 c 4.082,0 7.3984,3.3047 7.3984,7.3945 0,4.082 -3.3164,7.3945 -7.3984,7.3945 -4.0859,0 -7.3984,-3.3125 -7.3984,-7.3945 0,-4.0898 3.3125,-7.3945 7.3984,-7.3945"
         stroke="#121314"
         stroke-linejoin="round"
         stroke-width="0.48" />
      <path
         id="path44184"
         transform="matrix(1,0,0,-1,1620,1145)"
         d="m 270.27,-13.422 c 4.0859,0 7.3984,3.3047 7.3984,7.3945 0,4.082 -3.3125,7.3945 -7.3984,7.3945 -4.082,0 -7.3984,-3.3125 -7.3984,-7.3945 0,-4.0898 3.3164,-7.3945 7.3984,-7.3945"
         stroke="#121314"
         stroke-linejoin="round"
         stroke-width="0.48" />
      <path
         id="path44185"
         transform="matrix(1,0,0,-1,1620,1145)"
         d="m 433.07,-13.422 c 4.082,0 7.3984,3.3047 7.3984,7.3945 0,4.082 -3.3164,7.3945 -7.3984,7.3945 -4.0859,0 -7.3984,-3.3125 -7.3984,-7.3945 0,-4.0898 3.3125,-7.3945 7.3984,-7.3945"
         stroke="#121314"
         stroke-linejoin="round"
         stroke-width="0.48" />
      <path
         id="path44186"
         transform="matrix(1,0,0,-1,1620,1145)"
         d="m 112.79,-210.03 c 4.6524,0 8.4336,3.7734 8.4336,8.4297 0,4.6563 -3.7812,8.4297 -8.4336,8.4297 -4.6562,0 -8.4258,-3.7734 -8.4258,-8.4297 0,-4.6563 3.7695,-8.4297 8.4258,-8.4297"
         stroke="#121314"
         stroke-linejoin="round"
         stroke-width="0.48" />
      <path
         id="path44187"
         transform="matrix(1,0,0,-1,1620,1145)"
         d="m 195.3,-134.32 c 4.6523,0 8.4297,3.7734 8.4297,8.4297 0,4.6524 -3.7774,8.4258 -8.4297,8.4258 -4.6562,0 -8.4297,-3.7734 -8.4297,-8.4258 0,-4.6562 3.7734,-8.4297 8.4297,-8.4297"
         stroke="#121314"
         stroke-linejoin="round"
         stroke-width="0.48" />
    </g>
  </g>
  <path
     style="fill:#a0a0a0;stroke:none;stroke-width:0.264583"
     d="m 101.41783,77.830195 c -2.09664,-0.448688 -3.782945,-2.150239 -4.215574,-4.253679 -0.08607,-0.418502 -0.09559,-2.367389 -0.09559,-19.583636 0,-21.176371 -0.0313,-19.534539 0.391131,-20.51981 0.557659,-1.300694 1.440756,-2.246929 2.653813,-2.843538 0.8309,-0.40866 1.40338,-0.537895 2.38169,-0.537665 1.193,2.65e-4 2.02401,0.244705 3.00154,0.882846 1.35983,0.887701 2.23898,2.329738 2.42759,3.981849 0.0434,0.380505 0.0578,6.503869 0.0455,19.428243 l -0.0179,18.872615 -0.15958,0.577022 c -0.56959,2.059495 -2.16854,3.57564 -4.22777,4.008811 -0.52746,0.110955 -1.63638,0.104327 -2.1849,-0.01307 z"
     id="path1" />
  <path
     style="fill:#a0a0a0;stroke:none;stroke-width:0.0852712"
     d="m 144.19131,77.75041 c -0.78461,-0.205555 -1.47249,-0.570587 -2.13793,-1.134525 -0.85768,-0.726848 -1.45487,-1.666854 -1.77434,-2.792881 -0.14816,-0.522248 -0.15531,-1.434404 -0.15531,-19.818752 0,-18.436203 0.007,-19.295327 0.15649,-19.825573 1.02036,-3.613996 5.07871,-5.205314 8.21831,-3.222477 0.99876,0.630775 1.86076,1.777111 2.29492,3.051935 0.1543,0.453041 0.15973,1.134586 0.15973,20.03875 v 19.569758 l -0.24587,0.639535 c -1.05693,2.749206 -3.78195,4.21051 -6.516,3.49423 z"
     id="path2" />
  <path
     style="fill:#a0a0a0;stroke:none;stroke-width:0.0852712"
     d="m 57.495863,77.120305 c -1.134621,-0.262684 -1.98909,-0.736095 -2.809663,-1.556668 -0.593006,-0.593005 -0.992788,-1.2485 -1.291974,-2.118355 -0.476665,-1.385858 -0.646163,-0.223544 3.021534,-20.7201 1.795938,-10.036429 3.323733,-18.478285 3.395101,-18.75968 0.351587,-1.386263 1.508826,-2.786878 2.843914,-3.44201 1.337529,-0.656328 2.723256,-0.758142 4.087154,-0.300296 2.328007,0.781486 3.902696,3.057424 3.73358,5.396235 -0.05678,0.78522 -6.576706,37.364413 -6.744811,37.840874 -0.60706,1.720586 -1.997155,3.051776 -3.719333,3.561723 -0.661027,0.195734 -1.887572,0.243652 -2.515502,0.09828 z"
     id="path3" />
  <path
     style="fill:#00ff00;stroke:#0000ff;stroke-width:0.1;stroke-dasharray:none;stroke-opacity:1"
     d="m 57.197413,76.995742 c -1.205217,-0.347485 -2.433016,-1.230829 -3.100845,-2.230911 -0.187571,-0.280892 -0.464839,-0.826818 -0.616149,-1.21317 -0.237169,-0.605579 -0.274111,-0.802418 -0.267869,-1.427263 0.0076,-0.758659 0.303226,-2.807097 0.876308,-6.071651 0.18692,-1.064797 0.333176,-1.966542 0.325011,-2.003874 -0.0082,-0.03734 0.0087,-0.125442 0.03749,-0.19579 0.06346,-0.155064 0.407763,-2.102196 0.388017,-2.194337 -0.0077,-0.03594 0.0096,-0.12291 0.03834,-0.193257 0.06345,-0.155065 0.40776,-2.102199 0.388017,-2.194338 -0.0077,-0.03594 0.0096,-0.122909 0.03834,-0.19326 0.06346,-0.155061 0.407762,-2.102196 0.388019,-2.194337 -0.0077,-0.03594 0.0092,-0.12291 0.03756,-0.193257 0.106272,-0.263626 1.945931,-10.745616 1.899195,-10.821233 -0.02683,-0.04341 -0.01773,-0.0918 0.02021,-0.107525 0.09479,-0.0393 0.471667,-2.174046 0.403331,-2.284618 -0.03023,-0.04892 -0.02114,-0.08894 0.02019,-0.08894 0.08992,0 0.478528,-2.181561 0.408728,-2.294498 -0.02669,-0.04319 -0.01643,-0.0914 0.02283,-0.107133 0.03925,-0.01574 0.347745,-1.563483 0.685541,-3.439453 0.337796,-1.875967 0.70617,-3.668945 0.818608,-3.984395 0.525372,-1.473972 1.804188,-2.716403 3.385391,-3.28907 0.544716,-0.197281 0.757484,-0.226726 1.648685,-0.228166 0.778777,-0.0013 1.135308,0.03644 1.492247,0.157779 1.49184,0.507138 2.68559,1.510279 3.313854,2.784727 0.356097,0.722352 0.604361,1.635804 0.607144,2.233895 7.94e-4,0.175001 -0.134302,1.115116 -0.300262,2.089147 -1.046134,6.139916 -5.81433,32.837146 -6.400551,35.836841 -0.09539,0.48812 -0.49307,1.285637 -0.926354,1.857754 -0.753571,0.995018 -1.964566,1.785583 -3.105703,2.027465 -0.761757,0.161467 -1.894269,0.144817 -2.525332,-0.03713 z"
     id="path4" />
  <path
     style="fill:#00d455;fill-opacity:1;fill-rule:evenodd;stroke:#0000ff;stroke-width:0.499999;stroke-dasharray:none"
     d="m 66.173413,28.295328 c -0.404984,-0.121944 -0.800568,-0.413981 -1.051769,-0.77646 -0.329105,-0.4749 -0.390528,-1.255509 -0.137774,-1.750946 0.585978,-1.148614 1.89811,-1.448357 2.833878,-0.647372 0.433758,0.371279 0.674362,0.864973 0.674362,1.383715 0,1.171861 -1.227119,2.119741 -2.318697,1.791063 z"
     id="path5" />
  <path
     style="fill:#00d455;fill-opacity:1;fill-rule:evenodd;stroke:#0000ff;stroke-width:0.499999;stroke-dasharray:none"
     d="m 101.9222,28.159371 c -0.8168,-0.352811 -1.30415,-1.266047 -1.10923,-2.078569 0.19395,-0.808463 0.98568,-1.448759 1.7914,-1.448759 1.07271,0 1.99399,1.043746 1.83821,2.082566 -0.17101,1.140378 -1.4834,1.892684 -2.52038,1.444762 z"
     id="path6" />
  <path
     style="fill:#00d455;fill-opacity:1;fill-rule:evenodd;stroke:#0000ff;stroke-width:0.499999;stroke-dasharray:none"
     d="m 109.38343,19.98071 c -0.67333,-0.238321 -1.23461,-1.054114 -1.23596,-1.796422 -7.9e-4,-0.426931 0.42175,-1.154286 0.83827,-1.443056 0.33319,-0.230995 0.43499,-0.256342 1.0295,-0.256342 0.56292,0 0.70598,0.03129 0.97466,0.213178 0.49958,0.338201 0.76549,0.786993 0.8071,1.3622 0.0641,0.885826 -0.27752,1.489094 -1.04574,1.846825 -0.48825,0.22736 -0.87469,0.248159 -1.36783,0.07362 z"
     id="path7" />
  <path
     style="fill:#00d455;fill-opacity:1;fill-rule:evenodd;stroke:#0000ff;stroke-width:0.499999;stroke-dasharray:none"
     d="m 73.035604,8.0571153 c -1.090478,-0.395484 -1.582386,-1.6731035 -1.016172,-2.639275 0.726715,-1.2400471 2.455302,-1.2458248 3.179175,-0.010626 0.832141,1.4199407 -0.626639,3.2070955 -2.163003,2.649901 z"
     id="path8" />
  <path
     style="fill:#00d455;fill-opacity:1;fill-rule:evenodd;stroke:#0000ff;stroke-width:0.499999;stroke-dasharray:none"
     d="M 36.049405,20.035161 C 35.6313,19.845219 35.208554,19.379044 35.06788,18.952799 c -0.158594,-0.480542 -0.05557,-1.195036 0.23222,-1.610546 0.297296,-0.429232 1.015304,-0.814727 1.517478,-0.814727 0.502174,0 1.220181,0.385495 1.517478,0.814727 0.287792,0.41551 0.390813,1.130004 0.232219,1.610546 -0.140673,0.426245 -0.563417,0.89242 -0.981525,1.082362 -0.436991,0.198522 -1.099351,0.198522 -1.536345,0 z"
     id="path9" />
  <path
     style="fill:#00d455;fill-opacity:1;fill-rule:evenodd;stroke:#0000ff;stroke-width:0.499999;stroke-dasharray:none"
     d="m 56.407706,82.413668 c -0.740664,-0.268619 -1.214168,-0.935707 -1.214168,-1.710561 0,-0.57322 0.08066,-0.795996 0.433888,-1.198295 0.429553,-0.489236 0.857157,-0.66852 1.497253,-0.627761 0.709872,0.0452 1.170845,0.353253 1.507731,1.00756 0.200742,0.389887 0.234124,0.541946 0.199011,0.906544 -0.04872,0.505915 -0.197127,0.829432 -0.538882,1.174732 -0.496686,0.50184 -1.245354,0.679698 -1.884833,0.447781 z"
     id="path10" />
  <path
     style="fill:#00d455;fill-opacity:1;fill-rule:evenodd;stroke:#0000ff;stroke-width:0.499999;stroke-dasharray:none"
     d="m 35.154788,86.91092 c -1.494033,-0.647139 -1.482421,-2.77128 0.01857,-3.398284 1.597014,-0.667113 3.151774,1.166706 2.239793,2.641801 -0.467127,0.755562 -1.478428,1.094316 -2.258372,0.756483 z"
     id="path11" />
  <path
     style="fill:#00d455;fill-opacity:1;fill-rule:evenodd;stroke:#0000ff;stroke-width:0.499999;stroke-dasharray:none"
     d="m 101.77105,83.199734 c -1.29134,-0.639201 -1.38722,-2.405488 -0.17415,-3.208335 0.30468,-0.201655 0.44232,-0.235222 0.96444,-0.235222 0.52202,0 0.65987,0.0336 0.96484,0.235222 0.96661,0.639038 1.1578,1.921592 0.41291,2.769971 -0.53369,0.607848 -1.45096,0.793313 -2.16804,0.438364 z"
     id="path12" />
  <path
     style="fill:#00d455;fill-opacity:1;fill-rule:evenodd;stroke:#0000ff;stroke-width:0.499999;stroke-dasharray:none"
     d="m 144.98674,83.285332 c -0.72194,-0.288123 -1.24817,-1.12654 -1.17633,-1.874197 0.11636,-1.210956 1.42354,-2.022988 2.51954,-1.565164 1.49853,0.62597 1.49853,2.775834 0,3.401803 -0.35317,0.147527 -1.02089,0.166198 -1.34321,0.03756 z"
     id="path13" />
  <path
     style="fill:#00d455;fill-opacity:1;fill-rule:evenodd;stroke:#0000ff;stroke-width:0.499999;stroke-dasharray:none"
     d="m 159.39503,80.294442 c -0.48118,-0.247263 -0.81729,-0.842663 -0.73209,-1.296839 0.13267,-0.707213 0.74203,-1.198726 1.40269,-1.131424 0.42518,0.04331 0.73432,0.243549 1.02111,0.661405 0.16093,0.234471 0.19206,0.370075 0.16113,0.701998 -0.0905,0.971018 -1.0086,1.498687 -1.85284,1.06486 z"
     id="path14" />
  <path
     style="fill:#00d455;fill-opacity:1;fill-rule:evenodd;stroke:#0000ff;stroke-width:0.499999;stroke-dasharray:none"
     d="m 182.11983,23.186822 c -0.66321,-0.168197 -1.21281,-0.672748 -1.39492,-1.280579 -0.21191,-0.70731 -0.0563,-1.271436 0.49946,-1.810594 0.86511,-0.839285 2.13251,-0.711676 2.78933,0.280846 0.20889,0.315649 0.23791,0.439984 0.23791,1.019239 0,0.595752 -0.0249,0.695141 -0.25659,1.024823 -0.4037,0.574397 -1.25694,0.92306 -1.87519,0.766265 z"
     id="path15" />
  <path
     style="fill:#00d455;fill-opacity:1;fill-rule:evenodd;stroke:#0000ff;stroke-width:0.499999;stroke-dasharray:none"
     d="m 144.94646,28.278124 c -0.47728,-0.13223 -1.09135,-0.769143 -1.2345,-1.280432 -0.32593,-1.164109 0.56432,-2.310978 1.79475,-2.312107 0.83274,-7.68e-4 1.48975,0.513414 1.74662,1.366901 0.15389,0.51135 0.0736,0.969219 -0.25625,1.461382 -0.44779,0.668125 -1.27918,0.977982 -2.05062,0.764256 z"
     id="path16" />
  <path
     style="fill:#00d455;fill-opacity:1;fill-rule:evenodd;stroke:#0000ff;stroke-width:0.499999;stroke-dasharray:none"
     d="m 194.39711,139.71094 c -0.52793,-0.16543 -0.7982,-0.38132 -1.0695,-0.85432 -0.61722,-1.07611 -0.047,-2.36853 1.18812,-2.69297 1.05593,-0.27737 2.22438,0.663 2.22438,1.79017 0,0.78322 -0.6339,1.58808 -1.40335,1.78183 -0.45079,0.11351 -0.50293,0.11214 -0.93965,-0.0247 z"
     id="path17" />
  <path
     style="fill:#00d455;fill-opacity:1;fill-rule:evenodd;stroke:#0000ff;stroke-width:0.499999;stroke-dasharray:none"
     d="m 151.28636,134.85788 c -0.46104,-0.24133 -0.89889,-0.8588 -0.97664,-1.37727 -0.15354,-1.02384 0.77744,-2.08974 1.82736,-2.0922 0.95464,-0.002 1.82617,0.87314 1.82398,1.83202 -0.003,1.38832 -1.45393,2.27646 -2.6747,1.63745 z"
     id="path18" />
  <path
     style="fill:#00d455;fill-opacity:1;fill-rule:evenodd;stroke:#0000ff;stroke-width:0.499999;stroke-dasharray:none"
     d="m 84.086715,129.92282 c -0.417825,-0.11127 -0.996217,-0.61961 -1.189723,-1.04563 -0.30349,-0.66817 -0.139229,-1.50341 0.400773,-2.03787 0.388702,-0.38471 0.71293,-0.51758 1.271727,-0.52115 0.409239,-0.003 0.592231,0.0441 0.9144,0.23319 0.71482,0.41965 1.086946,1.38307 0.832274,2.15473 -0.167143,0.50644 -0.713126,1.03936 -1.218647,1.18949 -0.482333,0.14324 -0.566682,0.14551 -1.010804,0.0272 z"
     id="path19" />
  <path
     style="fill:#00d455;fill-opacity:1;fill-rule:evenodd;stroke:#0000ff;stroke-width:0.499999;stroke-dasharray:none"
     d="m 81.895537,114.91703 c -0.428993,-0.21234 -0.82413,-0.71253 -0.959229,-1.21425 -0.229777,-0.85332 0.418015,-1.95227 1.287341,-2.1839 1.322702,-0.35243 2.611631,0.84698 2.301126,2.1413 -0.285954,1.19199 -1.544674,1.7937 -2.629238,1.25685 z"
     id="path20" />
  <path
     style="fill:#00d455;fill-opacity:1;fill-rule:evenodd;stroke:#0000ff;stroke-width:0.499999;stroke-dasharray:none"
     d="m 60.479805,135.0602 c -0.96347,-0.29308 -1.524889,-1.17917 -1.349764,-2.13033 0.214116,-1.16292 1.55112,-1.83794 2.587773,-1.30651 0.433025,0.22199 0.668771,0.47666 0.887158,0.95837 0.319442,0.70461 0.178578,1.36819 -0.416829,1.9636 -0.514295,0.51429 -1.115023,0.69534 -1.708338,0.51487 z"
     id="path21" />
  <path
     style="fill:#00d455;fill-opacity:1;fill-rule:evenodd;stroke:#0000ff;stroke-width:0.499999;stroke-dasharray:none"
     d="m 39.733686,123.85143 c -0.806223,-0.30056 -1.379911,-0.91882 -1.628117,-1.75462 -0.172855,-0.58207 -0.172706,-0.96011 5.3e-4,-1.54417 0.219257,-0.73891 0.633798,-1.23971 1.354814,-1.63673 0.521949,-0.2874 1.551308,-0.2682 2.139458,0.0399 0.886063,0.46417 1.397635,1.33169 1.397635,2.3701 0,1.44481 -0.992378,2.53626 -2.377241,2.61454 -0.351907,0.0199 -0.684493,-0.0135 -0.887154,-0.089 z"
     id="path22" />
  <path
     style="fill:#00d455;fill-opacity:1;fill-rule:evenodd;stroke:#0000ff;stroke-width:0.499999;stroke-dasharray:none"
     d="m 54.523259,95.817239 c -0.61295,-0.176384 -1.219624,-0.693684 -1.537679,-1.311142 -0.665885,-1.292723 -0.194398,-2.848989 1.092298,-3.605422 0.342206,-0.201176 0.481068,-0.229647 1.11566,-0.228753 0.586431,7.94e-4 0.789924,0.03697 1.06589,0.189288 0.759307,0.419108 1.167956,0.935591 1.372754,1.734997 0.494818,1.931469 -1.262658,3.752324 -3.108923,3.221032 z"
     id="path23" />
  <path
     style="fill:#00d455;fill-opacity:1;fill-rule:evenodd;stroke:#0000ff;stroke-width:0.499999;stroke-dasharray:none"
     d="m 18.970723,147.59849 c -1.165355,-0.40252 -1.924546,-1.6146 -1.779324,-2.84077 0.183758,-1.55156 1.721466,-2.66694 3.108763,-2.25496 1.151511,0.34196 1.902555,1.35696 1.902555,2.57121 0,1.24476 -0.805209,2.29305 -1.986844,2.58662 -0.530719,0.13186 -0.709406,0.12295 -1.24515,-0.0621 z"
     id="path24" />
  <path
     style="fill:#00d455;fill-opacity:1;fill-rule:evenodd;stroke:#0000ff;stroke-width:0.499999;stroke-dasharray:none"
     d="m 8.1664302,153.22626 c -1.4649148,-0.67824 -1.4011619,-2.75934 0.1038503,-3.39002 0.9584288,-0.40163 2.1452455,0.21212 2.4200265,1.2515 0.391724,1.48172 -1.1397409,2.77935 -2.5238768,2.13852 z"
     id="path25" />
  <path
     style="fill:#00d455;fill-opacity:1;fill-rule:evenodd;stroke:#0000ff;stroke-width:0.499999;stroke-dasharray:none"
     d="m 48.351292,145.93775 c -0.687017,-0.25488 -1.092491,-0.68727 -1.271249,-1.35563 -0.292783,-1.09468 0.641474,-2.24094 1.81524,-2.22717 1.457293,0.0171 2.289458,1.6292 1.47815,2.86353 -0.41262,0.62776 -1.36026,0.96484 -2.022141,0.71927 z"
     id="path26" />
  <path
     style="fill:#00d455;fill-opacity:1;fill-rule:evenodd;stroke:#0000ff;stroke-width:0.499999;stroke-dasharray:none"
     d="m 64.74692,129.68811 c -0.04855,-0.0907 -0.08827,-0.2219 -0.08827,-0.29153 0,-0.0696 1.947383,-1.90382 4.327517,-4.07598 2.380133,-2.17215 4.615307,-4.2228 4.967052,-4.55698 1.178816,-1.11996 4.218799,-3.88831 4.412787,-4.01848 0.172177,-0.11554 0.213733,-0.11442 0.40504,0.0109 0.457279,0.29962 0.375687,0.4016 -2.270374,2.83767 -1.365951,1.25755 -4.44531,4.07977 -6.843019,6.2716 -4.55766,4.16632 -4.677109,4.25931 -4.910733,3.82278 z"
     id="path27" />
  <path
     style="fill:#00d455;fill-opacity:1;fill-rule:evenodd;stroke:#0000ff;stroke-width:0.499999;stroke-dasharray:none"
     d="m 101.9222,77.82643 c -2.061826,-0.173371 -3.84576,-1.665933 -4.572978,-3.826065 -0.151426,-0.449794 -0.158896,-1.222949 -0.182478,-18.887077 -0.01405,-10.523114 0.009,-18.994215 0.05389,-19.762132 0.07478,-1.280781 0.09239,-1.373121 0.374272,-1.96175 0.614013,-1.282216 1.456563,-2.150335 2.664504,-2.745364 0.78297,-0.385694 1.18091,-0.468516 2.26309,-0.471027 1.0529,-0.0024 1.66537,0.135551 2.46377,0.555098 1.35225,0.710589 2.33835,1.915729 2.78852,3.407931 0.14638,0.485146 0.15668,1.495835 0.19934,19.527123 0.025,10.57193 0.0122,19.20481 -0.0289,19.44185 -0.0406,0.234495 -0.079,0.512694 -0.0853,0.618215 -0.006,0.105524 -0.0402,0.19186 -0.0754,0.19186 -0.0352,0 -0.064,0.05312 -0.064,0.118034 0,0.331099 -0.74135,1.563817 -1.28191,2.131575 -1.2383,1.300581 -2.64713,1.818921 -4.51653,1.661729 z"
     id="path28" />
  <path
     style="fill:#00d455;fill-opacity:1;fill-rule:evenodd;stroke:#0000ff;stroke-width:0.499999;stroke-dasharray:none"
     d="m 144.85891,77.830788 c -1.60723,-0.24321 -2.95977,-1.134099 -3.87753,-2.554049 -0.18256,-0.282467 -0.41806,-0.752356 -0.52333,-1.0442 l -0.19139,-0.530624 -0.0708,-9.848832 c -0.0389,-5.416856 -0.0404,-14.280805 -0.003,-19.697665 0.0676,-9.837052 0.0679,-9.849437 0.25416,-10.354675 0.56994,-1.54568 1.83298,-2.810044 3.34547,-3.348982 0.82897,-0.295381 2.16468,-0.367517 2.98839,-0.16139 0.92458,0.231367 1.84882,0.739772 2.4461,1.345546 0.64158,0.650692 0.87585,0.986888 1.28553,1.844791 l 0.31294,0.655336 0.0544,8.953484 c 0.0803,13.207754 0.0811,30.584397 0.002,30.690473 -0.0382,0.05085 -0.15734,0.302157 -0.26478,0.558456 -0.99895,2.383012 -3.41273,3.847145 -5.75748,3.492331 z"
     id="path30" />
  <g
     id="path32"
     style="opacity:1" />
  <path
     style="fill:#00d455;fill-opacity:1;fill-rule:nonzero;stroke:#0000ff;stroke-width:0.0155159;stroke-dasharray:none"
     d=""
     id="path33" />
</svg>
