<?xml version="1.0" encoding="utf-8"?>
<!-- Generator: Adobe Illustrator 27.0.0, SVG Export Plug-In . SVG Version: 6.00 Build 0)  -->
<svg version="1.1" id="Layer_3" xmlns="http://www.w3.org/2000/svg" xmlns:xlink="http://www.w3.org/1999/xlink" x="0px" y="0px"
	 viewBox="0 0 324.7 211.9" style="enable-background:new 0 0 324.7 211.9;" xml:space="preserve">
<style type="text/css">
	.st0{fill:#232020;}
	.st1{fill:#C7DBEE;stroke:#526A7A;stroke-miterlimit:10;}
	.st2{fill:#526A7A;stroke:#526A7A;stroke-linejoin:round;stroke-miterlimit:10;}
	.st3{fill:#526A7A;}
	.st4{fill:#C7DBEE;stroke:#526A7A;stroke-linejoin:round;stroke-miterlimit:10;}
	.st5{fill:none;stroke:#000000;stroke-width:1.5;stroke-linejoin:round;}
	.st6{fill:none;stroke:#000000;stroke-width:1.5;stroke-linecap:round;stroke-linejoin:round;}
	.st7{fill:none;stroke:#17AE4B;stroke-width:3;stroke-linecap:round;stroke-linejoin:round;}
	.st8{fill:#17AE4B;}
	.st9{fill:none;stroke:#929497;stroke-width:3;stroke-linecap:round;stroke-linejoin:round;}
	.st10{fill:#929497;}
	.st11{fill:#EB5A29;}
	.st12{fill:none;stroke:#000000;stroke-width:1.5;stroke-linecap:round;stroke-linejoin:round;stroke-miterlimit:10;}
	.st13{fill:none;stroke:#EC2024;stroke-width:3;stroke-linecap:round;stroke-linejoin:round;}
	.st14{fill:#EC2024;}
	.st15{fill:none;stroke:#000000;stroke-width:3;stroke-linecap:round;stroke-linejoin:round;}
	.st16{fill:none;stroke:#FFFFFF;stroke-width:1.6;stroke-linecap:round;stroke-linejoin:round;}
	.st17{fill:#FFFFFF;}
	.st18{fill:#C7DBEE;}
	.st19{fill:#FFFFFF;stroke:#BABCBE;stroke-width:0.75;stroke-miterlimit:10;}
	.st20{fill:#C7DBEE;stroke:#000000;stroke-width:0.75;stroke-miterlimit:10;}
	.st21{fill:#FBF7C0;stroke:#000000;stroke-width:0.75;stroke-miterlimit:10;}
	.st22{fill:none;stroke:#000000;stroke-width:0.75;stroke-miterlimit:10;}
	.st23{fill:none;stroke:#000000;stroke-width:0.5;stroke-miterlimit:10;}
</style>
<g>
	<g>
		<g>
			<path class="st0" d="M69.9,177.2h-1.7l-0.3,1.7c0.1,0,0.1,0,0.2,0c0.3,0,0.9,0.2,1.2,0.5c0.3,0.3,0.5,0.8,0.5,1.5
				c0,1.3-0.8,2.2-2,2.2c-0.4,0-0.8-0.1-1.1-0.3l0.2-0.6c0.2,0.1,0.5,0.3,0.9,0.3c0.7,0,1.2-0.5,1.2-1.5s-0.6-1.5-1.5-1.5
				c-0.2,0-0.4,0-0.5,0l0.4-3h2.3v0.7H69.9z"/>
			<path class="st0" d="M72.9,180.2v0.6h-2.2v-0.6H72.9z"/>
			<path class="st0" d="M74.2,178.2l0.5,2.4c0.1,0.5,0.2,1,0.3,1.5l0,0c0.1-0.5,0.2-1.1,0.3-1.5l0.6-2.4h0.6l0.5,2.3
				c0.1,0.5,0.2,1,0.3,1.6l0,0c0.1-0.5,0.1-1,0.3-1.6l0.5-2.3h0.8l-1.2,4.8h-0.6l-0.6-2.3c-0.1-0.5-0.2-0.9-0.3-1.4l0,0
				c-0.1,0.6-0.2,1-0.3,1.5l-0.6,2.3h-0.6l-1.2-4.8h0.7V178.2z"/>
			<path class="st0" d="M81.4,183.1l-0.1-0.5l0,0c-0.2,0.4-0.5,0.6-1,0.6c-0.6,0-1.1-0.5-1.1-1.4c0-1.2,1-1.7,2.1-1.8v-0.1
				c0-0.7-0.2-1.1-0.8-1.1c-0.3,0-0.6,0.1-0.8,0.2l-0.2-0.5c0.2-0.2,0.6-0.3,1.1-0.3c1,0,1.4,0.6,1.4,1.7v2.1c0,0.4,0,0.8,0.1,1.1
				H81.4z M81.2,180.6c-0.4,0-1.3,0.1-1.3,1.1c0,0.6,0.3,0.9,0.6,0.9c0.3,0,0.6-0.2,0.7-0.7c0-0.1,0-0.2,0-0.3
				C81.2,181.6,81.2,180.6,81.2,180.6z"/>
			<path class="st0" d="M83.5,178.2l0.6,2.8c0.1,0.4,0.1,0.7,0.2,1l0,0c0.1-0.3,0.1-0.6,0.2-1l0.6-2.8h0.8l-0.8,3.1
				c-0.3,1.2-0.6,2.4-1.2,3.1c-0.3,0.4-0.7,0.7-0.9,0.7l-0.3-0.7c0.2-0.1,0.5-0.3,0.7-0.6c0.2-0.2,0.4-0.6,0.4-0.8
				c0-0.1,0-0.2,0-0.2c0-0.1,0-0.1,0-0.2l-1.2-4.5L83.5,178.2L83.5,178.2z"/>
			<path class="st0" d="M70.1,192.9c-0.2,0.1-0.5,0.2-1,0.2c-1.3,0-2.3-1.1-2.3-3.3c0-2.7,1.3-3.5,2.4-3.5c0.4,0,0.7,0.1,0.8,0.2
				l-0.2,0.7c-0.2-0.1-0.3-0.1-0.7-0.1c-0.7,0-1.6,0.7-1.6,2.8s0.8,2.7,1.6,2.7c0.3,0,0.5-0.1,0.7-0.1L70.1,192.9z"/>
			<path class="st0" d="M70.9,186.4c0.3-0.1,0.7-0.1,1.1-0.1c0.7,0,1.2,0.1,1.5,0.5c0.3,0.3,0.5,0.8,0.5,1.3c0,0.9-0.4,1.4-1.1,1.7
				l0,0c0.5,0.2,0.8,0.6,0.9,1.5c0.2,0.9,0.3,1.5,0.4,1.7h-0.8c-0.1-0.2-0.2-0.8-0.4-1.7c-0.1-0.9-0.4-1.3-1.1-1.3h-0.3v2.9h-0.8
				v-6.5H70.9z M71.7,189.5H72c0.7,0,1.2-0.5,1.2-1.3s-0.3-1.3-1.1-1.3c-0.1,0-0.3,0-0.4,0V189.5z"/>
			<path class="st0" d="M75,186.3h0.8v6.1h1.9v0.6H75V186.3z"/>
			<path class="st0" d="M79.8,192.3c0.2,0.1,0.5,0.2,0.8,0.2c0.4,0,0.7-0.3,0.7-0.7s-0.1-0.6-0.6-0.9c-0.6-0.4-1-0.8-1-1.4
				c0-0.8,0.6-1.3,1.3-1.3c0.4,0,0.7,0.1,0.9,0.2l-0.2,0.6c-0.2-0.1-0.4-0.2-0.6-0.2c-0.4,0-0.6,0.3-0.6,0.6s0.1,0.5,0.6,0.8
				c0.6,0.4,1,0.8,1,1.5c0,1-0.7,1.4-1.4,1.4c-0.4,0-0.7-0.1-1-0.3L79.8,192.3z"/>
			<path class="st0" d="M83.3,188.2l0.5,2.4c0.1,0.5,0.2,1,0.3,1.5l0,0c0.1-0.5,0.2-1.1,0.3-1.5l0.6-2.4h0.6l0.5,2.3
				c0.1,0.5,0.2,1,0.3,1.6l0,0c0.1-0.5,0.1-1,0.3-1.6l0.5-2.3H88l-1.2,4.8H86l-0.6-2.3c-0.1-0.5-0.2-0.9-0.3-1.4l0,0
				c-0.1,0.6-0.2,1-0.3,1.5l-0.6,2.3h-0.6l-1.2-4.8h0.9V188.2z"/>
			<path class="st0" d="M89.4,187c0,0.3-0.2,0.5-0.5,0.5c-0.2,0-0.4-0.2-0.4-0.5s0.2-0.5,0.4-0.5C89.2,186.5,89.4,186.7,89.4,187z
				 M88.5,193.1v-4.8h0.8v4.8H88.5z"/>
			<path class="st0" d="M91.3,186.9v1.3h0.9v0.6h-0.9v2.9c0,0.6,0.2,0.8,0.5,0.8c0.1,0,0.2,0,0.3,0v0.6c-0.1,0-0.3,0.1-0.6,0.1
				c-0.3,0-0.6-0.1-0.8-0.3c-0.2-0.2-0.3-0.5-0.3-1.2v-2.8h-0.6v-0.6h0.6v-1.1L91.3,186.9z"/>
			<path class="st0" d="M95.3,192.9c-0.2,0.1-0.5,0.2-0.8,0.2c-1.1,0-1.8-0.8-1.8-2.4c0-1.4,0.7-2.5,1.9-2.5c0.3,0,0.5,0.1,0.7,0.1
				l-0.1,0.6c-0.1,0-0.3-0.1-0.5-0.1c-0.8,0-1.1,0.9-1.1,1.9c0,1.1,0.4,1.8,1.1,1.8c0.2,0,0.4,0,0.6-0.1L95.3,192.9z"/>
			<path class="st0" d="M95.9,186.1h0.8v2.6l0,0c0.1-0.2,0.2-0.3,0.4-0.4c0.2-0.1,0.4-0.2,0.6-0.2c0.6,0,1.1,0.5,1.1,1.7v3.2H98
				v-3.1c0-0.6-0.1-1.1-0.6-1.1c-0.4,0-0.6,0.3-0.7,0.8c0,0.1,0,0.2,0,0.4v3.1h-0.8V186.1z"/>
		</g>
		<g>
			<path class="st1" d="M73.9,135.9c-0.8-0.8-2.1-0.8-2.9,0l-8.3,8.3c-0.8,0.8-0.8,2.1,0,2.9l47.6,47.6c0.8,0.8,2.1,0.8,2.9,0
				l8.3-8.3c0.8-0.8,0.8-2.1,0-2.9L73.9,135.9z"/>
			<g>
				<path class="st1" d="M76.7,145.2l-4.3,4.3c-1.1,1.1-2.8,1.1-3.9,0s-1.1-2.8,0-3.9l4.3-4.3L76.7,145.2z"/>
				<path class="st1" d="M88.3,156.8l-4.3,4.3c-1.1,1.1-2.8,1.1-3.9,0s-1.1-2.8,0-3.9l4.3-4.3L88.3,156.8z"/>
				<path class="st1" d="M99.8,168.4l-4.3,4.3c-1.1,1.1-2.8,1.1-3.9,0s-1.1-2.8,0-3.9l4.3-4.3L99.8,168.4z"/>
				<path class="st1" d="M111.4,179.9l-4.3,4.3c-1.1,1.1-2.8,1.1-3.9,0s-1.1-2.8,0-3.9l4.3-4.3L111.4,179.9z"/>
				<path class="st1" d="M84.6,146.6l4.3-4.3c1.1-1.1,1.1-2.8,0-3.9c-1.1-1.1-2.8-1.1-3.9,0l-4.3,4.3L84.6,146.6z"/>
				<path class="st1" d="M96.2,158.2l4.3-4.3c1.1-1.1,1.1-2.8,0-3.9c-1.1-1.1-2.8-1.1-3.9,0l-4.3,4.3L96.2,158.2z"/>
				<path class="st1" d="M107.7,169.7l4.3-4.3c1.1-1.1,1.1-2.8,0-3.9c-1.1-1.1-2.8-1.1-3.9,0l-4.3,4.3L107.7,169.7z"/>
				<path class="st1" d="M119.3,181.3l4.3-4.3c1.1-1.1,1.1-2.8,0-3.9c-1.1-1.1-2.8-1.1-3.9,0l-4.3,4.3L119.3,181.3z"/>
			</g>
			<polygon class="st2" points="117.8,186.3 70.9,139.5 74.2,136.2 121.1,183.1 			"/>
		</g>
	</g>
	<g>
		<g>
			<g>
				<g>
					<path class="st1" d="M165,129l12.9,12.9c0.9,0.9,0.9,2.3,0,3.1c-0.9,0.9-2.3,0.9-3.1,0l-12.9-12.9L165,129z"/>
					<path class="st1" d="M171.4,122.6l12.9,12.9c0.9,0.9,0.9,2.3,0,3.1c-0.9,0.9-2.3,0.9-3.1,0l-12.9-12.9L171.4,122.6z"/>
					<path class="st1" d="M158.6,135.3l12.9,12.9c0.9,0.9,0.9,2.3,0,3.1c-0.9,0.9-2.3,0.9-3.1,0l-12.9-12.9L158.6,135.3z"/>
				</g>
				<g>
					<path class="st1" d="M153.6,139.6c5.2,5.2,13.7,5.2,19,0c5.2-5.2,5.2-13.8,0-19s-13.8-5.2-19,0
						C148.4,125.8,148.4,134.3,153.6,139.6z"/>
				</g>
			</g>
			<g>
				<path class="st3" d="M159.6,137.1l-1.4-1l-0.8,0.9c0.1,0,0.2,0.1,0.3,0.2c0.3,0.2,0.5,0.5,0.7,0.8c0.2,0.4,0.2,0.9-0.1,1.3
					c-0.5,0.7-1.5,0.9-2.3,0.3c-0.4-0.3-0.7-0.6-0.8-0.9l0.4-0.3c0.1,0.2,0.3,0.5,0.7,0.8c0.5,0.3,1.1,0.3,1.4-0.2
					c0.3-0.5,0.2-1.1-0.5-1.6c-0.2-0.1-0.4-0.2-0.5-0.3l1.5-1.6l1.8,1.2L159.6,137.1z"/>
				<path class="st3" d="M162.4,139.6c-0.3,1.5-1.1,2.2-2.1,2c-0.9-0.2-1.3-1.1-0.9-2.6c0.3-1.5,1.2-2.2,2.1-2
					C162.4,137.3,162.8,138.2,162.4,139.6z M160,139.1c-0.3,1.2-0.1,1.9,0.5,2c0.6,0.1,1.1-0.5,1.3-1.6c0.3-1.1,0.1-1.9-0.5-2
					C160.8,137.4,160.3,137.9,160,139.1z"/>
				<path class="st3" d="M166.2,139.2c0.2,1.5-0.2,2.5-1.2,2.6c-0.9,0.1-1.6-0.6-1.8-2.1c-0.2-1.5,0.3-2.4,1.2-2.6
					C165.3,137,166,137.7,166.2,139.2z M163.8,139.6c0.2,1.2,0.6,1.8,1.2,1.7c0.6-0.1,0.8-0.9,0.6-2c-0.2-1.1-0.6-1.8-1.2-1.7
					C163.8,137.7,163.6,138.4,163.8,139.6z"/>
				<path class="st3" d="M166.5,137.6l0.5-0.3l0.9,1.5l0,0c0-0.2,0.1-0.4,0.1-0.5l0.4-1.9l0.6-0.4l-0.6,2.2l2.6,0.9l-0.6,0.4
					l-2.2-0.7l-0.1,0.6l0.7,1.2l-0.5,0.3L166.5,137.6z"/>
			</g>
		</g>
		<g>
			<path class="st3" d="M156.8,133.2l-1.8-5.7h1.7l0.6,2.3c0.2,0.6,0.3,1.3,0.5,2l0,0c0.1-0.7,0.3-1.4,0.5-2l0.6-2.3h1.6l-1.9,5.7
				H156.8z"/>
			<path class="st3" d="M166.4,130.2c0,1.8-1.1,3-2.9,3c-1.8,0-2.8-1.3-2.8-2.9c0-1.7,1.1-3,2.8-3
				C165.5,127.3,166.4,128.7,166.4,130.2z M162.4,130.3c0,1.1,0.5,1.7,1.2,1.7s1.2-0.7,1.2-1.8c0-1-0.4-1.7-1.2-1.7
				C162.9,128.6,162.4,129.2,162.4,130.3z"/>
			<path class="st3" d="M167.1,127.4h1.5v4.4h2.2v1.3h-3.7V127.4z"/>
		</g>
	</g>
	<g>
		<g>
			<g>
				<g>
					<g>
						<path class="st1" d="M205.1,180.8l-12.9-12.9c-0.9-0.9-2.3-0.9-3.1,0c-0.9,0.9-0.9,2.3,0,3.1l12.9,12.9L205.1,180.8z"/>
						<path class="st1" d="M211.5,174.4l-12.9-12.9c-0.9-0.9-2.3-0.9-3.1,0c-0.9,0.9-0.9,2.3,0,3.1l12.9,12.9L211.5,174.4z"/>
						<path class="st1" d="M198.8,187.2l-12.9-12.9c-0.9-0.9-2.3-0.9-3.1,0c-0.9,0.9-0.9,2.3,0,3.1l12.9,12.9L198.8,187.2z"/>
					</g>
					<g>
						<path class="st1" d="M194.5,192.2c-5.2-5.2-5.2-13.7,0-19c5.2-5.2,13.8-5.2,19,0s5.2,13.8,0,19S199.8,197.4,194.5,192.2z"/>
					</g>
				</g>
			</g>
		</g>
		<g>
			<path class="st3" d="M194.8,181h-1.5v-1.3h4.5v1.3h-1.5v4.4h-1.5V181z"/>
			<path class="st3" d="M203.9,182.5c0,1.8-1.1,3-2.9,3c-1.8,0-2.8-1.3-2.8-2.9c0-1.7,1.1-3,2.8-3
				C202.9,179.6,203.9,181,203.9,182.5z M199.9,182.6c0,1.1,0.5,1.7,1.2,1.7s1.2-0.7,1.2-1.8c0-1-0.4-1.7-1.2-1.7
				C200.3,180.9,199.9,181.6,199.9,182.6z"/>
			<path class="st3" d="M204.6,185.5v-5.7h1.8l0.9,1.8c0.3,0.6,0.6,1.3,0.9,2l0,0c-0.1-0.8-0.1-1.6-0.1-2.4v-1.4h1.4v5.7h-1.6
				l-1-1.9c-0.3-0.6-0.7-1.4-1-2.1l0,0c0,0.8,0.1,1.6,0.1,2.6v1.4L204.6,185.5L204.6,185.5z"/>
			<path class="st3" d="M214.1,183.2H212v1.1h2.3v1.3h-3.8v-5.7h3.7v1.2H212v0.9h2.1V183.2z"/>
		</g>
		<g>
			<path class="st3" d="M200.6,189.4l-1.4-1l-0.8,0.9c0.1,0,0.2,0.1,0.3,0.2c0.3,0.2,0.5,0.5,0.7,0.8c0.2,0.4,0.2,0.9-0.1,1.3
				c-0.5,0.7-1.5,0.9-2.3,0.3c-0.4-0.3-0.7-0.6-0.8-0.9l0.4-0.3c0.1,0.2,0.3,0.5,0.7,0.8c0.5,0.3,1.1,0.3,1.4-0.2
				c0.3-0.5,0.2-1.1-0.5-1.6c-0.2-0.1-0.4-0.2-0.5-0.3l1.5-1.6l1.8,1.2L200.6,189.4z"/>
			<path class="st3" d="M203.4,191.9c-0.3,1.5-1.1,2.2-2.1,2c-0.9-0.2-1.3-1.1-0.9-2.6c0.3-1.5,1.2-2.2,2.1-2
				C203.3,189.6,203.7,190.5,203.4,191.9z M200.9,191.5c-0.3,1.2-0.1,1.9,0.5,2c0.6,0.1,1.1-0.5,1.3-1.6c0.3-1.1,0.1-1.9-0.5-2
				C201.7,189.7,201.2,190.3,200.9,191.5z"/>
			<path class="st3" d="M207.1,191.5c0.2,1.5-0.2,2.5-1.2,2.6c-0.9,0.1-1.6-0.6-1.8-2.1c-0.2-1.5,0.3-2.4,1.2-2.6
				C206.2,189.3,206.9,190.1,207.1,191.5z M204.7,191.9c0.2,1.2,0.6,1.8,1.2,1.7c0.6-0.1,0.8-0.9,0.6-2c-0.2-1.1-0.6-1.8-1.2-1.7
				C204.8,190,204.5,190.7,204.7,191.9z"/>
			<path class="st3" d="M207.4,189.9l0.5-0.3l0.9,1.5l0,0c0-0.2,0.1-0.4,0.1-0.5l0.4-1.9l0.6-0.4l-0.6,2.2l2.6,0.9l-0.6,0.4
				l-2.2-0.7l-0.1,0.6l0.7,1.2l-0.5,0.3L207.4,189.9z"/>
		</g>
	</g>
	<g>
		<g>
			<path class="st1" d="M276.3,135.5c0-1-0.8-1.7-1.7-1.7h-11l-4.6-4.6c-0.7-0.7-1.8-0.7-2.4,0l-4,4c-0.7,0.7-0.7,1.8,0,2.4
				c0.7,0.7,1.8,0.7,2.4,0l2.8-2.8l3.9,3.9c0.3,0.3,0.8,0.5,1.2,0.5l0,0h10v6.8c0,0.9,0.8,1.7,1.7,1.7s1.7-0.8,1.7-1.7V135.5z"/>
			<g>
				<g>
					<path class="st4" d="M276.3,137.7h12.1v-13.2h-12.1v-7.7c0-0.9-0.8-1.7-1.7-1.7s-1.7,0.8-1.7,1.7v9.4c0,0.9,0.8,1.7,1.7,1.7
						h1.7V137.7z"/>
				</g>
			</g>
			<rect x="276.3" y="120" class="st2" width="3.9" height="22.2"/>
		</g>
		<g>
			<g>
				<g>
					<polyline class="st5" points="274.5,116.9 178.1,116.9 173.4,121.6 					"/>
					<g>
						<path d="M274.5,114.9c1.1,0,2,0.9,2,2s-0.9,2-2,2s-2-0.9-2-2S273.4,114.9,274.5,114.9z"/>
					</g>
					<g>
						<path d="M172,120.2c-0.8,0.8-0.8,2,0,2.8s2,0.8,2.8,0s0.8-2,0-2.8C174,119.5,172.8,119.5,172,120.2z"/>
					</g>
				</g>
			</g>
			<g>
				<g>
					<line class="st5" x1="176.7" y1="144" x2="274.5" y2="144"/>
					<g>
						<path d="M176.7,146c-1.1,0-2-0.9-2-2s0.9-2,2-2s2,0.9,2,2S177.8,146,176.7,146z"/>
					</g>
					<g>
						<circle cx="274.5" cy="144" r="2"/>
					</g>
				</g>
			</g>
		</g>
		<g>
			<path class="st0" d="M258.6,150.3c0,2.5-0.9,3.5-1.9,3.5c-1.1,0-1.9-1.2-1.9-3.5c0-2.2,0.8-3.4,2-3.4
				C257.9,146.9,258.6,148.1,258.6,150.3z M255.6,150.3c0,1.4,0.3,2.8,1.1,2.8c0.9,0,1.1-1.5,1.1-2.8s-0.2-2.7-1.1-2.7
				C255.8,147.6,255.6,149,255.6,150.3z"/>
			<path class="st0" d="M262.3,152.4c0,0.5,0,1,0,1.3h-0.7v-0.5l0,0c-0.1,0.2-0.5,0.6-1,0.6c-0.8,0-1.2-0.7-1.2-1.9v-3.1h0.8v2.9
				c0,0.8,0.1,1.3,0.6,1.3s0.7-0.4,0.7-0.6c0-0.1,0-0.3,0-0.4v-3.2h0.8L262.3,152.4L262.3,152.4z"/>
			<path class="st0" d="M264.4,147.6v1.3h0.9v0.6h-0.9v2.9c0,0.6,0.2,0.8,0.5,0.8c0.1,0,0.2,0,0.3,0v0.6c-0.1,0-0.3,0.1-0.6,0.1
				c-0.3,0-0.6-0.1-0.8-0.3c-0.2-0.2-0.3-0.5-0.3-1.2v-2.8H263V149h0.6v-1.1L264.4,147.6z"/>
			<path class="st0" d="M266,150.4c0-0.7,0-1.2,0-1.5h0.7v0.6l0,0c0.3-0.5,0.6-0.7,1-0.7c0.8,0,1.4,0.9,1.4,2.5
				c0,1.8-0.7,2.5-1.5,2.5c-0.5,0-0.7-0.3-0.8-0.6l0,0v2.4H266V150.4z M266.7,151.9c0,0.1,0,0.3,0,0.4c0.2,0.7,0.5,0.8,0.7,0.8
				c0.6,0,0.8-0.9,0.8-1.9s-0.2-1.8-0.8-1.8c-0.4,0-0.7,0.4-0.7,0.9c0,0.1,0,0.2,0,0.4V151.9z"/>
			<path class="st0" d="M272.9,152.4c0,0.5,0,1,0,1.3h-0.7v-0.5l0,0c-0.1,0.2-0.5,0.6-1,0.6c-0.8,0-1.2-0.7-1.2-1.9v-3.1h0.8v2.9
				c0,0.8,0.1,1.3,0.6,1.3s0.7-0.4,0.7-0.6c0-0.1,0-0.3,0-0.4v-3.2h0.8L272.9,152.4L272.9,152.4z"/>
			<path class="st0" d="M274.9,147.6v1.3h0.9v0.6h-0.9v2.9c0,0.6,0.2,0.8,0.5,0.8c0.1,0,0.2,0,0.3,0v0.6c-0.1,0-0.3,0.1-0.6,0.1
				c-0.3,0-0.6-0.1-0.8-0.3c-0.2-0.2-0.3-0.5-0.3-1.2v-2.8h-0.6V149h0.6v-1.1L274.9,147.6z"/>
			<path class="st0" d="M277.2,155.1c0.2-0.1,0.5-0.1,0.7-0.4c0.2-0.3,0.2-0.6,0.2-1.5v-4.3h0.8v4.5c0,1-0.1,1.5-0.5,1.8
				c-0.3,0.3-0.8,0.5-1.1,0.5L277.2,155.1z M279,147.6c0,0.3-0.2,0.5-0.5,0.5c-0.2,0-0.5-0.2-0.4-0.5c0-0.3,0.2-0.5,0.5-0.5
				C278.8,147.1,279,147.3,279,147.6z"/>
			<path class="st0" d="M281.9,153.7v-0.5l0,0c-0.2,0.4-0.5,0.6-1,0.6c-0.6,0-1.1-0.5-1.1-1.4c0-1.2,1-1.7,2.1-1.8v-0.2
				c0-0.6-0.2-1.1-0.8-1.1c-0.3,0-0.6,0.1-0.8,0.2l-0.2-0.5c0.2-0.1,0.6-0.3,1.1-0.3c1,0,1.4,0.6,1.4,1.7v2.1c0,0.4,0,0.8,0,1.1
				L281.9,153.7L281.9,153.7z M281.7,151.2c-0.4,0-1.3,0.1-1.3,1.1c0,0.6,0.3,0.9,0.6,0.9c0.3,0,0.6-0.2,0.7-0.7c0-0.1,0-0.2,0-0.3
				L281.7,151.2L281.7,151.2z"/>
			<path class="st0" d="M285.9,153.6c-0.2,0.1-0.5,0.2-0.8,0.2c-1.1,0-1.8-0.8-1.8-2.4c0-1.4,0.7-2.5,1.9-2.5c0.3,0,0.5,0.1,0.7,0.2
				l-0.1,0.6c-0.1,0-0.3-0.1-0.5-0.1c-0.8,0-1.1,0.9-1.1,1.9c0,1.1,0.4,1.8,1.1,1.8c0.2,0,0.4-0.1,0.6-0.1L285.9,153.6z"/>
			<path class="st0" d="M287.4,151.1L287.4,151.1c0.1-0.2,0.2-0.4,0.3-0.5l1-1.7h0.8l-1.3,2l1.4,2.8h-0.9l-1-2.3l-0.3,0.4v1.8h-0.8
				v-6.9h0.8V151.1z"/>
		</g>
	</g>
	<g>
		<g>
			<polyline class="st6" points="105,182.4 117.6,194.1 169.9,194.1 169.9,150.1 			"/>
			<g>
				<path d="M103.7,183.9c-0.8-0.7-0.9-2-0.1-2.8s2-0.9,2.8-0.1c0.8,0.7,0.9,2,0.1,2.8C105.7,184.6,104.5,184.6,103.7,183.9z"/>
			</g>
			<g>
				<path d="M171.8,150.1c0-1.1-0.9-2-2-2s-2,0.9-2,2s0.9,2,2,2C171,152,171.8,151.1,171.8,150.1z"/>
			</g>
		</g>
	</g>
	<g>
		<g>
			<path class="st6" d="M191.5,187.8h-17.2c0-2.4-2-4.4-4.4-4.4s-4.4,2-4.4,4.4h-7.6v-45"/>
			<g>
				<path d="M191.5,185.8c1.1,0,2,0.9,2,2s-0.9,2-2,2s-2-0.9-2-2S190.4,185.8,191.5,185.8z"/>
			</g>
			<g>
				<path d="M159.9,142.8c0-1.1-0.9-2-2-2s-2,0.9-2,2s0.9,2,2,2C159,144.7,159.9,143.9,159.9,142.8z"/>
			</g>
		</g>
	</g>
	<g>
		<g>
			<polyline class="st7" points="157.5,77.2 157.5,96.4 158.5,102.2 158.5,117.6 			"/>
			<g>
				<path class="st8" d="M155.4,77.2c0-1.2,1-2.1,2.1-2.1s2.1,1,2.1,2.1c0,1.2-1,2.1-2.1,2.1S155.4,78.3,155.4,77.2z"/>
			</g>
			<g>
				<path class="st8" d="M156.4,117.6c0,1.2,1,2.1,2.1,2.1s2.1-1,2.1-2.1c0-1.2-1-2.1-2.1-2.1S156.4,116.4,156.4,117.6z"/>
			</g>
		</g>
	</g>
	<g>
		<g>
			<polyline class="st9" points="160.4,75.8 160.5,96.4 163,103.7 163.1,116.6 			"/>
			<g>
				<path class="st10" d="M158.3,75.8c0-1.2,0.9-2.1,2.1-2.2c1.2,0,2.1,0.9,2.2,2.1c0,1.2-0.9,2.1-2.1,2.2
					C159.2,77.9,158.3,77,158.3,75.8z"/>
			</g>
			<g>
				<path class="st10" d="M160.9,116.6c0,1.2,1,2.1,2.2,2.1s2.1-1,2.1-2.2s-1-2.1-2.2-2.1C161.9,114.4,160.9,115.4,160.9,116.6z"/>
			</g>
		</g>
	</g>
	<g>
		<g>
			<polyline class="st9" points="53,75.8 53,96.4 50,107.8 50.1,126.9 149.6,126.9 			"/>
			<g>
				<path class="st10" d="M50.8,75.8c0-1.2,1-2.1,2.1-2.1c1.2,0,2.1,1,2.1,2.1c0,1.2-1,2.1-2.1,2.1S50.8,77,50.8,75.8z"/>
			</g>
			<g>
				<path class="st10" d="M149.6,129c1.2,0,2.1-1,2.1-2.1c0-1.2-1-2.1-2.1-2.1c-1.2,0-2.1,1-2.1,2.1
					C147.5,128.1,148.5,129,149.6,129z"/>
			</g>
		</g>
	</g>
	<g>
		<g>
			<polyline class="st6" points="184.5,175.9 184.5,165.1 169.9,150.1 			"/>
			<g>
				<path d="M186.5,175.9c0,1.1-0.9,2-2,2s-2-0.9-2-2s0.9-2,2-2S186.5,174.8,186.5,175.9z"/>
			</g>
			<g>
				<path d="M171.3,148.7c-0.8-0.8-2-0.8-2.8,0s-0.8,2,0,2.8s2,0.8,2.8,0C172,150.7,172,149.5,171.3,148.7z"/>
			</g>
		</g>
	</g>
	<g>
		<g>
			<g>
				<g>
					<path class="st6" d="M212.1,158.9c3.3,7.7,3.6,6.6,3.6,17"/>
					<g>
						<path d="M213.7,175.9c0,1.1,0.9,2,2,2s2-0.9,2-2s-0.9-2-2-2C214.6,174,213.7,174.8,213.7,175.9z"/>
					</g>
				</g>
			</g>
			<g>
				<g>
					<path class="st6" d="M208.1,156.4c-4.3-1.5-17.5-4.5-17.5,13"/>
					<g>
						<path d="M188.7,169.4c0,1.1,0.9,2,2,2s2-0.9,2-2s-0.9-2-2-2C189.5,167.4,188.7,168.3,188.7,169.4z"/>
					</g>
				</g>
			</g>
			<path class="st11" d="M212,147.1c4,0,7.3,3.3,7.3,7.3s-3.3,7.3-7.3,7.3s-7.3-3.3-7.3-7.3C204.8,150.3,208,147.1,212,147.1"/>
		</g>
		<g>
			<path class="st0" d="M220,159.8c0-0.3,0.2-0.6,0.5-0.6s0.5,0.2,0.5,0.6s-0.2,0.6-0.5,0.6C220.2,160.3,220,160.1,220,159.8z"/>
			<path class="st0" d="M225,157c0,2.4-0.8,3.3-1.7,3.3c-1,0-1.6-1.2-1.6-3.3c0-2.2,0.7-3.3,1.7-3.3S225,154.9,225,157z M222.4,157
				c0,1.6,0.3,2.7,0.9,2.7c0.6,0,0.9-1.1,0.9-2.7c0-1.5-0.2-2.7-0.9-2.7C222.7,154.4,222.4,155.5,222.4,157z"/>
			<path class="st0" d="M225.6,160.3v-0.5l0.5-0.8c0.8-1.1,1.7-2.3,1.7-3.5c0-0.7-0.3-1.2-0.9-1.2c-0.5,0-0.8,0.2-0.9,0.4l-0.2-0.6
				c0.2-0.2,0.7-0.4,1.3-0.4c1.1,0,1.5,0.8,1.5,1.8c0,1.2-0.8,2.4-1.6,3.5l-0.4,0.6l0,0h2.2v0.7H225.6z"/>
			<path class="st0" d="M229.4,160.3v-0.5l0.5-0.8c0.8-1.1,1.7-2.3,1.7-3.5c0-0.7-0.3-1.2-0.9-1.2c-0.5,0-0.8,0.2-0.9,0.4l-0.2-0.6
				c0.2-0.2,0.7-0.4,1.3-0.4c1.1,0,1.5,0.8,1.5,1.8c0,1.2-0.8,2.4-1.6,3.5l-0.4,0.6l0,0h2.2v0.7H229.4z"/>
			<path class="st0" d="M235.7,159.8c-0.1,0.2-0.4,0.5-0.8,0.5c-0.3,0-0.5-0.1-0.7-0.4v0.7c0,0.6,0,1.2,0.1,1.5h-0.7
				c-0.1-0.2-0.1-0.7-0.1-1.5v-5.3h0.8v3.2c0,0.6,0.1,1.1,0.6,1.1s0.7-0.4,0.7-0.7c0-0.1,0-0.3,0-0.4v-3.2h0.8v3.8
				c0,0.4,0.1,0.5,0.3,0.5l-0.1,0.5c-0.1,0-0.1,0-0.2,0C236.1,160.3,235.9,160.2,235.7,159.8L235.7,159.8z"/>
			<path class="st0" d="M237.5,153.5h2.6v0.7h-1.8v2.4h1.7v0.6h-1.7v3.1h-0.8V153.5z"/>
			<path class="st0" d="M226.5,169.1c-0.2,0.1-0.5,0.2-0.8,0.2c-1.1,0-1.8-0.8-1.8-2.4c0-1.4,0.7-2.5,1.9-2.5c0.3,0,0.5,0.1,0.7,0.1
				l-0.1,0.6c-0.1,0-0.3-0.1-0.5-0.1c-0.8,0-1.1,0.9-1.1,1.9c0,1.1,0.4,1.8,1.1,1.8c0.2,0,0.4,0,0.6-0.1L226.5,169.1z"/>
			<path class="st0" d="M229.1,169.3v-0.5l0,0c-0.2,0.4-0.5,0.6-1,0.6c-0.6,0-1.1-0.5-1.1-1.4c0-1.2,1-1.7,2.1-1.8v-0.1
				c0-0.7-0.2-1.1-0.8-1.1c-0.3,0-0.6,0.1-0.8,0.2l-0.2-0.5c0.2-0.2,0.6-0.3,1.1-0.3c1,0,1.4,0.6,1.4,1.7v2.1c0,0.4,0,0.8,0,1.1
				H229.1z M229,166.8c-0.4,0-1.3,0.1-1.3,1.1c0,0.6,0.3,0.9,0.6,0.9s0.6-0.2,0.7-0.7c0-0.1,0-0.2,0-0.3V166.8z"/>
			<path class="st0" d="M230.8,165.9c0-0.7,0-1.2,0-1.5h0.7v0.6l0,0c0.3-0.5,0.6-0.7,1-0.7c0.8,0,1.4,0.9,1.4,2.5
				c0,1.8-0.7,2.5-1.5,2.5c-0.5,0-0.7-0.3-0.8-0.6l0,0v2.4h-0.8L230.8,165.9L230.8,165.9z M231.6,167.5c0,0.2,0,0.3,0,0.4
				c0.2,0.7,0.5,0.8,0.7,0.8c0.6,0,0.8-0.9,0.8-1.9s-0.2-1.8-0.8-1.8c-0.4,0-0.7,0.4-0.7,0.9c0,0.1,0,0.2,0,0.4V167.5z"/>
			<path class="st0" d="M234.8,168.8c0-0.3,0.2-0.6,0.5-0.6s0.5,0.2,0.5,0.6s-0.2,0.6-0.5,0.6C235,169.3,234.8,169.1,234.8,168.8z"
				/>
		</g>
	</g>
	<g>
		<g>
			<path class="st6" d="M182.8,137.1c9.9-6.4,2.3-18.9-7.1-12.3"/>
			<g>
				<circle cx="182.8" cy="137.1" r="2"/>
			</g>
			<g>
				<ellipse cx="175.7" cy="124.7" rx="2" ry="2"/>
			</g>
		</g>
	</g>
	<g>
		<path class="st0" d="M228.2,96.1c-0.3,0.1-0.8,0.2-1.2,0.2c-0.6,0-1.1-0.2-1.6-0.7s-0.8-1.4-0.8-2.7c0-2.6,1.3-3.5,2.5-3.5
			c0.4,0,0.8,0.1,1,0.2l-0.2,0.7c-0.2-0.1-0.4-0.2-0.8-0.2c-0.8,0-1.7,0.7-1.7,2.8c0,2.1,0.8,2.7,1.6,2.7c0.3,0,0.4,0,0.5-0.1v-2.2
			h-0.9v-0.6h1.6L228.2,96.1L228.2,96.1z"/>
		<path class="st0" d="M229.1,92.7c0-0.4,0-0.9,0-1.2h0.7v0.8l0,0c0.2-0.5,0.6-0.8,1-0.8c0.1,0,0.1,0,0.2,0v0.8c0,0-0.1,0-0.2,0
			c-0.5,0-0.8,0.5-0.9,1c0,0.1,0,0.3,0,0.4v2.7h-0.8V92.7z"/>
		<path class="st0" d="M234.6,93.8c0,1.9-0.9,2.5-1.6,2.5c-0.9,0-1.6-0.8-1.6-2.5c0-1.8,0.8-2.5,1.6-2.5
			C233.9,91.3,234.6,92.1,234.6,93.8z M232.2,93.8c0,0.8,0.1,1.9,0.8,1.9s0.8-1.1,0.8-1.9c0-0.7-0.1-1.9-0.8-1.9
			S232.2,93.1,232.2,93.8z"/>
		<path class="st0" d="M238.3,94.9c0,0.5,0,1,0,1.3h-0.7v-0.5l0,0c-0.1,0.2-0.5,0.6-1,0.6c-0.8,0-1.2-0.7-1.2-1.9v-3.1h0.8v2.9
			c0,0.8,0.1,1.3,0.6,1.3s0.7-0.4,0.7-0.6c0-0.1,0-0.3,0-0.4v-3.2h0.8L238.3,94.9L238.3,94.9z"/>
		<path class="st0" d="M239.4,92.7c0-0.6,0-0.9,0-1.2h0.7v0.6l0,0c0.2-0.4,0.6-0.7,1.1-0.7c0.7,0,1.2,0.5,1.2,1.7v3.2h-0.8v-3.1
			c0-0.6-0.1-1.1-0.7-1.1c-0.3,0-0.6,0.3-0.7,0.8c0,0.1,0,0.3,0,0.4v3h-0.8V92.7z"/>
		<path class="st0" d="M246.4,89.3v5.8c0,0.3,0,0.9,0,1.2h-0.7v-0.6l0,0c-0.2,0.4-0.5,0.7-1,0.7c-0.8,0-1.4-0.9-1.4-2.5
			c0-1.7,0.7-2.5,1.5-2.5c0.3,0,0.7,0.2,0.9,0.6l0,0v-2.6L246.4,89.3L246.4,89.3z M245.6,93.2c0-0.1,0-0.2,0-0.3
			c0-0.5-0.3-0.9-0.7-0.9c-0.6,0-0.9,0.9-0.9,1.9s0.3,1.8,0.8,1.8c0.2,0,0.6-0.1,0.7-0.8c0-0.1,0-0.2,0-0.3L245.6,93.2L245.6,93.2z"
			/>
		<path class="st0" d="M226.7,100.1v1.3h0.9v0.6h-0.9v2.9c0,0.6,0.2,0.8,0.5,0.8c0.1,0,0.2,0,0.3,0v0.6c-0.1,0-0.3,0.1-0.6,0.1
			s-0.6-0.1-0.8-0.3c-0.2-0.2-0.3-0.5-0.3-1.2V102h-0.6v-0.6h0.6v-1.1L226.7,100.1z"/>
		<path class="st0" d="M231.3,103.8c0,1.9-0.9,2.5-1.6,2.5c-0.9,0-1.6-0.8-1.6-2.5c0-1.8,0.8-2.5,1.6-2.5
			C230.6,101.3,231.3,102.2,231.3,103.8z M228.9,103.8c0,0.8,0.1,1.9,0.8,1.9s0.8-1.1,0.8-1.9c0-0.7-0.1-1.9-0.8-1.9
			C229,102,228.9,103.1,228.9,103.8z"/>
		<path class="st0" d="M233.7,106.3c0-0.3,0-0.8,0-1.2v-5.8h0.8v2.6l0,0c0.2-0.5,0.6-0.6,1-0.6c0.7,0,1.3,0.9,1.3,2.4
			c0,1.7-0.7,2.5-1.5,2.5c-0.5,0-0.8-0.3-1-0.7l0,0v0.6h-0.6V106.3z M234.5,104.6c0,0.1,0,0.2,0,0.3c0.2,0.7,0.5,0.8,0.7,0.8
			c0.6,0,0.8-0.8,0.8-1.9c0-1-0.2-1.8-0.8-1.8c-0.4,0-0.7,0.4-0.7,0.9c0,0.1,0,0.2,0,0.3V104.6z"/>
		<path class="st0" d="M237.7,102.7c0-0.4,0-0.9,0-1.2h0.7v0.8l0,0c0.2-0.5,0.6-0.8,1-0.8c0.1,0,0.1,0,0.2,0v0.8c0,0-0.1,0-0.2,0
			c-0.5,0-0.8,0.4-0.9,1c0,0.1,0,0.3,0,0.4v2.7h-0.8V102.7z"/>
		<path class="st0" d="M241,100.2c0,0.3-0.2,0.5-0.5,0.5c-0.2,0-0.4-0.2-0.4-0.5s0.2-0.5,0.4-0.5C240.8,99.7,241,99.9,241,100.2z
			 M240.2,106.3v-4.8h0.8v4.8H240.2z"/>
		<path class="st0" d="M244.9,99.3v5.8c0,0.3,0,0.9,0,1.2h-0.7v-0.6l0,0c-0.2,0.4-0.5,0.7-1,0.7c-0.8,0-1.4-0.9-1.4-2.5
			c0-1.7,0.7-2.5,1.5-2.5c0.3,0,0.7,0.2,0.9,0.6l0,0v-2.6L244.9,99.3L244.9,99.3z M244.2,103.3c0-0.1,0-0.2,0-0.3
			c0-0.5-0.3-0.9-0.7-0.9c-0.6,0-0.9,0.9-0.9,1.9s0.3,1.8,0.8,1.8c0.2,0,0.6-0.1,0.7-0.8c0-0.1,0-0.2,0-0.3L244.2,103.3L244.2,103.3
			z"/>
		<path class="st0" d="M249,101.4c0,0.3,0,0.8,0,1.5v2.7c0,1.3-0.2,1.7-0.5,2.1c-0.3,0.3-0.8,0.5-1.3,0.5c-0.4,0-0.8-0.1-1.1-0.2
			l0.2-0.6c0.2,0.1,0.5,0.2,0.9,0.2c0.6,0,1-0.4,1-1.5v-0.5l0,0c-0.2,0.4-0.5,0.6-0.9,0.6c-0.9,0-1.4-1-1.4-2.4
			c0-1.8,0.8-2.5,1.5-2.5c0.5,0,0.8,0.3,0.9,0.6l0,0v-0.5C248.3,101.4,249,101.4,249,101.4z M248.2,103.1c0-0.1,0-0.2,0-0.3
			c-0.1-0.3-0.3-0.7-0.7-0.7c-0.6,0-0.9,0.7-0.9,1.8c0,1.2,0.4,1.8,0.9,1.8c0.2,0,0.5-0.1,0.7-0.7c0-0.1,0-0.3,0-0.4V103.1z"/>
		<path class="st0" d="M250.6,103.9c0,1.5,0.6,1.8,1.1,1.8c0.3,0,0.6-0.1,0.8-0.2l0.1,0.6c-0.3,0.1-0.7,0.2-1.1,0.2
			c-1.2,0-1.8-0.9-1.8-2.4c0-1.6,0.7-2.5,1.6-2.5c1,0,1.4,1,1.4,2.1c0,0.2,0,0.3,0,0.4H250.6z M252.1,103.3c0-1-0.3-1.4-0.7-1.4
			c-0.5,0-0.8,0.7-0.8,1.4H252.1z"/>
	</g>
	<g>
		<g>
			<g>
				<polyline class="st6" points="217.8,100 217.8,90.5 196.8,90.5 169.3,118.2 				"/>
				<g>
					<path d="M167.9,116.8c-0.8,0.8-0.8,2,0,2.8s2,0.8,2.8,0s0.8-2,0-2.8C170,116,168.7,116,167.9,116.8z"/>
				</g>
			</g>
		</g>
		<g>
			<line class="st12" x1="221.8" y1="100" x2="213.8" y2="100"/>
			<line class="st12" x1="220.2" y1="102.7" x2="215.3" y2="102.7"/>
			<line class="st12" x1="218.4" y1="105.3" x2="217.1" y2="105.3"/>
		</g>
	</g>
	<g>
		<g>
			<polyline class="st6" points="152.9,139 152.9,163.3 110.1,163.3 			"/>
			<g>
				<path d="M150.9,139c0-1.1,0.9-2,2-2s2,0.9,2,2s-0.9,2-2,2C151.8,141,150.9,140.1,150.9,139z"/>
			</g>
			<g>
				<path d="M110.1,161.3c-1.1,0-2,0.9-2,2s0.9,2,2,2s2-0.9,2-2S111.2,161.3,110.1,161.3z"/>
			</g>
		</g>
	</g>
	<g>
		<g>
			<g>
				<g>
					<g>
						<polyline class="st13" points="41.3,75.8 41.3,96.4 26.8,102.9 26.8,203.7 138.8,203.7 138.8,170.1 127.6,170.1 121.6,175.1 
													"/>
						<g>
							<path class="st14" d="M39.2,75.8c0-1.2,1-2.1,2.1-2.1s2.1,1,2.1,2.1c0,1.2-1,2.1-2.1,2.1S39.2,77,39.2,75.8z"/>
						</g>
						<g>
							<path class="st14" d="M120.2,173.5c-0.9,0.8-1,2.1-0.3,3c0.8,0.9,2.1,1,3,0.3c0.9-0.8,1-2.1,0.3-3S121.1,172.7,120.2,173.5z"
								/>
						</g>
					</g>
				</g>
				<g>
					<g>
						<polyline class="st15" points="47.3,75.8 47.3,96.4 38.8,105.4 38.8,170.9 93.3,170.9 						"/>
						<g>
							<path d="M45.1,75.8c0-1.2,1-2.1,2.1-2.1c1.2,0,2.1,1,2.1,2.1c0,1.2-1,2.1-2.1,2.1S45.1,77,45.1,75.8z"/>
						</g>
						<g>
							<path d="M93.3,173.1c1.2,0,2.1-1,2.1-2.1s-1-2.1-2.1-2.1c-1.2,0-2.1,1-2.1,2.1S92.1,173.1,93.3,173.1z"/>
						</g>
					</g>
				</g>
				<g>
					<g>
						<polyline class="st15" points="44.3,75.8 44.3,96.4 32.8,104.1 32.8,198.7 133.8,198.7 133.8,175.1 121.6,175.1 						"/>
						<g>
							<path d="M42.2,75.8c0-1.2,1-2.1,2.1-2.1s2.1,1,2.1,2.1c0,1.2-1,2.1-2.1,2.1S42.2,77,42.2,75.8z"/>
						</g>
						<g>
							<path d="M121.6,173c-1.2,0-2.1,1-2.1,2.1c0,1.2,1,2.1,2.1,2.1c1.2,0,2.1-1,2.1-2.1C123.7,173.9,122.8,173,121.6,173z"/>
						</g>
					</g>
					<g>
						<polyline class="st16" points="44.3,75.8 44.3,96.4 32.8,104.1 32.8,198.7 133.8,198.7 133.8,175.1 121.6,175.1 						"/>
						<g>
							<path class="st17" d="M42.8,75.8c0-0.8,0.7-1.5,1.5-1.5s1.5,0.7,1.5,1.5s-0.7,1.5-1.5,1.5S42.8,76.6,42.8,75.8z"/>
						</g>
						<g>
							<circle class="st17" cx="121.6" cy="175.1" r="1.5"/>
						</g>
					</g>
				</g>
				<g>
					<g>
						<polyline class="st7" points="50.3,75.8 50.3,96.4 44.3,106.6 44.3,131.8 149.6,131.8 						"/>
						<g>
							<path class="st8" d="M48.1,75.8c0-1.2,1-2.1,2.1-2.1c1.2,0,2.1,1,2.1,2.1c0,1.2-1,2.1-2.1,2.1S48.1,77,48.1,75.8z"/>
						</g>
						<g>
							<path class="st8" d="M149.6,134c1.2,0,2.1-1,2.1-2.1s-1-2.1-2.1-2.1c-1.2,0-2.1,1-2.1,2.1S148.4,134,149.6,134z"/>
						</g>
					</g>
				</g>
				<rect x="39.3" y="72.8" width="15.9" height="20.8"/>
			</g>
			<g>
				<g>
					<g>
						<g>
							<path d="M21.4,33.6H16v-0.8l2.7-1.7c0.6-0.4,1.2-0.7,1.8-1l0,0c-0.7,0.1-1.4,0.1-2.2,0.1H16v-0.7h5.4v0.7L18.7,32
								c-0.6,0.4-1.2,0.7-1.8,1l0,0c0.7,0,1.3-0.1,2.2-0.1h2.3C21.4,32.9,21.4,33.6,21.4,33.6z"/>
							<path d="M18.9,25.6v2.1h1.9v-2.3h0.6v3H16v-2.9h0.6v2.2h1.7v-2.1C18.3,25.6,18.9,25.6,18.9,25.6z"/>
							<path d="M21.2,20.8c0.1,0.3,0.3,0.8,0.3,1.4c0,1.5-1,2.7-2.7,2.7S16,23.8,16,22.1c0-0.7,0.1-1.1,0.2-1.3l0.6,0.2
								c-0.1,0.3-0.2,0.6-0.2,1.1c0,1.3,0.8,2.1,2.2,2.1c1.3,0,2.2-0.8,2.2-2.1c0-0.4-0.1-0.9-0.2-1.1L21.2,20.8z"/>
							<path d="M16,20v-0.7h2.6l0,0c-0.2-0.1-0.4-0.3-0.6-0.4l-2-1.6v-0.9l2.3,2l3.1-2.1V17l-2.6,1.8l0.6,0.5h2.1V20H16z"/>
						</g>
					</g>
				</g>
				<g>
					<g>
						<path class="st3" d="M35.7,10.5c4.9,0,9.2,3,11.1,7.2c1.9-4.2,6.1-7.2,11.1-7.2c6.7,0,12.1,5.4,12.1,12.1v55.7
							c0,6.7-5.4,12.1-12.1,12.1c-4.9,0-9.2-3-11.1-7.2c-1.9,4.2-6.1,7.2-11.1,7.2c-6.7,0-12.1-5.4-12.1-12.1V22.6
							C23.6,15.9,29.1,10.5,35.7,10.5z"/>
						<path class="st18" d="M47.3,22.6v55.7c0,5.8,4.7,10.6,10.6,10.6c5.8,0,10.6-4.7,10.6-10.6V22.6c0-5.8-4.7-10.6-10.6-10.6
							S47.3,16.8,47.3,22.6z M57.8,70.9c-2.1,0-3.7-1.7-3.7-3.7c0-2.1,1.7-3.7,3.7-3.7c2.1,0,3.7,1.7,3.7,3.7
							C61.6,69.2,59.9,70.9,57.8,70.9z M57.8,59.7c-2.1,0-3.7-1.7-3.7-3.7c0-2.1,1.7-3.7,3.7-3.7c2.1,0,3.7,1.7,3.7,3.7
							C61.6,58.1,59.9,59.7,57.8,59.7z M57.8,48.6c-2.1,0-3.7-1.7-3.7-3.7c0-2.1,1.7-3.7,3.7-3.7c2.1,0,3.7,1.7,3.7,3.7
							C61.6,46.9,59.9,48.6,57.8,48.6z M57.8,37.5c-2.1,0-3.7-1.7-3.7-3.7c0-2.1,1.7-3.7,3.7-3.7c2.1,0,3.7,1.7,3.7,3.7
							C61.6,35.8,59.9,37.5,57.8,37.5z M57.8,26.3c-2.1,0-3.7-1.7-3.7-3.7c0-2.1,1.7-3.7,3.7-3.7c2.1,0,3.7,1.7,3.7,3.7
							C61.6,24.7,59.9,26.3,57.8,26.3z M25.2,22.6v55.7c0,5.8,4.7,10.6,10.6,10.6c5.8,0,10.6-4.7,10.6-10.6V22.6
							c0-5.8-4.7-10.6-10.6-10.6S25.2,16.8,25.2,22.6z M33.8,19.4c0.6-0.3,1.2-0.5,1.9-0.5c2.1,0,3.7,1.7,3.7,3.7
							c0,0.7-0.2,1.3-0.5,1.9L33.8,19.4z M37.5,25.9c-0.5,0.3-1.1,0.5-1.8,0.5c-2.1,0-3.7-1.7-3.7-3.7c0-0.7,0.2-1.3,0.5-1.8
							L37.5,25.9z M37.5,37c-0.5,0.3-1.1,0.4-1.8,0.4c-2.1,0-3.7-1.7-3.7-3.7c0-0.6,0.2-1.2,0.4-1.8L37.5,37z M33.8,30.5
							c0.6-0.3,1.2-0.5,1.9-0.5c2.1,0,3.7,1.7,3.7,3.7c0,0.7-0.2,1.4-0.5,1.9L33.8,30.5z M37.5,48.2c-0.5,0.3-1.1,0.4-1.7,0.4
							c-2.1,0-3.7-1.7-3.7-3.7c0-0.6,0.2-1.2,0.4-1.8L37.5,48.2z M33.8,41.7c0.6-0.3,1.2-0.5,1.9-0.5c2.1,0,3.7,1.7,3.7,3.7
							c0,0.7-0.2,1.4-0.5,1.9L33.8,41.7z M33.8,52.8c0.6-0.3,1.2-0.5,1.9-0.5c2.1,0,3.7,1.7,3.7,3.7c0,0.7-0.2,1.4-0.5,1.9
							L33.8,52.8z M37.5,59.3c-0.5,0.3-1.1,0.4-1.8,0.4C33.6,59.7,32,58,32,56c0-0.6,0.2-1.2,0.5-1.8L37.5,59.3z M37.5,70.4
							c-0.5,0.3-1.2,0.5-1.8,0.5c-2.1,0-3.7-1.7-3.7-3.7c0-0.7,0.2-1.3,0.5-1.8L37.5,70.4z M33.9,63.9c0.6-0.3,1.2-0.5,1.9-0.5
							c2.1,0,3.7,1.7,3.7,3.7c0,0.7-0.2,1.3-0.5,1.9L33.9,63.9z M57.8,82c-2.1,0-3.7-1.7-3.7-3.7c0-2.1,1.7-3.7,3.7-3.7
							c2.1,0,3.7,1.7,3.7,3.7C61.6,80.3,59.9,82,57.8,82z M37.5,81.5C37,81.8,36.4,82,35.7,82c-2.1,0-3.7-1.7-3.7-3.7
							c0-0.7,0.2-1.3,0.5-1.8L37.5,81.5z M33.9,75c0.6-0.3,1.2-0.5,1.9-0.5c2.1,0,3.7,1.7,3.7,3.7c0,0.7-0.2,1.3-0.5,1.9L33.9,75z"
							/>
					</g>
					<g>
						<path class="st3" d="M34.1,87c0.4,0.2,0.9,0.3,1.5,0.3c0.7,0,1.2-0.3,1.2-0.7c0-0.4-0.4-0.6-1.2-0.8c-1-0.3-1.6-0.7-1.6-1.4
							c0-0.8,0.8-1.4,2.1-1.4c0.7,0,1.1,0.1,1.5,0.2L37.3,84c-0.2-0.1-0.6-0.2-1.2-0.2c-0.7,0-1.1,0.3-1.1,0.6
							c0,0.4,0.4,0.5,1.3,0.8c1.1,0.3,1.6,0.7,1.6,1.4c0,0.8-0.7,1.5-2.3,1.5c-0.6,0-1.3-0.1-1.6-0.3L34.1,87z"/>
					</g>
					<g>
						<path class="st3" d="M55.7,87.9V83h1.1l1.4,2.1c0.4,0.5,0.7,1.1,0.9,1.6l0,0c-0.1-0.6-0.1-1.3-0.1-2V83h1v4.9h-1l-1.4-2.1
							c-0.3-0.5-0.7-1.1-1-1.7l0,0c0,0.6,0,1.3,0,2.1v1.7H55.7z"/>
					</g>
				</g>
			</g>
		</g>
	</g>
	<g>
		<g>
			<g>
				<g>
					<path d="M79.6,37.5c-0.8,0-1.7,0.1-2.3,0.1l0,0c0.6,0.2,1.3,0.4,2,0.7l2.6,1v0.5l-2.6,0.9c-0.8,0.3-1.5,0.5-2.1,0.6l0,0
						c0.7,0,1.6,0.1,2.4,0.1l2.3,0.1v0.7l-5.4-0.4v-0.9l2.6-0.9c0.7-0.2,1.3-0.4,1.8-0.5l0,0c-0.5-0.1-1.1-0.3-1.8-0.6l-2.6-1V37
						l5.4-0.3v0.7L79.6,37.5z"/>
					<path d="M76.6,35H82v0.7h-5.4V35z"/>
					<path d="M76.7,33.9c-0.1-0.4-0.1-0.9-0.1-1.5c0-1,0.2-1.7,0.7-2.2c0.4-0.5,1.1-0.8,1.9-0.8c0.9,0,1.6,0.3,2.1,0.8
						s0.8,1.3,0.8,2.4c0,0.5,0,0.9-0.1,1.3H76.7z M81.5,33.2c0-0.2,0-0.4,0-0.7c0-1.5-0.8-2.3-2.3-2.3c-1.3,0-2.1,0.7-2.1,2.2
						c0,0.4,0,0.6,0.1,0.8H81.5z"/>
					<path d="M76.7,28.6c-0.1-0.4-0.1-0.9-0.1-1.5c0-1,0.2-1.7,0.7-2.2c0.4-0.5,1.1-0.8,1.9-0.8c0.9,0,1.6,0.3,2.1,0.8
						s0.8,1.3,0.8,2.4c0,0.5,0,0.9-0.1,1.3C82,28.6,76.7,28.6,76.7,28.6z M81.5,27.9c0-0.2,0-0.4,0-0.7c0-1.5-0.8-2.3-2.3-2.3
						c-1.3,0-2.1,0.7-2.1,2.2c0,0.4,0,0.6,0.1,0.8H81.5z"/>
					<path d="M76.6,23.4v-0.7h4.8v-2.3H82v3H76.6z"/>
					<path d="M79.5,16.9V19h1.9v-2.3H82v3h-5.4v-2.9h0.6V19h1.7v-2.1H79.5z"/>
				</g>
			</g>
		</g>
		<g>
			<path class="st3" d="M114.3,43l-5.9-16.5v-3.9c0-6.7-5.4-12.1-12.1-12.1s-12.1,5.4-12.1,12.1v55.7c0,6.7,5.4,12.1,12.1,12.1
				s12.1-5.4,12.1-12.1v-4l5.8-16.3L114.3,43z"/>
			<g>
				<polygon class="st18" points="108.4,31.2 108.4,69.6 112.7,57.6 112.7,43.1 				"/>
				<path class="st18" d="M106.9,78.3V22.6c0-5.8-4.7-10.6-10.6-10.6c-5.8,0-10.6,4.7-10.6,10.6v55.7c0,5.8,4.7,10.6,10.6,10.6
					C102.1,88.8,106.9,84.1,106.9,78.3z M96.3,18.8c2.1,0,3.7,1.7,3.7,3.7c0,2.1-1.7,3.7-3.7,3.7c-2.1,0-3.7-1.7-3.7-3.7
					C92.6,20.5,94.2,18.8,96.3,18.8z M96.3,30c2.1,0,3.7,1.7,3.7,3.7c0,2.1-1.7,3.7-3.7,3.7c-2.1,0-3.7-1.7-3.7-3.7
					C92.6,31.7,94.2,30,96.3,30z M96.3,41.1c2.1,0,3.7,1.7,3.7,3.7c0,2.1-1.7,3.7-3.7,3.7c-2.1,0-3.7-1.7-3.7-3.7
					C92.6,42.8,94.2,41.1,96.3,41.1z M96.3,52.3c2.1,0,3.7,1.7,3.7,3.7c0,2.1-1.7,3.7-3.7,3.7c-2.1,0-3.7-1.7-3.7-3.7
					C92.6,53.9,94.2,52.3,96.3,52.3z M96.3,63.4c2.1,0,3.7,1.7,3.7,3.7c0,2.1-1.7,3.7-3.7,3.7c-2.1,0-3.7-1.7-3.7-3.7
					C92.6,65.1,94.2,63.4,96.3,63.4z M96.3,74.5c2.1,0,3.7,1.7,3.7,3.7c0,2.1-1.7,3.7-3.7,3.7c-2.1,0-3.7-1.7-3.7-3.7
					C92.6,76.2,94.2,74.5,96.3,74.5z"/>
			</g>
		</g>
	</g>
	<g>
		<g>
			<path class="st15" d="M110.8,47h12.1v54.8c2.4,0,4.4,2,4.4,4.4s-2,4.4-4.4,4.4v11.6h28.9"/>
			<g>
				<path d="M110.8,49.2c-1.2,0-2.1-1-2.1-2.1c0-1.2,1-2.1,2.1-2.1c1.2,0,2.1,1,2.1,2.1S112,49.2,110.8,49.2z"/>
			</g>
			<g>
				<path d="M151.8,124.4c1.2,0,2.1-1,2.1-2.1s-1-2.1-2.1-2.1c-1.2,0-2.1,1-2.1,2.1S150.6,124.4,151.8,124.4z"/>
			</g>
		</g>
	</g>
	<g>
		<g>
			<polyline class="st13" points="154.6,75.8 154.6,100.8 152.4,116.5 138.8,116.5 138.8,151.9 98.4,151.9 			"/>
			<g>
				<path class="st14" d="M152.4,75.8c0-1.2,1-2.1,2.1-2.1c1.2,0,2.1,1,2.1,2.1c0,1.2-1,2.1-2.1,2.1S152.4,77,152.4,75.8z"/>
			</g>
			<g>
				<path class="st14" d="M98.4,149.7c-1.2,0-2.1,1-2.1,2.1s1,2.1,2.1,2.1c1.2,0,2.1-1,2.1-2.1S99.6,149.7,98.4,149.7z"/>
			</g>
		</g>
	</g>
	<g>
		<g>
			<polyline class="st15" points="151.6,75.8 151.6,96.4 149,111.5 133.8,111.5 133.8,147.4 103.3,147.4 98.4,152 			"/>
			<g>
				<path d="M149.4,75.8c0-1.2,1-2.1,2.1-2.1c1.2,0,2.1,1,2.1,2.1c0,1.2-1,2.1-2.1,2.1S149.4,77,149.4,75.8z"/>
			</g>
			<g>
				<path d="M97,150.4c-0.9,0.8-0.9,2.2-0.1,3c0.8,0.9,2.2,0.9,3,0.1c0.9-0.8,0.9-2.2,0.1-3S97.8,149.6,97,150.4z"/>
			</g>
		</g>
		<g>
			<polyline class="st16" points="151.6,75.8 151.6,96.4 149,111.5 133.8,111.5 133.8,147.4 103.3,147.4 98.4,152 			"/>
			<g>
				<path class="st17" d="M150.1,75.8c0-0.8,0.7-1.5,1.5-1.5s1.5,0.7,1.5,1.5s-0.7,1.5-1.5,1.5C150.7,77.3,150.1,76.6,150.1,75.8z"
					/>
			</g>
			<g>
				<path class="st17" d="M97.4,150.9c-0.6,0.6-0.6,1.5-0.1,2.1s1.5,0.6,2.1,0.1c0.6-0.6,0.6-1.5,0.1-2.1
					C98.9,150.3,98,150.3,97.4,150.9z"/>
			</g>
		</g>
	</g>
	<g>
		<g>
			<g>
				<polyline class="st15" points="110.8,53.9 117,53.9 117,100.9 62.8,100.9 57.1,106.5 57.1,159.5 81.7,159.5 				"/>
				<g>
					<path d="M110.8,56c-1.2,0-2.1-1-2.1-2.1c0-1.2,1-2.1,2.1-2.1c1.2,0,2.1,1,2.1,2.1S112,56,110.8,56z"/>
				</g>
				<g>
					<path d="M81.7,161.7c1.2,0,2.1-1,2.1-2.1s-1-2.1-2.1-2.1c-1.2,0-2.1,1-2.1,2.1S80.5,161.7,81.7,161.7z"/>
				</g>
			</g>
			<g>
				<polyline class="st16" points="110.8,53.9 117,53.9 117,100.9 62.8,100.9 57.1,106.5 57.1,159.5 81.7,159.5 				"/>
				<g>
					<path class="st17" d="M110.8,55.4c-0.8,0-1.5-0.7-1.5-1.5s0.7-1.5,1.5-1.5s1.5,0.7,1.5,1.5S111.6,55.4,110.8,55.4z"/>
				</g>
				<g>
					<path class="st17" d="M81.7,161c0.8,0,1.5-0.7,1.5-1.5s-0.7-1.5-1.5-1.5s-1.5,0.7-1.5,1.5S80.9,161,81.7,161z"/>
				</g>
			</g>
		</g>
	</g>
	<g>
		<g>
			<g>
				<polyline class="st15" points="148.7,75.8 148.7,96.4 145.3,106.3 65.2,106.3 62.5,108.9 62.5,139.5 70.5,147.7 				"/>
				<g>
					<path d="M146.5,75.8c0-1.2,1-2.1,2.1-2.1c1.2,0,2.1,1,2.1,2.1c0,1.2-1,2.1-2.1,2.1S146.5,77,146.5,75.8z"/>
				</g>
				<g>
					<path d="M68.9,149.2c0.8,0.8,2.2,0.9,3,0c0.8-0.8,0.9-2.2,0-3c-0.8-0.8-2.2-0.9-3,0C68.1,147,68.1,148.3,68.9,149.2z"/>
				</g>
			</g>
		</g>
	</g>
	<rect x="146.6" y="72.8" width="15.9" height="20.8"/>
	<g>
		<g>
			<g>
				<g>
					<g>
						<path d="M122.7,40.3c-0.1-0.3-0.1-0.8-0.1-1.3c0-0.7,0.1-1.1,0.4-1.5c0.2-0.3,0.5-0.4,1-0.4s1,0.3,1.2,0.9l0,0
							c0.1-0.5,0.6-1.1,1.4-1.1c0.5,0,0.8,0.2,1.1,0.5c0.3,0.4,0.5,1,0.5,1.9c0,0.5,0,0.8-0.1,1.1h-5.4V40.3z M124.9,39.6V39
							c0-0.7-0.4-1.2-0.9-1.2c-0.6,0-0.9,0.5-0.9,1.2c0,0.3,0,0.5,0,0.6H124.9z M127.4,39.6c0-0.1,0-0.3,0-0.6c0-0.7-0.3-1.4-1-1.4
							s-1,0.6-1,1.4v0.6H127.4z"/>
						<path d="M122.7,36c-0.1-0.4-0.1-0.9-0.1-1.3c0-0.7,0.1-1.2,0.4-1.6c0.2-0.3,0.6-0.4,1-0.4c0.7,0,1.2,0.4,1.4,1l0,0
							c0.1-0.4,0.5-0.7,1.1-0.8c0.8-0.2,1.3-0.3,1.5-0.4v0.7c-0.2,0.1-0.6,0.2-1.3,0.4c-0.7,0.2-1,0.4-1,1.1v0.7h2.3V36H122.7z
							 M125.1,35.3v-0.7c0-0.7-0.4-1.2-1-1.2c-0.7,0-1,0.5-1,1.2c0,0.3,0,0.6,0.1,0.7H125.1z"/>
						<path d="M122.6,31.1h5.4v0.7h-5.4V31.1z"/>
						<path d="M122.7,29.9c-0.1-0.4-0.1-0.9-0.1-1.5c0-1,0.2-1.7,0.7-2.2c0.4-0.5,1.1-0.8,1.9-0.8c0.9,0,1.6,0.3,2.1,0.8
							s0.8,1.3,0.8,2.4c0,0.5,0,0.9-0.1,1.3C128,29.9,122.7,29.9,122.7,29.9z M127.4,29.2c0-0.2,0-0.4,0-0.7c0-1.5-0.8-2.3-2.3-2.3
							c-1.3,0-2.1,0.7-2.1,2.2c0,0.4,0,0.6,0.1,0.8H127.4z"/>
						<path d="M127.7,20.6c0.1,0.3,0.3,0.9,0.3,1.7c0,0.8-0.2,1.5-0.7,2c-0.4,0.5-1.2,0.8-2,0.8c-1.6,0-2.8-1.1-2.8-2.9
							c0-0.6,0.1-1.1,0.2-1.3l0.6,0.2c-0.1,0.3-0.2,0.6-0.2,1.2c0,1.3,0.8,2.2,2.2,2.2c1.4,0,2.2-0.8,2.2-2.1c0-0.5-0.1-0.8-0.1-0.9
							h-1.6v1.1h-0.6v-1.8h2.5V20.6z"/>
						<path d="M125.4,16.8v2.1h1.9v-2.3h0.6v3h-5.4v-2.9h0.6v2.2h1.7v-2.1C124.8,16.8,125.4,16.8,125.4,16.8z"/>
					</g>
				</g>
			</g>
			<g>
				<g>
					<path class="st3" d="M164.4,10.5c-4.9,0-9.2,3-11.1,7.2c-1.9-4.2-6.1-7.2-11.1-7.2c-6.7,0-12.1,5.4-12.1,12.1v55.7
						c0,6.7,5.4,12.1,12.1,12.1c4.9,0,9.2-3,11.1-7.2c1.9,4.2,6.1,7.2,11.1,7.2c6.7,0,12.1-5.4,12.1-12.1V22.6
						C176.5,15.9,171.1,10.5,164.4,10.5z"/>
					<path class="st18" d="M142.3,12c-5.8,0-10.6,4.7-10.6,10.6v55.7c0,5.8,4.7,10.6,10.6,10.6c5.8,0,10.6-4.7,10.6-10.6V22.6
						C152.8,16.8,148.1,12,142.3,12z M138.5,67.1c0-2.1,1.7-3.7,3.7-3.7c2.1,0,3.7,1.7,3.7,3.7c0,2.1-1.7,3.7-3.7,3.7
						C140.2,70.9,138.5,69.2,138.5,67.1z M138.5,56c0-2.1,1.7-3.7,3.7-3.7c2.1,0,3.7,1.7,3.7,3.7c0,2.1-1.7,3.7-3.7,3.7
						S138.5,58.1,138.5,56z M138.5,44.9c0-2.1,1.7-3.7,3.7-3.7c2.1,0,3.7,1.7,3.7,3.7c0,2.1-1.7,3.7-3.7,3.7
						C140.2,48.6,138.5,46.9,138.5,44.9z M138.5,33.7c0-2.1,1.7-3.7,3.7-3.7c2.1,0,3.7,1.7,3.7,3.7c0,2.1-1.7,3.7-3.7,3.7
						C140.2,37.5,138.5,35.8,138.5,33.7z M138.5,22.6c0-2.1,1.7-3.7,3.7-3.7c2.1,0,3.7,1.7,3.7,3.7c0,2.1-1.7,3.7-3.7,3.7
						C140.2,26.3,138.5,24.7,138.5,22.6z M164.4,12c-5.8,0-10.6,4.7-10.6,10.6v55.7c0,5.8,4.7,10.6,10.6,10.6
						c5.8,0,10.6-4.7,10.6-10.6V22.6C175,16.8,170.2,12,164.4,12z M161.2,24.5c-0.3-0.6-0.5-1.2-0.5-1.9c0-2.1,1.7-3.7,3.7-3.7
						c0.7,0,1.3,0.2,1.9,0.5L161.2,24.5z M167.7,20.8c0.3,0.5,0.5,1.1,0.5,1.8c0,2.1-1.7,3.7-3.7,3.7c-0.6,0-1.3-0.2-1.8-0.5
						L167.7,20.8z M167.7,32c0.3,0.5,0.4,1.1,0.4,1.8c0,2.1-1.7,3.7-3.7,3.7c-0.6,0-1.2-0.2-1.8-0.4L167.7,32z M161.2,35.6
						c-0.3-0.6-0.5-1.2-0.5-1.9c0-2.1,1.7-3.7,3.7-3.7c0.7,0,1.4,0.2,1.9,0.5L161.2,35.6z M167.7,43.1c0.3,0.5,0.4,1.1,0.4,1.8
						c0,2.1-1.7,3.7-3.7,3.7c-0.6,0-1.2-0.2-1.7-0.4L167.7,43.1z M161.2,46.8c-0.3-0.6-0.5-1.2-0.5-1.9c0-2.1,1.7-3.7,3.7-3.7
						c0.7,0,1.4,0.2,1.9,0.5L161.2,46.8z M161.2,57.9c-0.3-0.6-0.5-1.2-0.5-1.9c0-2.1,1.7-3.7,3.7-3.7c0.7,0,1.4,0.2,1.9,0.5
						L161.2,57.9z M167.7,54.2c0.3,0.5,0.5,1.1,0.5,1.8c0,2.1-1.7,3.7-3.7,3.7c-0.6,0-1.2-0.2-1.8-0.4L167.7,54.2z M167.7,65.3
						c0.3,0.5,0.5,1.2,0.5,1.8c0,2.1-1.7,3.7-3.7,3.7c-0.7,0-1.3-0.2-1.8-0.5L167.7,65.3z M161.2,69c-0.3-0.6-0.5-1.2-0.5-1.9
						c0-2.1,1.7-3.7,3.7-3.7c0.7,0,1.3,0.2,1.9,0.5L161.2,69z M138.5,78.3c0-2.1,1.7-3.7,3.7-3.7c2.1,0,3.7,1.7,3.7,3.7
						c0,2.1-1.7,3.7-3.7,3.7S138.5,80.3,138.5,78.3z M167.7,76.5c0.3,0.5,0.5,1.2,0.5,1.8c0,2.1-1.7,3.7-3.7,3.7
						c-0.7,0-1.3-0.2-1.8-0.5L167.7,76.5z M161.2,80.1c-0.3-0.6-0.5-1.2-0.5-1.9c0-2.1,1.7-3.7,3.7-3.7c0.7,0,1.3,0.2,1.9,0.5
						L161.2,80.1z"/>
				</g>
				<g>
					<path class="st3" d="M162.7,87c0.4,0.2,0.9,0.3,1.5,0.3c0.7,0,1.2-0.3,1.2-0.7c0-0.4-0.4-0.6-1.2-0.8c-1-0.3-1.6-0.7-1.6-1.4
						c0-0.8,0.8-1.4,2.1-1.4c0.7,0,1.1,0.1,1.5,0.2l-0.3,0.7c-0.2-0.1-0.6-0.2-1.2-0.2c-0.7,0-1.1,0.3-1.1,0.6
						c0,0.4,0.4,0.5,1.3,0.8c1.1,0.3,1.6,0.7,1.6,1.4c0,0.8-0.7,1.5-2.3,1.5c-0.6,0-1.3-0.1-1.6-0.3L162.7,87z"/>
				</g>
				<g>
					<path class="st3" d="M140.1,87.9V83h1.1l1.4,2.1c0.4,0.5,0.7,1.1,0.9,1.6l0,0c-0.1-0.6-0.1-1.3-0.1-2V83h0.9v4.9h-1l-1.4-2.1
						c-0.3-0.5-0.7-1.1-1-1.7l0,0c0,0.6,0,1.3,0,2.1v1.7H140.1z"/>
				</g>
			</g>
		</g>
	</g>
	<g>
		<g>
			<g>
				<g>
					<g>
						<path class="st19" d="M204.1,72.6v0.6h-0.7v3.1c-2.8,0.5-5.4,1.8-7.3,3.7h19.1c-2-1.9-4.5-3.3-7.3-3.7v-3.1h-0.7v-0.6"/>
						<path class="st19" d="M205.6,72.9c2.1,0,3.8-1.7,3.8-3.8c0-0.2,0-0.4,0-0.5l-1.3-7.2c-0.2-1.2-1.2-2.1-2.5-2.1
							c-1.2,0-2.3,0.9-2.5,2.1l-1.3,7.2c0,0.2,0,0.4,0,0.5C201.8,71.2,203.5,72.9,205.6,72.9z"/>
					</g>
					<g>
						<path class="st19" d="M193.9,77.2l0.4,0.5l-0.6,0.4l1.5,1.9h20c-4.3-4.2-10.8-5.1-16.1-2.2l-1.9-2.4l-0.6,0.4l-0.4-0.5"/>
						<path class="st19" d="M195.3,76.5c-1.6,1.3-4,1-5.3-0.6c-0.1-0.1-0.2-0.3-0.3-0.5l-3.4-6.4c-0.6-1.1-0.3-2.4,0.7-3.2
							c1-0.8,2.3-0.7,3.2,0.1l5.4,4.9c0.1,0.1,0.3,0.3,0.4,0.4C197.2,72.9,196.9,75.2,195.3,76.5z"/>
					</g>
					<g>
						<path class="st20" d="M198.6,74l0.2,0.5l-0.7,0.2l1,2.9c-1.1,0.6-2.2,1.4-3.1,2.3h19.1c-3.1-3-7.5-4.5-11.9-3.7l-1-2.9
							l-0.7,0.2l-0.2-0.5"/>
						<path class="st21" d="M200.1,73.8c-2,0.7-4.1-0.4-4.8-2.3c-0.1-0.2-0.1-0.4-0.1-0.5l-1.2-7.2c-0.2-1.2,0.5-2.4,1.7-2.8
							s2.4,0.1,3,1.2l3.5,6.4c0.1,0.2,0.2,0.3,0.2,0.5C203.1,71,202.1,73.2,200.1,73.8z"/>
					</g>
					<g>
						<path class="st19" d="M214.9,75.3l-0.4,0.5l-0.6-0.4l-1.9,2.4c-5.2-2.9-11.8-2-16.1,2.2h20l1.5-1.9l-0.6-0.4l0.4-0.5"/>
						<path class="st19" d="M215.9,76.5c1.6,1.3,4,1,5.3-0.6c0.1-0.1,0.2-0.3,0.3-0.5l3.4-6.4c0.6-1.1,0.3-2.4-0.7-3.2
							c-1-0.8-2.3-0.7-3.2,0.1l-5.4,4.9c-0.1,0.1-0.3,0.3-0.4,0.4C214,72.9,214.3,75.2,215.9,76.5z"/>
					</g>
					<g>
						<path class="st20" d="M209.7,73.1l-0.2,0.5l-0.7-0.2l-1,2.9c-4.4-0.8-8.8,0.7-11.9,3.7H215c-0.9-0.9-1.9-1.7-3.1-2.3l1-2.9
							l-0.7-0.2l0.2-0.5"/>
						<path class="st21" d="M211,73.8c2,0.7,4.1-0.4,4.8-2.3c0.1-0.2,0.1-0.4,0.1-0.5l1.2-7.2c0.2-1.2-0.5-2.4-1.7-2.8
							s-2.4,0.1-3,1.2l-3.5,6.4c-0.1,0.2-0.2,0.3-0.2,0.5C208,71,209.1,73.2,211,73.8z"/>
					</g>
					<line class="st22" x1="184.1" y1="80" x2="227" y2="80"/>
				</g>
			</g>
		</g>
		<g>
			<g>
				<g>
					<line class="st23" x1="212.8" y1="68.3" x2="229" y2="68.3"/>
					<g>
						<path d="M212.8,69.8c-0.8,0-1.5-0.7-1.5-1.5s0.7-1.5,1.5-1.5s1.5,0.7,1.5,1.5C214.3,69.1,213.6,69.8,212.8,69.8z"/>
					</g>
				</g>
			</g>
		</g>
		<g>
			<g>
				<g>
					<line class="st23" x1="198.2" y1="68.3" x2="212.6" y2="68.3"/>
					<g>
						<path d="M198.2,69.8c-0.8,0-1.5-0.7-1.5-1.5s0.7-1.5,1.5-1.5s1.5,0.7,1.5,1.5C199.7,69.1,199.1,69.8,198.2,69.8z"/>
					</g>
				</g>
			</g>
		</g>
		<g>
			<path class="st0" d="M232.9,48.6l-0.5,2h-0.7l1.5-6.7h0.8l1.5,6.7h-0.8l-0.4-2H232.9z M234.3,48l-0.3-1.7c-0.1-0.5-0.2-1-0.3-1.5
				l0,0c-0.1,0.5-0.2,1.1-0.3,1.5L233,48H234.3z"/>
			<path class="st0" d="M237.3,44.5v1.3h0.9v0.6h-0.9v2.9c0,0.6,0.2,0.8,0.5,0.8c0.1,0,0.2,0,0.3,0v0.6c-0.1,0-0.3,0.1-0.6,0.1
				s-0.6-0.1-0.8-0.3s-0.3-0.5-0.3-1.2v-2.8h-0.6v-0.6h0.6v-1.1L237.3,44.5z"/>
			<path class="st0" d="M240.3,49.8c0.2,0.1,0.5,0.2,0.8,0.2c0.4,0,0.7-0.3,0.7-0.7s-0.1-0.6-0.6-0.9c-0.6-0.4-1-0.8-1-1.4
				c0-0.8,0.6-1.3,1.3-1.3c0.4,0,0.7,0.1,0.9,0.2l-0.2,0.6c-0.2-0.1-0.4-0.2-0.6-0.2c-0.4,0-0.6,0.3-0.6,0.6s0.1,0.5,0.6,0.8
				c0.6,0.4,1,0.8,1,1.5c0,1-0.7,1.4-1.4,1.4c-0.4,0-0.7-0.1-1-0.3L240.3,49.8z"/>
			<path class="st0" d="M243.8,45.8l0.5,2.4c0.1,0.5,0.2,1,0.3,1.5l0,0c0.1-0.5,0.2-1.1,0.3-1.5l0.6-2.4h0.6l0.5,2.3
				c0.1,0.5,0.2,1,0.3,1.6l0,0c0.1-0.5,0.1-1,0.3-1.6l0.5-2.3h0.8l-1.2,4.8h-0.6l-0.6-2.3c-0.1-0.5-0.2-0.9-0.3-1.4l0,0
				c-0.1,0.6-0.2,1-0.3,1.5l-0.6,2.3h-0.6l-1.2-4.8L243.8,45.8L243.8,45.8z"/>
			<path class="st0" d="M249.9,44.5c0,0.3-0.2,0.5-0.5,0.5c-0.2,0-0.4-0.2-0.4-0.5s0.2-0.5,0.4-0.5C249.7,44,249.9,44.2,249.9,44.5z
				 M249,50.6v-4.8h0.8v4.8H249z"/>
			<path class="st0" d="M251.8,44.5v1.3h0.9v0.6h-0.9v2.9c0,0.6,0.2,0.8,0.5,0.8c0.1,0,0.2,0,0.3,0v0.6c-0.1,0-0.3,0.1-0.6,0.1
				s-0.6-0.1-0.8-0.3s-0.3-0.5-0.3-1.2v-2.8h-0.6v-0.6h0.6v-1.1L251.8,44.5z"/>
			<path class="st0" d="M255.8,50.5c-0.2,0.1-0.5,0.2-0.8,0.2c-1.1,0-1.8-0.8-1.8-2.4c0-1.4,0.7-2.5,1.9-2.5c0.3,0,0.5,0.1,0.7,0.1
				l-0.2,0.6c-0.1,0-0.3-0.1-0.5-0.1c-0.8,0-1.1,0.9-1.1,1.9c0,1.1,0.4,1.8,1.1,1.8c0.2,0,0.4-0.1,0.6-0.1L255.8,50.5z"/>
			<path class="st0" d="M256.4,43.7h0.8v2.6l0,0c0.1-0.2,0.2-0.3,0.4-0.4c0.2-0.1,0.4-0.2,0.6-0.2c0.6,0,1.1,0.5,1.1,1.7v3.2h-0.8
				v-3.1c0-0.6-0.1-1.1-0.6-1.1c-0.4,0-0.6,0.3-0.7,0.8c0,0.1,0,0.2,0,0.4v3.1h-0.8V43.7z"/>
			<path class="st0" d="M262,47.3c0-0.7,0-1.2,0-1.5h0.7v0.6l0,0c0.3-0.5,0.6-0.7,1-0.7c0.8,0,1.4,0.9,1.4,2.5
				c0,1.8-0.7,2.5-1.5,2.5c-0.5,0-0.7-0.3-0.8-0.6l0,0v2.4H262V47.3z M262.8,48.8c0,0.1,0,0.3,0,0.4c0.2,0.7,0.5,0.8,0.7,0.8
				c0.6,0,0.8-0.9,0.8-1.9s-0.2-1.8-0.8-1.8c-0.3,0-0.7,0.4-0.7,0.9c0,0.1,0,0.2,0,0.4V48.8z"/>
			<path class="st0" d="M269,48.2c0,1.9-0.9,2.5-1.6,2.5c-0.9,0-1.6-0.8-1.6-2.5c0-1.8,0.8-2.5,1.6-2.5
				C268.3,45.7,269,46.5,269,48.2z M266.6,48.2c0,0.8,0.1,1.9,0.8,1.9c0.7,0,0.8-1.1,0.8-1.9c0-0.7-0.1-1.9-0.8-1.9
				S266.6,47.4,266.6,48.2z"/>
			<path class="st0" d="M269.7,49.8c0.2,0.1,0.5,0.2,0.8,0.2c0.4,0,0.7-0.3,0.7-0.7s-0.1-0.6-0.6-0.9c-0.6-0.4-1-0.8-1-1.4
				c0-0.8,0.6-1.3,1.3-1.3c0.4,0,0.7,0.1,0.9,0.2l-0.2,0.6c-0.2-0.1-0.4-0.2-0.6-0.2c-0.4,0-0.6,0.3-0.6,0.6s0.1,0.5,0.6,0.8
				c0.6,0.4,1,0.8,1,1.5c0,1-0.7,1.4-1.4,1.4c-0.4,0-0.7-0.1-1-0.3L269.7,49.8z"/>
			<path class="st0" d="M273.6,44.5c0,0.3-0.2,0.5-0.5,0.5c-0.2,0-0.4-0.2-0.4-0.5s0.2-0.5,0.4-0.5C273.4,44,273.6,44.2,273.6,44.5z
				 M272.8,50.6v-4.8h0.8v4.8H272.8z"/>
			<path class="st0" d="M275.5,44.5v1.3h0.9v0.6h-0.9v2.9c0,0.6,0.2,0.8,0.5,0.8c0.1,0,0.2,0,0.3,0v0.6c-0.1,0-0.3,0.1-0.6,0.1
				c-0.3,0-0.6-0.1-0.8-0.3c-0.2-0.2-0.3-0.5-0.3-1.2v-2.8H274v-0.6h0.6v-1.1L275.5,44.5z"/>
			<path class="st0" d="M278,44.5c0,0.3-0.2,0.5-0.5,0.5c-0.2,0-0.4-0.2-0.4-0.5s0.2-0.5,0.5-0.5C277.8,44,278,44.2,278,44.5z
				 M277.2,50.6v-4.8h0.8v4.8H277.2z"/>
			<path class="st0" d="M282,48.2c0,1.9-0.9,2.5-1.6,2.5c-0.9,0-1.6-0.8-1.6-2.5c0-1.8,0.8-2.5,1.6-2.5
				C281.3,45.7,282,46.5,282,48.2z M279.6,48.2c0,0.8,0.1,1.9,0.8,1.9c0.7,0,0.8-1.1,0.8-1.9c0-0.7-0.1-1.9-0.8-1.9
				S279.6,47.4,279.6,48.2z"/>
			<path class="st0" d="M282.8,47c0-0.6,0-0.9,0-1.2h0.7v0.6l0,0c0.2-0.4,0.6-0.7,1.1-0.7c0.7,0,1.2,0.5,1.2,1.7v3.2H285v-3.1
				c0-0.6-0.1-1.1-0.7-1.1c-0.3,0-0.6,0.3-0.7,0.8c0,0.1,0,0.3,0,0.4v3h-0.8V47z"/>
			<path class="st0" d="M286.7,49.8c0.2,0.1,0.5,0.2,0.8,0.2c0.4,0,0.7-0.3,0.7-0.7s-0.1-0.6-0.6-0.9c-0.6-0.4-1-0.8-1-1.4
				c0-0.8,0.6-1.3,1.3-1.3c0.4,0,0.7,0.1,0.9,0.2l-0.2,0.6c-0.2-0.1-0.4-0.2-0.6-0.2c-0.4,0-0.6,0.3-0.6,0.6s0.1,0.5,0.6,0.8
				c0.6,0.4,1,0.8,1,1.5c0,1-0.7,1.4-1.4,1.4c-0.4,0-0.8-0.1-1-0.3L286.7,49.8z"/>
			<path class="st0" d="M291.1,50.6v-0.5l0.5-0.8c0.8-1.1,1.7-2.3,1.7-3.5c0-0.7-0.3-1.2-0.9-1.2c-0.5,0-0.8,0.2-0.9,0.4l-0.2-0.6
				c0.2-0.2,0.7-0.4,1.3-0.4c1.1,0,1.5,0.8,1.5,1.8c0,1.2-0.8,2.4-1.6,3.5l-0.4,0.6l0,0h2.2v0.7H291.1z"/>
			<path class="st0" d="M233.7,53.7c-0.6,0.9-1,2.2-1,4.1c0,1.8,0.5,3.1,1,4h-0.6c-0.5-0.8-1.1-2.1-1.1-4.1s0.6-3.3,1.1-4.1
				L233.7,53.7L233.7,53.7z"/>
			<path class="st0" d="M234.5,57c0-0.6,0-0.9,0-1.2h0.7v0.6l0,0c0.2-0.4,0.6-0.7,1.1-0.7c0.7,0,1.2,0.5,1.2,1.7v3.2h-0.8v-3.1
				c0-0.6-0.1-1.1-0.7-1.1c-0.3,0-0.6,0.3-0.7,0.8c0,0.1,0,0.3,0,0.4v3h-0.8V57z"/>
			<path class="st0" d="M239.1,58.2c0,1.5,0.6,1.8,1.1,1.8c0.3,0,0.6-0.1,0.8-0.2l0.1,0.6c-0.3,0.1-0.7,0.2-1.1,0.2
				c-1.2,0-1.8-0.9-1.8-2.4c0-1.6,0.7-2.5,1.6-2.5c1,0,1.4,1,1.4,2.1c0,0.2,0,0.3,0,0.4C241.2,58.2,239.1,58.2,239.1,58.2z
				 M240.6,57.7c0-1-0.4-1.4-0.7-1.4c-0.5,0-0.8,0.7-0.8,1.4H240.6z"/>
			<path class="st0" d="M244.6,60.5c-0.2,0.1-0.5,0.2-0.8,0.2c-1.1,0-1.8-0.8-1.8-2.4c0-1.4,0.7-2.5,1.9-2.5c0.3,0,0.5,0.1,0.7,0.1
				l-0.1,0.6c-0.1,0-0.3-0.1-0.5-0.1c-0.8,0-1.1,0.9-1.1,1.9c0,1.1,0.4,1.8,1.1,1.8c0.2,0,0.4-0.1,0.6-0.1L244.6,60.5z"/>
			<path class="st0" d="M246,58L246,58c0.1-0.2,0.2-0.4,0.3-0.5l1-1.7h0.8l-1.3,2l1.4,2.8h-0.9l-1-2.3l-0.3,0.4v1.8h-0.8v-6.9h0.8
				V58z"/>
			<path class="st0" d="M253.1,55.3v2.4h2.3v0.5h-2.3v2.4h-0.6v-2.4h-2.3v-0.5h2.3v-2.4H253.1z"/>
			<path class="st0" d="M257.9,57c0-0.6,0-0.9,0-1.2h0.7v0.6l0,0c0.2-0.4,0.6-0.7,1.1-0.7c0.4,0,0.8,0.2,1,0.7l0,0
				c0.1-0.2,0.3-0.4,0.5-0.5s0.4-0.2,0.7-0.2c0.6,0,1.2,0.5,1.2,1.7v3.2h-0.8v-3c0-0.6-0.1-1.2-0.7-1.2c-0.3,0-0.6,0.3-0.7,0.7
				c0,0.1,0,0.3,0,0.4v3.1h-0.8v-3.2c0-0.5-0.1-1.1-0.7-1.1c-0.3,0-0.6,0.3-0.7,0.8c0,0.1,0,0.3,0,0.4v3.1h-0.8L257.9,57L257.9,57z"
				/>
			<path class="st0" d="M264.9,54.5c0,0.3-0.2,0.5-0.5,0.5c-0.2,0-0.4-0.2-0.4-0.5s0.2-0.5,0.4-0.5C264.7,54,264.9,54.2,264.9,54.5z
				 M264.1,60.6v-4.8h0.8v4.8H264.1z"/>
			<path class="st0" d="M268.8,53.7v5.8c0,0.3,0,0.9,0,1.2h-0.7v-0.6l0,0c-0.2,0.4-0.5,0.7-1,0.7c-0.8,0-1.4-0.9-1.4-2.5
				c0-1.7,0.7-2.5,1.5-2.5c0.3,0,0.7,0.2,0.9,0.6l0,0v-2.6h0.7V53.7z M268.1,57.6c0-0.1,0-0.2,0-0.3c-0.1-0.5-0.4-0.9-0.7-0.9
				c-0.6,0-0.9,0.9-0.9,1.9s0.3,1.8,0.8,1.8c0.2,0,0.6-0.1,0.7-0.8c0-0.1,0-0.2,0-0.3v-1.4H268.1z"/>
			<path class="st0" d="M272.8,53.7v5.8c0,0.3,0,0.9,0,1.2h-0.7v-0.6l0,0c-0.2,0.4-0.5,0.7-1,0.7c-0.8,0-1.4-0.9-1.4-2.5
				c0-1.7,0.7-2.5,1.5-2.5c0.3,0,0.7,0.2,0.9,0.6l0,0v-2.6h0.7V53.7z M272.1,57.6c0-0.1,0-0.2,0-0.3c-0.1-0.5-0.4-0.9-0.7-0.9
				c-0.6,0-0.9,0.9-0.9,1.9s0.3,1.8,0.8,1.8c0.2,0,0.6-0.1,0.7-0.8c0-0.1,0-0.2,0-0.3v-1.4H272.1z"/>
			<path class="st0" d="M273.9,53.7h0.8v6.9h-0.8V53.7z"/>
			<path class="st0" d="M276.3,58.2c0,1.5,0.6,1.8,1.1,1.8c0.3,0,0.6-0.1,0.8-0.2l0.1,0.6c-0.3,0.1-0.7,0.2-1.1,0.2
				c-1.2,0-1.8-0.9-1.8-2.4c0-1.6,0.7-2.5,1.6-2.5c1,0,1.4,1,1.4,2.1c0,0.2,0,0.3,0,0.4C278.4,58.2,276.3,58.2,276.3,58.2z
				 M277.9,57.7c0-1-0.4-1.4-0.7-1.4c-0.5,0-0.8,0.7-0.8,1.4H277.9z"/>
			<path class="st0" d="M279.1,61.8c0.6-0.9,1-2.3,1-4.1s-0.5-3.1-1-4h0.6c0.5,0.7,1.1,2.1,1.1,4c0,2-0.6,3.3-1.1,4.1H279.1z"/>
			<path class="st0" d="M285.4,60.6v-0.5l0,0c-0.2,0.4-0.5,0.6-1,0.6c-0.6,0-1.1-0.5-1.1-1.4c0-1.2,1-1.7,2.1-1.8v-0.1
				c0-0.6-0.2-1.1-0.8-1.1c-0.3,0-0.6,0.1-0.8,0.2l-0.2-0.5c0.2-0.1,0.6-0.3,1.1-0.3c1,0,1.4,0.6,1.4,1.7v2.1c0,0.4,0,0.8,0,1.1
				H285.4z M285.3,58.1c-0.4,0-1.3,0.1-1.3,1.1c0,0.6,0.3,0.9,0.6,0.9c0.3,0,0.6-0.2,0.7-0.7c0-0.1,0-0.2,0-0.3L285.3,58.1
				L285.3,58.1z"/>
			<path class="st0" d="M287.2,57c0-0.6,0-0.9,0-1.2h0.7v0.6l0,0c0.2-0.4,0.6-0.7,1.1-0.7c0.7,0,1.2,0.5,1.2,1.7v3.2h-0.8v-3.1
				c0-0.6-0.1-1.1-0.7-1.1c-0.3,0-0.6,0.3-0.7,0.8c0,0.1,0,0.3,0,0.4v3h-0.8L287.2,57L287.2,57z"/>
			<path class="st0" d="M294.1,53.7v5.8c0,0.3,0,0.9,0,1.2h-0.7v-0.6l0,0c-0.2,0.4-0.5,0.7-1,0.7c-0.8,0-1.4-0.9-1.4-2.5
				c0-1.7,0.7-2.5,1.5-2.5c0.3,0,0.7,0.2,0.9,0.6l0,0v-2.6h0.7V53.7z M293.4,57.6c0-0.1,0-0.2,0-0.3c-0.1-0.5-0.4-0.9-0.7-0.9
				c-0.6,0-0.9,0.9-0.9,1.9s0.3,1.8,0.8,1.8c0.2,0,0.6-0.1,0.7-0.8c0-0.1,0-0.2,0-0.3v-1.4H293.4z"/>
			<path class="st0" d="M298.6,60.6v-1.8h-2.2v-0.5l2.1-4.2h0.8v4.1h0.7v0.6h-0.7v1.8C299.3,60.6,298.6,60.6,298.6,60.6z
				 M298.6,58.2v-1.8c0-0.4,0-0.8,0.1-1.3l0,0c-0.2,0.5-0.4,0.8-0.5,1.2l-0.9,1.9l0,0C297.3,58.2,298.6,58.2,298.6,58.2z"/>
			<path class="st0" d="M233.7,63.7c-0.6,0.9-1,2.2-1,4.1c0,1.8,0.5,3.1,1,4h-0.6c-0.5-0.8-1.1-2.1-1.1-4.1s0.6-3.3,1.1-4.1
				L233.7,63.7L233.7,63.7z"/>
			<path class="st0" d="M234.5,67c0-0.6,0-0.9,0-1.2h0.7v0.6l0,0c0.2-0.4,0.6-0.7,1.1-0.7c0.4,0,0.8,0.2,1,0.7l0,0
				c0.1-0.2,0.3-0.4,0.5-0.5s0.4-0.2,0.7-0.2c0.6,0,1.2,0.5,1.2,1.7v3.2h-0.8v-3c0-0.6-0.1-1.2-0.7-1.2c-0.3,0-0.6,0.3-0.7,0.7
				c0,0.1,0,0.3,0,0.4v3.1h-0.8v-3.2c0-0.5-0.1-1.1-0.7-1.1c-0.3,0-0.6,0.3-0.7,0.8c0,0.1,0,0.3,0,0.4v3.1h-0.8V67z"/>
			<path class="st0" d="M241.6,64.5c0,0.3-0.2,0.5-0.5,0.5c-0.2,0-0.4-0.2-0.4-0.5s0.2-0.5,0.5-0.5C241.4,64,241.6,64.2,241.6,64.5z
				 M240.7,70.6v-4.8h0.8v4.8H240.7z"/>
			<path class="st0" d="M245.5,63.7v5.8c0,0.3,0,0.9,0,1.2h-0.7l-0.1-0.6l0,0c-0.2,0.4-0.5,0.7-1,0.7c-0.8,0-1.4-0.9-1.4-2.5
				c0-1.7,0.7-2.5,1.5-2.5c0.3,0,0.7,0.2,0.9,0.6l0,0v-2.6L245.5,63.7L245.5,63.7z M244.7,67.6c0-0.1,0-0.2,0-0.3
				c0-0.5-0.3-0.9-0.7-0.9c-0.6,0-0.9,0.9-0.9,1.9s0.3,1.8,0.8,1.8c0.2,0,0.6-0.1,0.7-0.8c0-0.1,0-0.2,0-0.3L244.7,67.6L244.7,67.6z
				"/>
			<path class="st0" d="M249.5,63.7v5.8c0,0.3,0,0.9,0,1.2h-0.7v-0.6l0,0c-0.2,0.4-0.5,0.7-1,0.7c-0.8,0-1.4-0.9-1.4-2.5
				c0-1.7,0.7-2.5,1.5-2.5c0.3,0,0.7,0.2,0.9,0.6l0,0v-2.6L249.5,63.7L249.5,63.7z M248.7,67.6c0-0.1,0-0.2,0-0.3
				c-0.1-0.5-0.4-0.9-0.7-0.9c-0.6,0-0.9,0.9-0.9,1.9s0.3,1.8,0.8,1.8c0.2,0,0.6-0.1,0.7-0.8c0-0.1,0-0.2,0-0.3L248.7,67.6
				L248.7,67.6z"/>
			<path class="st0" d="M250.6,63.7h0.8v6.9h-0.8V63.7z"/>
			<path class="st0" d="M253,68.2c0,1.5,0.6,1.8,1.1,1.8c0.3,0,0.6-0.1,0.8-0.2l0.1,0.6c-0.3,0.1-0.7,0.2-1.1,0.2
				c-1.2,0-1.8-0.9-1.8-2.4c0-1.6,0.7-2.5,1.6-2.5c1,0,1.4,1,1.4,2.1c0,0.2,0,0.3,0,0.4H253z M254.5,67.7c0-1-0.3-1.4-0.7-1.4
				c-0.5,0-0.8,0.7-0.8,1.4H254.5z"/>
			<path class="st0" d="M260.4,65.3v2.4h2.3v0.5h-2.3v2.4h-0.6v-2.4h-2.3v-0.5h2.3v-2.4H260.4z"/>
			<path class="st0" d="M265.1,70.6c0-0.3,0-0.8,0-1.2v-5.8h0.8v2.6l0,0c0.2-0.5,0.6-0.6,1-0.6c0.7,0,1.3,0.9,1.3,2.4
				c0,1.7-0.7,2.5-1.5,2.5c-0.5,0-0.8-0.3-1-0.7l0,0v0.6h-0.6V70.6z M266,68.9c0,0.1,0,0.2,0,0.3c0.2,0.7,0.5,0.8,0.7,0.8
				c0.6,0,0.8-0.8,0.8-1.9c0-1-0.2-1.8-0.8-1.8c-0.4,0-0.7,0.4-0.7,0.9c0,0.1,0,0.2,0,0.3V68.9z"/>
			<path class="st0" d="M269.2,67c0-0.4,0-0.9,0-1.2h0.7v0.8l0,0c0.2-0.5,0.6-0.8,1-0.8c0.1,0,0.1,0,0.2,0v0.8c0,0-0.1,0-0.2,0
				c-0.5,0-0.8,0.4-0.9,1c0,0.1,0,0.3,0,0.4v2.7h-0.8L269.2,67L269.2,67z"/>
			<path class="st0" d="M272.5,64.5c0,0.3-0.2,0.5-0.5,0.5c-0.2,0-0.4-0.2-0.4-0.5s0.2-0.5,0.4-0.5C272.3,64,272.5,64.2,272.5,64.5z
				 M271.7,70.6v-4.8h0.8v4.8H271.7z"/>
			<path class="st0" d="M276.4,63.7v5.8c0,0.3,0,0.9,0,1.2h-0.7v-0.6l0,0c-0.2,0.4-0.5,0.7-1,0.7c-0.8,0-1.4-0.9-1.4-2.5
				c0-1.7,0.7-2.5,1.5-2.5c0.3,0,0.7,0.2,0.9,0.6l0,0v-2.6L276.4,63.7L276.4,63.7z M275.7,67.6c0-0.1,0-0.2,0-0.3
				c-0.1-0.5-0.4-0.9-0.7-0.9c-0.6,0-0.9,0.9-0.9,1.9s0.3,1.8,0.8,1.8c0.2,0,0.6-0.1,0.7-0.8c0-0.1,0-0.2,0-0.3v-1.4H275.7z"/>
			<path class="st0" d="M280.5,65.8c0,0.3,0,0.8,0,1.5V70c0,1.3-0.2,1.7-0.5,2.1c-0.3,0.3-0.7,0.5-1.3,0.5c-0.4,0-0.8-0.1-1.1-0.2
				l0.2-0.6c0.2,0.1,0.5,0.2,0.9,0.2c0.6,0,1-0.4,1-1.5V70l0,0c-0.2,0.4-0.5,0.6-0.9,0.6c-0.9,0-1.4-1-1.4-2.4
				c0-1.8,0.8-2.5,1.5-2.5c0.5,0,0.8,0.3,0.9,0.6l0,0v-0.5C279.8,65.8,280.5,65.8,280.5,65.8z M279.7,67.4c0-0.1,0-0.2,0-0.3
				c-0.1-0.3-0.3-0.7-0.7-0.7c-0.6,0-0.9,0.7-0.9,1.8c0,1.2,0.4,1.8,0.9,1.8c0.2,0,0.5-0.1,0.7-0.7c0-0.1,0.1-0.3,0.1-0.4v-1.5
				H279.7z"/>
			<path class="st0" d="M282,68.2c0,1.5,0.6,1.8,1.1,1.8c0.3,0,0.6-0.1,0.8-0.2l0.1,0.6c-0.3,0.1-0.7,0.2-1.1,0.2
				c-1.2,0-1.8-0.9-1.8-2.4c0-1.6,0.7-2.5,1.6-2.5c1,0,1.4,1,1.4,2.1c0,0.2,0,0.3,0,0.4H282z M283.5,67.7c0-1-0.4-1.4-0.7-1.4
				c-0.5,0-0.8,0.7-0.8,1.4H283.5z"/>
			<path class="st0" d="M284.8,71.8c0.6-0.9,1-2.3,1-4.1c0-1.8-0.5-3.1-1-4h0.6c0.5,0.7,1.1,2.1,1.1,4c0,2-0.6,3.3-1.1,4.1H284.8z"
				/>
			<path class="st0" d="M287.3,71.9c0.2-0.6,0.5-1.6,0.6-2.3l0.9-0.1c-0.2,0.8-0.7,1.9-0.9,2.4H287.3z"/>
			<path class="st0" d="M291.1,70.6c0-0.3,0-0.8,0-1.2v-5.8h0.8v2.6l0,0c0.2-0.5,0.6-0.6,1-0.6c0.7,0,1.3,0.9,1.3,2.4
				c0,1.7-0.7,2.5-1.5,2.5c-0.5,0-0.8-0.3-1-0.7l0,0v0.6h-0.6V70.6z M291.9,68.9c0,0.1,0,0.2,0,0.3c0.2,0.7,0.5,0.8,0.7,0.8
				c0.6,0,0.8-0.8,0.8-1.9c0-1-0.2-1.8-0.8-1.8c-0.4,0-0.7,0.4-0.7,0.9c0,0.1,0,0.2,0,0.3V68.9z"/>
			<path class="st0" d="M298.1,68.2c0,1.9-0.9,2.5-1.6,2.5c-0.9,0-1.6-0.8-1.6-2.5c0-1.8,0.8-2.5,1.6-2.5
				C297.4,65.7,298.1,66.5,298.1,68.2z M295.7,68.2c0,0.8,0.1,1.9,0.8,1.9c0.7,0,0.8-1.1,0.8-1.9c0-0.7-0.1-1.9-0.8-1.9
				C295.8,66.3,295.7,67.4,295.7,68.2z"/>
			<path class="st0" d="M299.9,64.5v1.3h0.9v0.6h-0.9v2.9c0,0.6,0.2,0.8,0.5,0.8c0.1,0,0.2,0,0.3,0v0.6c-0.1,0-0.3,0.1-0.6,0.1
				c-0.3,0-0.6-0.1-0.8-0.3c-0.2-0.2-0.3-0.5-0.3-1.2v-2.8h-0.6v-0.6h0.6v-1.1L299.9,64.5z"/>
			<path class="st0" d="M301.5,63.7h0.8v2.6l0,0c0.1-0.2,0.2-0.3,0.4-0.4c0.2-0.1,0.4-0.2,0.6-0.2c0.6,0,1.1,0.5,1.1,1.7v3.2h-0.8
				v-3.1c0-0.6-0.1-1.1-0.6-1.1c-0.4,0-0.6,0.3-0.7,0.8c0,0.1,0,0.2,0,0.4v3.1h-0.8V63.7z"/>
			<path class="st0" d="M232,73.7h0.8v2.6l0,0c0.1-0.2,0.2-0.3,0.4-0.4s0.4-0.2,0.7-0.2c0.6,0,1.1,0.5,1.1,1.7v3.2h-0.8v-3.1
				c0-0.6-0.1-1.1-0.6-1.1c-0.4,0-0.6,0.3-0.8,0.8c0,0.1,0,0.2,0,0.4v3.1H232V73.7z"/>
			<path class="st0" d="M239,79.3c0,0.5,0,1,0,1.3h-0.7l-0.1-0.5l0,0c-0.2,0.2-0.5,0.6-1,0.6c-0.8,0-1.2-0.7-1.2-1.9v-3.1h0.8v2.9
				c0,0.8,0.1,1.3,0.6,1.3s0.6-0.4,0.7-0.6c0-0.1,0-0.3,0-0.4v-3.2h0.8L239,79.3L239,79.3z"/>
			<path class="st0" d="M240,77c0-0.6,0-0.9,0-1.2h0.7v0.6l0,0c0.2-0.4,0.6-0.7,1.1-0.7c0.4,0,0.8,0.2,1,0.7l0,0
				c0.1-0.2,0.3-0.4,0.5-0.5s0.4-0.2,0.7-0.2c0.6,0,1.2,0.5,1.2,1.7v3.2h-0.8v-3c0-0.6-0.1-1.2-0.7-1.2c-0.3,0-0.6,0.3-0.7,0.7
				c0,0.1,0,0.3,0,0.4v3.1h-0.8v-3.2c0-0.5-0.1-1.1-0.7-1.1c-0.3,0-0.6,0.3-0.7,0.8c0,0.1,0,0.3,0,0.4v3.1H240V77z"/>
			<path class="st0" d="M246.2,80.6c0-0.3,0-0.8,0-1.2v-5.8h0.8v2.6l0,0c0.2-0.5,0.6-0.6,1-0.6c0.8,0,1.3,0.9,1.3,2.4
				c0,1.7-0.7,2.5-1.5,2.5c-0.5,0-0.8-0.3-1-0.7l0,0v0.6h-0.6V80.6z M247,78.9c0,0.1,0,0.2,0,0.3c0.2,0.7,0.5,0.8,0.7,0.8
				c0.6,0,0.8-0.8,0.8-1.9c0-1-0.2-1.8-0.8-1.8c-0.4,0-0.7,0.4-0.7,0.9c0,0.1,0,0.2,0,0.3V78.9z"/>
			<path class="st0" d="M253.1,79.3c0,0.5,0,1,0,1.3h-0.7l-0.1-0.5l0,0c-0.2,0.2-0.5,0.6-1,0.6c-0.8,0-1.2-0.7-1.2-1.9v-3.1h0.8v2.9
				c0,0.8,0.1,1.3,0.6,1.3s0.6-0.4,0.7-0.6c0-0.1,0-0.3,0-0.4v-3.2h0.8L253.1,79.3L253.1,79.3z"/>
			<path class="st0" d="M256.6,80.5c-0.2,0.1-0.5,0.2-0.8,0.2c-1.1,0-1.8-0.8-1.8-2.4c0-1.4,0.7-2.5,1.9-2.5c0.3,0,0.5,0.1,0.7,0.1
				l-0.2,0.6c-0.1,0-0.3-0.1-0.5-0.1c-0.8,0-1.1,0.9-1.1,1.9c0,1.1,0.4,1.8,1.1,1.8c0.2,0,0.4-0.1,0.6-0.1L256.6,80.5z"/>
			<path class="st0" d="M258,78L258,78c0.1-0.2,0.2-0.4,0.3-0.5l1-1.7h0.8l-1.3,2l1.4,2.8h-0.9l-1-2.3l-0.3,0.4v1.8h-0.8v-6.9h0.8
				V78z"/>
			<path class="st0" d="M261.3,78.2c0,1.5,0.6,1.8,1.1,1.8c0.3,0,0.6-0.1,0.8-0.2l0.1,0.6c-0.3,0.1-0.7,0.2-1.1,0.2
				c-1.2,0-1.8-0.9-1.8-2.4c0-1.6,0.7-2.5,1.6-2.5c1,0,1.4,1,1.4,2.1c0,0.2,0,0.3,0,0.4H261.3z M262.8,77.7c0-1-0.3-1.4-0.7-1.4
				c-0.5,0-0.8,0.7-0.8,1.4H262.8z"/>
			<path class="st0" d="M264.4,77c0-0.4,0-0.9,0-1.2h0.7v0.8l0,0c0.2-0.5,0.6-0.8,1-0.8c0.1,0,0.1,0,0.2,0v0.8c0,0-0.1,0-0.2,0
				c-0.5,0-0.8,0.4-0.9,1c0,0.1,0,0.3,0,0.4v2.7h-0.8L264.4,77L264.4,77z"/>
			<path class="st0" d="M266.7,79.8c0.2,0.1,0.5,0.2,0.8,0.2c0.4,0,0.7-0.3,0.7-0.7c0-0.4-0.1-0.6-0.6-0.9c-0.6-0.4-1-0.8-1-1.4
				c0-0.8,0.6-1.3,1.3-1.3c0.4,0,0.7,0.1,0.9,0.2l-0.2,0.6c-0.2-0.1-0.4-0.2-0.6-0.2c-0.4,0-0.6,0.3-0.6,0.6c0,0.3,0.1,0.5,0.6,0.8
				c0.6,0.4,1,0.8,1,1.5c0,1-0.7,1.4-1.4,1.4c-0.4,0-0.7-0.1-1-0.3L266.7,79.8z"/>
			<path class="st0" d="M273.2,80.6v-0.5l0,0c-0.2,0.4-0.5,0.6-1,0.6c-0.6,0-1.1-0.5-1.1-1.4c0-1.2,1-1.7,2.1-1.8v-0.1
				c0-0.6-0.2-1.1-0.8-1.1c-0.3,0-0.6,0.1-0.8,0.2l-0.2-0.5c0.2-0.1,0.7-0.3,1.1-0.3c1,0,1.4,0.6,1.4,1.7v2.1c0,0.4,0,0.8,0.1,1.1
				L273.2,80.6L273.2,80.6z M273.1,78.1c-0.4,0-1.3,0.1-1.3,1.1c0,0.6,0.3,0.9,0.6,0.9c0.3,0,0.6-0.2,0.7-0.7c0-0.1,0-0.2,0-0.3
				L273.1,78.1L273.1,78.1z"/>
			<path class="st0" d="M275,77c0-0.4,0-0.9,0-1.2h0.7v0.8l0,0c0.2-0.5,0.6-0.8,1-0.8c0.1,0,0.1,0,0.2,0v0.8c0,0-0.1,0-0.2,0
				c-0.5,0-0.8,0.4-0.9,1c0,0.1,0,0.3,0,0.4v2.7H275V77z"/>
			<path class="st0" d="M278,78.2c0,1.5,0.6,1.8,1.1,1.8c0.3,0,0.6-0.1,0.8-0.2l0.1,0.6c-0.3,0.1-0.7,0.2-1.1,0.2
				c-1.2,0-1.8-0.9-1.8-2.4c0-1.6,0.7-2.5,1.6-2.5c1,0,1.4,1,1.4,2.1c0,0.2,0,0.3,0,0.4H278z M279.5,77.7c0-1-0.3-1.4-0.7-1.4
				c-0.5,0-0.8,0.7-0.8,1.4H279.5z"/>
			<path class="st0" d="M285,80.5c-0.2,0.1-0.5,0.2-0.8,0.2c-1.1,0-1.8-0.8-1.8-2.4c0-1.4,0.7-2.5,1.9-2.5c0.3,0,0.5,0.1,0.7,0.1
				l-0.2,0.6c-0.1,0-0.3-0.1-0.5-0.1c-0.8,0-1.1,0.9-1.1,1.9c0,1.1,0.4,1.8,1.1,1.8c0.2,0,0.4-0.1,0.6-0.1L285,80.5z"/>
			<path class="st0" d="M288.6,78.2c0,1.9-0.9,2.5-1.6,2.5c-0.9,0-1.6-0.8-1.6-2.5c0-1.8,0.8-2.5,1.6-2.5
				C287.9,75.7,288.6,76.5,288.6,78.2z M286.2,78.2c0,0.8,0.1,1.9,0.8,1.9c0.7,0,0.8-1.1,0.8-1.9c0-0.7-0.1-1.9-0.8-1.9
				C286.4,76.3,286.2,77.4,286.2,78.2z"/>
			<path class="st0" d="M290.3,74.5c0,0.3-0.2,0.5-0.5,0.5c-0.2,0-0.4-0.2-0.4-0.5s0.2-0.5,0.5-0.5C290.2,74,290.3,74.2,290.3,74.5z
				 M289.5,80.6v-4.8h0.8v4.8H289.5z"/>
			<path class="st0" d="M291.3,73.7h0.8v6.9h-0.8V73.7z"/>
			<path class="st0" d="M295.2,77.7v0.6H293v-0.6H295.2z"/>
			<path class="st0" d="M298.4,80.5c-0.2,0.1-0.5,0.2-0.8,0.2c-1.1,0-1.8-0.8-1.8-2.4c0-1.4,0.7-2.5,1.9-2.5c0.3,0,0.5,0.1,0.7,0.1
				l-0.2,0.6c-0.1,0-0.3-0.1-0.5-0.1c-0.8,0-1.1,0.9-1.1,1.9c0,1.1,0.4,1.8,1.1,1.8c0.2,0,0.4-0.1,0.6-0.1L298.4,80.5z"/>
			<path class="st0" d="M302,79.3c0,0.5,0,1,0,1.3h-0.7v-0.5l0,0c-0.1,0.2-0.5,0.6-1,0.6c-0.8,0-1.2-0.7-1.2-1.9v-3.1h0.8v2.9
				c0,0.8,0.1,1.3,0.7,1.3c0.4,0,0.6-0.4,0.7-0.6c0-0.1,0-0.3,0-0.4v-3.2h0.8L302,79.3L302,79.3z"/>
			<path class="st0" d="M304,74.5v1.3h0.9v0.6H304v2.9c0,0.6,0.2,0.8,0.5,0.8c0.1,0,0.2,0,0.3,0v0.6c-0.1,0-0.3,0.1-0.6,0.1
				c-0.3,0-0.6-0.1-0.8-0.3c-0.2-0.2-0.3-0.5-0.3-1.2v-2.8h-0.6v-0.6h0.6v-1.1L304,74.5z"/>
			<path class="st0" d="M305.5,80.1c0-0.3,0.2-0.6,0.5-0.6s0.5,0.2,0.5,0.6c0,0.3-0.2,0.6-0.5,0.6C305.8,80.7,305.5,80.4,305.5,80.1
				z"/>
		</g>
	</g>
	<g>
		<path d="M234.2,194.3l-1.5-6.7h0.8l0.7,3.2c0.2,0.8,0.4,1.7,0.5,2.6l0,0c0.1-0.9,0.3-1.8,0.4-2.6l0.6-3.1h0.8l-1.6,6.7
			L234.2,194.3L234.2,194.3z"/>
		<path d="M238,188.2c0,0.3-0.2,0.5-0.5,0.5c-0.2,0-0.4-0.2-0.4-0.5s0.2-0.5,0.5-0.5C237.9,187.7,238,187.9,238,188.2z M237.2,194.3
			v-4.8h0.8v4.8H237.2z"/>
		<path d="M239.6,191.9c0,1.5,0.6,1.8,1.1,1.8c0.3,0,0.6-0.1,0.8-0.2l0.1,0.6c-0.3,0.2-0.7,0.2-1.1,0.2c-1.2,0-1.8-1-1.8-2.4
			c0-1.6,0.7-2.5,1.6-2.5c1,0,1.4,1,1.4,2.1c0,0.2,0,0.3,0,0.4L239.6,191.9L239.6,191.9z M241.1,191.4c0-1-0.3-1.4-0.7-1.4
			c-0.5,0-0.8,0.7-0.8,1.4H241.1z"/>
		<path d="M243.1,189.5l0.5,2.4c0.1,0.5,0.2,1,0.3,1.5l0,0c0.1-0.5,0.2-1.1,0.3-1.5l0.6-2.4h0.6l0.5,2.3c0.1,0.5,0.2,1,0.3,1.6l0,0
			c0.1-0.5,0.1-1,0.3-1.6l0.5-2.3h0.8l-1.2,4.8H246l-0.6-2.3c-0.1-0.5-0.2-0.9-0.3-1.4l0,0c-0.1,0.6-0.2,1-0.3,1.5l-0.6,2.3h-0.6
			l-1.2-4.8h0.7V189.5z"/>
		<path d="M248.9,191.9c0,1.5,0.6,1.8,1.1,1.8c0.3,0,0.6-0.1,0.8-0.2l0.1,0.6c-0.3,0.2-0.7,0.2-1.1,0.2c-1.2,0-1.8-1-1.8-2.4
			c0-1.6,0.7-2.5,1.6-2.5c1,0,1.4,1,1.4,2.1c0,0.2,0,0.3,0,0.4L248.9,191.9L248.9,191.9z M250.4,191.4c0-1-0.3-1.4-0.7-1.4
			c-0.5,0-0.8,0.7-0.8,1.4H250.4z"/>
		<path d="M254.9,187.4v5.8c0,0.3,0,0.9,0,1.2h-0.7l-0.1-0.6l0,0c-0.2,0.3-0.5,0.7-1,0.7c-0.8,0-1.4-0.9-1.4-2.5
			c0-1.7,0.7-2.5,1.5-2.5c0.3,0,0.7,0.2,0.9,0.6l0,0v-2.6L254.9,187.4L254.9,187.4z M254.1,191.3c0-0.1,0-0.2,0-0.3
			c0-0.5-0.3-0.9-0.7-0.9c-0.6,0-0.9,0.9-0.9,1.9s0.3,1.8,0.8,1.8c0.2,0,0.6-0.1,0.7-0.8c0-0.1,0-0.2,0-0.3L254.1,191.3L254.1,191.3
			z"/>
		<path d="M257.7,194.3v-4.2h-0.6v-0.6h0.6v-0.3c0-0.5,0.1-1.1,0.4-1.5c0.3-0.3,0.7-0.4,1-0.4s0.5,0,0.6,0.1l-0.1,0.6
			c-0.1,0-0.2-0.1-0.4-0.1c-0.5,0-0.7,0.6-0.7,1.2v0.3h0.9v0.6h-0.9v4.2L257.7,194.3L257.7,194.3z"/>
		<path d="M259.8,190.7c0-0.4,0-0.9,0-1.2h0.7v0.8l0,0c0.2-0.5,0.6-0.8,1-0.8c0.1,0,0.1,0,0.2,0v0.8c0,0-0.1,0-0.2,0
			c-0.5,0-0.8,0.5-0.9,1c0,0.1,0,0.3,0,0.4v2.7h-0.8L259.8,190.7L259.8,190.7z"/>
		<path d="M265.2,191.9c0,1.9-0.9,2.5-1.6,2.5c-0.9,0-1.6-0.8-1.6-2.5c0-1.8,0.8-2.5,1.6-2.5C264.5,189.4,265.2,190.2,265.2,191.9z
			 M262.8,191.9c0,0.8,0.1,1.9,0.8,1.9c0.7,0,0.8-1.1,0.8-1.9c0-0.7-0.1-1.9-0.8-1.9C263,190,262.8,191.1,262.8,191.9z"/>
		<path d="M266.1,190.7c0-0.6,0-0.9,0-1.2h0.7v0.6l0,0c0.2-0.4,0.6-0.7,1.1-0.7c0.4,0,0.8,0.2,1,0.7l0,0c0.1-0.2,0.3-0.4,0.5-0.5
			s0.4-0.2,0.7-0.2c0.6,0,1.2,0.5,1.2,1.7v3.2h-0.8v-3c0-0.6-0.1-1.2-0.7-1.2c-0.3,0-0.6,0.3-0.7,0.7c0,0.1,0,0.3,0,0.4v3.1h-0.8
			v-3.2c0-0.5-0.1-1.1-0.7-1.1c-0.3,0-0.6,0.3-0.7,0.8c0,0.1,0,0.3,0,0.4v3.1h-0.8L266.1,190.7L266.1,190.7z"/>
		<path d="M274.8,188.2v1.3h0.9v0.6h-0.9v2.9c0,0.6,0.2,0.8,0.5,0.8c0.1,0,0.2,0,0.3,0v0.6c-0.1,0-0.3,0.1-0.6,0.1
			c-0.3,0-0.6-0.1-0.8-0.3c-0.2-0.2-0.3-0.5-0.3-1.2v-2.8h-0.6v-0.6h0.6v-1.1L274.8,188.2z"/>
		<path d="M276.4,187.4h0.8v2.6l0,0c0.1-0.2,0.2-0.3,0.4-0.4c0.2-0.1,0.4-0.2,0.7-0.2c0.6,0,1.1,0.5,1.1,1.7v3.2h-0.8v-3.1
			c0-0.6-0.1-1.1-0.6-1.1c-0.4,0-0.6,0.3-0.8,0.8c0,0.1,0,0.2,0,0.4v3.1h-0.8L276.4,187.4L276.4,187.4z"/>
		<path d="M281,191.9c0,1.5,0.6,1.8,1.1,1.8c0.3,0,0.6-0.1,0.8-0.2l0.1,0.6c-0.3,0.2-0.7,0.2-1.1,0.2c-1.2,0-1.8-1-1.8-2.4
			c0-1.6,0.7-2.5,1.6-2.5c1,0,1.4,1,1.4,2.1c0,0.2,0,0.3,0,0.4L281,191.9L281,191.9z M282.5,191.4c0-1-0.3-1.4-0.7-1.4
			c-0.5,0-0.8,0.7-0.8,1.4H282.5z"/>
		<path d="M285.6,194.3c0-0.3,0-0.8,0-1.2v-5.8h0.8v2.6l0,0c0.2-0.5,0.6-0.6,1-0.6c0.7,0,1.3,0.9,1.3,2.4c0,1.7-0.7,2.5-1.5,2.5
			c-0.5,0-0.8-0.3-1-0.7l0,0v0.6h-0.6V194.3z M286.4,192.6c0,0.1,0,0.2,0,0.3c0.2,0.7,0.5,0.8,0.7,0.8c0.6,0,0.8-0.8,0.8-1.9
			c0-1-0.2-1.8-0.8-1.8c-0.4,0-0.7,0.5-0.7,0.9c0,0.1,0,0.2,0,0.3V192.6z"/>
		<path d="M291.6,194.3l-0.1-0.5l0,0c-0.2,0.4-0.5,0.6-1,0.6c-0.6,0-1.1-0.5-1.1-1.4c0-1.2,1-1.7,2.1-1.8V191c0-0.6-0.2-1.1-0.8-1.1
			c-0.3,0-0.6,0.1-0.8,0.2l-0.2-0.5c0.2-0.1,0.6-0.3,1.1-0.3c1,0,1.4,0.6,1.4,1.7v2.1c0,0.4,0,0.8,0,1.1L291.6,194.3L291.6,194.3z
			 M291.5,191.8c-0.4,0-1.3,0.1-1.3,1.1c0,0.6,0.3,0.9,0.6,0.9c0.3,0,0.6-0.2,0.7-0.7c0-0.1,0-0.2,0-0.3L291.5,191.8L291.5,191.8z"
			/>
		<path d="M295.7,194.2c-0.2,0.1-0.5,0.2-0.8,0.2c-1.1,0-1.8-0.8-1.8-2.4c0-1.4,0.7-2.5,1.9-2.5c0.3,0,0.5,0.1,0.7,0.2l-0.1,0.6
			c-0.1,0-0.3-0.1-0.5-0.1c-0.8,0-1.1,0.9-1.1,1.9c0,1.1,0.4,1.8,1.1,1.8c0.2,0,0.4-0.1,0.6-0.1L295.7,194.2z"/>
		<path d="M297.1,191.7L297.1,191.7c0.1-0.2,0.2-0.4,0.3-0.5l1-1.7h0.8l-1.3,2l1.4,2.8h-0.9l-1-2.3l-0.3,0.4v1.8h-0.8v-6.9h0.8
			V191.7z"/>
		<path d="M299.8,193.8c0-0.3,0.2-0.6,0.5-0.6s0.5,0.2,0.5,0.6c0,0.3-0.2,0.6-0.5,0.6C300,194.4,299.8,194.1,299.8,193.8z"/>
	</g>
</g>
</svg>
