<?xml version="1.0" encoding="utf-8"?>
<!-- Generator: Adobe Illustrator 27.0.0, SVG Export Plug-In . SVG Version: 6.00 Build 0)  -->
<svg version="1.1" id="Layer_2_00000113320870761209416220000007080276100000508583_"
	 xmlns="http://www.w3.org/2000/svg" xmlns:xlink="http://www.w3.org/1999/xlink" x="0px" y="0px" viewBox="0 0 324.7 211.9"
	 style="enable-background:new 0 0 324.7 211.9;" xml:space="preserve">
<style type="text/css">
	.st0{fill:#C7DBEE;stroke:#526A7A;stroke-miterlimit:10;}
	.st1{fill:#526A7A;stroke:#526A7A;stroke-linejoin:round;stroke-miterlimit:10;}
	.st2{fill:#232020;}
	.st3{fill:#526A7A;}
	.st4{fill:#C7DBEE;stroke:#526A7A;stroke-linejoin:round;stroke-miterlimit:10;}
	.st5{fill:none;stroke:#000000;stroke-width:1.5;stroke-linejoin:round;}
	.st6{fill:#C7DBEE;}
	.st7{fill:none;stroke:#000000;stroke-width:3;stroke-linecap:round;stroke-linejoin:round;}
	.st8{fill:none;stroke:#FFFFFF;stroke-width:1.6;stroke-linecap:round;stroke-linejoin:round;}
	.st9{fill:#FFFFFF;}
	.st10{fill:none;stroke:#000000;stroke-width:1.5;stroke-linecap:round;stroke-linejoin:round;}
	.st11{fill:none;stroke:#929497;stroke-width:3;stroke-linecap:round;stroke-linejoin:round;}
	.st12{fill:#929497;}
	.st13{fill:none;stroke:#17AE4B;stroke-width:3;stroke-linecap:round;stroke-linejoin:round;}
	.st14{fill:#17AE4B;}
	.st15{fill:#EB5A29;}
	.st16{fill:none;stroke:#000000;stroke-width:1.5;stroke-linecap:round;stroke-linejoin:round;stroke-miterlimit:10;}
	.st17{fill:none;stroke:#EC2024;stroke-width:3;stroke-linecap:round;stroke-linejoin:round;}
	.st18{fill:#EC2024;}
	.st19{fill:#FFFFFF;stroke:#BABCBE;stroke-width:0.75;stroke-miterlimit:10;}
	.st20{fill:#C7DBEE;stroke:#000000;stroke-width:0.75;stroke-miterlimit:10;}
	.st21{fill:#FBF7C0;stroke:#000000;stroke-width:0.75;stroke-miterlimit:10;}
	.st22{fill:none;stroke:#000000;stroke-width:0.75;stroke-miterlimit:10;}
	.st23{fill:none;stroke:#000000;stroke-width:0.5;stroke-miterlimit:10;}
</style>
<g>
	<g>
		<path class="st0" d="M118.9,182.8c0.8,0.8,0.8,2.1,0,2.9l-8.3,8.3c-0.8,0.8-2.1,0.8-2.9,0l-47.6-47.6c-0.8-0.8-0.8-2.1,0-2.9
			l8.3-8.3c0.8-0.8,2.1-0.8,2.9,0L118.9,182.8z"/>
		<g>
			<path class="st0" d="M109.6,180l-4.3,4.3c-1.1,1.1-1.1,2.8,0,3.9c1.1,1.1,2.8,1.1,3.9,0l4.3-4.3L109.6,180z"/>
			<path class="st0" d="M98,168.5l-4.3,4.3c-1.1,1.1-1.1,2.8,0,3.9c1.1,1.1,2.8,1.1,3.9,0l4.3-4.3L98,168.5z"/>
			<path class="st0" d="M86.4,156.9l-4.3,4.3c-1.1,1.1-1.1,2.8,0,3.9c1.1,1.1,2.8,1.1,3.9,0l4.3-4.3L86.4,156.9z"/>
			<path class="st0" d="M74.9,145.3l-4.3,4.3c-1.1,1.1-1.1,2.8,0,3.9c1.1,1.1,2.8,1.1,3.9,0l4.3-4.3L74.9,145.3z"/>
			<path class="st0" d="M108.2,172.1l4.3-4.3c1.1-1.1,2.8-1.1,3.9,0s1.1,2.8,0,3.9l-4.3,4.3L108.2,172.1z"/>
			<path class="st0" d="M96.7,160.6l4.3-4.3c1.1-1.1,2.8-1.1,3.9,0s1.1,2.8,0,3.9l-4.3,4.3L96.7,160.6z"/>
			<path class="st0" d="M85.1,149l4.3-4.3c1.1-1.1,2.8-1.1,3.9,0s1.1,2.8,0,3.9l-4.3,4.3L85.1,149z"/>
			<path class="st0" d="M73.5,137.4l4.3-4.3c1.1-1.1,2.8-1.1,3.9,0s1.1,2.8,0,3.9l-4.3,4.3L73.5,137.4z"/>
		</g>
		<polygon class="st1" points="68.5,138.9 115.3,185.8 118.6,182.5 71.7,135.6 		"/>
	</g>
	<g>
		<path class="st2" d="M67.3,179.6h-1.7l-0.3,1.7c0.1,0,0.1,0,0.2,0c0.3,0,0.9,0.2,1.2,0.5c0.3,0.3,0.5,0.8,0.5,1.5
			c0,1.3-0.8,2.2-2,2.2c-0.4,0-0.8-0.1-1.1-0.3l0.2-0.6c0.2,0.1,0.5,0.3,0.9,0.3c0.7,0,1.2-0.5,1.2-1.5s-0.6-1.5-1.5-1.5
			c-0.2,0-0.4,0-0.5,0l0.4-3h2.3v0.7H67.3z"/>
		<path class="st2" d="M70.3,182.5v0.6h-2.2v-0.6H70.3z"/>
		<path class="st2" d="M71.5,180.6L72,183c0.1,0.5,0.2,1,0.3,1.5l0,0c0.1-0.5,0.2-1.1,0.3-1.5l0.6-2.4h0.6l0.5,2.3
			c0.1,0.5,0.2,1,0.3,1.6l0,0c0.1-0.5,0.1-1,0.3-1.6l0.5-2.3h0.8l-1.2,4.8h-0.6l-0.6-2.3c-0.1-0.5-0.2-0.9-0.3-1.4l0,0
			c-0.1,0.6-0.2,1-0.3,1.5l-0.6,2.3H72l-1.2-4.8h0.7V180.6z"/>
		<path class="st2" d="M78.7,185.4l-0.1-0.5l0,0c-0.2,0.4-0.5,0.6-1,0.6c-0.6,0-1.1-0.5-1.1-1.4c0-1.2,1-1.7,2.1-1.8v-0.1
			c0-0.7-0.2-1.1-0.8-1.1c-0.3,0-0.6,0.1-0.8,0.2l-0.2-0.5c0.2-0.2,0.6-0.3,1.1-0.3c1,0,1.4,0.6,1.4,1.7v2.1c0,0.4,0,0.8,0.1,1.1
			H78.7z M78.6,182.9c-0.4,0-1.3,0.1-1.3,1.1c0,0.6,0.3,0.9,0.6,0.9c0.3,0,0.6-0.2,0.7-0.7c0-0.1,0-0.2,0-0.3
			C78.6,183.9,78.6,182.9,78.6,182.9z"/>
		<path class="st2" d="M80.8,180.6l0.6,2.8c0.1,0.4,0.1,0.7,0.2,1l0,0c0.1-0.3,0.1-0.6,0.2-1l0.6-2.8h0.8l-0.8,3.1
			c-0.3,1.2-0.6,2.4-1.2,3.1c-0.3,0.4-0.7,0.7-0.9,0.7l-0.3-0.7c0.2-0.1,0.5-0.3,0.7-0.6c0.2-0.2,0.4-0.6,0.4-0.8c0-0.1,0-0.2,0-0.2
			c0-0.1,0-0.1,0-0.2l-1.2-4.5L80.8,180.6L80.8,180.6z"/>
		<path class="st2" d="M67.5,195.3c-0.2,0.1-0.5,0.2-1,0.2c-1.3,0-2.3-1.1-2.3-3.3c0-2.7,1.3-3.5,2.4-3.5c0.4,0,0.7,0.1,0.8,0.2
			l-0.2,0.7c-0.2-0.1-0.3-0.1-0.7-0.1c-0.7,0-1.6,0.7-1.6,2.8s0.8,2.7,1.6,2.7c0.3,0,0.5-0.1,0.7-0.1L67.5,195.3z"/>
		<path class="st2" d="M68.3,188.8c0.3-0.1,0.7-0.1,1.1-0.1c0.7,0,1.2,0.1,1.5,0.5c0.3,0.3,0.5,0.8,0.5,1.3c0,0.9-0.4,1.4-1.1,1.7
			l0,0c0.5,0.2,0.8,0.6,0.9,1.5c0.2,0.9,0.3,1.5,0.4,1.7h-0.8c-0.1-0.2-0.2-0.8-0.4-1.7c-0.1-0.9-0.4-1.3-1.1-1.3H69v2.9h-0.8v-6.5
			H68.3z M69,191.9h0.3c0.7,0,1.2-0.5,1.2-1.3s-0.3-1.3-1.1-1.3c-0.1,0-0.3,0-0.4,0V191.9z"/>
		<path class="st2" d="M72.4,188.7h0.8v6.1H75v0.6h-2.7L72.4,188.7L72.4,188.7z"/>
		<path class="st2" d="M77.2,194.6c0.2,0.1,0.5,0.2,0.8,0.2c0.4,0,0.7-0.3,0.7-0.7s-0.1-0.6-0.6-0.9c-0.6-0.4-1-0.8-1-1.4
			c0-0.8,0.6-1.3,1.3-1.3c0.4,0,0.7,0.1,0.9,0.2l-0.2,0.6c-0.2-0.1-0.4-0.2-0.6-0.2c-0.4,0-0.6,0.3-0.6,0.6s0.1,0.5,0.6,0.8
			c0.6,0.4,1,0.8,1,1.5c0,1-0.7,1.4-1.4,1.4c-0.4,0-0.7-0.1-1-0.3L77.2,194.6z"/>
		<path class="st2" d="M80.6,190.6l0.5,2.4c0.1,0.5,0.2,1,0.3,1.5l0,0c0.1-0.5,0.2-1.1,0.3-1.5l0.6-2.4h0.6l0.5,2.3
			c0.1,0.5,0.2,1,0.3,1.6l0,0c0.1-0.5,0.1-1,0.3-1.6l0.5-2.3h0.8l-1.2,4.8h-0.6l-0.6-2.3c-0.1-0.5-0.2-0.9-0.3-1.4l0,0
			c-0.1,0.6-0.2,1-0.3,1.5l-0.6,2.3H81l-1.2-4.8h0.8V190.6z"/>
		<path class="st2" d="M86.7,189.3c0,0.3-0.2,0.5-0.5,0.5c-0.2,0-0.4-0.2-0.4-0.5s0.2-0.5,0.4-0.5C86.5,188.8,86.7,189,86.7,189.3z
			 M85.9,195.4v-4.8h0.8v4.8H85.9z"/>
		<path class="st2" d="M88.6,189.3v1.3h0.9v0.6h-0.9v2.9c0,0.6,0.2,0.8,0.5,0.8c0.1,0,0.2,0,0.3,0v0.6c-0.1,0-0.3,0.1-0.6,0.1
			c-0.3,0-0.6-0.1-0.8-0.3c-0.2-0.2-0.3-0.5-0.3-1.2v-2.8h-0.6v-0.6h0.6v-1.1L88.6,189.3z"/>
		<path class="st2" d="M92.6,195.3c-0.2,0.1-0.5,0.2-0.8,0.2c-1.1,0-1.8-0.8-1.8-2.4c0-1.4,0.7-2.5,1.9-2.5c0.3,0,0.5,0.1,0.7,0.1
			l-0.1,0.6c-0.1,0-0.3-0.1-0.5-0.1c-0.8,0-1.1,0.9-1.1,1.9c0,1.1,0.4,1.8,1.1,1.8c0.2,0,0.4,0,0.6-0.1L92.6,195.3z"/>
		<path class="st2" d="M93.3,188.5H94v2.6l0,0c0.1-0.2,0.2-0.3,0.4-0.4c0.2-0.1,0.4-0.2,0.6-0.2c0.6,0,1.1,0.5,1.1,1.7v3.2h-0.8
			v-3.1c0-0.6-0.1-1.1-0.6-1.1c-0.4,0-0.6,0.3-0.7,0.8c0,0.1,0,0.2,0,0.4v3.1h-0.8v-7H93.3z"/>
	</g>
	<g>
		<path d="M234.2,183.5l-1.5-6.7h0.8l0.7,3.2c0.2,0.8,0.4,1.7,0.5,2.6l0,0c0.1-0.9,0.3-1.8,0.4-2.6l0.6-3.1h0.8l-1.6,6.7
			L234.2,183.5L234.2,183.5z"/>
		<path d="M238,177.4c0,0.3-0.2,0.5-0.5,0.5c-0.2,0-0.4-0.2-0.4-0.5s0.2-0.5,0.5-0.5C237.9,176.9,238,177.1,238,177.4z M237.2,183.5
			v-4.8h0.8v4.8H237.2z"/>
		<path d="M239.6,181.2c0,1.5,0.6,1.8,1.1,1.8c0.3,0,0.6-0.1,0.8-0.2l0.1,0.6c-0.3,0.1-0.7,0.2-1.1,0.2c-1.2,0-1.8-0.9-1.8-2.4
			c0-1.6,0.7-2.5,1.6-2.5c1,0,1.4,1,1.4,2.1c0,0.2,0,0.3,0,0.4L239.6,181.2L239.6,181.2z M241.1,180.6c0-1-0.3-1.4-0.7-1.4
			c-0.5,0-0.8,0.7-0.8,1.4H241.1z"/>
		<path d="M243.1,178.7l0.5,2.4c0.1,0.5,0.2,1,0.3,1.5l0,0c0.1-0.5,0.2-1.1,0.3-1.5l0.6-2.4h0.6l0.5,2.3c0.1,0.5,0.2,1,0.3,1.6l0,0
			c0.1-0.5,0.1-1,0.3-1.6l0.5-2.3h0.8l-1.2,4.8H246l-0.6-2.3c-0.1-0.5-0.2-0.9-0.3-1.4l0,0c-0.1,0.6-0.2,1-0.3,1.5l-0.6,2.3h-0.6
			l-1.2-4.8h0.7V178.7z"/>
		<path d="M248.9,181.2c0,1.5,0.6,1.8,1.1,1.8c0.3,0,0.6-0.1,0.8-0.2l0.1,0.6c-0.3,0.1-0.7,0.2-1.1,0.2c-1.2,0-1.8-0.9-1.8-2.4
			c0-1.6,0.7-2.5,1.6-2.5c1,0,1.4,1,1.4,2.1c0,0.2,0,0.3,0,0.4L248.9,181.2L248.9,181.2z M250.4,180.6c0-1-0.3-1.4-0.7-1.4
			c-0.5,0-0.8,0.7-0.8,1.4H250.4z"/>
		<path d="M254.9,176.6v5.8c0,0.3,0,0.9,0,1.2h-0.7l-0.1-0.6l0,0c-0.2,0.4-0.5,0.7-1,0.7c-0.8,0-1.4-0.9-1.4-2.5
			c0-1.7,0.7-2.5,1.5-2.5c0.3,0,0.7,0.2,0.9,0.6l0,0v-2.6L254.9,176.6L254.9,176.6z M254.1,180.5c0-0.1,0-0.2,0-0.3
			c0-0.5-0.3-0.9-0.7-0.9c-0.6,0-0.9,0.9-0.9,1.9s0.3,1.8,0.8,1.8c0.2,0,0.6-0.1,0.7-0.8c0-0.1,0-0.2,0-0.3L254.1,180.5L254.1,180.5
			z"/>
		<path d="M257.7,183.5v-4.2h-0.6v-0.6h0.6v-0.3c0-0.5,0.1-1.1,0.4-1.5c0.3-0.3,0.7-0.4,1-0.4s0.5,0,0.6,0.1l-0.1,0.6
			c-0.1,0-0.2-0.1-0.4-0.1c-0.5,0-0.7,0.6-0.7,1.2v0.3h0.9v0.6h-0.9v4.2L257.7,183.5L257.7,183.5z"/>
		<path d="M259.8,179.9c0-0.4,0-0.9,0-1.2h0.7v0.8l0,0c0.2-0.5,0.6-0.8,1-0.8c0.1,0,0.1,0,0.2,0v0.8c0,0-0.1,0-0.2,0
			c-0.5,0-0.8,0.4-0.9,1c0,0.1,0,0.3,0,0.4v2.7h-0.8L259.8,179.9L259.8,179.9z"/>
		<path d="M265.3,181.1c0,1.9-0.9,2.5-1.6,2.5c-0.9,0-1.6-0.8-1.6-2.5c0-1.8,0.8-2.5,1.6-2.5C264.6,178.6,265.3,179.4,265.3,181.1z
			 M262.8,181.1c0,0.8,0.1,1.9,0.8,1.9c0.7,0,0.8-1.1,0.8-1.9c0-0.7-0.1-1.9-0.8-1.9C263,179.2,262.8,180.4,262.8,181.1z"/>
		<path d="M266.1,179.9c0-0.6,0-0.9,0-1.2h0.7v0.6l0,0c0.2-0.4,0.6-0.7,1.1-0.7c0.4,0,0.8,0.2,1,0.7l0,0c0.1-0.2,0.3-0.4,0.5-0.5
			s0.4-0.2,0.7-0.2c0.6,0,1.2,0.5,1.2,1.7v3.2h-0.8v-3c0-0.6-0.1-1.2-0.7-1.2c-0.3,0-0.6,0.3-0.7,0.7c0,0.1,0,0.3,0,0.4v3.1h-0.8
			v-3.2c0-0.5-0.1-1.1-0.7-1.1c-0.3,0-0.6,0.3-0.7,0.8c0,0.1,0,0.3,0,0.4v3.1h-0.8L266.1,179.9L266.1,179.9z"/>
		<path d="M274.8,177.4v1.3h0.9v0.6h-0.9v2.9c0,0.6,0.2,0.8,0.5,0.8c0.1,0,0.2,0,0.3,0v0.6c-0.1,0-0.3,0.1-0.6,0.1
			c-0.3,0-0.6-0.1-0.8-0.3c-0.2-0.2-0.3-0.5-0.3-1.2v-2.8h-0.6v-0.6h0.6v-1.1L274.8,177.4z"/>
		<path d="M276.4,176.6h0.8v2.6l0,0c0.1-0.2,0.2-0.3,0.4-0.4c0.2-0.1,0.4-0.2,0.7-0.2c0.6,0,1.1,0.5,1.1,1.7v3.2h-0.8v-3.1
			c0-0.6-0.1-1.1-0.6-1.1c-0.4,0-0.6,0.3-0.8,0.8c0,0.1,0,0.2,0,0.4v3.1h-0.8L276.4,176.6L276.4,176.6z"/>
		<path d="M281,181.2c0,1.5,0.6,1.8,1.1,1.8c0.3,0,0.6-0.1,0.8-0.2l0.1,0.6c-0.3,0.1-0.7,0.2-1.1,0.2c-1.2,0-1.8-0.9-1.8-2.4
			c0-1.6,0.7-2.5,1.6-2.5c1,0,1.4,1,1.4,2.1c0,0.2,0,0.3,0,0.4L281,181.2L281,181.2z M282.5,180.6c0-1-0.3-1.4-0.7-1.4
			c-0.5,0-0.8,0.7-0.8,1.4H282.5z"/>
		<path d="M285.6,183.5c0-0.3,0-0.8,0-1.2v-5.8h0.8v2.6l0,0c0.2-0.5,0.6-0.7,1-0.7c0.7,0,1.3,0.9,1.3,2.4c0,1.7-0.7,2.5-1.5,2.5
			c-0.5,0-0.8-0.3-1-0.7l0,0v0.6h-0.6V183.5z M286.4,181.8c0,0.1,0,0.2,0,0.3c0.2,0.7,0.5,0.8,0.7,0.8c0.6,0,0.8-0.8,0.8-1.9
			c0-1-0.2-1.8-0.8-1.8c-0.4,0-0.7,0.4-0.7,0.9c0,0.1,0,0.2,0,0.3V181.8z"/>
		<path d="M291.6,183.5l-0.1-0.5l0,0c-0.2,0.4-0.5,0.6-1,0.6c-0.6,0-1.1-0.5-1.1-1.4c0-1.2,1-1.7,2.1-1.8v-0.1
			c0-0.7-0.2-1.1-0.8-1.1c-0.3,0-0.6,0.1-0.8,0.2l-0.2-0.5c0.2-0.2,0.6-0.3,1.1-0.3c1,0,1.4,0.6,1.4,1.7v2.1c0,0.4,0,0.8,0,1.1
			H291.6z M291.5,181c-0.4,0-1.3,0.1-1.3,1.1c0,0.6,0.3,0.9,0.6,0.9c0.3,0,0.6-0.2,0.7-0.7c0-0.1,0-0.2,0-0.3L291.5,181L291.5,181z"
			/>
		<path d="M295.7,183.4c-0.2,0.1-0.5,0.2-0.8,0.2c-1.1,0-1.8-0.8-1.8-2.4c0-1.4,0.7-2.5,1.9-2.5c0.3,0,0.5,0.1,0.7,0.1l-0.1,0.6
			c-0.1,0-0.3-0.1-0.5-0.1c-0.8,0-1.1,0.9-1.1,1.9c0,1.1,0.4,1.8,1.1,1.8c0.2,0,0.4,0,0.6-0.1L295.7,183.4z"/>
		<path d="M297.1,180.9L297.1,180.9c0.1-0.2,0.2-0.4,0.3-0.5l1-1.7h0.8l-1.3,2l1.4,2.8h-0.9l-1-2.3l-0.3,0.5v1.8h-0.8v-6.9h0.8
			V180.9z"/>
		<path d="M299.8,183c0-0.3,0.2-0.6,0.5-0.6s0.5,0.2,0.5,0.6s-0.2,0.6-0.5,0.6S299.8,183.4,299.8,183z"/>
	</g>
	<g>
		<g>
			<g>
				<g>
					<path class="st0" d="M162.5,126.8l12.9,12.9c0.9,0.9,0.9,2.3,0,3.1c-0.9,0.9-2.3,0.9-3.1,0L159.4,130L162.5,126.8z"/>
					<path class="st0" d="M168.9,120.5l12.9,12.9c0.9,0.9,0.9,2.3,0,3.1c-0.9,0.9-2.3,0.9-3.1,0l-12.9-12.9L168.9,120.5z"/>
					<path class="st0" d="M156.1,133.2l12.9,12.9c0.9,0.9,0.9,2.3,0,3.1c-0.9,0.9-2.3,0.9-3.1,0L153,136.4L156.1,133.2z"/>
				</g>
				<g>
					<path class="st0" d="M151.1,137.5c5.2,5.2,13.7,5.2,19,0c5.2-5.2,5.2-13.8,0-19s-13.8-5.2-19,0
						C145.9,123.7,145.9,132.2,151.1,137.5z"/>
				</g>
			</g>
			<g>
				<path class="st3" d="M157.1,134.9l-1.4-1l-0.8,0.9c0.1,0,0.2,0.1,0.3,0.2c0.3,0.2,0.5,0.5,0.7,0.8c0.2,0.4,0.2,0.9-0.1,1.3
					c-0.5,0.7-1.5,0.9-2.3,0.3c-0.4-0.3-0.7-0.6-0.8-0.9l0.4-0.3c0.1,0.2,0.3,0.5,0.7,0.8c0.5,0.3,1.1,0.3,1.4-0.2
					c0.3-0.5,0.2-1.1-0.5-1.6c-0.2-0.1-0.4-0.2-0.5-0.3l1.5-1.6l1.8,1.2L157.1,134.9z"/>
				<path class="st3" d="M160,137.4c-0.3,1.5-1.1,2.2-2.1,2c-0.9-0.2-1.3-1.1-0.9-2.6c0.3-1.5,1.2-2.2,2.1-2
					C159.9,135.1,160.3,136,160,137.4z M157.5,136.9c-0.3,1.2-0.1,1.9,0.5,2c0.6,0.1,1.1-0.5,1.3-1.6c0.3-1.1,0.1-1.9-0.5-2
					C158.3,135.2,157.8,135.7,157.5,136.9z"/>
				<path class="st3" d="M163.7,137c0.2,1.5-0.2,2.5-1.2,2.6c-0.9,0.1-1.6-0.6-1.8-2.1c-0.2-1.5,0.3-2.4,1.2-2.6
					C162.8,134.8,163.5,135.6,163.7,137z M161.3,137.4c0.2,1.2,0.6,1.8,1.2,1.7c0.6-0.1,0.8-0.9,0.6-2c-0.2-1.1-0.6-1.8-1.2-1.7
					C161.4,135.5,161.1,136.2,161.3,137.4z"/>
				<path class="st3" d="M164,135.4l0.5-0.3l0.9,1.5l0,0c0-0.2,0.1-0.4,0.1-0.5l0.4-1.9l0.6-0.4L166,136l2.6,0.9l-0.6,0.4l-2.2-0.7
					l-0.1,0.6l0.7,1.2l-0.5,0.3L164,135.4z"/>
			</g>
		</g>
		<g>
			<path class="st3" d="M154.3,131.1l-1.8-5.7h1.7l0.6,2.3c0.2,0.6,0.3,1.3,0.5,2l0,0c0.1-0.7,0.3-1.4,0.5-2l0.6-2.3h1.6l-1.9,5.7
				H154.3z"/>
			<path class="st3" d="M163.9,128.1c0,1.8-1.1,3-2.9,3c-1.8,0-2.8-1.3-2.8-2.9c0-1.7,1.1-3,2.8-3
				C163,125.2,163.9,126.6,163.9,128.1z M159.9,128.2c0,1.1,0.5,1.7,1.2,1.7s1.2-0.7,1.2-1.8c0-1-0.4-1.7-1.2-1.7
				C160.4,126.5,159.9,127.1,159.9,128.2z"/>
			<path class="st3" d="M164.6,125.3h1.5v4.4h2.2v1.3h-3.7V125.3z"/>
		</g>
	</g>
	<g>
		<g>
			<g>
				<g>
					<g>
						<path class="st0" d="M202.6,178.7l-12.9-12.9c-0.9-0.9-2.3-0.9-3.1,0c-0.9,0.9-0.9,2.3,0,3.1l12.9,12.9L202.6,178.7z"/>
						<path class="st0" d="M209,172.3l-12.9-12.9c-0.9-0.9-2.3-0.9-3.1,0c-0.9,0.9-0.9,2.3,0,3.1l12.9,12.9L209,172.3z"/>
						<path class="st0" d="M196.2,185.1l-12.9-12.9c-0.9-0.9-2.3-0.9-3.1,0c-0.9,0.9-0.9,2.3,0,3.1l12.9,12.9L196.2,185.1z"/>
					</g>
					<g>
						<path class="st0" d="M192,190.1c-5.2-5.2-5.2-13.7,0-19c5.2-5.2,13.8-5.2,19,0s5.2,13.8,0,19
							C205.7,195.3,197.2,195.3,192,190.1z"/>
					</g>
				</g>
			</g>
		</g>
		<g>
			<path class="st3" d="M192.3,178.9h-1.5v-1.3h4.5v1.3h-1.5v4.4h-1.5V178.9z"/>
			<path class="st3" d="M201.4,180.4c0,1.8-1.1,3-2.9,3c-1.8,0-2.8-1.3-2.8-2.9c0-1.7,1.1-3,2.8-3
				C200.4,177.5,201.4,178.9,201.4,180.4z M197.4,180.5c0,1.1,0.5,1.7,1.2,1.7s1.2-0.7,1.2-1.8c0-1-0.4-1.7-1.2-1.7
				C197.8,178.8,197.4,179.5,197.4,180.5z"/>
			<path class="st3" d="M202.1,183.4v-5.7h1.8l0.9,1.8c0.3,0.6,0.6,1.3,0.9,2l0,0c-0.1-0.8-0.1-1.6-0.1-2.4v-1.4h1.4v5.7h-1.6
				l-1-1.9c-0.3-0.6-0.7-1.4-1-2.1l0,0c0,0.8,0.1,1.6,0.1,2.6v1.4L202.1,183.4L202.1,183.4z"/>
			<path class="st3" d="M211.6,181.1h-2.1v1.1h2.3v1.3H208v-5.7h3.7v1.2h-2.2v0.9h2.1V181.1z"/>
		</g>
		<g>
			<path class="st3" d="M198.1,187.4l-1.4-1l-0.8,0.9c0.1,0,0.2,0.1,0.3,0.2c0.3,0.2,0.5,0.5,0.7,0.8c0.2,0.4,0.2,0.9-0.1,1.3
				c-0.5,0.7-1.5,0.9-2.3,0.3c-0.4-0.3-0.7-0.6-0.8-0.9l0.4-0.3c0.1,0.2,0.3,0.5,0.7,0.8c0.5,0.3,1.1,0.3,1.4-0.2
				c0.3-0.5,0.2-1.1-0.5-1.6c-0.2-0.1-0.4-0.2-0.5-0.3l1.5-1.6l1.8,1.2L198.1,187.4z"/>
			<path class="st3" d="M200.9,189.9c-0.3,1.5-1.1,2.2-2.1,2c-0.9-0.2-1.3-1.1-0.9-2.6c0.3-1.5,1.2-2.2,2.1-2
				C200.9,187.5,201.2,188.4,200.9,189.9z M198.5,189.4c-0.3,1.2-0.1,1.9,0.5,2c0.6,0.1,1.1-0.5,1.3-1.6c0.3-1.1,0.1-1.9-0.5-2
				C199.3,187.6,198.8,188.2,198.5,189.4z"/>
			<path class="st3" d="M204.7,189.4c0.2,1.5-0.2,2.5-1.2,2.6c-0.9,0.1-1.6-0.6-1.8-2.1c-0.2-1.5,0.3-2.4,1.2-2.6
				C203.8,187.2,204.4,188,204.7,189.4z M202.2,189.9c0.2,1.2,0.6,1.8,1.2,1.7c0.6-0.1,0.8-0.9,0.6-2c-0.2-1.1-0.6-1.8-1.2-1.7
				C202.3,187.9,202,188.6,202.2,189.9z"/>
			<path class="st3" d="M205,187.8l0.5-0.3l0.9,1.5l0,0c0-0.2,0.1-0.4,0.1-0.5l0.4-1.9l0.6-0.4l-0.6,2.2l2.6,0.9l-0.6,0.4l-2.2-0.7
				l-0.1,0.6l0.7,1.2l-0.5,0.3L205,187.8z"/>
		</g>
	</g>
	<g>
		<g>
			<path class="st0" d="M273.8,133.4c0-1-0.8-1.7-1.7-1.7h-11l-4.6-4.6c-0.7-0.7-1.8-0.7-2.4,0l-4,4c-0.7,0.7-0.7,1.8,0,2.4
				c0.7,0.7,1.8,0.7,2.4,0l2.8-2.8l3.9,3.9c0.3,0.3,0.8,0.5,1.2,0.5l0,0h10v6.8c0,0.9,0.8,1.7,1.7,1.7s1.7-0.8,1.7-1.7L273.8,133.4z
				"/>
			<g>
				<g>
					<path class="st4" d="M273.8,135.6h12.1v-13.2h-12.1v-7.7c0-0.9-0.8-1.7-1.7-1.7s-1.7,0.8-1.7,1.7v9.4c0,0.9,0.8,1.7,1.7,1.7
						h1.7V135.6z"/>
				</g>
			</g>
			<rect x="273.8" y="117.9" class="st1" width="3.9" height="22.2"/>
		</g>
		<g>
			<g>
				<g>
					<polyline class="st5" points="272,114.7 175.6,114.8 170.9,119.5 					"/>
					<g>
						<path d="M272,112.8c1.1,0,2,0.9,2,2s-0.9,2-2,2s-2-0.9-2-2C270,113.7,270.9,112.8,272,112.8z"/>
					</g>
					<g>
						<path d="M169.5,118.1c-0.8,0.8-0.8,2,0,2.8s2,0.8,2.8,0s0.8-2,0-2.8C171.5,117.4,170.3,117.4,169.5,118.1z"/>
					</g>
				</g>
			</g>
			<g>
				<g>
					<line class="st5" x1="174.2" y1="141.9" x2="272" y2="141.9"/>
					<g>
						<path d="M174.2,143.9c-1.1,0-2-0.9-2-2s0.9-2,2-2s2,0.9,2,2S175.3,143.9,174.2,143.9z"/>
					</g>
					<g>
						<circle cx="272" cy="141.9" r="2"/>
					</g>
				</g>
			</g>
		</g>
		<g>
			<path class="st2" d="M256.1,148.2c0,2.5-0.9,3.5-1.9,3.5c-1.1,0-1.9-1.2-1.9-3.5c0-2.2,0.8-3.4,2-3.4
				C255.4,144.8,256.1,146,256.1,148.2z M253,148.2c0,1.4,0.3,2.8,1.1,2.8c0.9,0,1.1-1.5,1.1-2.8s-0.2-2.7-1.1-2.7
				C253.3,145.4,253,146.8,253,148.2z"/>
			<path class="st2" d="M259.8,150.3c0,0.5,0,1,0,1.3h-0.7v-0.5l0,0c-0.1,0.2-0.5,0.6-1,0.6c-0.8,0-1.2-0.7-1.2-1.9v-3.1h0.8v2.9
				c0,0.8,0.1,1.3,0.6,1.3s0.7-0.4,0.7-0.6c0-0.1,0-0.3,0-0.4v-3.2h0.8L259.8,150.3L259.8,150.3z"/>
			<path class="st2" d="M261.8,145.5v1.3h0.9v0.6h-0.9v2.9c0,0.6,0.2,0.8,0.5,0.8c0.1,0,0.2,0,0.3,0v0.6c-0.1,0-0.3,0.1-0.6,0.1
				c-0.3,0-0.6-0.1-0.8-0.3c-0.2-0.2-0.3-0.5-0.3-1.2v-2.8h-0.6v-0.6h0.6v-1.1L261.8,145.5z"/>
			<path class="st2" d="M263.4,148.3c0-0.7,0-1.2,0-1.5h0.7v0.6l0,0c0.3-0.5,0.6-0.7,1-0.7c0.8,0,1.4,0.9,1.4,2.5
				c0,1.8-0.7,2.5-1.5,2.5c-0.5,0-0.7-0.3-0.8-0.6l0,0v2.4h-0.8L263.4,148.3L263.4,148.3z M264.2,149.8c0,0.1,0,0.3,0,0.4
				c0.2,0.7,0.5,0.8,0.7,0.8c0.6,0,0.8-0.9,0.8-1.9s-0.2-1.8-0.8-1.8c-0.4,0-0.7,0.4-0.7,0.9c0,0.1,0,0.2,0,0.4V149.8z"/>
			<path class="st2" d="M270.3,150.3c0,0.5,0,1,0,1.3h-0.7v-0.5l0,0c-0.1,0.2-0.5,0.6-1,0.6c-0.8,0-1.2-0.7-1.2-1.9v-3.1h0.8v2.9
				c0,0.8,0.1,1.3,0.6,1.3s0.7-0.4,0.7-0.6c0-0.1,0-0.3,0-0.4v-3.2h0.8L270.3,150.3L270.3,150.3z"/>
			<path class="st2" d="M272.4,145.5v1.3h0.9v0.6h-0.9v2.9c0,0.6,0.2,0.8,0.5,0.8c0.1,0,0.2,0,0.3,0v0.6c-0.1,0-0.3,0.1-0.6,0.1
				c-0.3,0-0.6-0.1-0.8-0.3c-0.2-0.2-0.3-0.5-0.3-1.2v-2.8H271v-0.6h0.6v-1.1L272.4,145.5z"/>
			<path class="st2" d="M274.7,153c0.2-0.1,0.5-0.1,0.7-0.4c0.2-0.3,0.2-0.6,0.2-1.5v-4.3h0.8v4.5c0,1-0.1,1.5-0.5,1.8
				c-0.3,0.3-0.8,0.5-1.1,0.5L274.7,153z M276.4,145.5c0,0.3-0.2,0.5-0.5,0.5c-0.2,0-0.5-0.2-0.4-0.5c0-0.3,0.2-0.5,0.5-0.5
				S276.4,145.2,276.4,145.5z"/>
			<path class="st2" d="M279.3,151.6v-0.5l0,0c-0.2,0.4-0.5,0.6-1,0.6c-0.6,0-1.1-0.5-1.1-1.4c0-1.2,1-1.7,2.1-1.8v-0.2
				c0-0.6-0.2-1.1-0.8-1.1c-0.3,0-0.6,0.1-0.8,0.2l-0.2-0.5c0.2-0.1,0.6-0.3,1.1-0.3c1,0,1.4,0.6,1.4,1.7v2.1c0,0.4,0,0.8,0,1.1
				L279.3,151.6L279.3,151.6z M279.2,149.1c-0.4,0-1.3,0.1-1.3,1.1c0,0.6,0.3,0.9,0.6,0.9c0.3,0,0.6-0.2,0.7-0.7c0-0.1,0-0.2,0-0.3
				L279.2,149.1L279.2,149.1z"/>
			<path class="st2" d="M283.4,151.5c-0.2,0.1-0.5,0.2-0.8,0.2c-1.1,0-1.8-0.8-1.8-2.4c0-1.4,0.7-2.5,1.9-2.5c0.3,0,0.5,0.1,0.7,0.2
				l-0.1,0.6c-0.1,0-0.3-0.1-0.5-0.1c-0.8,0-1.1,0.9-1.1,1.9c0,1.1,0.4,1.8,1.1,1.8c0.2,0,0.4-0.1,0.6-0.1L283.4,151.5z"/>
			<path class="st2" d="M284.8,149L284.8,149c0.1-0.2,0.2-0.4,0.3-0.5l1-1.7h0.8l-1.3,2l1.4,2.8h-0.9l-1-2.3l-0.3,0.4v1.8H284v-6.9
				h0.8V149z"/>
		</g>
	</g>
	<g>
		<g>
			<g>
				<g>
					<path d="M70.6,37.4c-0.8,0-1.7,0.1-2.3,0.1l0,0c0.6,0.2,1.3,0.4,2,0.7l2.6,1v0.5l-2.6,0.9c-0.8,0.3-1.5,0.5-2.1,0.6l0,0
						c0.7,0,1.6,0.1,2.4,0.1l2.3,0.1v0.7l-5.4-0.4v-0.9l2.6-0.9c0.7-0.2,1.3-0.4,1.8-0.5l0,0c-0.5-0.1-1.1-0.3-1.8-0.6l-2.6-1v-0.9
						l5.4-0.3v0.7L70.6,37.4z"/>
					<path d="M67.5,34.9h5.4v0.7h-5.4V34.9z"/>
					<path d="M67.6,33.8c-0.1-0.4-0.1-0.9-0.1-1.5c0-1,0.2-1.7,0.7-2.2c0.4-0.5,1.1-0.8,1.9-0.8c0.9,0,1.6,0.3,2.1,0.8
						s0.8,1.3,0.8,2.4c0,0.5,0,0.9-0.1,1.3H67.6z M72.4,33.1c0-0.2,0-0.4,0-0.7c0-1.5-0.8-2.3-2.3-2.3c-1.3,0-2.1,0.7-2.1,2.2
						c0,0.4,0,0.6,0.1,0.8H72.4z"/>
					<path d="M67.6,28.5c-0.1-0.4-0.1-0.9-0.1-1.5c0-1,0.2-1.7,0.7-2.2c0.4-0.5,1.1-0.8,1.9-0.8c0.9,0,1.6,0.3,2.1,0.8
						s0.8,1.3,0.8,2.4c0,0.5,0,0.9-0.1,1.3C72.9,28.5,67.6,28.5,67.6,28.5z M72.4,27.8c0-0.2,0-0.4,0-0.7c0-1.5-0.8-2.3-2.3-2.3
						c-1.3,0-2.1,0.7-2.1,2.2c0,0.4,0,0.6,0.1,0.8H72.4z"/>
					<path d="M67.5,23.3v-0.7h4.8v-2.3h0.6v3H67.5z"/>
					<path d="M70.4,16.8v2.1h1.9v-2.3h0.6v3h-5.4v-2.9h0.6v2.2h1.7v-2.1C69.8,16.8,70.4,16.8,70.4,16.8z"/>
				</g>
			</g>
		</g>
		<g>
			<path class="st3" d="M105.2,42.9l-5.9-16.5v-3.9c0-6.7-5.4-12.1-12.1-12.1s-12.1,5.4-12.1,12.1v55.7c0,6.7,5.4,12.1,12.1,12.1
				s12.1-5.4,12.1-12.1v-4l5.8-16.3L105.2,42.9z"/>
			<g>
				<polygon class="st6" points="99.3,31.1 99.3,69.5 103.6,57.5 103.6,43 				"/>
				<path class="st6" d="M97.8,78.2V22.5c0-5.8-4.7-10.6-10.6-10.6c-5.8,0-10.6,4.7-10.6,10.6v55.7c0,5.8,4.7,10.6,10.6,10.6
					C93.1,88.7,97.8,84,97.8,78.2z M87.2,18.7c2.1,0,3.7,1.7,3.7,3.7c0,2.1-1.7,3.7-3.7,3.7c-2.1,0-3.7-1.7-3.7-3.7
					S85.2,18.7,87.2,18.7z M87.2,29.9c2.1,0,3.7,1.7,3.7,3.7c0,2.1-1.7,3.7-3.7,3.7c-2.1,0-3.7-1.7-3.7-3.7S85.2,29.9,87.2,29.9z
					 M87.2,41c2.1,0,3.7,1.7,3.7,3.7c0,2.1-1.7,3.7-3.7,3.7c-2.1,0-3.7-1.7-3.7-3.7S85.2,41,87.2,41z M87.2,52.2
					c2.1,0,3.7,1.7,3.7,3.7c0,2.1-1.7,3.7-3.7,3.7c-2.1,0-3.7-1.7-3.7-3.7C83.5,53.8,85.2,52.2,87.2,52.2z M87.2,63.3
					c2.1,0,3.7,1.7,3.7,3.7c0,2.1-1.7,3.7-3.7,3.7c-2.1,0-3.7-1.7-3.7-3.7S85.2,63.3,87.2,63.3z M87.2,74.4c2.1,0,3.7,1.7,3.7,3.7
					c0,2.1-1.7,3.7-3.7,3.7c-2.1,0-3.7-1.7-3.7-3.7S85.2,74.4,87.2,74.4z"/>
			</g>
		</g>
		<g>
			<g>
				<g>
					<polyline class="st7" points="101.7,53.7 107.9,53.7 107.9,100.2 32.8,100.2 32.6,163.7 83.8,163.7 					"/>
					<g>
						<path d="M101.7,55.9c-1.2,0-2.1-1-2.1-2.1c0-1.2,1-2.1,2.1-2.1c1.2,0,2.1,1,2.1,2.1C103.8,54.9,102.9,55.9,101.7,55.9z"/>
					</g>
					<g>
						<path d="M83.8,165.8c1.2,0,2.1-1,2.1-2.1s-1-2.1-2.1-2.1c-1.2,0-2.1,1-2.1,2.1S82.6,165.8,83.8,165.8z"/>
					</g>
				</g>
				<g>
					<polyline class="st8" points="101.7,53.7 107.9,53.7 107.9,100.2 32.8,100.2 32.6,163.7 83.8,163.7 					"/>
					<g>
						<path class="st9" d="M101.7,55.3c-0.8,0-1.5-0.7-1.5-1.5s0.7-1.5,1.5-1.5s1.5,0.7,1.5,1.5S102.5,55.3,101.7,55.3z"/>
					</g>
					<g>
						<path class="st9" d="M83.8,165.2c0.8,0,1.5-0.7,1.5-1.5s-0.7-1.5-1.5-1.5s-1.5,0.7-1.5,1.5S83,165.2,83.8,165.2z"/>
					</g>
				</g>
			</g>
		</g>
	</g>
	<g>
		<g>
			<g>
				<g>
					<path d="M21.4,33.6H16v-0.8l2.7-1.7c0.6-0.4,1.2-0.7,1.8-1l0,0c-0.7,0.1-1.4,0.1-2.2,0.1H16v-0.7h5.4v0.7l-2.7,1.7
						c-0.6,0.4-1.2,0.7-1.8,1l0,0c0.7,0,1.3-0.1,2.2-0.1h2.3V33.6z"/>
					<path d="M18.9,25.6v2.1h1.9v-2.3h0.6v3H16v-2.9h0.6v2.2h1.7v-2.1C18.3,25.6,18.9,25.6,18.9,25.6z"/>
					<path d="M21.2,20.8c0.1,0.3,0.3,0.8,0.3,1.4c0,1.5-1,2.7-2.7,2.7S16,23.8,16,22.1c0-0.7,0.1-1.1,0.2-1.3l0.6,0.2
						c-0.1,0.3-0.2,0.6-0.2,1.1c0,1.3,0.8,2.1,2.2,2.1c1.3,0,2.2-0.8,2.2-2.1c0-0.4-0.1-0.9-0.2-1.1L21.2,20.8z"/>
					<path d="M16,20v-0.7h2.6l0,0c-0.2-0.1-0.4-0.3-0.6-0.4l-2-1.6v-0.9l2.3,2l3.1-2.1V17l-2.6,1.8l0.6,0.5h2.1V20H16z"/>
				</g>
			</g>
		</g>
		<g>
			<path class="st3" d="M53.7,42.9l-5.9-16.5v-3.9c0-6.7-5.4-12.1-12.1-12.1s-12.1,5.4-12.1,12.1v55.7c0,6.7,5.4,12.1,12.1,12.1
				s12.1-5.4,12.1-12.1v-4l5.8-16.3L53.7,42.9z"/>
			<g>
				<polygon class="st6" points="47.8,31.1 47.8,69.5 52.1,57.5 52.1,43 				"/>
				<path class="st6" d="M46.3,78.2V22.5c0-5.8-4.7-10.6-10.6-10.6c-5.8,0-10.6,4.7-10.6,10.6v55.7c0,5.8,4.7,10.6,10.6,10.6
					C41.5,88.7,46.3,84,46.3,78.2z M35.7,18.7c2.1,0,3.7,1.7,3.7,3.7c0,2.1-1.7,3.7-3.7,3.7c-2.1,0-3.7-1.7-3.7-3.7
					S33.7,18.7,35.7,18.7z M35.7,29.9c2.1,0,3.7,1.7,3.7,3.7c0,2.1-1.7,3.7-3.7,3.7c-2.1,0-3.7-1.7-3.7-3.7S33.7,29.9,35.7,29.9z
					 M35.7,41c2.1,0,3.7,1.7,3.7,3.7c0,2.1-1.7,3.7-3.7,3.7c-2.1,0-3.7-1.7-3.7-3.7S33.7,41,35.7,41z M35.7,52.2
					c2.1,0,3.7,1.7,3.7,3.7c0,2.1-1.7,3.7-3.7,3.7c-2.1,0-3.7-1.7-3.7-3.7C32,53.8,33.7,52.2,35.7,52.2z M35.7,63.3
					c2.1,0,3.7,1.7,3.7,3.7c0,2.1-1.7,3.7-3.7,3.7C33.6,70.7,32,69,32,67S33.7,63.3,35.7,63.3z M35.7,74.4c2.1,0,3.7,1.7,3.7,3.7
					c0,2.1-1.7,3.7-3.7,3.7c-2.1,0-3.7-1.7-3.7-3.7S33.7,74.4,35.7,74.4z"/>
			</g>
		</g>
		<g>
			<g>
				<g>
					<polyline class="st7" points="50.2,53.7 56.4,53.7 56.4,95.2 26.8,95.2 26.6,175.1 95.3,175.1 					"/>
					<g>
						<path d="M50.2,55.9c-1.2,0-2.1-1-2.1-2.1c0-1.2,1-2.1,2.1-2.1c1.2,0,2.1,1,2.1,2.1S51.4,55.9,50.2,55.9z"/>
					</g>
					<g>
						<path d="M95.3,177.3c1.2,0,2.1-1,2.1-2.1c0-1.2-1-2.1-2.1-2.1c-1.2,0-2.1,1-2.1,2.1C93.2,176.3,94.1,177.3,95.3,177.3z"/>
					</g>
				</g>
				<g>
					<polyline class="st8" points="50.2,53.7 56.4,53.7 56.4,95.2 26.8,95.2 26.6,175.1 95.3,175.1 					"/>
					<g>
						<path class="st9" d="M50.2,55.3c-0.8,0-1.5-0.7-1.5-1.5s0.7-1.5,1.5-1.5s1.5,0.7,1.5,1.5S51,55.3,50.2,55.3z"/>
					</g>
					<g>
						<path class="st9" d="M95.3,176.6c0.8,0,1.5-0.7,1.5-1.5s-0.7-1.5-1.5-1.5s-1.5,0.7-1.5,1.5C93.8,175.9,94.5,176.6,95.3,176.6z
							"/>
					</g>
				</g>
			</g>
		</g>
	</g>
	<g>
		<g>
			<polyline class="st10" points="107.1,186.4 117.2,195.6 167.4,195.6 167.4,148 			"/>
			<g>
				<path d="M105.7,187.9c-0.8-0.7-0.9-2-0.1-2.8s2-0.9,2.8-0.1c0.8,0.7,0.9,2,0.1,2.8S106.6,188.6,105.7,187.9z"/>
			</g>
			<g>
				<path d="M169.3,148c0-1.1-0.9-2-2-2s-2,0.9-2,2s0.9,2,2,2C168.4,149.9,169.3,149,169.3,148z"/>
			</g>
		</g>
	</g>
	<g>
		<g>
			<path class="st10" d="M190,186.7h-18.2c0-2.4-2-4.4-4.4-4.4s-4.4,2-4.4,4.4h-7.6v-46"/>
			<g>
				<path d="M190,184.7c1.1,0,2,0.9,2,2s-0.9,2-2,2s-2-0.9-2-2C188,185.6,188.9,184.7,190,184.7z"/>
			</g>
			<g>
				<path d="M157.4,140.7c0-1.1-0.9-2-2-2s-2,0.9-2,2s0.9,2,2,2C156.5,142.6,157.4,141.7,157.4,140.7z"/>
			</g>
		</g>
	</g>
	<g>
		<g>
			<g>
				<g>
					<polyline class="st11" points="157.9,75.7 158,97.4 159.5,105.2 159.6,114.5 					"/>
					<g>
						<circle class="st12" cx="157.9" cy="75.7" r="2.1"/>
					</g>
					<g>
						<path class="st12" d="M157.4,114.5c0,1.2,1,2.1,2.2,2.1s2.1-1,2.1-2.2s-1-2.1-2.2-2.1C158.4,112.3,157.4,113.3,157.4,114.5z"
							/>
					</g>
				</g>
			</g>
			<g>
				<g>
					<line class="st13" x1="154.9" y1="75.7" x2="154.9" y2="115.6"/>
					<g>
						<path class="st14" d="M152.8,75.7c0-1.2,1-2.1,2.1-2.1c1.2,0,2.1,1,2.1,2.1c0,1.2-1,2.1-2.1,2.1
							C153.7,77.8,152.8,76.9,152.8,75.7z"/>
					</g>
					<g>
						<path class="st14" d="M152.8,115.6c0,1.2,1,2.1,2.1,2.1c1.2,0,2.1-1,2.1-2.1c0-1.2-1-2.1-2.1-2.1
							C153.7,113.5,152.8,114.5,152.8,115.6z"/>
					</g>
				</g>
			</g>
			<g>
				<g>
					<polyline class="st7" points="145.9,75.7 145.9,97.4 142.1,105.2 38.8,105.2 38.6,151.8 72.3,151.8 					"/>
					<g>
						<path d="M143.8,75.7c0-1.2,1-2.1,2.1-2.1c1.2,0,2.1,1,2.1,2.1c0,1.2-1,2.1-2.1,2.1C144.7,77.8,143.8,76.9,143.8,75.7z"/>
					</g>
					<g>
						<path d="M72.3,154c1.2,0,2.1-1,2.1-2.1s-1-2.1-2.1-2.1c-1.2,0-2.1,1-2.1,2.1S71.1,154,72.3,154z"/>
					</g>
				</g>
			</g>
		</g>
	</g>
	<g>
		<g>
			<path class="st7" d="M101.7,46.9h13.1v53.8c2.4,0,4.4,2,4.4,4.4s-2,4.4-4.4,4.4v11.6h34"/>
			<g>
				<path d="M101.7,49.1c-1.2,0-2.1-1-2.1-2.1c0-1.2,1-2.1,2.1-2.1c1.2,0,2.1,1,2.1,2.1C103.8,48.1,102.9,49.1,101.7,49.1z"/>
			</g>
			<g>
				<path d="M148.8,123.3c1.2,0,2.1-1,2.1-2.1s-1-2.1-2.1-2.1c-1.2,0-2.1,1-2.1,2.1S147.6,123.3,148.8,123.3z"/>
			</g>
		</g>
	</g>
	<g>
		<g>
			<path class="st7" d="M50.2,46.9h13.1v48.9c2.4,0,4.4,2,4.4,4.4v5.2c0,2.4-2,4.4-4.4,4.4v16.4h84"/>
			<g>
				<path d="M50.2,49.1c-1.2,0-2.1-1-2.1-2.1c0-1.2,1-2.1,2.1-2.1c1.2,0,2.1,1,2.1,2.1S51.4,49.1,50.2,49.1z"/>
			</g>
			<g>
				<path d="M147.2,128.3c1.2,0,2.1-1,2.1-2.1c0-1.2-1-2.1-2.1-2.1c-1.2,0-2.1,1-2.1,2.1C145.1,127.4,146.1,128.3,147.2,128.3z"/>
			</g>
		</g>
	</g>
	<g>
		<g>
			<polyline class="st10" points="182,173.8 182,163 167.4,148 			"/>
			<g>
				<path d="M184,173.8c0,1.1-0.9,2-2,2s-2-0.9-2-2s0.9-2,2-2S184,172.7,184,173.8z"/>
			</g>
			<g>
				<path d="M168.8,146.6c-0.8-0.8-2-0.8-2.8,0s-0.8,2,0,2.8s2,0.8,2.8,0S169.5,147.4,168.8,146.6z"/>
			</g>
		</g>
	</g>
	<g>
		<g>
			<g>
				<g>
					<path class="st10" d="M209.6,156.8c3.3,7.7,3.6,6.6,3.6,17"/>
					<g>
						<path d="M211.2,173.8c0,1.1,0.9,2,2,2s2-0.9,2-2s-0.9-2-2-2C212.1,171.9,211.2,172.7,211.2,173.8z"/>
					</g>
				</g>
			</g>
			<g>
				<g>
					<path class="st10" d="M205.6,154.3c-4.3-1.5-17.5-4.5-17.5,13"/>
					<g>
						<path d="M186.1,167.3c0,1.1,0.9,2,2,2s2-0.9,2-2s-0.9-2-2-2S186.1,166.2,186.1,167.3z"/>
					</g>
				</g>
			</g>
			<path class="st15" d="M209.5,145c4,0,7.3,3.3,7.3,7.3s-3.3,7.3-7.3,7.3s-7.3-3.3-7.3-7.3C202.2,148.2,205.5,145,209.5,145"/>
		</g>
		<g>
			<path class="st2" d="M217.4,157.7c0-0.3,0.2-0.6,0.5-0.6s0.5,0.2,0.5,0.6s-0.2,0.6-0.5,0.6C217.7,158.2,217.4,158,217.4,157.7z"
				/>
			<path class="st2" d="M222.5,154.9c0,2.4-0.8,3.3-1.7,3.3c-1,0-1.6-1.2-1.6-3.3c0-2.2,0.7-3.3,1.7-3.3
				C221.9,151.6,222.5,152.8,222.5,154.9z M219.9,154.9c0,1.6,0.3,2.7,0.9,2.7c0.6,0,0.9-1.1,0.9-2.7c0-1.5-0.2-2.7-0.9-2.7
				C220.2,152.2,219.9,153.4,219.9,154.9z"/>
			<path class="st2" d="M223.1,158.2v-0.5l0.5-0.8c0.8-1.1,1.7-2.3,1.7-3.5c0-0.7-0.3-1.2-0.9-1.2c-0.5,0-0.8,0.2-0.9,0.4l-0.2-0.6
				c0.2-0.2,0.7-0.4,1.3-0.4c1.1,0,1.5,0.8,1.5,1.8c0,1.2-0.8,2.4-1.6,3.5l-0.4,0.6l0,0h2.2v0.7H223.1z"/>
			<path class="st2" d="M226.9,158.2v-0.5l0.5-0.8c0.8-1.1,1.7-2.3,1.7-3.5c0-0.7-0.3-1.2-0.9-1.2c-0.5,0-0.8,0.2-0.9,0.4l-0.2-0.6
				c0.2-0.2,0.7-0.4,1.3-0.4c1.1,0,1.5,0.8,1.5,1.8c0,1.2-0.8,2.4-1.6,3.5l-0.4,0.6l0,0h2.2v0.7H226.9z"/>
			<path class="st2" d="M233.2,157.7c-0.1,0.2-0.4,0.5-0.8,0.5c-0.3,0-0.5-0.1-0.7-0.4v0.7c0,0.6,0,1.2,0.1,1.5h-0.7
				c-0.1-0.2-0.1-0.7-0.1-1.5v-5.3h0.8v3.2c0,0.6,0.1,1.1,0.6,1.1s0.7-0.4,0.7-0.7c0-0.1,0-0.3,0-0.4v-3.2h0.8v3.8
				c0,0.4,0.1,0.5,0.3,0.5l-0.1,0.5c-0.1,0-0.1,0-0.2,0C233.6,158.2,233.3,158.1,233.2,157.7L233.2,157.7z"/>
			<path class="st2" d="M235,151.4h2.6v0.7h-1.8v2.4h1.7v0.6h-1.7v3.1H235V151.4z"/>
			<path class="st2" d="M224,167c-0.2,0.1-0.5,0.2-0.8,0.2c-1.1,0-1.8-0.8-1.8-2.4c0-1.4,0.7-2.5,1.9-2.5c0.3,0,0.5,0.1,0.7,0.1
				l-0.1,0.6c-0.1,0-0.3-0.1-0.5-0.1c-0.8,0-1.1,0.9-1.1,1.9c0,1.1,0.4,1.8,1.1,1.8c0.2,0,0.4,0,0.6-0.1L224,167z"/>
			<path class="st2" d="M226.6,167.2v-0.5l0,0c-0.2,0.4-0.5,0.6-1,0.6c-0.6,0-1.1-0.5-1.1-1.4c0-1.2,1-1.7,2.1-1.8V164
				c0-0.7-0.2-1.1-0.8-1.1c-0.3,0-0.6,0.1-0.8,0.2l-0.2-0.5c0.2-0.2,0.6-0.3,1.1-0.3c1,0,1.4,0.6,1.4,1.7v2.1c0,0.4,0,0.8,0,1.1
				H226.6z M226.5,164.7c-0.4,0-1.3,0.1-1.3,1.1c0,0.6,0.3,0.9,0.6,0.9s0.6-0.2,0.7-0.7c0-0.1,0-0.2,0-0.3V164.7z"/>
			<path class="st2" d="M228.3,163.8c0-0.7,0-1.2,0-1.5h0.7v0.6l0,0c0.3-0.5,0.6-0.7,1-0.7c0.8,0,1.4,0.9,1.4,2.5
				c0,1.8-0.7,2.5-1.5,2.5c-0.5,0-0.7-0.3-0.8-0.6l0,0v2.4h-0.8L228.3,163.8L228.3,163.8z M229.1,165.4c0,0.2,0,0.3,0,0.4
				c0.2,0.7,0.5,0.8,0.7,0.8c0.6,0,0.8-0.9,0.8-1.9s-0.2-1.8-0.8-1.8c-0.4,0-0.7,0.4-0.7,0.9c0,0.1,0,0.2,0,0.4V165.4z"/>
			<path class="st2" d="M232.3,166.7c0-0.3,0.2-0.6,0.5-0.6s0.5,0.2,0.5,0.6s-0.2,0.6-0.5,0.6C232.5,167.2,232.3,167,232.3,166.7z"
				/>
		</g>
	</g>
	<g>
		<g>
			<path class="st10" d="M180.3,135c9.9-6.4,2.3-18.9-7.1-12.3"/>
			<g>
				<path d="M181.3,136.6c-0.9,0.6-2.1,0.3-2.7-0.6c-0.6-0.9-0.3-2.1,0.6-2.7c0.9-0.6,2.1-0.3,2.7,0.6
					C182.5,134.8,182.3,136,181.3,136.6z"/>
			</g>
			<g>
				<path d="M172,121c-0.9,0.6-1.1,1.9-0.5,2.7s1.9,1.1,2.7,0.5c0.9-0.6,1.1-1.9,0.5-2.7S172.9,120.4,172,121z"/>
			</g>
		</g>
	</g>
	<g>
		<path class="st2" d="M225.6,94c-0.3,0.1-0.8,0.2-1.2,0.2c-0.6,0-1.1-0.2-1.6-0.7s-0.8-1.4-0.8-2.7c0-2.6,1.3-3.5,2.5-3.5
			c0.4,0,0.8,0.1,1,0.2l-0.2,0.7c-0.2-0.1-0.4-0.2-0.8-0.2c-0.8,0-1.7,0.7-1.7,2.8c0,2.1,0.8,2.7,1.6,2.7c0.3,0,0.4,0,0.5-0.1v-2.2
			H224v-0.6h1.6V94z"/>
		<path class="st2" d="M226.6,90.6c0-0.4,0-0.9,0-1.2h0.7v0.8l0,0c0.2-0.5,0.6-0.8,1-0.8c0.1,0,0.1,0,0.2,0V90c0,0-0.1,0-0.2,0
			c-0.5,0-0.8,0.5-0.9,1c0,0.1,0,0.3,0,0.4v2.7h-0.8V90.6z"/>
		<path class="st2" d="M232.1,91.7c0,1.9-0.9,2.5-1.6,2.5c-0.9,0-1.6-0.8-1.6-2.5c0-1.8,0.8-2.5,1.6-2.5
			C231.4,89.2,232.1,90,232.1,91.7z M229.7,91.7c0,0.8,0.1,1.9,0.8,1.9s0.8-1.1,0.8-1.9c0-0.7-0.1-1.9-0.8-1.9
			C229.8,89.8,229.7,91,229.7,91.7z"/>
		<path class="st2" d="M235.8,92.8c0,0.5,0,1,0,1.3h-0.7v-0.5l0,0c-0.1,0.2-0.5,0.6-1,0.6c-0.8,0-1.2-0.7-1.2-1.9v-3.1h0.8v2.9
			c0,0.8,0.1,1.3,0.6,1.3s0.7-0.4,0.7-0.6c0-0.1,0-0.3,0-0.4v-3.2h0.8L235.8,92.8L235.8,92.8z"/>
		<path class="st2" d="M236.9,90.6c0-0.6,0-0.9,0-1.2h0.7V90l0,0c0.2-0.4,0.6-0.7,1.1-0.7c0.7,0,1.2,0.5,1.2,1.7v3.2h-0.8V91
			c0-0.6-0.1-1.1-0.7-1.1c-0.3,0-0.6,0.3-0.7,0.8c0,0.1,0,0.3,0,0.4v3h-0.8V90.6z"/>
		<path class="st2" d="M243.9,87.2V93c0,0.3,0,0.9,0,1.2h-0.7v-0.6l0,0c-0.2,0.4-0.5,0.7-1,0.7c-0.8,0-1.4-0.9-1.4-2.5
			c0-1.7,0.7-2.5,1.5-2.5c0.3,0,0.7,0.2,0.9,0.6l0,0v-2.6L243.9,87.2L243.9,87.2z M243.1,91.1c0-0.1,0-0.2,0-0.3
			c0-0.5-0.3-0.9-0.7-0.9c-0.6,0-0.9,0.9-0.9,1.9s0.3,1.8,0.8,1.8c0.2,0,0.6-0.1,0.7-0.8c0-0.1,0-0.2,0-0.3L243.1,91.1L243.1,91.1z"
			/>
		<path class="st2" d="M224.2,98v1.3h0.9v0.6h-0.9v2.9c0,0.6,0.2,0.8,0.5,0.8c0.1,0,0.2,0,0.3,0v0.6c-0.1,0-0.3,0.1-0.6,0.1
			s-0.6-0.1-0.8-0.3c-0.2-0.2-0.3-0.5-0.3-1.2V100h-0.6v-0.6h0.6v-1.1L224.2,98z"/>
		<path class="st2" d="M228.8,101.7c0,1.9-0.9,2.5-1.6,2.5c-0.9,0-1.6-0.8-1.6-2.5c0-1.8,0.8-2.5,1.6-2.5
			C228.1,99.2,228.8,100.1,228.8,101.7z M226.4,101.7c0,0.8,0.1,1.9,0.8,1.9s0.8-1.1,0.8-1.9c0-0.7-0.1-1.9-0.8-1.9
			C226.5,99.9,226.4,101,226.4,101.7z"/>
		<path class="st2" d="M231.2,104.2c0-0.3,0-0.8,0-1.2v-5.8h0.8v2.6l0,0c0.2-0.5,0.6-0.6,1-0.6c0.7,0,1.3,0.9,1.3,2.4
			c0,1.7-0.7,2.5-1.5,2.5c-0.5,0-0.8-0.3-1-0.7l0,0v0.6h-0.6V104.2z M232,102.5c0,0.1,0,0.2,0,0.3c0.2,0.7,0.5,0.8,0.7,0.8
			c0.6,0,0.8-0.8,0.8-1.9c0-1-0.2-1.8-0.8-1.8c-0.4,0-0.7,0.4-0.7,0.9c0,0.1,0,0.2,0,0.3V102.5z"/>
		<path class="st2" d="M235.2,100.6c0-0.4,0-0.9,0-1.2h0.7v0.8l0,0c0.2-0.5,0.6-0.8,1-0.8c0.1,0,0.1,0,0.2,0v0.8c0,0-0.1,0-0.2,0
			c-0.5,0-0.8,0.4-0.9,1c0,0.1,0,0.3,0,0.4v2.7h-0.8V100.6z"/>
		<path class="st2" d="M238.5,98.1c0,0.3-0.2,0.5-0.5,0.5c-0.2,0-0.4-0.2-0.4-0.5s0.2-0.5,0.4-0.5C238.3,97.6,238.5,97.8,238.5,98.1
			z M237.7,104.2v-4.8h0.8v4.8H237.7z"/>
		<path class="st2" d="M242.4,97.2v5.8c0,0.3,0,0.9,0,1.2h-0.7v-0.6l0,0c-0.2,0.4-0.5,0.7-1,0.7c-0.8,0-1.4-0.9-1.4-2.5
			c0-1.7,0.7-2.5,1.5-2.5c0.3,0,0.7,0.2,0.9,0.6l0,0v-2.6L242.4,97.2L242.4,97.2z M241.7,101.2c0-0.1,0-0.2,0-0.3
			c0-0.5-0.3-0.9-0.7-0.9c-0.6,0-0.9,0.9-0.9,1.9s0.3,1.8,0.8,1.8c0.2,0,0.6-0.1,0.7-0.8c0-0.1,0-0.2,0-0.3L241.7,101.2L241.7,101.2
			z"/>
		<path class="st2" d="M246.5,99.3c0,0.3,0,0.8,0,1.5v2.7c0,1.3-0.2,1.7-0.5,2.1c-0.3,0.3-0.8,0.5-1.3,0.5c-0.4,0-0.8-0.1-1.1-0.2
			l0.2-0.6c0.2,0.1,0.5,0.2,0.9,0.2c0.6,0,1-0.4,1-1.5v-0.5l0,0c-0.2,0.4-0.5,0.6-0.9,0.6c-0.9,0-1.4-1-1.4-2.4
			c0-1.8,0.8-2.5,1.5-2.5c0.5,0,0.8,0.3,0.9,0.6l0,0v-0.5C245.8,99.3,246.5,99.3,246.5,99.3z M245.7,101c0-0.1,0-0.2,0-0.3
			c-0.1-0.3-0.3-0.7-0.7-0.7c-0.6,0-0.9,0.7-0.9,1.8c0,1.2,0.4,1.8,0.9,1.8c0.2,0,0.5-0.1,0.7-0.7c0-0.1,0-0.3,0-0.4V101z"/>
		<path class="st2" d="M248,101.8c0,1.5,0.6,1.8,1.1,1.8c0.3,0,0.6-0.1,0.8-0.2l0.1,0.6c-0.3,0.1-0.7,0.2-1.1,0.2
			c-1.2,0-1.8-0.9-1.8-2.4c0-1.6,0.7-2.5,1.6-2.5c1,0,1.4,1,1.4,2.1c0,0.2,0,0.3,0,0.4H248z M249.6,101.2c0-1-0.3-1.4-0.7-1.4
			c-0.5,0-0.8,0.7-0.8,1.4H249.6z"/>
	</g>
	<g>
		<g>
			<g>
				<polyline class="st10" points="215.2,97.9 215.2,88.4 194.3,88.4 166.8,116.1 				"/>
				<g>
					<path d="M165.4,114.7c-0.8,0.8-0.8,2,0,2.8s2,0.8,2.8,0s0.8-2,0-2.8C167.4,113.9,166.2,113.9,165.4,114.7z"/>
				</g>
			</g>
		</g>
		<g>
			<line class="st16" x1="219.2" y1="97.9" x2="211.2" y2="97.9"/>
			<line class="st16" x1="217.7" y1="100.5" x2="212.8" y2="100.5"/>
			<line class="st16" x1="215.9" y1="103.2" x2="214.6" y2="103.2"/>
		</g>
	</g>
	<g>
		<g>
			<polyline class="st10" points="150.3,136.9 150.3,158 103.1,158 			"/>
			<g>
				<path d="M148.4,136.9c0-1.1,0.9-2,2-2s2,0.9,2,2s-0.9,2-2,2C149.3,138.9,148.4,138,148.4,136.9z"/>
			</g>
			<g>
				<path d="M103.1,156c-1.1,0-2,0.9-2,2s0.9,2,2,2s2-0.9,2-2S104.2,156,103.1,156z"/>
			</g>
		</g>
	</g>
	<g>
		<g>
			<polyline class="st17" points="151.9,75.7 151.9,97.4 149.9,113.7 138.8,113.7 138.8,146.2 91.7,146.2 			"/>
			<g>
				<path class="st18" d="M149.8,75.7c0-1.2,1-2.1,2.1-2.1c1.2,0,2.1,1,2.1,2.1c0,1.2-1,2.1-2.1,2.1
					C150.7,77.8,149.8,76.9,149.8,75.7z"/>
			</g>
			<g>
				<path class="st18" d="M91.7,144c-1.2,0-2.1,1-2.1,2.1s1,2.1,2.1,2.1c1.2,0,2.1-1,2.1-2.1S92.8,144,91.7,144z"/>
			</g>
		</g>
	</g>
	<g>
		<g>
			<polyline class="st7" points="148.9,75.7 148.9,97.4 145.9,109.7 133.8,109.7 133.8,141.7 96.5,141.7 91.7,146.3 			"/>
			<g>
				<path d="M146.8,75.7c0-1.2,1-2.1,2.1-2.1c1.2,0,2.1,1,2.1,2.1c0,1.2-1,2.1-2.1,2.1C147.8,77.8,146.8,76.9,146.8,75.7z"/>
			</g>
			<g>
				<path d="M90.2,144.7c-0.9,0.8-0.9,2.2-0.1,3c0.8,0.9,2.2,0.9,3,0.1c0.9-0.8,0.9-2.2,0.1-3C92.4,144,91,143.9,90.2,144.7z"/>
			</g>
		</g>
		<g>
			<polyline class="st8" points="148.9,75.7 148.9,97.4 145.9,109.7 133.8,109.7 133.8,141.7 96.5,141.7 91.7,146.3 			"/>
			<g>
				<path class="st9" d="M147.4,75.7c0-0.8,0.7-1.5,1.5-1.5s1.5,0.7,1.5,1.5s-0.7,1.5-1.5,1.5C148.1,77.2,147.4,76.5,147.4,75.7z"/>
			</g>
			<g>
				<circle class="st9" cx="91.7" cy="146.3" r="1.5"/>
			</g>
		</g>
	</g>
	<rect x="143.9" y="72.6" width="15.9" height="20.8"/>
	<g>
		<g>
			<g>
				<g>
					<g>
						<path d="M120.1,40.1c-0.1-0.3-0.1-0.8-0.1-1.3c0-0.7,0.1-1.1,0.4-1.5c0.2-0.3,0.5-0.4,1-0.4s1,0.3,1.2,0.9l0,0
							c0.1-0.5,0.6-1.1,1.4-1.1c0.5,0,0.8,0.2,1.1,0.5c0.3,0.4,0.5,1,0.5,1.9c0,0.5,0,0.8-0.1,1.1h-5.4V40.1z M122.3,39.5v-0.6
							c0-0.7-0.4-1.2-0.9-1.2c-0.6,0-0.9,0.5-0.9,1.2c0,0.3,0,0.5,0,0.6H122.3z M124.9,39.5c0-0.1,0-0.3,0-0.6c0-0.7-0.3-1.4-1-1.4
							s-1,0.6-1,1.4v0.6H124.9z"/>
						<path d="M120.1,35.9c-0.1-0.4-0.1-0.9-0.1-1.3c0-0.7,0.1-1.2,0.4-1.6c0.2-0.3,0.6-0.4,1-0.4c0.7,0,1.2,0.4,1.4,1l0,0
							c0.1-0.4,0.5-0.7,1.1-0.8c0.8-0.2,1.3-0.3,1.5-0.4v0.7c-0.2,0.1-0.6,0.2-1.3,0.4c-0.7,0.2-1,0.4-1,1.1v0.7h2.3V36h-5.3V35.9z
							 M122.6,35.2v-0.7c0-0.7-0.4-1.2-1-1.2c-0.7,0-1,0.5-1,1.2c0,0.3,0,0.6,0.1,0.7H122.6z"/>
						<path d="M120.1,31h5.4v0.7h-5.4V31z"/>
						<path d="M120.1,29.8c-0.1-0.4-0.1-0.9-0.1-1.5c0-1,0.2-1.7,0.7-2.2c0.4-0.5,1.1-0.8,1.9-0.8c0.9,0,1.6,0.3,2.1,0.8
							s0.8,1.3,0.8,2.4c0,0.5,0,0.9-0.1,1.3C125.4,29.8,120.1,29.8,120.1,29.8z M124.9,29.1c0-0.2,0-0.4,0-0.7
							c0-1.5-0.8-2.3-2.3-2.3c-1.3,0-2.1,0.7-2.1,2.2c0,0.4,0,0.6,0.1,0.8H124.9z"/>
						<path d="M125.2,20.5c0.1,0.3,0.3,0.9,0.3,1.7c0,0.8-0.2,1.5-0.7,2c-0.4,0.5-1.2,0.8-2,0.8c-1.6,0-2.8-1.1-2.8-2.9
							c0-0.6,0.1-1.1,0.2-1.3l0.6,0.2c-0.1,0.3-0.2,0.6-0.2,1.2c0,1.3,0.8,2.2,2.2,2.2c1.4,0,2.2-0.8,2.2-2.1c0-0.5-0.1-0.8-0.1-0.9
							h-1.6v1.1h-0.6v-1.8h2.5V20.5z"/>
						<path d="M122.9,16.7v2.1h1.9v-2.3h0.6v3H120v-2.9h0.6v2.2h1.7v-2.1C122.3,16.7,122.9,16.7,122.9,16.7z"/>
					</g>
				</g>
			</g>
			<g>
				<g>
					<path class="st3" d="M161.9,10.4c-4.9,0-9.2,3-11.1,7.2c-1.9-4.2-6.1-7.2-11.1-7.2c-6.7,0-12.1,5.4-12.1,12.1v55.7
						c0,6.7,5.4,12.1,12.1,12.1c4.9,0,9.2-3,11.1-7.2c1.9,4.2,6.1,7.2,11.1,7.2c6.7,0,12.1-5.4,12.1-12.1V22.5
						C174,15.8,168.6,10.4,161.9,10.4z"/>
					<path class="st6" d="M139.8,11.9c-5.8,0-10.6,4.7-10.6,10.6v55.7c0,5.8,4.7,10.6,10.6,10.6c5.8,0,10.6-4.7,10.6-10.6V22.5
						C150.3,16.7,145.6,11.9,139.8,11.9z M136,67c0-2.1,1.7-3.7,3.7-3.7c2.1,0,3.7,1.7,3.7,3.7c0,2.1-1.7,3.7-3.7,3.7
						C137.7,70.8,136,69.1,136,67z M136,55.9c0-2.1,1.7-3.7,3.7-3.7c2.1,0,3.7,1.7,3.7,3.7c0,2.1-1.7,3.7-3.7,3.7
						C137.7,59.6,136,58,136,55.9z M136,44.8c0-2.1,1.7-3.7,3.7-3.7c2.1,0,3.7,1.7,3.7,3.7c0,2.1-1.7,3.7-3.7,3.7S136,46.8,136,44.8
						z M136,33.6c0-2.1,1.7-3.7,3.7-3.7c2.1,0,3.7,1.7,3.7,3.7c0,2.1-1.7,3.7-3.7,3.7C137.7,37.4,136,35.7,136,33.6z M136,22.5
						c0-2.1,1.7-3.7,3.7-3.7c2.1,0,3.7,1.7,3.7,3.7c0,2.1-1.7,3.7-3.7,3.7S136,24.6,136,22.5z M161.9,11.9
						c-5.8,0-10.6,4.7-10.6,10.6v55.7c0,5.8,4.7,10.6,10.6,10.6c5.8,0,10.6-4.7,10.6-10.6V22.5C172.4,16.7,167.7,11.9,161.9,11.9z
						 M158.7,24.4c-0.3-0.6-0.5-1.2-0.5-1.9c0-2.1,1.7-3.7,3.7-3.7c0.7,0,1.3,0.2,1.9,0.5L158.7,24.4z M165.2,20.7
						c0.3,0.5,0.5,1.1,0.5,1.8c0,2.1-1.7,3.7-3.7,3.7c-0.6,0-1.3-0.2-1.8-0.5L165.2,20.7z M165.2,31.9c0.3,0.5,0.4,1.1,0.4,1.8
						c0,2.1-1.7,3.7-3.7,3.7c-0.6,0-1.2-0.2-1.8-0.4L165.2,31.9z M158.7,35.5c-0.3-0.6-0.5-1.2-0.5-1.9c0-2.1,1.7-3.7,3.7-3.7
						c0.7,0,1.4,0.2,1.9,0.5L158.7,35.5z M165.2,43c0.3,0.5,0.4,1.1,0.4,1.8c0,2.1-1.7,3.7-3.7,3.7c-0.6,0-1.2-0.2-1.7-0.4L165.2,43
						z M158.7,46.7c-0.3-0.6-0.5-1.2-0.5-1.9c0-2.1,1.7-3.7,3.7-3.7c0.7,0,1.4,0.2,1.9,0.5L158.7,46.7z M158.7,57.8
						c-0.3-0.6-0.5-1.2-0.5-1.9c0-2.1,1.7-3.7,3.7-3.7c0.7,0,1.4,0.2,1.9,0.5L158.7,57.8z M165.2,54.1c0.3,0.5,0.5,1.1,0.5,1.8
						c0,2.1-1.7,3.7-3.7,3.7c-0.6,0-1.2-0.2-1.8-0.4L165.2,54.1z M165.2,65.2c0.3,0.5,0.5,1.2,0.5,1.8c0,2.1-1.7,3.7-3.7,3.7
						c-0.7,0-1.3-0.2-1.8-0.5L165.2,65.2z M158.6,68.9c-0.3-0.6-0.5-1.2-0.5-1.9c0-2.1,1.7-3.7,3.7-3.7c0.7,0,1.3,0.2,1.9,0.5
						L158.6,68.9z M136,78.2c0-2.1,1.7-3.7,3.7-3.7c2.1,0,3.7,1.7,3.7,3.7c0,2.1-1.7,3.7-3.7,3.7C137.7,81.9,136,80.2,136,78.2z
						 M165.2,76.4c0.3,0.5,0.5,1.2,0.5,1.8c0,2.1-1.7,3.7-3.7,3.7c-0.7,0-1.3-0.2-1.8-0.5L165.2,76.4z M158.6,80
						c-0.3-0.6-0.5-1.2-0.5-1.9c0-2.1,1.7-3.7,3.7-3.7c0.7,0,1.3,0.2,1.9,0.5L158.6,80z"/>
				</g>
				<g>
					<path class="st3" d="M160.2,86.9c0.4,0.2,0.9,0.3,1.5,0.3c0.7,0,1.2-0.3,1.2-0.7c0-0.4-0.4-0.6-1.2-0.8c-1-0.3-1.6-0.7-1.6-1.4
						c0-0.8,0.8-1.4,2.1-1.4c0.7,0,1.1,0.1,1.5,0.2l-0.3,0.7c-0.2-0.1-0.6-0.2-1.2-0.2c-0.7,0-1.1,0.3-1.1,0.6
						c0,0.4,0.4,0.5,1.3,0.8c1.1,0.3,1.6,0.7,1.6,1.4c0,0.8-0.7,1.5-2.3,1.5c-0.6,0-1.3-0.1-1.6-0.3L160.2,86.9z"/>
				</g>
				<g>
					<path class="st3" d="M137.6,87.8V83h1.1l1.4,2.1c0.4,0.5,0.7,1.1,0.9,1.6l0,0c-0.1-0.6-0.1-1.3-0.1-2V83h0.9v4.9h-1l-1.4-2.1
						c-0.3-0.5-0.7-1.1-1-1.7l0,0c0,0.6,0,1.3,0,2.1v1.7L137.6,87.8L137.6,87.8z"/>
				</g>
			</g>
		</g>
	</g>
	<g>
		<g>
			<g>
				<g>
					<g>
						<path class="st19" d="M193.9,70.6l0.4,0.5l-0.6,0.4l1.5,1.9h20c-4.3-4.2-10.8-5.1-16.1-2.2l-1.9-2.4l-0.6,0.4l-0.4-0.5"/>
						<path class="st19" d="M195.3,69.9c-1.6,1.3-4,1-5.3-0.6c-0.1-0.1-0.2-0.3-0.3-0.5l-3.4-6.4c-0.6-1.1-0.3-2.4,0.7-3.2
							s2.3-0.7,3.2,0.1l5.4,4.9c0.1,0.1,0.3,0.3,0.4,0.4C197.2,66.2,196.9,68.6,195.3,69.9z"/>
					</g>
					<g>
						<path class="st19" d="M198.6,67.4l0.2,0.5l-0.7,0.2l1,2.9c-1.1,0.6-2.2,1.4-3.1,2.3h19.1c-3.1-3-7.5-4.5-11.9-3.7l-1-2.9
							l-0.7,0.2l-0.2-0.5"/>
						<path class="st19" d="M200.1,67.2c-2,0.7-4.1-0.4-4.8-2.3c-0.1-0.2-0.1-0.4-0.1-0.5l-1.2-7.2c-0.2-1.2,0.5-2.4,1.7-2.8
							c1.2-0.4,2.4,0.1,3,1.2l3.5,6.4c0.1,0.2,0.2,0.3,0.2,0.5C203.1,64.4,202.1,66.5,200.1,67.2z"/>
					</g>
					<g>
						<path class="st19" d="M204.1,66v0.6h-0.7v3.1c-2.8,0.5-5.4,1.8-7.3,3.7h19.1c-2-1.9-4.5-3.3-7.3-3.7v-3.1h-0.7V66"/>
						<path class="st19" d="M205.6,66.3c2.1,0,3.8-1.7,3.8-3.8c0-0.2,0-0.4,0-0.5l-1.3-7.2c-0.2-1.2-1.2-2.1-2.5-2.1
							s-2.3,0.9-2.5,2.1l-1.3,7.2c0,0.2,0,0.4,0,0.5C201.8,64.6,203.5,66.3,205.6,66.3z"/>
					</g>
					<g>
						<path class="st19" d="M214.9,68.7l-0.4,0.5l-0.6-0.4l-1.9,2.4c-5.2-2.9-11.8-2-16.1,2.2h20l1.5-1.9l-0.6-0.4l0.4-0.5"/>
						<path class="st19" d="M215.9,69.9c1.6,1.3,4,1,5.3-0.6c0.1-0.1,0.2-0.3,0.3-0.5l3.4-6.4c0.6-1.1,0.3-2.4-0.7-3.2
							s-2.3-0.7-3.2,0.1l-5.4,4.9c-0.1,0.1-0.3,0.3-0.4,0.4C214,66.2,214.3,68.6,215.9,69.9z"/>
					</g>
					<g>
						<path class="st20" d="M209.7,66.4l-0.2,0.5l-0.7-0.2l-1,2.9c-4.4-0.8-8.8,0.7-11.9,3.7H215c-0.9-0.9-1.9-1.7-3.1-2.3l1-2.9
							l-0.7-0.2l0.2-0.5"/>
						<path class="st21" d="M211,67.2c2,0.7,4.1-0.4,4.8-2.3c0.1-0.2,0.1-0.4,0.1-0.5l1.2-7.2c0.2-1.2-0.5-2.4-1.7-2.8
							s-2.4,0.1-3,1.2l-3.5,6.4c-0.1,0.2-0.2,0.3-0.2,0.5C208,64.4,209.1,66.5,211,67.2z"/>
					</g>
					<line class="st22" x1="184.1" y1="73.4" x2="227" y2="73.4"/>
				</g>
			</g>
		</g>
		<g>
			<path class="st2" d="M232.9,52l-0.4,2h-0.7l1.5-6.7h0.8l1.5,6.7h-0.8l-0.5-2H232.9z M234.3,51.3l-0.3-1.7c-0.1-0.5-0.2-1-0.3-1.5
				l0,0c-0.1,0.5-0.2,1.1-0.3,1.5l-0.3,1.7H234.3z"/>
			<path class="st2" d="M237.3,47.9v1.3h0.9v0.6h-0.9v2.9c0,0.6,0.2,0.8,0.5,0.8c0.1,0,0.2,0,0.3,0v0.6c-0.1,0-0.3,0.1-0.6,0.1
				s-0.6-0.1-0.8-0.3s-0.3-0.5-0.3-1.2v-2.8h-0.6v-0.6h0.6v-1.1L237.3,47.9z"/>
			<path class="st2" d="M240.3,53.2c0.2,0.1,0.5,0.2,0.8,0.2c0.4,0,0.7-0.3,0.7-0.7s-0.1-0.6-0.6-0.9c-0.6-0.4-1-0.8-1-1.4
				c0-0.8,0.6-1.3,1.3-1.3c0.4,0,0.7,0.1,0.9,0.2l-0.2,0.6c-0.2-0.1-0.4-0.2-0.6-0.2c-0.4,0-0.6,0.3-0.6,0.6s0.1,0.5,0.6,0.8
				c0.6,0.4,1,0.8,1,1.5c0,1-0.7,1.4-1.4,1.4c-0.4,0-0.8-0.1-1-0.3L240.3,53.2z"/>
			<path class="st2" d="M243.8,49.1l0.5,2.4c0.1,0.5,0.2,1,0.3,1.5l0,0c0.1-0.5,0.2-1.1,0.3-1.5l0.6-2.4h0.6l0.5,2.3
				c0.1,0.5,0.2,1,0.3,1.6l0,0c0.1-0.5,0.2-1,0.3-1.6l0.5-2.3h0.8l-1.2,4.8h-0.6l-0.6-2.3c-0.1-0.5-0.2-0.9-0.3-1.4l0,0
				c-0.1,0.6-0.2,1-0.3,1.5l-0.6,2.3h-0.7l-1.2-4.8L243.8,49.1L243.8,49.1z"/>
			<path class="st2" d="M249.9,47.9c0,0.3-0.2,0.5-0.5,0.5c-0.2,0-0.4-0.2-0.4-0.5s0.2-0.5,0.5-0.5
				C249.7,47.4,249.9,47.6,249.9,47.9z M249,54v-4.8h0.8V54H249z"/>
			<path class="st2" d="M251.8,47.9v1.3h0.9v0.6h-0.9v2.9c0,0.6,0.2,0.8,0.5,0.8c0.1,0,0.2,0,0.3,0v0.6c-0.1,0-0.3,0.1-0.6,0.1
				s-0.6-0.1-0.8-0.3s-0.3-0.5-0.3-1.2v-2.8h-0.6v-0.6h0.6v-1.1L251.8,47.9z"/>
			<path class="st2" d="M255.8,53.9c-0.2,0.1-0.5,0.2-0.8,0.2c-1.1,0-1.8-0.8-1.8-2.4c0-1.4,0.7-2.5,1.9-2.5c0.3,0,0.5,0.1,0.7,0.1
				l-0.1,0.6c-0.1,0-0.3-0.1-0.5-0.1c-0.8,0-1.1,0.9-1.1,1.9c0,1.1,0.4,1.8,1.1,1.8c0.2,0,0.4-0.1,0.6-0.1L255.8,53.9z"/>
			<path class="st2" d="M256.4,47.1h0.8v2.6l0,0c0.1-0.2,0.2-0.3,0.4-0.4c0.2-0.1,0.4-0.2,0.7-0.2c0.6,0,1.1,0.5,1.1,1.7V54h-0.8
				v-3.1c0-0.6-0.1-1.1-0.6-1.1c-0.4,0-0.6,0.3-0.8,0.8c0,0.1,0,0.2,0,0.4v3h-0.8L256.4,47.1L256.4,47.1z"/>
			<path class="st2" d="M262,50.6c0-0.7,0-1.2,0-1.5h0.7v0.6l0,0c0.3-0.5,0.6-0.7,1-0.7c0.8,0,1.4,0.9,1.4,2.5
				c0,1.8-0.7,2.5-1.5,2.5c-0.4,0-0.7-0.3-0.8-0.6l0,0v2.4H262V50.6z M262.8,52.2c0,0.1,0,0.3,0,0.4c0.1,0.7,0.5,0.8,0.7,0.8
				c0.6,0,0.8-0.9,0.8-1.9s-0.2-1.8-0.8-1.8c-0.3,0-0.7,0.4-0.7,0.9c0,0.1,0,0.2,0,0.4V52.2z"/>
			<path class="st2" d="M269,51.6c0,1.9-0.9,2.5-1.6,2.5c-0.9,0-1.6-0.8-1.6-2.5c0-1.8,0.8-2.5,1.6-2.5
				C268.3,49.1,269,49.9,269,51.6z M266.6,51.6c0,0.8,0.1,1.9,0.8,1.9c0.7,0,0.8-1.1,0.8-1.9c0-0.7-0.1-1.9-0.8-1.9
				C266.7,49.7,266.6,50.8,266.6,51.6z"/>
			<path class="st2" d="M269.7,53.2c0.2,0.1,0.5,0.2,0.8,0.2c0.4,0,0.7-0.3,0.7-0.7s-0.1-0.6-0.6-0.9c-0.6-0.4-1-0.8-1-1.4
				c0-0.8,0.6-1.3,1.3-1.3c0.4,0,0.7,0.1,0.9,0.2l-0.2,0.6c-0.2-0.1-0.4-0.2-0.6-0.2c-0.4,0-0.6,0.3-0.6,0.6s0.1,0.5,0.6,0.8
				c0.6,0.4,1,0.8,1,1.5c0,1-0.7,1.4-1.4,1.4c-0.4,0-0.8-0.1-1-0.3L269.7,53.2z"/>
			<path class="st2" d="M273.6,47.9c0,0.3-0.2,0.5-0.5,0.5c-0.2,0-0.4-0.2-0.4-0.5s0.2-0.5,0.5-0.5
				C273.4,47.4,273.6,47.6,273.6,47.9z M272.8,54v-4.8h0.8V54H272.8z"/>
			<path class="st2" d="M275.5,47.9v1.3h0.9v0.6h-0.9v2.9c0,0.6,0.2,0.8,0.5,0.8c0.1,0,0.2,0,0.3,0v0.6c-0.1,0-0.3,0.1-0.6,0.1
				c-0.3,0-0.6-0.1-0.8-0.3c-0.2-0.2-0.3-0.5-0.3-1.2v-2.8H274v-0.6h0.6v-1.1L275.5,47.9z"/>
			<path class="st2" d="M278,47.9c0,0.3-0.2,0.5-0.5,0.5c-0.2,0-0.4-0.2-0.4-0.5s0.2-0.5,0.4-0.5C277.8,47.4,278,47.6,278,47.9z
				 M277.2,54v-4.8h0.8V54H277.2z"/>
			<path class="st2" d="M282,51.6c0,1.9-0.9,2.5-1.6,2.5c-0.9,0-1.6-0.8-1.6-2.5c0-1.8,0.8-2.5,1.6-2.5
				C281.3,49.1,282,49.9,282,51.6z M279.6,51.6c0,0.8,0.1,1.9,0.8,1.9c0.7,0,0.8-1.1,0.8-1.9c0-0.7-0.1-1.9-0.8-1.9
				C279.7,49.7,279.6,50.8,279.6,51.6z"/>
			<path class="st2" d="M282.8,50.4c0-0.6,0-0.9,0-1.2h0.7v0.6l0,0c0.2-0.4,0.6-0.7,1.1-0.7c0.7,0,1.2,0.5,1.2,1.7V54H285v-3.1
				c0-0.6-0.1-1.1-0.7-1.1c-0.3,0-0.6,0.3-0.7,0.8c0,0.1,0,0.3,0,0.4v3h-0.8V50.4z"/>
			<path class="st2" d="M290.2,54v-1.8H288v-0.5l2.1-4.2h0.7v4.1h0.7v0.6h-0.7V54H290.2z M290.2,51.6v-1.8c0-0.4,0-0.8,0.1-1.3l0,0
				c-0.2,0.5-0.4,0.8-0.5,1.2l-0.9,1.9l0,0C288.9,51.6,290.2,51.6,290.2,51.6z"/>
			<path class="st2" d="M233.7,57.1c-0.6,0.9-1,2.2-1,4.1c0,1.8,0.5,3.1,1,4h-0.6c-0.5-0.8-1.1-2.1-1.1-4.1s0.6-3.3,1.1-4.1
				L233.7,57.1L233.7,57.1z"/>
			<path class="st2" d="M234.5,60.4c0-0.6,0-0.9,0-1.2h0.7v0.6l0,0c0.2-0.4,0.6-0.7,1.1-0.7s0.8,0.2,1,0.7l0,0
				c0.1-0.2,0.3-0.4,0.5-0.5s0.4-0.2,0.7-0.2c0.6,0,1.2,0.5,1.2,1.7V64h-0.8v-3c0-0.6-0.1-1.2-0.7-1.2c-0.3,0-0.6,0.3-0.7,0.7
				c0,0.1,0,0.3,0,0.4V64h-0.8v-3.2c0-0.5-0.1-1.1-0.7-1.1c-0.3,0-0.6,0.3-0.7,0.8c0,0.1,0,0.3,0,0.4V64h-0.8V60.4z"/>
			<path class="st2" d="M241.6,57.9c0,0.3-0.2,0.5-0.5,0.5c-0.2,0-0.4-0.2-0.4-0.5s0.2-0.5,0.4-0.5
				C241.4,57.4,241.6,57.6,241.6,57.9z M240.7,64v-4.8h0.8V64H240.7z"/>
			<path class="st2" d="M245.5,57.1v5.8c0,0.3,0,0.9,0,1.2h-0.7v-0.6l0,0c-0.2,0.4-0.5,0.7-1,0.7c-0.8,0-1.4-0.9-1.4-2.5
				c0-1.7,0.7-2.5,1.5-2.5c0.3,0,0.7,0.2,0.9,0.6l0,0v-2.6L245.5,57.1L245.5,57.1z M244.7,61c0-0.1,0-0.2,0-0.3
				c-0.1-0.5-0.4-0.9-0.7-0.9c-0.6,0-0.9,0.9-0.9,1.9s0.3,1.8,0.8,1.8c0.2,0,0.6-0.1,0.7-0.8c0-0.1,0-0.2,0-0.3L244.7,61L244.7,61z"
				/>
			<path class="st2" d="M249.5,57.1v5.8c0,0.3,0,0.9,0,1.2h-0.7l-0.1-0.6l0,0c-0.2,0.4-0.5,0.7-1,0.7c-0.8,0-1.4-0.9-1.4-2.5
				c0-1.7,0.7-2.5,1.5-2.5c0.3,0,0.7,0.2,0.9,0.6l0,0v-2.6L249.5,57.1L249.5,57.1z M248.7,61c0-0.1,0-0.2,0-0.3
				c0-0.5-0.3-0.9-0.7-0.9c-0.6,0-0.9,0.9-0.9,1.9s0.3,1.8,0.8,1.8c0.2,0,0.6-0.1,0.7-0.8c0-0.1,0-0.2,0-0.3L248.7,61L248.7,61z"/>
			<path class="st2" d="M250.6,57.1h0.8V64h-0.8V57.1z"/>
			<path class="st2" d="M253,61.6c0,1.5,0.6,1.8,1.1,1.8c0.3,0,0.6-0.1,0.8-0.2l0.1,0.6c-0.3,0.1-0.7,0.2-1.1,0.2
				c-1.2,0-1.8-0.9-1.8-2.4c0-1.6,0.7-2.5,1.6-2.5c1,0,1.4,1,1.4,2.1c0,0.2,0,0.3,0,0.4C255.1,61.6,253,61.6,253,61.6z M254.5,61.1
				c0-1-0.4-1.4-0.7-1.4c-0.5,0-0.8,0.7-0.8,1.4H254.5z"/>
			<path class="st2" d="M260.4,58.7V61h2.3v0.5h-2.3V64h-0.6v-2.4h-2.3V61h2.3v-2.4h0.6V58.7z"/>
			<path class="st2" d="M265.1,64c0-0.3,0-0.8,0-1.2V57h0.8v2.6l0,0c0.2-0.5,0.6-0.6,1-0.6c0.8,0,1.3,0.9,1.3,2.4
				c0,1.7-0.7,2.5-1.5,2.5c-0.5,0-0.8-0.3-1-0.7l0,0v0.6h-0.6V64z M266,62.3c0,0.1,0,0.2,0,0.3c0.2,0.7,0.5,0.8,0.7,0.8
				c0.6,0,0.8-0.8,0.8-1.9c0-1-0.2-1.8-0.8-1.8c-0.4,0-0.7,0.4-0.7,0.9c0,0.1,0,0.2,0,0.3V62.3z"/>
			<path class="st2" d="M269.2,60.4c0-0.4,0-0.9,0-1.2h0.7V60l0,0c0.2-0.5,0.6-0.8,1-0.8c0.1,0,0.1,0,0.2,0V60c0,0-0.1,0-0.2,0
				c-0.5,0-0.8,0.4-0.9,1c0,0.1,0,0.3,0,0.4V64h-0.8L269.2,60.4L269.2,60.4z"/>
			<path class="st2" d="M272.5,57.9c0,0.3-0.2,0.5-0.5,0.5c-0.2,0-0.4-0.2-0.4-0.5s0.2-0.5,0.5-0.5
				C272.3,57.4,272.5,57.6,272.5,57.9z M271.7,64v-4.8h0.8V64H271.7z"/>
			<path class="st2" d="M276.4,57.1v5.8c0,0.3,0,0.9,0,1.2h-0.7l-0.1-0.6l0,0c-0.2,0.4-0.5,0.7-1,0.7c-0.8,0-1.4-0.9-1.4-2.5
				c0-1.7,0.7-2.5,1.5-2.5c0.3,0,0.7,0.2,0.9,0.6l0,0v-2.6L276.4,57.1L276.4,57.1z M275.7,61c0-0.1,0-0.2,0-0.3
				c0-0.5-0.3-0.9-0.7-0.9c-0.6,0-0.9,0.9-0.9,1.9s0.3,1.8,0.8,1.8c0.2,0,0.6-0.1,0.7-0.8c0-0.1,0-0.2,0-0.3V61H275.7z"/>
			<path class="st2" d="M280.5,59.1c0,0.3,0,0.8,0,1.5v2.7c0,1.3-0.2,1.7-0.5,2.1c-0.3,0.3-0.8,0.5-1.3,0.5c-0.4,0-0.8-0.1-1.1-0.2
				l0.2-0.6c0.2,0.1,0.5,0.2,0.9,0.2c0.6,0,1-0.4,1-1.5v-0.5l0,0c-0.2,0.4-0.5,0.6-0.9,0.6c-0.9,0-1.4-1-1.4-2.4
				c0-1.8,0.8-2.5,1.5-2.5c0.5,0,0.8,0.3,0.9,0.6l0,0v-0.5H280.5z M279.7,60.8c0-0.1,0-0.2,0-0.3c-0.1-0.3-0.3-0.7-0.7-0.7
				c-0.6,0-0.9,0.7-0.9,1.8c0,1.2,0.4,1.8,0.9,1.8c0.2,0,0.5-0.1,0.7-0.7c0-0.1,0-0.3,0-0.4V60.8z"/>
			<path class="st2" d="M282,61.6c0,1.5,0.6,1.8,1.1,1.8c0.3,0,0.6-0.1,0.8-0.2l0.1,0.6c-0.3,0.1-0.7,0.2-1.1,0.2
				c-1.2,0-1.8-0.9-1.8-2.4c0-1.6,0.7-2.5,1.6-2.5c1,0,1.4,1,1.4,2.1c0,0.2,0,0.3,0,0.4C284.1,61.6,282,61.6,282,61.6z M283.5,61.1
				c0-1-0.3-1.4-0.7-1.4c-0.5,0-0.8,0.7-0.8,1.4H283.5z"/>
			<path class="st2" d="M284.8,65.2c0.6-0.9,1-2.3,1-4.1s-0.5-3.1-1-4h0.6c0.5,0.7,1.1,2.1,1.1,4c0,2-0.6,3.3-1.1,4.1H284.8z"/>
			<path class="st2" d="M287.3,65.2c0.2-0.6,0.5-1.6,0.6-2.3l0.9-0.1c-0.2,0.8-0.6,1.9-0.9,2.4H287.3z"/>
			<path class="st2" d="M292.1,57.9v1.3h0.9v0.6h-0.9v2.9c0,0.6,0.2,0.8,0.5,0.8c0.1,0,0.2,0,0.3,0v0.6c-0.1,0-0.3,0.1-0.6,0.1
				c-0.3,0-0.6-0.1-0.8-0.3c-0.2-0.2-0.3-0.5-0.3-1.2v-2.8h-0.6v-0.6h0.6v-1.1L292.1,57.9z"/>
			<path class="st2" d="M293.7,57.1h0.8v2.6l0,0c0.1-0.2,0.2-0.3,0.4-0.4c0.2-0.1,0.4-0.2,0.6-0.2c0.6,0,1.1,0.5,1.1,1.7V64h-0.8
				v-3.1c0-0.6-0.1-1.1-0.6-1.1c-0.4,0-0.6,0.3-0.7,0.8c0,0.1,0,0.2,0,0.4v3h-0.8V57.1z"/>
			<path class="st2" d="M298.3,61.6c0,1.5,0.6,1.8,1.1,1.8c0.3,0,0.6-0.1,0.8-0.2l0.1,0.6c-0.3,0.1-0.7,0.2-1.1,0.2
				c-1.2,0-1.8-0.9-1.8-2.4c0-1.6,0.7-2.5,1.6-2.5c1,0,1.4,1,1.4,2.1c0,0.2,0,0.3,0,0.4C300.4,61.6,298.3,61.6,298.3,61.6z
				 M299.8,61.1c0-1-0.3-1.4-0.7-1.4c-0.5,0-0.8,0.7-0.8,1.4H299.8z"/>
			<path class="st2" d="M232,67.1h0.8v2.6l0,0c0.1-0.2,0.2-0.3,0.4-0.4s0.4-0.2,0.6-0.2c0.6,0,1.1,0.5,1.1,1.7V74h-0.8v-3.1
				c0-0.6-0.1-1.1-0.6-1.1c-0.4,0-0.6,0.3-0.7,0.8c0,0.1,0,0.2,0,0.4v3H232V67.1z"/>
			<path class="st2" d="M239,72.7c0,0.5,0,1,0,1.3h-0.7v-0.5l0,0c-0.1,0.2-0.5,0.6-1,0.6c-0.8,0-1.2-0.7-1.2-1.9v-3.1h0.8V72
				c0,0.8,0.1,1.3,0.7,1.3c0.4,0,0.6-0.4,0.7-0.6c0-0.1,0-0.3,0-0.4v-3.2h0.8v3.6H239z"/>
			<path class="st2" d="M240,70.4c0-0.6,0-0.9,0-1.2h0.7v0.6l0,0c0.2-0.4,0.6-0.7,1.1-0.7s0.8,0.2,1,0.7l0,0
				c0.1-0.2,0.3-0.4,0.5-0.5s0.4-0.2,0.7-0.2c0.6,0,1.2,0.5,1.2,1.7V74h-0.8v-3c0-0.6-0.1-1.2-0.7-1.2c-0.3,0-0.6,0.3-0.7,0.7
				c0,0.1,0,0.3,0,0.4V74h-0.8v-3.2c0-0.5-0.1-1.1-0.7-1.1c-0.3,0-0.6,0.3-0.7,0.8c0,0.1,0,0.3,0,0.4V74H240V70.4z"/>
			<path class="st2" d="M246.2,74c0-0.3,0-0.8,0-1.2V67h0.8v2.6l0,0c0.2-0.5,0.6-0.6,1-0.6c0.7,0,1.3,0.9,1.3,2.4
				c0,1.7-0.7,2.5-1.5,2.5c-0.5,0-0.8-0.3-1-0.7l0,0v0.6h-0.6V74z M247,72.3c0,0.1,0,0.2,0,0.3c0.2,0.7,0.5,0.8,0.7,0.8
				c0.6,0,0.8-0.8,0.8-1.9c0-1-0.2-1.8-0.8-1.8c-0.4,0-0.7,0.4-0.7,0.9c0,0.1,0,0.2,0,0.3V72.3z"/>
			<path class="st2" d="M253.1,72.7c0,0.5,0,1,0,1.3h-0.7v-0.5l0,0c-0.1,0.2-0.5,0.6-1,0.6c-0.8,0-1.2-0.7-1.2-1.9v-3.1h0.8V72
				c0,0.8,0.1,1.3,0.7,1.3c0.4,0,0.6-0.4,0.7-0.6c0-0.1,0-0.3,0-0.4v-3.2h0.8v3.6H253.1z"/>
			<path class="st2" d="M256.6,73.9c-0.2,0.1-0.5,0.2-0.8,0.2c-1.1,0-1.8-0.8-1.8-2.4c0-1.4,0.7-2.5,1.9-2.5c0.3,0,0.5,0.1,0.7,0.1
				l-0.1,0.6c-0.1,0-0.3-0.1-0.5-0.1c-0.8,0-1.1,0.9-1.1,1.9c0,1.1,0.4,1.8,1.1,1.8c0.2,0,0.4-0.1,0.6-0.1V73.9z"/>
			<path class="st2" d="M258,71.4L258,71.4c0.1-0.2,0.2-0.4,0.3-0.5l1-1.7h0.8l-1.3,2l1.4,2.8h-0.9l-1-2.3l-0.3,0.4V74h-0.8v-6.9
				h0.8V71.4z"/>
			<path class="st2" d="M261.3,71.6c0,1.5,0.6,1.8,1.1,1.8c0.3,0,0.6-0.1,0.8-0.2l0.1,0.6c-0.3,0.1-0.7,0.2-1.1,0.2
				c-1.2,0-1.8-0.9-1.8-2.4c0-1.6,0.7-2.5,1.6-2.5c1,0,1.4,1,1.4,2.1c0,0.2,0,0.3,0,0.4H261.3z M262.8,71.1c0-1-0.4-1.4-0.7-1.4
				c-0.5,0-0.8,0.7-0.8,1.4H262.8z"/>
			<path class="st2" d="M264.4,70.4c0-0.4,0-0.9,0-1.2h0.7V70l0,0c0.2-0.5,0.6-0.8,1-0.8c0.1,0,0.1,0,0.2,0V70c0,0-0.1,0-0.2,0
				c-0.5,0-0.8,0.4-0.9,1c0,0.1,0,0.3,0,0.4V74h-0.8L264.4,70.4L264.4,70.4z"/>
			<path class="st2" d="M269.3,67.9c0,0.3-0.2,0.5-0.5,0.5c-0.2,0-0.4-0.2-0.4-0.5s0.2-0.5,0.5-0.5
				C269.1,67.4,269.3,67.6,269.3,67.9z M268.4,74v-4.8h0.8V74H268.4z"/>
			<path class="st2" d="M270.2,73.2c0.2,0.1,0.5,0.2,0.8,0.2c0.4,0,0.7-0.3,0.7-0.7c0-0.4-0.1-0.6-0.6-0.9c-0.6-0.4-1-0.8-1-1.4
				c0-0.8,0.6-1.3,1.3-1.3c0.4,0,0.7,0.1,0.9,0.2l-0.2,0.6c-0.2-0.1-0.4-0.2-0.6-0.2c-0.4,0-0.6,0.3-0.6,0.6c0,0.3,0.1,0.5,0.6,0.8
				c0.6,0.4,1,0.8,1,1.5c0,1-0.7,1.4-1.4,1.4c-0.4,0-0.8-0.1-1-0.3L270.2,73.2z"/>
			<path class="st2" d="M277.1,73.9c-0.2,0.1-0.5,0.2-0.8,0.2c-1.1,0-1.8-0.8-1.8-2.4c0-1.4,0.7-2.5,1.9-2.5c0.3,0,0.5,0.1,0.7,0.1
				l-0.1,0.6c-0.1,0-0.3-0.1-0.5-0.1c-0.8,0-1.1,0.9-1.1,1.9c0,1.1,0.4,1.8,1.1,1.8c0.2,0,0.4-0.1,0.6-0.1L277.1,73.9z"/>
			<path class="st2" d="M280.7,71.6c0,1.9-0.9,2.5-1.6,2.5c-0.9,0-1.6-0.8-1.6-2.5c0-1.8,0.8-2.5,1.6-2.5
				C280,69.1,280.7,69.9,280.7,71.6z M278.3,71.6c0,0.8,0.1,1.9,0.8,1.9c0.7,0,0.8-1.1,0.8-1.9c0-0.7-0.1-1.9-0.8-1.9
				C278.5,69.7,278.3,70.8,278.3,71.6z"/>
			<path class="st2" d="M282.4,67.9c0,0.3-0.2,0.5-0.5,0.5c-0.2,0-0.4-0.2-0.4-0.5s0.2-0.5,0.5-0.5
				C282.2,67.4,282.4,67.6,282.4,67.9z M281.6,74v-4.8h0.8V74H281.6z"/>
			<path class="st2" d="M283.4,67.1h0.8V74h-0.8V67.1z"/>
			<path class="st2" d="M287.3,71.1v0.6h-2.2v-0.6H287.3z"/>
			<path class="st2" d="M290.5,73.9c-0.2,0.1-0.5,0.2-0.8,0.2c-1.1,0-1.8-0.8-1.8-2.4c0-1.4,0.7-2.5,1.9-2.5c0.3,0,0.5,0.1,0.7,0.1
				l-0.1,0.6c-0.1,0-0.3-0.1-0.5-0.1c-0.8,0-1.1,0.9-1.1,1.9c0,1.1,0.4,1.8,1.1,1.8c0.2,0,0.4-0.1,0.6-0.1L290.5,73.9z"/>
			<path class="st2" d="M294.1,72.7c0,0.5,0,1,0,1.3h-0.7v-0.5l0,0c-0.1,0.2-0.5,0.6-1,0.6c-0.8,0-1.2-0.7-1.2-1.9v-3.1h0.8V72
				c0,0.8,0.1,1.3,0.7,1.3c0.4,0,0.6-0.4,0.7-0.6c0-0.1,0-0.3,0-0.4v-3.2h0.8L294.1,72.7L294.1,72.7z"/>
			<path class="st2" d="M296.1,67.9v1.3h0.9v0.6h-0.9v2.9c0,0.6,0.2,0.8,0.5,0.8c0.1,0,0.2,0,0.3,0v0.6c-0.1,0-0.3,0.1-0.6,0.1
				c-0.3,0-0.6-0.1-0.8-0.3c-0.2-0.2-0.3-0.5-0.3-1.2v-2.8h-0.6v-0.6h0.6v-1.1L296.1,67.9z"/>
			<path class="st2" d="M297.6,73.5c0-0.3,0.2-0.6,0.5-0.6s0.5,0.2,0.5,0.6c0,0.3-0.2,0.6-0.5,0.6C297.9,74.1,297.6,73.8,297.6,73.5
				z"/>
		</g>
		<g>
			<g>
				<g>
					<line class="st23" x1="212.8" y1="61.7" x2="229" y2="61.7"/>
					<g>
						<path d="M212.8,63.2c-0.8,0-1.5-0.7-1.5-1.5s0.7-1.5,1.5-1.5s1.5,0.7,1.5,1.5S213.6,63.2,212.8,63.2z"/>
					</g>
				</g>
			</g>
		</g>
	</g>
</g>
</svg>
