<?xml version="1.0" encoding="UTF-8"?>
<svg xmlns="http://www.w3.org/2000/svg" xmlns:xlink="http://www.w3.org/1999/xlink" width="1684" height="1191" viewBox="0 0 1684 1191">
<path fill="none" stroke-width="1.1367" stroke-linecap="butt" stroke-linejoin="miter" stroke="rgb(11.999512%, 9.999084%, 8.999634%)" stroke-opacity="1" stroke-miterlimit="10" d="M 704.863281 697.519531 L 704.863281 673.402344 " transform="matrix(1, 0, 0, -1, 0, 1191)"/>
<path fill="none" stroke-width="1.1367" stroke-linecap="butt" stroke-linejoin="miter" stroke="rgb(11.999512%, 9.999084%, 8.999634%)" stroke-opacity="1" stroke-miterlimit="10" d="M 722.863281 697.59375 L 722.863281 673.402344 " transform="matrix(1, 0, 0, -1, 0, 1191)"/>
<path fill="none" stroke-width="1.1367" stroke-linecap="butt" stroke-linejoin="miter" stroke="rgb(11.999512%, 9.999084%, 8.999634%)" stroke-opacity="1" stroke-miterlimit="10" d="M 579.222656 718.472656 C 569.285156 718.472656 561.222656 710.410156 561.222656 700.472656 L 561.222656 511.472656 C 561.222656 501.535156 569.285156 493.472656 579.222656 493.472656 " transform="matrix(1, 0, 0, -1, 0, 1191)"/>
<path fill="none" stroke-width="1.1367" stroke-linecap="butt" stroke-linejoin="miter" stroke="rgb(11.999512%, 9.999084%, 8.999634%)" stroke-opacity="1" stroke-miterlimit="10" d="M 554.597656 493.472656 C 558.34375 493.472656 586.78125 493.472656 590.527344 493.472656 C 600.464844 493.472656 608.527344 501.535156 608.527344 511.472656 C 608.527344 574.472656 608.527344 637.472656 608.527344 700.472656 C 608.527344 710.410156 600.464844 718.472656 590.527344 718.472656 C 586.78125 718.472656 558.34375 718.472656 554.597656 718.472656 C 544.589844 718.472656 536.597656 710.410156 536.597656 700.472656 C 536.597656 637.472656 536.597656 574.472656 536.597656 511.472656 C 536.597656 501.535156 544.589844 493.472656 554.597656 493.472656 Z M 554.597656 493.472656 " transform="matrix(1, 0, 0, -1, 0, 1191)"/>
<path fill="none" stroke-width="1.1367" stroke-linecap="butt" stroke-linejoin="miter" stroke="rgb(11.999512%, 9.999084%, 8.999634%)" stroke-opacity="1" stroke-miterlimit="10" d="M 1324.0625 527.960938 L 1324.0625 548.914062 " transform="matrix(1, 0, 0, -1, 0, 1191)"/>
<path fill="none" stroke-width="1.1367" stroke-linecap="butt" stroke-linejoin="miter" stroke="rgb(11.999512%, 9.999084%, 8.999634%)" stroke-opacity="1" stroke-miterlimit="10" d="M 1334.574219 538.472656 L 1313.621094 538.472656 " transform="matrix(1, 0, 0, -1, 0, 1191)"/>
<path fill="none" stroke-width="1.1367" stroke-linecap="butt" stroke-linejoin="miter" stroke="rgb(11.999512%, 9.999084%, 8.999634%)" stroke-opacity="1" stroke-miterlimit="10" d="M 1180.0625 532.496094 C 1183.375 532.496094 1186.039062 535.160156 1186.039062 538.472656 C 1186.039062 541.785156 1183.375 544.449219 1180.0625 544.449219 C 1176.75 544.449219 1174.085938 541.785156 1174.085938 538.472656 C 1174.085938 535.160156 1176.75 532.496094 1180.0625 532.496094 Z M 1180.0625 532.496094 " transform="matrix(1, 0, 0, -1, 0, 1191)"/>
<path fill="none" stroke-width="1.1367" stroke-linecap="butt" stroke-linejoin="miter" stroke="rgb(11.999512%, 9.999084%, 8.999634%)" stroke-opacity="1" stroke-miterlimit="10" d="M 1180.0625 527.960938 L 1180.0625 548.914062 " transform="matrix(1, 0, 0, -1, 0, 1191)"/>
<path fill="none" stroke-width="1.1367" stroke-linecap="butt" stroke-linejoin="miter" stroke="rgb(11.999512%, 9.999084%, 8.999634%)" stroke-opacity="1" stroke-miterlimit="10" d="M 1190.574219 538.472656 L 1169.550781 538.472656 " transform="matrix(1, 0, 0, -1, 0, 1191)"/>
<path fill="none" stroke-width="1.1367" stroke-linecap="butt" stroke-linejoin="miter" stroke="rgb(11.999512%, 9.999084%, 8.999634%)" stroke-opacity="1" stroke-miterlimit="10" d="M 1324.0625 640.496094 C 1327.375 640.496094 1330.039062 643.160156 1330.039062 646.472656 C 1330.039062 649.785156 1327.375 652.449219 1324.0625 652.449219 C 1320.75 652.449219 1318.085938 649.785156 1318.085938 646.472656 C 1318.085938 643.160156 1320.75 640.496094 1324.0625 640.496094 Z M 1324.0625 640.496094 " transform="matrix(1, 0, 0, -1, 0, 1191)"/>
<path fill="none" stroke-width="1.1367" stroke-linecap="butt" stroke-linejoin="miter" stroke="rgb(11.999512%, 9.999084%, 8.999634%)" stroke-opacity="1" stroke-miterlimit="10" d="M 1324.0625 635.960938 L 1324.0625 656.914062 " transform="matrix(1, 0, 0, -1, 0, 1191)"/>
<path fill="none" stroke-width="1.1367" stroke-linecap="butt" stroke-linejoin="miter" stroke="rgb(11.999512%, 9.999084%, 8.999634%)" stroke-opacity="1" stroke-miterlimit="10" d="M 1334.574219 646.472656 L 1313.621094 646.472656 " transform="matrix(1, 0, 0, -1, 0, 1191)"/>
<path fill="none" stroke-width="1.1367" stroke-linecap="butt" stroke-linejoin="miter" stroke="rgb(11.999512%, 9.999084%, 8.999634%)" stroke-opacity="1" stroke-miterlimit="10" d="M 1180.0625 640.496094 C 1183.375 640.496094 1186.039062 643.160156 1186.039062 646.472656 C 1186.039062 649.785156 1183.375 652.449219 1180.0625 652.449219 C 1176.75 652.449219 1174.085938 649.785156 1174.085938 646.472656 C 1174.085938 643.160156 1176.75 640.496094 1180.0625 640.496094 Z M 1180.0625 640.496094 " transform="matrix(1, 0, 0, -1, 0, 1191)"/>
<path fill="none" stroke-width="1.1367" stroke-linecap="butt" stroke-linejoin="miter" stroke="rgb(11.999512%, 9.999084%, 8.999634%)" stroke-opacity="1" stroke-miterlimit="10" d="M 1180.0625 635.960938 L 1180.0625 656.914062 " transform="matrix(1, 0, 0, -1, 0, 1191)"/>
<path fill="none" stroke-width="1.1367" stroke-linecap="butt" stroke-linejoin="miter" stroke="rgb(11.999512%, 9.999084%, 8.999634%)" stroke-opacity="1" stroke-miterlimit="10" d="M 1190.574219 646.472656 L 1169.550781 646.472656 " transform="matrix(1, 0, 0, -1, 0, 1191)"/>
<path fill="none" stroke-width="1.1367" stroke-linecap="butt" stroke-linejoin="miter" stroke="rgb(11.999512%, 9.999084%, 8.999634%)" stroke-opacity="1" stroke-miterlimit="10" d="M 1324.0625 532.496094 C 1327.375 532.496094 1330.039062 535.160156 1330.039062 538.472656 C 1330.039062 541.785156 1327.375 544.449219 1324.0625 544.449219 C 1320.75 544.449219 1318.085938 541.785156 1318.085938 538.472656 C 1318.085938 535.160156 1320.75 532.496094 1324.0625 532.496094 Z M 1324.0625 532.496094 " transform="matrix(1, 0, 0, -1, 0, 1191)"/>
<path fill="none" stroke-width="1.1367" stroke-linecap="butt" stroke-linejoin="miter" stroke="rgb(11.999512%, 9.999084%, 8.999634%)" stroke-opacity="1" stroke-miterlimit="10" d="M 1370.214844 201.65625 C 1264.949219 343.570312 1098.703125 427.304688 922.015625 427.304688 C 719.839844 427.304688 533.429688 317.863281 434.863281 141.320312 " transform="matrix(1, 0, 0, -1, 0, 1191)"/>
<path fill="none" stroke-width="1.1367" stroke-linecap="butt" stroke-linejoin="miter" stroke="rgb(11.999512%, 9.999084%, 8.999634%)" stroke-opacity="1" stroke-miterlimit="10" d="M 608.527344 511.472656 L 872.046875 511.472656 C 881.984375 511.472656 890.046875 519.535156 890.046875 529.472656 L 890.046875 655.472656 C 890.046875 665.410156 881.984375 673.472656 872.046875 673.472656 L 608.527344 673.472656 " transform="matrix(1, 0, 0, -1, 0, 1191)"/>
<path fill="none" stroke-width="1.1367" stroke-linecap="butt" stroke-linejoin="miter" stroke="rgb(11.999512%, 9.999084%, 8.999634%)" stroke-opacity="1" stroke-miterlimit="10" d="M 181.0625 587.9375 L 1399.632812 587.9375 " transform="matrix(1, 0, 0, -1, 0, 1191)"/>
<path fill="none" stroke-width="1.1367" stroke-linecap="butt" stroke-linejoin="miter" stroke="rgb(11.999512%, 9.999084%, 8.999634%)" stroke-opacity="1" stroke-miterlimit="10" d="M 856.0625 587.9375 C 856.0625 592.90625 860.09375 596.9375 865.0625 596.9375 C 870.03125 596.9375 874.0625 592.90625 874.0625 587.9375 C 874.0625 582.96875 870.03125 578.9375 865.0625 578.9375 C 860.09375 578.9375 856.0625 582.96875 856.0625 587.9375 Z M 856.0625 587.9375 " transform="matrix(1, 0, 0, -1, 0, 1191)"/>
<path fill="none" stroke-width="1.1367" stroke-linecap="butt" stroke-linejoin="miter" stroke="rgb(11.999512%, 9.999084%, 8.999634%)" stroke-opacity="1" stroke-miterlimit="10" d="M 865.0625 601.472656 L 865.0625 574.472656 " transform="matrix(1, 0, 0, -1, 0, 1191)"/>
<path fill="none" stroke-width="1.1367" stroke-linecap="butt" stroke-linejoin="miter" stroke="rgb(11.999512%, 9.999084%, 8.999634%)" stroke-opacity="1" stroke-miterlimit="10" d="M 1337.597656 669.585938 L 1212.679688 671.382812 C 1202.09375 671.527344 1192.375 677.214844 1187.480469 686.578125 C 1180.496094 699.96875 1174.878906 714.082031 1170.773438 728.625 C 1168.109375 738.128906 1166.742188 747.921875 1166.742188 757.785156 C 1166.742188 860.097656 1285.398438 874.136719 1300.949219 876.726562 C 1309.734375 878.242188 1317.871094 882.128906 1324.496094 888.105469 C 1333.925781 896.671875 1339.398438 908.839844 1339.398438 921.585938 C 1339.398438 936.558594 1331.984375 950.527344 1319.597656 958.878906 C 1291.160156 978.175781 1257.535156 988.472656 1223.191406 988.472656 C 1088.261719 988.472656 1030.664062 914.601562 933.464844 914.601562 C 907.613281 914.601562 881.984375 920.144531 858.367188 930.945312 C 825.246094 946.0625 792.128906 961.402344 759.007812 976.738281 C 706.445312 1001.214844 651.65625 1020.65625 595.566406 1034.695312 C 563.167969 1042.832031 529.902344 1046.9375 496.566406 1046.9375 C 483.464844 1046.9375 470.285156 1046.289062 457.253906 1045.0625 C 433.710938 1042.832031 410.597656 1037.578125 388.421875 1029.296875 C 371.070312 1022.816406 354.726562 1013.960938 339.824219 1002.945312 C 306.34375 978.25 278.910156 946.136719 259.6875 909.128906 C 236.71875 864.777344 223.328125 816.03125 220.375 766.136719 C 218.648438 736.542969 217.566406 706.878906 217.351562 677.144531 C 217.207031 655.257812 217.0625 633.296875 217.0625 611.335938 C 217.0625 570.007812 217.421875 528.679688 218.144531 487.28125 C 218.789062 448.6875 222.535156 410.167969 229.304688 372.222656 C 233.839844 346.664062 241.039062 321.609375 250.832031 297.558594 C 265.734375 261.054688 287.984375 228.082031 316.136719 200.578125 C 331.109375 185.960938 348.03125 173.648438 366.464844 163.855469 C 402.320312 144.777344 442.0625 134.410156 482.597656 133.542969 C 485.40625 133.472656 488.285156 133.472656 491.09375 133.472656 C 507.296875 133.472656 523.496094 134.550781 539.550781 136.710938 C 590.527344 143.550781 640.855469 155 689.816406 170.839844 C 745.328125 188.839844 799.757812 210.152344 852.824219 234.558594 C 870.390625 242.695312 888.246094 250.039062 906.390625 256.738281 C 933.894531 266.960938 963.054688 272.144531 992.359375 272.144531 C 1097.910156 272.144531 1190.144531 196.472656 1351.0625 196.472656 C 1454.597656 196.472656 1522.351562 237.082031 1522.351562 286.6875 C 1522.351562 309.296875 1502.621094 328.738281 1469.285156 328.738281 C 1295.621094 328.738281 1295.480469 444.871094 1295.480469 456.609375 C 1295.480469 505.28125 1335.078125 515.503906 1339.902344 516.945312 C 1346.527344 519.03125 1351.0625 525.152344 1351.0625 532.207031 L 1351.0625 655.90625 C 1351.0625 663.464844 1345.015625 669.585938 1337.597656 669.585938 Z M 1337.597656 669.585938 " transform="matrix(1, 0, 0, -1, 0, 1191)"/>
<path fill-rule="evenodd" fill="rgb(11.999512%, 9.999084%, 8.999634%)" fill-opacity="1" d="M 839.886719 996.65625 L 839.886719 979.476562 L 846.367188 979.476562 C 847.507812 979.476562 848.378906 979.53125 848.980469 979.640625 C 849.824219 979.78125 850.53125 980.046875 851.101562 980.445312 C 851.671875 980.835938 852.128906 981.394531 852.480469 982.101562 C 852.828125 982.8125 853 983.59375 853 984.445312 C 853 985.90625 852.535156 987.144531 851.605469 988.15625 C 850.675781 989.164062 848.996094 989.671875 846.566406 989.671875 L 842.160156 989.671875 L 842.160156 996.65625 Z M 842.160156 987.644531 L 846.601562 987.644531 C 848.070312 987.644531 849.113281 987.371094 849.730469 986.824219 C 850.347656 986.277344 850.65625 985.507812 850.65625 984.515625 C 850.65625 983.796875 850.476562 983.179688 850.109375 982.667969 C 849.746094 982.15625 849.269531 981.820312 848.675781 981.65625 C 848.289062 981.554688 847.585938 981.503906 846.554688 981.503906 L 842.160156 981.503906 Z M 855.578125 996.65625 L 855.578125 979.476562 L 857.6875 979.476562 L 857.6875 996.65625 Z M 869.078125 995.121094 C 868.292969 995.785156 867.542969 996.253906 866.824219 996.527344 C 866.097656 996.800781 865.324219 996.9375 864.496094 996.9375 C 863.125 996.9375 862.078125 996.605469 861.34375 995.9375 C 860.609375 995.269531 860.242188 994.414062 860.242188 993.375 C 860.242188 992.765625 860.378906 992.207031 860.660156 991.703125 C 860.933594 991.199219 861.296875 990.796875 861.746094 990.492188 C 862.199219 990.1875 862.703125 989.957031 863.265625 989.800781 C 863.679688 989.691406 864.300781 989.585938 865.140625 989.484375 C 866.84375 989.28125 868.097656 989.039062 868.902344 988.757812 C 868.910156 988.46875 868.914062 988.285156 868.914062 988.207031 C 868.914062 987.347656 868.714844 986.742188 868.316406 986.394531 C 867.777344 985.914062 866.976562 985.675781 865.914062 985.675781 C 864.921875 985.675781 864.191406 985.847656 863.714844 986.195312 C 863.242188 986.542969 862.894531 987.160156 862.667969 988.042969 L 860.605469 987.761719 C 860.792969 986.878906 861.101562 986.164062 861.53125 985.625 C 861.957031 985.082031 862.582031 984.660156 863.394531 984.367188 C 864.207031 984.078125 865.148438 983.929688 866.21875 983.929688 C 867.28125 983.929688 868.144531 984.058594 868.808594 984.304688 C 869.472656 984.558594 869.957031 984.867188 870.273438 985.25 C 870.585938 985.628906 870.804688 986.105469 870.929688 986.683594 C 871 987.042969 871.035156 987.691406 871.035156 988.628906 L 871.035156 991.441406 C 871.035156 993.40625 871.078125 994.644531 871.171875 995.160156 C 871.257812 995.679688 871.4375 996.179688 871.703125 996.65625 L 869.5 996.65625 C 869.28125 996.21875 869.136719 995.707031 869.078125 995.121094 Z M 868.902344 990.410156 C 868.132812 990.722656 866.988281 990.988281 865.457031 991.207031 C 864.589844 991.332031 863.976562 991.472656 863.617188 991.628906 C 863.257812 991.785156 862.980469 992.011719 862.785156 992.316406 C 862.589844 992.617188 862.492188 992.949219 862.492188 993.316406 C 862.492188 993.878906 862.707031 994.347656 863.128906 994.722656 C 863.554688 995.097656 864.179688 995.285156 865 995.285156 C 865.8125 995.285156 866.535156 995.109375 867.167969 994.753906 C 867.796875 994.398438 868.265625 993.910156 868.5625 993.292969 C 868.789062 992.816406 868.902344 992.113281 868.902344 991.183594 Z M 874.308594 996.65625 L 874.308594 984.210938 L 876.203125 984.210938 L 876.203125 985.980469 C 877.117188 984.613281 878.4375 983.929688 880.164062 983.929688 C 880.914062 983.929688 881.601562 984.066406 882.230469 984.332031 C 882.863281 984.605469 883.332031 984.957031 883.644531 985.398438 C 883.957031 985.832031 884.175781 986.351562 884.304688 986.953125 C 884.378906 987.34375 884.417969 988.027344 884.417969 989.003906 L 884.417969 996.65625 L 882.308594 996.65625 L 882.308594 989.085938 C 882.308594 988.230469 882.226562 987.585938 882.0625 987.15625 C 881.898438 986.734375 881.605469 986.394531 881.191406 986.140625 C 880.769531 985.886719 880.28125 985.757812 879.71875 985.757812 C 878.820312 985.757812 878.046875 986.042969 877.390625 986.613281 C 876.738281 987.183594 876.414062 988.265625 876.414062 989.859375 L 876.414062 996.65625 Z M 902.394531 996.65625 L 902.394531 995.085938 C 901.605469 996.320312 900.445312 996.9375 898.914062 996.9375 C 897.921875 996.9375 897.011719 996.664062 896.179688 996.117188 C 895.347656 995.574219 894.703125 994.808594 894.242188 993.824219 C 893.785156 992.84375 893.558594 991.71875 893.558594 990.445312 C 893.558594 989.203125 893.765625 988.078125 894.179688 987.066406 C 894.59375 986.050781 895.214844 985.277344 896.042969 984.742188 C 896.871094 984.199219 897.800781 983.929688 898.824219 983.929688 C 899.570312 983.929688 900.238281 984.089844 900.824219 984.40625 C 901.410156 984.71875 901.886719 985.132812 902.253906 985.640625 L 902.253906 979.476562 L 904.351562 979.476562 L 904.351562 996.65625 Z M 895.726562 990.445312 C 895.726562 992.039062 896.0625 993.234375 896.734375 994.019531 C 897.40625 994.808594 898.199219 995.203125 899.113281 995.203125 C 900.035156 995.203125 900.820312 994.824219 901.460938 994.074219 C 902.105469 993.320312 902.429688 992.167969 902.429688 990.621094 C 902.429688 988.917969 902.101562 987.667969 901.445312 986.871094 C 900.789062 986.074219 899.984375 985.675781 899.019531 985.675781 C 898.082031 985.675781 897.300781 986.0625 896.671875 986.824219 C 896.042969 987.589844 895.726562 988.796875 895.726562 990.445312 Z M 906.882812 990.433594 C 906.882812 988.128906 907.523438 986.421875 908.808594 985.3125 C 909.875 984.394531 911.179688 983.929688 912.71875 983.929688 C 914.429688 983.929688 915.832031 984.488281 916.914062 985.613281 C 918.003906 986.734375 918.542969 988.28125 918.542969 990.257812 C 918.542969 991.859375 918.304688 993.121094 917.824219 994.035156 C 917.34375 994.957031 916.644531 995.667969 915.726562 996.175781 C 914.808594 996.683594 913.808594 996.9375 912.71875 996.9375 C 910.980469 996.9375 909.570312 996.378906 908.496094 995.261719 C 907.417969 994.144531 906.882812 992.535156 906.882812 990.433594 Z M 909.050781 990.433594 C 909.050781 992.027344 909.398438 993.222656 910.09375 994.011719 C 910.789062 994.808594 911.667969 995.203125 912.71875 995.203125 C 913.765625 995.203125 914.640625 994.804688 915.335938 994.007812 C 916.027344 993.210938 916.375 991.996094 916.375 990.363281 C 916.375 988.824219 916.027344 987.65625 915.328125 986.863281 C 914.625 986.074219 913.757812 985.675781 912.71875 985.675781 C 911.667969 985.675781 910.789062 986.074219 910.09375 986.859375 C 909.398438 987.648438 909.050781 988.839844 909.050781 990.433594 Z M 935.84375 996.65625 L 935.84375 994.828125 C 934.871094 996.238281 933.554688 996.9375 931.890625 996.9375 C 931.160156 996.9375 930.46875 996.796875 929.835938 996.515625 C 929.199219 996.238281 928.726562 995.878906 928.417969 995.457031 C 928.105469 995.027344 927.890625 994.507812 927.765625 993.894531 C 927.683594 993.476562 927.640625 992.820312 927.640625 991.921875 L 927.640625 984.210938 L 929.746094 984.210938 L 929.746094 991.113281 C 929.746094 992.21875 929.789062 992.957031 929.875 993.339844 C 930.011719 993.898438 930.289062 994.328125 930.71875 994.648438 C 931.152344 994.964844 931.683594 995.121094 932.316406 995.121094 C 932.945312 995.121094 933.539062 994.960938 934.09375 994.636719 C 934.652344 994.3125 935.042969 993.867188 935.269531 993.3125 C 935.503906 992.753906 935.617188 991.941406 935.617188 990.878906 L 935.617188 984.210938 L 937.726562 984.210938 L 937.726562 996.65625 Z M 939.917969 996.65625 L 939.917969 994.945312 L 947.84375 985.851562 C 946.941406 985.902344 946.152344 985.921875 945.464844 985.921875 L 940.386719 985.921875 L 940.386719 984.210938 L 950.558594 984.210938 L 950.558594 985.605469 L 943.824219 993.503906 L 942.523438 994.945312 C 943.46875 994.875 944.355469 994.839844 945.183594 994.839844 L 950.933594 994.839844 L 950.933594 996.65625 Z M 944.113281 982.664062 L 944.113281 980.039062 L 946.726562 980.039062 L 946.726562 982.664062 Z M 952.9375 1001.449219 L 952.703125 999.46875 C 953.167969 999.59375 953.566406 999.65625 953.910156 999.65625 C 954.378906 999.65625 954.753906 999.578125 955.035156 999.421875 C 955.320312 999.265625 955.546875 999.046875 955.726562 998.765625 C 955.863281 998.558594 956.074219 998.03125 956.371094 997.195312 C 956.410156 997.078125 956.476562 996.910156 956.558594 996.679688 L 951.839844 984.210938 L 954.109375 984.210938 L 956.703125 991.417969 C 957.035156 992.332031 957.339844 993.292969 957.601562 994.300781 C 957.847656 993.332031 958.136719 992.386719 958.472656 991.464844 L 961.132812 984.210938 L 963.238281 984.210938 L 958.507812 996.867188 C 958 998.238281 957.601562 999.175781 957.324219 999.691406 C 956.945312 1000.390625 956.519531 1000.898438 956.035156 1001.222656 C 955.546875 1001.542969 954.972656 1001.707031 954.300781 1001.707031 C 953.890625 1001.707031 953.4375 1001.621094 952.9375 1001.449219 Z M 969.640625 994.769531 L 969.941406 996.632812 C 969.351562 996.757812 968.820312 996.820312 968.351562 996.820312 C 967.582031 996.820312 966.992188 996.699219 966.566406 996.457031 C 966.148438 996.21875 965.851562 995.898438 965.679688 995.5 C 965.507812 995.109375 965.417969 994.277344 965.417969 993.011719 L 965.417969 985.851562 L 963.871094 985.851562 L 963.871094 984.210938 L 965.417969 984.210938 L 965.417969 981.128906 L 967.519531 979.863281 L 967.519531 984.210938 L 969.640625 984.210938 L 969.640625 985.851562 L 967.519531 985.851562 L 967.519531 993.128906 C 967.519531 993.734375 967.554688 994.117188 967.628906 994.289062 C 967.703125 994.460938 967.824219 994.597656 967.992188 994.699219 C 968.160156 994.800781 968.398438 994.851562 968.710938 994.851562 C 968.949219 994.851562 969.253906 994.824219 969.640625 994.769531 Z M 971.710938 996.65625 L 971.710938 979.476562 L 973.824219 979.476562 L 973.824219 989.273438 L 978.816406 984.210938 L 981.542969 984.210938 L 976.785156 988.828125 L 982.027344 996.65625 L 979.421875 996.65625 L 975.3125 990.292969 L 973.824219 991.726562 L 973.824219 996.65625 Z M 991.859375 996.65625 L 991.859375 994.828125 C 990.886719 996.238281 989.570312 996.9375 987.90625 996.9375 C 987.175781 996.9375 986.488281 996.796875 985.851562 996.515625 C 985.214844 996.238281 984.742188 995.878906 984.433594 995.457031 C 984.125 995.027344 983.90625 994.507812 983.785156 993.894531 C 983.699219 993.476562 983.65625 992.820312 983.65625 991.921875 L 983.65625 984.210938 L 985.761719 984.210938 L 985.761719 991.113281 C 985.761719 992.21875 985.808594 992.957031 985.890625 993.339844 C 986.027344 993.898438 986.308594 994.328125 986.734375 994.648438 C 987.167969 994.964844 987.699219 995.121094 988.332031 995.121094 C 988.964844 995.121094 989.554688 994.960938 990.113281 994.636719 C 990.667969 994.3125 991.058594 993.867188 991.289062 993.3125 C 991.519531 992.753906 991.636719 991.941406 991.636719 990.878906 L 991.636719 984.210938 L 993.742188 984.210938 L 993.742188 996.65625 Z M 1003.71875 996.65625 L 1003.71875 984.210938 L 1005.617188 984.210938 L 1005.617188 985.980469 C 1006.53125 984.613281 1007.851562 983.929688 1009.574219 983.929688 C 1010.328125 983.929688 1011.015625 984.066406 1011.644531 984.332031 C 1012.277344 984.605469 1012.742188 984.957031 1013.054688 985.398438 C 1013.371094 985.832031 1013.585938 986.351562 1013.714844 986.953125 C 1013.792969 987.34375 1013.832031 988.027344 1013.832031 989.003906 L 1013.832031 996.65625 L 1011.71875 996.65625 L 1011.71875 989.085938 C 1011.71875 988.230469 1011.640625 987.585938 1011.476562 987.15625 C 1011.3125 986.734375 1011.019531 986.394531 1010.601562 986.140625 C 1010.183594 985.886719 1009.695312 985.757812 1009.132812 985.757812 C 1008.230469 985.757812 1007.460938 986.042969 1006.804688 986.613281 C 1006.152344 987.183594 1005.828125 988.265625 1005.828125 989.859375 L 1005.828125 996.65625 Z M 1017.074219 981.90625 L 1017.074219 979.476562 L 1019.1875 979.476562 L 1019.1875 981.90625 Z M 1017.074219 996.65625 L 1017.074219 984.210938 L 1019.1875 984.210938 L 1019.1875 996.65625 Z M 1030.914062 992.648438 L 1033.09375 992.917969 C 1032.75 994.191406 1032.117188 995.179688 1031.1875 995.886719 C 1030.253906 996.585938 1029.066406 996.9375 1027.625 996.9375 C 1025.804688 996.9375 1024.359375 996.375 1023.296875 995.257812 C 1022.226562 994.136719 1021.695312 992.566406 1021.695312 990.539062 C 1021.695312 988.445312 1022.234375 986.820312 1023.3125 985.664062 C 1024.390625 984.507812 1025.789062 983.929688 1027.507812 983.929688 C 1029.171875 983.929688 1030.53125 984.496094 1031.582031 985.628906 C 1032.640625 986.761719 1033.167969 988.355469 1033.167969 990.410156 C 1033.167969 990.535156 1033.164062 990.722656 1033.15625 990.972656 L 1023.875 990.972656 C 1023.953125 992.339844 1024.339844 993.386719 1025.035156 994.113281 C 1025.730469 994.839844 1026.59375 995.203125 1027.636719 995.203125 C 1028.40625 995.203125 1029.066406 995 1029.617188 994.59375 C 1030.164062 994.1875 1030.59375 993.539062 1030.914062 992.648438 Z M 1023.992188 989.238281 L 1030.9375 989.238281 C 1030.847656 988.191406 1030.578125 987.40625 1030.144531 986.882812 C 1029.472656 986.074219 1028.597656 985.664062 1027.53125 985.664062 C 1026.5625 985.664062 1025.746094 985.988281 1025.085938 986.636719 C 1024.425781 987.285156 1024.0625 988.152344 1023.992188 989.238281 Z M 1035.753906 996.65625 L 1035.753906 979.476562 L 1037.867188 979.476562 L 1037.867188 989.273438 L 1042.859375 984.210938 L 1045.585938 984.210938 L 1040.832031 988.828125 L 1046.070312 996.65625 L 1043.46875 996.65625 L 1039.355469 990.292969 L 1037.867188 991.726562 L 1037.867188 996.65625 Z M 1046.960938 990.433594 C 1046.960938 988.128906 1047.601562 986.421875 1048.882812 985.3125 C 1049.953125 984.394531 1051.253906 983.929688 1052.796875 983.929688 C 1054.507812 983.929688 1055.90625 984.488281 1056.992188 985.613281 C 1058.078125 986.734375 1058.621094 988.28125 1058.621094 990.257812 C 1058.621094 991.859375 1058.378906 993.121094 1057.898438 994.035156 C 1057.417969 994.957031 1056.71875 995.667969 1055.804688 996.175781 C 1054.882812 996.683594 1053.882812 996.9375 1052.796875 996.9375 C 1051.054688 996.9375 1049.648438 996.378906 1048.570312 995.261719 C 1047.496094 994.144531 1046.960938 992.535156 1046.960938 990.433594 Z M 1049.128906 990.433594 C 1049.128906 992.027344 1049.476562 993.222656 1050.171875 994.011719 C 1050.867188 994.808594 1051.742188 995.203125 1052.796875 995.203125 C 1053.84375 995.203125 1054.714844 994.804688 1055.410156 994.007812 C 1056.105469 993.210938 1056.453125 991.996094 1056.453125 990.363281 C 1056.453125 988.824219 1056.105469 987.65625 1055.402344 986.863281 C 1054.703125 986.074219 1053.835938 985.675781 1052.796875 985.675781 C 1051.742188 985.675781 1050.867188 986.074219 1050.171875 986.859375 C 1049.476562 987.648438 1049.128906 988.839844 1049.128906 990.433594 Z M 1061.09375 996.65625 L 1061.09375 984.210938 L 1062.980469 984.210938 L 1062.980469 985.957031 C 1063.371094 985.347656 1063.890625 984.855469 1064.539062 984.488281 C 1065.1875 984.117188 1065.925781 983.929688 1066.753906 983.929688 C 1067.675781 983.929688 1068.433594 984.121094 1069.019531 984.503906 C 1069.613281 984.890625 1070.027344 985.421875 1070.269531 986.109375 C 1071.253906 984.65625 1072.535156 983.929688 1074.113281 983.929688 C 1075.347656 983.929688 1076.296875 984.273438 1076.960938 984.957031 C 1077.625 985.640625 1077.957031 986.691406 1077.957031 988.113281 L 1077.957031 996.65625 L 1075.859375 996.65625 L 1075.859375 988.816406 C 1075.859375 987.972656 1075.792969 987.363281 1075.65625 986.992188 C 1075.515625 986.625 1075.269531 986.324219 1074.910156 986.097656 C 1074.550781 985.871094 1074.128906 985.757812 1073.644531 985.757812 C 1072.769531 985.757812 1072.042969 986.046875 1071.464844 986.632812 C 1070.886719 987.210938 1070.597656 988.144531 1070.597656 989.425781 L 1070.597656 996.65625 L 1068.488281 996.65625 L 1068.488281 988.574219 C 1068.488281 987.632812 1068.316406 986.929688 1067.972656 986.460938 C 1067.628906 985.992188 1067.066406 985.757812 1066.285156 985.757812 C 1065.691406 985.757812 1065.144531 985.914062 1064.640625 986.230469 C 1064.136719 986.539062 1063.769531 986.996094 1063.542969 987.597656 C 1063.316406 988.199219 1063.203125 989.070312 1063.203125 990.199219 L 1063.203125 996.65625 Z M 1089.605469 992.648438 L 1091.785156 992.917969 C 1091.441406 994.191406 1090.804688 995.179688 1089.875 995.886719 C 1088.945312 996.585938 1087.757812 996.9375 1086.3125 996.9375 C 1084.492188 996.9375 1083.046875 996.375 1081.984375 995.257812 C 1080.914062 994.136719 1080.382812 992.566406 1080.382812 990.539062 C 1080.382812 988.445312 1080.921875 986.820312 1082 985.664062 C 1083.078125 984.507812 1084.476562 983.929688 1086.195312 983.929688 C 1087.859375 983.929688 1089.21875 984.496094 1090.273438 985.628906 C 1091.328125 986.761719 1091.855469 988.355469 1091.855469 990.410156 C 1091.855469 990.535156 1091.851562 990.722656 1091.84375 990.972656 L 1082.5625 990.972656 C 1082.640625 992.339844 1083.027344 993.386719 1083.722656 994.113281 C 1084.421875 994.839844 1085.285156 995.203125 1086.324219 995.203125 C 1087.097656 995.203125 1087.757812 995 1088.304688 994.59375 C 1088.851562 994.1875 1089.285156 993.539062 1089.605469 992.648438 Z M 1082.679688 989.238281 L 1089.628906 989.238281 C 1089.535156 988.191406 1089.269531 987.40625 1088.832031 986.882812 C 1088.160156 986.074219 1087.289062 985.664062 1086.21875 985.664062 C 1085.253906 985.664062 1084.4375 985.988281 1083.777344 986.636719 C 1083.117188 987.285156 1082.75 988.152344 1082.679688 989.238281 Z M 1094.410156 996.65625 L 1094.410156 984.210938 L 1096.308594 984.210938 L 1096.308594 986.097656 C 1096.792969 985.214844 1097.238281 984.632812 1097.652344 984.351562 C 1098.058594 984.074219 1098.511719 983.929688 1099.003906 983.929688 C 1099.714844 983.929688 1100.4375 984.15625 1101.171875 984.609375 L 1100.445312 986.570312 C 1099.933594 986.261719 1099.414062 986.109375 1098.898438 986.109375 C 1098.4375 986.109375 1098.023438 986.25 1097.65625 986.523438 C 1097.289062 986.804688 1097.027344 987.1875 1096.871094 987.679688 C 1096.636719 988.429688 1096.519531 989.25 1096.519531 990.140625 L 1096.519531 996.65625 Z M 1110.546875 992.097656 L 1112.621094 992.367188 C 1112.394531 993.796875 1111.816406 994.917969 1110.878906 995.726562 C 1109.949219 996.53125 1108.800781 996.9375 1107.441406 996.9375 C 1105.738281 996.9375 1104.367188 996.378906 1103.335938 995.269531 C 1102.300781 994.15625 1101.78125 992.5625 1101.78125 990.480469 C 1101.78125 989.136719 1102.003906 987.960938 1102.449219 986.953125 C 1102.894531 985.945312 1103.570312 985.1875 1104.484375 984.683594 C 1105.390625 984.179688 1106.382812 983.929688 1107.453125 983.929688 C 1108.804688 983.929688 1109.910156 984.273438 1110.769531 984.957031 C 1111.628906 985.640625 1112.179688 986.609375 1112.425781 987.867188 L 1110.371094 988.183594 C 1110.175781 987.347656 1109.832031 986.71875 1109.335938 986.296875 C 1108.839844 985.875 1108.238281 985.664062 1107.535156 985.664062 C 1106.472656 985.664062 1105.609375 986.042969 1104.945312 986.808594 C 1104.28125 987.570312 1103.949219 988.773438 1103.949219 990.421875 C 1103.949219 992.09375 1104.269531 993.308594 1104.910156 994.070312 C 1105.550781 994.824219 1106.386719 995.203125 1107.421875 995.203125 C 1108.25 995.203125 1108.9375 994.949219 1109.492188 994.441406 C 1110.046875 993.933594 1110.398438 993.152344 1110.546875 992.097656 Z M 1114.332031 1001.449219 L 1114.097656 999.46875 C 1114.558594 999.59375 1114.960938 999.65625 1115.304688 999.65625 C 1115.773438 999.65625 1116.148438 999.578125 1116.429688 999.421875 C 1116.710938 999.265625 1116.941406 999.046875 1117.121094 998.765625 C 1117.257812 998.558594 1117.46875 998.03125 1117.765625 997.195312 C 1117.804688 997.078125 1117.867188 996.910156 1117.953125 996.679688 L 1113.230469 984.210938 L 1115.503906 984.210938 L 1118.097656 991.417969 C 1118.429688 992.332031 1118.730469 993.292969 1118.996094 994.300781 C 1119.242188 993.332031 1119.527344 992.386719 1119.863281 991.464844 L 1122.523438 984.210938 L 1124.632812 984.210938 L 1119.898438 996.867188 C 1119.390625 998.238281 1118.996094 999.175781 1118.714844 999.691406 C 1118.339844 1000.390625 1117.914062 1000.898438 1117.429688 1001.222656 C 1116.941406 1001.542969 1116.363281 1001.707031 1115.691406 1001.707031 C 1115.285156 1001.707031 1114.832031 1001.621094 1114.332031 1001.449219 Z M 1126.417969 981.925781 L 1126.417969 979.476562 L 1128.523438 979.476562 L 1128.523438 981.925781 Z M 1123.746094 1001.484375 L 1124.140625 999.691406 C 1124.5625 999.800781 1124.894531 999.855469 1125.136719 999.855469 C 1125.566406 999.855469 1125.886719 999.710938 1126.097656 999.429688 C 1126.308594 999.144531 1126.417969 998.429688 1126.417969 997.289062 L 1126.417969 984.210938 L 1128.523438 984.210938 L 1128.523438 997.335938 C 1128.523438 998.867188 1128.324219 999.933594 1127.929688 1000.535156 C 1127.421875 1001.316406 1126.578125 1001.707031 1125.394531 1001.707031 C 1124.824219 1001.707031 1124.273438 1001.632812 1123.746094 1001.484375 Z M 1131.761719 996.65625 L 1131.761719 984.210938 L 1133.65625 984.210938 L 1133.65625 985.980469 C 1134.574219 984.613281 1135.890625 983.929688 1137.617188 983.929688 C 1138.367188 983.929688 1139.054688 984.066406 1139.683594 984.332031 C 1140.316406 984.605469 1140.785156 984.957031 1141.097656 985.398438 C 1141.414062 985.832031 1141.628906 986.351562 1141.757812 986.953125 C 1141.832031 987.34375 1141.871094 988.027344 1141.871094 989.003906 L 1141.871094 996.65625 L 1139.761719 996.65625 L 1139.761719 989.085938 C 1139.761719 988.230469 1139.679688 987.585938 1139.515625 987.15625 C 1139.351562 986.734375 1139.058594 986.394531 1138.644531 986.140625 C 1138.222656 985.886719 1137.734375 985.757812 1137.171875 985.757812 C 1136.273438 985.757812 1135.5 986.042969 1134.84375 986.613281 C 1134.191406 987.183594 1133.867188 988.265625 1133.867188 989.859375 L 1133.867188 996.65625 Z M 1153.625 992.648438 L 1155.804688 992.917969 C 1155.460938 994.191406 1154.824219 995.179688 1153.894531 995.886719 C 1152.964844 996.585938 1151.777344 996.9375 1150.332031 996.9375 C 1148.511719 996.9375 1147.066406 996.375 1146.003906 995.257812 C 1144.9375 994.136719 1144.40625 992.566406 1144.40625 990.539062 C 1144.40625 988.445312 1144.945312 986.820312 1146.019531 985.664062 C 1147.101562 984.507812 1148.496094 983.929688 1150.214844 983.929688 C 1151.878906 983.929688 1153.242188 984.496094 1154.292969 985.628906 C 1155.347656 986.761719 1155.875 988.355469 1155.875 990.410156 C 1155.875 990.535156 1155.871094 990.722656 1155.863281 990.972656 L 1146.585938 990.972656 C 1146.660156 992.339844 1147.046875 993.386719 1147.746094 994.113281 C 1148.441406 994.839844 1149.304688 995.203125 1150.34375 995.203125 C 1151.117188 995.203125 1151.777344 995 1152.324219 994.59375 C 1152.871094 994.1875 1153.304688 993.539062 1153.625 992.648438 Z M 1146.699219 989.238281 L 1153.648438 989.238281 C 1153.554688 988.191406 1153.289062 987.40625 1152.851562 986.882812 C 1152.179688 986.074219 1151.308594 985.664062 1150.242188 985.664062 C 1149.273438 985.664062 1148.457031 985.988281 1147.796875 986.636719 C 1147.136719 987.285156 1146.773438 988.152344 1146.699219 989.238281 Z M 1158.070312 997.6875 L 1160.121094 997.992188 C 1160.203125 998.625 1160.445312 999.085938 1160.832031 999.375 C 1161.355469 999.765625 1162.074219 999.960938 1162.976562 999.960938 C 1163.957031 999.960938 1164.707031 999.765625 1165.242188 999.375 C 1165.773438 998.984375 1166.128906 998.4375 1166.316406 997.738281 C 1166.429688 997.304688 1166.476562 996.40625 1166.46875 995.027344 C 1165.546875 996.113281 1164.402344 996.65625 1163.023438 996.65625 C 1161.3125 996.65625 1159.988281 996.039062 1159.050781 994.804688 C 1158.117188 993.574219 1157.644531 992.089844 1157.644531 990.363281 C 1157.644531 989.175781 1157.859375 988.082031 1158.289062 987.078125 C 1158.71875 986.074219 1159.34375 985.296875 1160.160156 984.75 C 1160.976562 984.203125 1161.9375 983.929688 1163.035156 983.929688 C 1164.503906 983.929688 1165.714844 984.523438 1166.667969 985.710938 L 1166.667969 984.210938 L 1168.617188 984.210938 L 1168.617188 994.96875 C 1168.617188 996.90625 1168.417969 998.28125 1168.023438 999.089844 C 1167.628906 999.898438 1167.003906 1000.535156 1166.148438 1001.003906 C 1165.292969 1001.472656 1164.242188 1001.707031 1162.988281 1001.707031 C 1161.503906 1001.707031 1160.304688 1001.371094 1159.390625 1000.703125 C 1158.476562 1000.035156 1158.035156 999.03125 1158.070312 997.6875 Z M 1159.8125 990.210938 C 1159.8125 991.84375 1160.136719 993.035156 1160.789062 993.785156 C 1161.4375 994.535156 1162.25 994.910156 1163.222656 994.910156 C 1164.191406 994.910156 1165.003906 994.535156 1165.660156 993.792969 C 1166.316406 993.042969 1166.644531 991.875 1166.644531 990.28125 C 1166.644531 988.757812 1166.308594 987.609375 1165.632812 986.835938 C 1164.957031 986.066406 1164.140625 985.675781 1163.1875 985.675781 C 1162.253906 985.675781 1161.457031 986.054688 1160.796875 986.820312 C 1160.140625 987.582031 1159.8125 988.710938 1159.8125 990.210938 Z M 1171.015625 990.433594 C 1171.015625 988.128906 1171.65625 986.421875 1172.941406 985.3125 C 1174.007812 984.394531 1175.3125 983.929688 1176.851562 983.929688 C 1178.566406 983.929688 1179.964844 984.488281 1181.046875 985.613281 C 1182.136719 986.734375 1182.675781 988.28125 1182.675781 990.257812 C 1182.675781 991.859375 1182.4375 993.121094 1181.957031 994.035156 C 1181.476562 994.957031 1180.777344 995.667969 1179.859375 996.175781 C 1178.941406 996.683594 1177.941406 996.9375 1176.851562 996.9375 C 1175.113281 996.9375 1173.703125 996.378906 1172.628906 995.261719 C 1171.550781 994.144531 1171.015625 992.535156 1171.015625 990.433594 Z M 1173.183594 990.433594 C 1173.183594 992.027344 1173.53125 993.222656 1174.226562 994.011719 C 1174.925781 994.808594 1175.800781 995.203125 1176.851562 995.203125 C 1177.902344 995.203125 1178.773438 994.804688 1179.46875 994.007812 C 1180.160156 993.210938 1180.507812 991.996094 1180.507812 990.363281 C 1180.507812 988.824219 1180.160156 987.65625 1179.460938 986.863281 C 1178.761719 986.074219 1177.890625 985.675781 1176.851562 985.675781 C 1175.800781 985.675781 1174.925781 986.074219 1174.226562 986.859375 C 1173.53125 987.648438 1173.183594 988.839844 1173.183594 990.433594 Z M 1185.75 996.65625 L 1185.75 994.253906 L 1188.152344 994.253906 L 1188.152344 996.65625 Z M 842.886719 1023.46875 L 838.328125 1006.289062 L 840.660156 1006.289062 L 843.273438 1017.546875 C 843.554688 1018.730469 843.792969 1019.902344 844 1021.066406 C 844.4375 1019.230469 844.695312 1018.171875 844.773438 1017.890625 L 848.042969 1006.289062 L 850.785156 1006.289062 L 853.246094 1014.984375 C 853.863281 1017.140625 854.304688 1019.167969 854.582031 1021.066406 C 854.796875 1019.980469 855.085938 1018.734375 855.4375 1017.328125 L 858.132812 1006.289062 L 860.417969 1006.289062 L 855.707031 1023.46875 L 853.515625 1023.46875 L 849.894531 1010.378906 C 849.589844 1009.285156 849.410156 1008.613281 849.355469 1008.363281 C 849.175781 1009.152344 849.007812 1009.824219 848.851562 1010.378906 L 845.207031 1023.46875 Z M 861.960938 1028.261719 L 861.726562 1026.28125 C 862.191406 1026.40625 862.589844 1026.46875 862.933594 1026.46875 C 863.402344 1026.46875 863.777344 1026.390625 864.058594 1026.234375 C 864.34375 1026.078125 864.570312 1025.859375 864.75 1025.578125 C 864.886719 1025.367188 865.097656 1024.84375 865.394531 1024.007812 C 865.433594 1023.890625 865.5 1023.722656 865.582031 1023.492188 L 860.863281 1011.023438 L 863.136719 1011.023438 L 865.726562 1018.230469 C 866.058594 1019.144531 866.363281 1020.105469 866.625 1021.113281 C 866.871094 1020.144531 867.160156 1019.199219 867.496094 1018.277344 L 870.15625 1011.023438 L 872.261719 1011.023438 L 867.53125 1023.679688 C 867.023438 1025.046875 866.625 1025.988281 866.347656 1026.503906 C 865.972656 1027.199219 865.542969 1027.707031 865.058594 1028.03125 C 864.570312 1028.355469 863.996094 1028.519531 863.324219 1028.519531 C 862.914062 1028.519531 862.460938 1028.433594 861.960938 1028.261719 Z M 874.066406 1023.46875 L 874.066406 1006.289062 L 876.179688 1006.289062 L 876.179688 1016.085938 L 881.171875 1011.023438 L 883.898438 1011.023438 L 879.144531 1015.640625 L 884.382812 1023.46875 L 881.777344 1023.46875 L 877.667969 1017.105469 L 876.179688 1018.535156 L 876.179688 1023.46875 Z M 885.269531 1017.246094 C 885.269531 1014.941406 885.910156 1013.234375 887.195312 1012.125 C 888.261719 1011.203125 889.566406 1010.742188 891.105469 1010.742188 C 892.820312 1010.742188 894.21875 1011.300781 895.304688 1012.425781 C 896.390625 1013.542969 896.929688 1015.09375 896.929688 1017.070312 C 896.929688 1018.671875 896.691406 1019.933594 896.210938 1020.847656 C 895.730469 1021.769531 895.03125 1022.480469 894.117188 1022.988281 C 893.195312 1023.496094 892.195312 1023.75 891.105469 1023.75 C 889.367188 1023.75 887.960938 1023.191406 886.882812 1022.074219 C 885.808594 1020.957031 885.269531 1019.347656 885.269531 1017.246094 Z M 887.4375 1017.246094 C 887.4375 1018.839844 887.789062 1020.03125 888.484375 1020.824219 C 889.179688 1021.621094 890.054688 1022.015625 891.105469 1022.015625 C 892.15625 1022.015625 893.027344 1021.617188 893.722656 1020.820312 C 894.414062 1020.023438 894.761719 1018.808594 894.761719 1017.175781 C 894.761719 1015.636719 894.414062 1014.46875 893.714844 1013.675781 C 893.015625 1012.886719 892.148438 1012.488281 891.105469 1012.488281 C 890.054688 1012.488281 889.179688 1012.886719 888.484375 1013.671875 C 887.789062 1014.460938 887.4375 1015.652344 887.4375 1017.246094 Z M 899.382812 1023.46875 L 899.382812 1011.023438 L 901.28125 1011.023438 L 901.28125 1012.910156 C 901.761719 1012.027344 902.210938 1011.445312 902.625 1011.164062 C 903.03125 1010.882812 903.484375 1010.742188 903.976562 1010.742188 C 904.6875 1010.742188 905.40625 1010.96875 906.144531 1011.421875 L 905.414062 1013.378906 C 904.902344 1013.074219 904.386719 1012.921875 903.871094 1012.921875 C 903.40625 1012.921875 902.996094 1013.0625 902.628906 1013.335938 C 902.257812 1013.617188 902 1014 901.84375 1014.492188 C 901.605469 1015.242188 901.492188 1016.0625 901.492188 1016.953125 L 901.492188 1023.46875 Z M 906.285156 1023.46875 L 906.285156 1021.757812 L 914.207031 1012.664062 C 913.308594 1012.710938 912.515625 1012.734375 911.828125 1012.734375 L 906.75 1012.734375 L 906.75 1011.023438 L 916.921875 1011.023438 L 916.921875 1012.417969 L 910.1875 1020.316406 L 908.886719 1021.757812 C 909.832031 1021.6875 910.71875 1021.652344 911.546875 1021.652344 L 917.300781 1021.652344 L 917.300781 1023.46875 Z M 919.304688 1028.261719 L 919.066406 1026.28125 C 919.53125 1026.40625 919.929688 1026.46875 920.277344 1026.46875 C 920.742188 1026.46875 921.121094 1026.390625 921.398438 1026.234375 C 921.683594 1026.078125 921.910156 1025.859375 922.089844 1025.578125 C 922.226562 1025.367188 922.441406 1024.84375 922.734375 1024.007812 C 922.777344 1023.890625 922.839844 1023.722656 922.921875 1023.492188 L 918.203125 1011.023438 L 920.476562 1011.023438 L 923.066406 1018.230469 C 923.398438 1019.144531 923.703125 1020.105469 923.96875 1021.113281 C 924.210938 1020.144531 924.5 1019.199219 924.835938 1018.277344 L 927.496094 1011.023438 L 929.605469 1011.023438 L 924.871094 1023.679688 C 924.363281 1025.046875 923.96875 1025.988281 923.6875 1026.503906 C 923.3125 1027.199219 922.882812 1027.707031 922.398438 1028.03125 C 921.910156 1028.355469 921.335938 1028.519531 920.664062 1028.519531 C 920.253906 1028.519531 919.804688 1028.433594 919.304688 1028.261719 Z M 930.554688 1019.753906 L 932.640625 1019.425781 C 932.753906 1020.261719 933.082031 1020.902344 933.621094 1021.347656 C 934.152344 1021.792969 934.898438 1022.015625 935.863281 1022.015625 C 936.832031 1022.015625 937.550781 1021.816406 938.019531 1021.425781 C 938.488281 1021.027344 938.722656 1020.566406 938.722656 1020.035156 C 938.722656 1019.558594 938.515625 1019.183594 938.097656 1018.910156 C 937.8125 1018.71875 937.089844 1018.484375 935.945312 1018.195312 C 934.398438 1017.804688 933.324219 1017.46875 932.726562 1017.179688 C 932.132812 1016.898438 931.675781 1016.5 931.367188 1015.996094 C 931.058594 1015.492188 930.902344 1014.9375 930.902344 1014.328125 C 930.902344 1013.773438 931.03125 1013.261719 931.289062 1012.789062 C 931.539062 1012.3125 931.886719 1011.921875 932.324219 1011.609375 C 932.652344 1011.367188 933.097656 1011.160156 933.664062 1010.992188 C 934.230469 1010.824219 934.839844 1010.742188 935.488281 1010.742188 C 936.464844 1010.742188 937.320312 1010.882812 938.058594 1011.164062 C 938.800781 1011.445312 939.34375 1011.824219 939.695312 1012.304688 C 940.046875 1012.789062 940.289062 1013.429688 940.417969 1014.234375 L 938.359375 1014.515625 C 938.265625 1013.875 937.992188 1013.375 937.542969 1013.015625 C 937.09375 1012.65625 936.460938 1012.476562 935.640625 1012.476562 C 934.671875 1012.476562 933.980469 1012.636719 933.566406 1012.957031 C 933.152344 1013.277344 932.945312 1013.652344 932.945312 1014.082031 C 932.945312 1014.355469 933.03125 1014.601562 933.203125 1014.820312 C 933.375 1015.046875 933.644531 1015.234375 934.011719 1015.382812 C 934.222656 1015.460938 934.84375 1015.640625 935.875 1015.921875 C 937.367188 1016.320312 938.40625 1016.644531 938.996094 1016.902344 C 939.585938 1017.152344 940.050781 1017.523438 940.386719 1018.007812 C 940.722656 1018.492188 940.890625 1019.09375 940.890625 1019.8125 C 940.890625 1020.515625 940.683594 1021.175781 940.277344 1021.800781 C 939.863281 1022.421875 939.273438 1022.902344 938.5 1023.242188 C 937.726562 1023.582031 936.851562 1023.75 935.875 1023.75 C 934.253906 1023.75 933.023438 1023.414062 932.175781 1022.742188 C 931.328125 1022.070312 930.789062 1021.074219 930.554688 1019.753906 Z M 948.003906 1021.582031 L 948.308594 1023.445312 C 947.714844 1023.570312 947.183594 1023.632812 946.714844 1023.632812 C 945.949219 1023.632812 945.355469 1023.511719 944.933594 1023.269531 C 944.511719 1023.027344 944.214844 1022.707031 944.042969 1022.3125 C 943.871094 1021.921875 943.785156 1021.089844 943.785156 1019.824219 L 943.785156 1012.664062 L 942.234375 1012.664062 L 942.234375 1011.023438 L 943.785156 1011.023438 L 943.785156 1007.941406 L 945.882812 1006.675781 L 945.882812 1011.023438 L 948.003906 1011.023438 L 948.003906 1012.664062 L 945.882812 1012.664062 L 945.882812 1019.941406 C 945.882812 1020.542969 945.917969 1020.929688 945.992188 1021.101562 C 946.066406 1021.273438 946.1875 1021.410156 946.355469 1021.511719 C 946.523438 1021.613281 946.765625 1021.664062 947.074219 1021.664062 C 947.3125 1021.664062 947.621094 1021.636719 948.003906 1021.582031 Z M 958.1875 1021.933594 C 957.402344 1022.597656 956.652344 1023.066406 955.933594 1023.339844 C 955.207031 1023.613281 954.433594 1023.75 953.605469 1023.75 C 952.234375 1023.75 951.1875 1023.417969 950.453125 1022.75 C 949.71875 1022.082031 949.351562 1021.226562 949.351562 1020.1875 C 949.351562 1019.578125 949.488281 1019.019531 949.769531 1018.515625 C 950.042969 1018.011719 950.40625 1017.609375 950.855469 1017.304688 C 951.308594 1017 951.8125 1016.769531 952.375 1016.613281 C 952.789062 1016.503906 953.410156 1016.398438 954.246094 1016.296875 C 955.953125 1016.09375 957.207031 1015.851562 958.011719 1015.570312 C 958.019531 1015.28125 958.023438 1015.097656 958.023438 1015.019531 C 958.023438 1014.160156 957.824219 1013.550781 957.421875 1013.203125 C 956.886719 1012.722656 956.082031 1012.488281 955.023438 1012.488281 C 954.03125 1012.488281 953.300781 1012.660156 952.824219 1013.007812 C 952.351562 1013.355469 952.003906 1013.972656 951.777344 1014.855469 L 949.714844 1014.574219 C 949.902344 1013.691406 950.210938 1012.976562 950.640625 1012.4375 C 951.066406 1011.894531 951.691406 1011.472656 952.503906 1011.179688 C 953.316406 1010.886719 954.253906 1010.742188 955.328125 1010.742188 C 956.390625 1010.742188 957.25 1010.867188 957.914062 1011.117188 C 958.578125 1011.367188 959.066406 1011.679688 959.382812 1012.0625 C 959.695312 1012.441406 959.910156 1012.917969 960.039062 1013.496094 C 960.109375 1013.855469 960.144531 1014.503906 960.144531 1015.441406 L 960.144531 1018.253906 C 960.144531 1020.21875 960.1875 1021.457031 960.28125 1021.972656 C 960.367188 1022.492188 960.546875 1022.992188 960.8125 1023.46875 L 958.609375 1023.46875 C 958.390625 1023.03125 958.246094 1022.519531 958.1875 1021.933594 Z M 958.011719 1017.21875 C 957.242188 1017.535156 956.097656 1017.800781 954.566406 1018.019531 C 953.699219 1018.144531 953.082031 1018.285156 952.726562 1018.441406 C 952.367188 1018.597656 952.085938 1018.824219 951.894531 1019.128906 C 951.699219 1019.429688 951.601562 1019.761719 951.601562 1020.128906 C 951.601562 1020.691406 951.816406 1021.160156 952.238281 1021.535156 C 952.664062 1021.910156 953.289062 1022.097656 954.109375 1022.097656 C 954.917969 1022.097656 955.644531 1021.921875 956.277344 1021.566406 C 956.90625 1021.207031 957.375 1020.722656 957.671875 1020.105469 C 957.898438 1019.628906 958.011719 1018.925781 958.011719 1017.996094 Z M 963.414062 1023.46875 L 963.414062 1011.023438 L 965.3125 1011.023438 L 965.3125 1012.792969 C 966.226562 1011.425781 967.546875 1010.742188 969.273438 1010.742188 C 970.023438 1010.742188 970.710938 1010.875 971.339844 1011.144531 C 971.972656 1011.417969 972.441406 1011.769531 972.75 1012.207031 C 973.066406 1012.644531 973.285156 1013.164062 973.410156 1013.765625 C 973.488281 1014.15625 973.527344 1014.839844 973.527344 1015.816406 L 973.527344 1023.46875 L 971.414062 1023.46875 L 971.414062 1015.898438 C 971.414062 1015.039062 971.335938 1014.398438 971.171875 1013.96875 C 971.007812 1013.542969 970.714844 1013.203125 970.300781 1012.953125 C 969.878906 1012.695312 969.390625 1012.570312 968.828125 1012.570312 C 967.925781 1012.570312 967.15625 1012.855469 966.5 1013.425781 C 965.847656 1013.996094 965.523438 1015.078125 965.523438 1016.671875 L 965.523438 1023.46875 Z M 976.773438 1008.714844 L 976.773438 1006.289062 L 978.882812 1006.289062 L 978.882812 1008.714844 Z M 976.773438 1023.46875 L 976.773438 1011.023438 L 978.882812 1011.023438 L 978.882812 1023.46875 Z M 990.613281 1019.460938 L 992.792969 1019.730469 C 992.449219 1021.003906 991.8125 1021.992188 990.882812 1022.695312 C 989.953125 1023.398438 988.765625 1023.75 987.320312 1023.75 C 985.5 1023.75 984.054688 1023.1875 982.992188 1022.070312 C 981.921875 1020.949219 981.390625 1019.375 981.390625 1017.351562 C 981.390625 1015.257812 981.933594 1013.632812 983.007812 1012.476562 C 984.085938 1011.320312 985.484375 1010.742188 987.203125 1010.742188 C 988.867188 1010.742188 990.226562 1011.308594 991.28125 1012.441406 C 992.335938 1013.574219 992.863281 1015.167969 992.863281 1017.21875 C 992.863281 1017.347656 992.859375 1017.535156 992.851562 1017.785156 L 983.570312 1017.785156 C 983.648438 1019.152344 984.035156 1020.199219 984.730469 1020.925781 C 985.429688 1021.652344 986.292969 1022.015625 987.332031 1022.015625 C 988.105469 1022.015625 988.765625 1021.8125 989.3125 1021.40625 C 989.859375 1021 990.292969 1020.351562 990.613281 1019.460938 Z M 983.6875 1016.046875 L 990.636719 1016.046875 C 990.542969 1015.003906 990.277344 1014.21875 989.839844 1013.695312 C 989.167969 1012.886719 988.296875 1012.476562 987.226562 1012.476562 C 986.261719 1012.476562 985.445312 1012.800781 984.785156 1013.449219 C 984.125 1014.097656 983.761719 1014.964844 983.6875 1016.046875 Z M 1006.714844 1021.582031 L 1007.019531 1023.445312 C 1006.429688 1023.570312 1005.894531 1023.632812 1005.429688 1023.632812 C 1004.660156 1023.632812 1004.066406 1023.511719 1003.644531 1023.269531 C 1003.222656 1023.027344 1002.929688 1022.707031 1002.757812 1022.3125 C 1002.582031 1021.921875 1002.496094 1021.089844 1002.496094 1019.824219 L 1002.496094 1012.664062 L 1000.949219 1012.664062 L 1000.949219 1011.023438 L 1002.496094 1011.023438 L 1002.496094 1007.941406 L 1004.597656 1006.675781 L 1004.597656 1011.023438 L 1006.714844 1011.023438 L 1006.714844 1012.664062 L 1004.597656 1012.664062 L 1004.597656 1019.941406 C 1004.597656 1020.542969 1004.632812 1020.929688 1004.703125 1021.101562 C 1004.78125 1021.273438 1004.898438 1021.410156 1005.066406 1021.511719 C 1005.234375 1021.613281 1005.476562 1021.664062 1005.789062 1021.664062 C 1006.023438 1021.664062 1006.332031 1021.636719 1006.714844 1021.582031 "/>
<path fill-rule="evenodd" fill="rgb(11.999512%, 9.999084%, 8.999634%)" fill-opacity="1" d="M 1008.683594 1028.261719 L 1008.449219 1026.28125 C 1008.910156 1026.40625 1009.3125 1026.46875 1009.65625 1026.46875 C 1010.125 1026.46875 1010.5 1026.390625 1010.78125 1026.234375 C 1011.0625 1026.078125 1011.292969 1025.859375 1011.472656 1025.578125 C 1011.609375 1025.367188 1011.820312 1024.84375 1012.117188 1024.007812 C 1012.15625 1023.890625 1012.21875 1023.722656 1012.304688 1023.492188 L 1007.582031 1011.023438 L 1009.855469 1011.023438 L 1012.449219 1018.230469 C 1012.78125 1019.144531 1013.082031 1020.105469 1013.347656 1021.113281 C 1013.59375 1020.144531 1013.878906 1019.199219 1014.214844 1018.277344 L 1016.875 1011.023438 L 1018.984375 1011.023438 L 1014.25 1023.679688 C 1013.742188 1025.046875 1013.347656 1025.988281 1013.066406 1026.503906 C 1012.691406 1027.199219 1012.265625 1027.707031 1011.78125 1028.03125 C 1011.292969 1028.355469 1010.714844 1028.519531 1010.042969 1028.519531 C 1009.636719 1028.519531 1009.183594 1028.433594 1008.683594 1028.261719 Z M 1020.730469 1023.46875 L 1020.730469 1006.289062 L 1022.839844 1006.289062 L 1022.839844 1023.46875 Z M 1026.121094 1023.46875 L 1026.121094 1006.289062 L 1028.230469 1006.289062 L 1028.230469 1016.085938 L 1033.222656 1011.023438 L 1035.953125 1011.023438 L 1031.195312 1015.640625 L 1036.4375 1023.46875 L 1033.832031 1023.46875 L 1029.71875 1017.105469 L 1028.230469 1018.535156 L 1028.230469 1023.46875 Z M 1037.324219 1017.246094 C 1037.324219 1014.941406 1037.964844 1013.234375 1039.25 1012.125 C 1040.316406 1011.203125 1041.621094 1010.742188 1043.160156 1010.742188 C 1044.871094 1010.742188 1046.273438 1011.300781 1047.355469 1012.425781 C 1048.445312 1013.542969 1048.984375 1015.09375 1048.984375 1017.070312 C 1048.984375 1018.671875 1048.746094 1019.933594 1048.265625 1020.847656 C 1047.785156 1021.769531 1047.085938 1022.480469 1046.167969 1022.988281 C 1045.25 1023.496094 1044.25 1023.75 1043.160156 1023.75 C 1041.421875 1023.75 1040.011719 1023.191406 1038.9375 1022.074219 C 1037.859375 1020.957031 1037.324219 1019.347656 1037.324219 1017.246094 Z M 1039.492188 1017.246094 C 1039.492188 1018.839844 1039.839844 1020.03125 1040.535156 1020.824219 C 1041.230469 1021.621094 1042.109375 1022.015625 1043.160156 1022.015625 C 1044.207031 1022.015625 1045.082031 1021.617188 1045.777344 1020.820312 C 1046.46875 1020.023438 1046.816406 1018.808594 1046.816406 1017.175781 C 1046.816406 1015.636719 1046.46875 1014.46875 1045.769531 1013.675781 C 1045.066406 1012.886719 1044.199219 1012.488281 1043.160156 1012.488281 C 1042.109375 1012.488281 1041.230469 1012.886719 1040.535156 1013.671875 C 1039.839844 1014.460938 1039.492188 1015.652344 1039.492188 1017.246094 Z M 1058.128906 1023.46875 L 1058.128906 1011.023438 L 1060.023438 1011.023438 L 1060.023438 1012.792969 C 1060.941406 1011.425781 1062.261719 1010.742188 1063.984375 1010.742188 C 1064.734375 1010.742188 1065.425781 1010.875 1066.050781 1011.144531 C 1066.683594 1011.417969 1067.152344 1011.769531 1067.464844 1012.207031 C 1067.78125 1012.644531 1067.996094 1013.164062 1068.125 1013.765625 C 1068.199219 1014.15625 1068.238281 1014.839844 1068.238281 1015.816406 L 1068.238281 1023.46875 L 1066.128906 1023.46875 L 1066.128906 1015.898438 C 1066.128906 1015.039062 1066.046875 1014.398438 1065.882812 1013.96875 C 1065.71875 1013.542969 1065.429688 1013.203125 1065.011719 1012.953125 C 1064.59375 1012.695312 1064.105469 1012.570312 1063.539062 1012.570312 C 1062.640625 1012.570312 1061.867188 1012.855469 1061.210938 1013.425781 C 1060.558594 1013.996094 1060.234375 1015.078125 1060.234375 1016.671875 L 1060.234375 1023.46875 Z M 1079.597656 1021.933594 C 1078.8125 1022.597656 1078.058594 1023.066406 1077.339844 1023.339844 C 1076.617188 1023.613281 1075.839844 1023.75 1075.011719 1023.75 C 1073.644531 1023.75 1072.597656 1023.417969 1071.859375 1022.75 C 1071.128906 1022.082031 1070.761719 1021.226562 1070.761719 1020.1875 C 1070.761719 1019.578125 1070.894531 1019.019531 1071.175781 1018.515625 C 1071.453125 1018.011719 1071.816406 1017.609375 1072.265625 1017.304688 C 1072.714844 1017 1073.21875 1016.769531 1073.785156 1016.613281 C 1074.195312 1016.503906 1074.820312 1016.398438 1075.65625 1016.296875 C 1077.359375 1016.09375 1078.617188 1015.851562 1079.421875 1015.570312 C 1079.429688 1015.28125 1079.433594 1015.097656 1079.433594 1015.019531 C 1079.433594 1014.160156 1079.230469 1013.550781 1078.832031 1013.203125 C 1078.296875 1012.722656 1077.492188 1012.488281 1076.433594 1012.488281 C 1075.441406 1012.488281 1074.707031 1012.660156 1074.230469 1013.007812 C 1073.761719 1013.355469 1073.414062 1013.972656 1073.183594 1014.855469 L 1071.125 1014.574219 C 1071.3125 1013.691406 1071.621094 1012.976562 1072.046875 1012.4375 C 1072.476562 1011.894531 1073.101562 1011.472656 1073.914062 1011.179688 C 1074.722656 1010.886719 1075.664062 1010.742188 1076.734375 1010.742188 C 1077.800781 1010.742188 1078.660156 1010.867188 1079.324219 1011.117188 C 1079.988281 1011.367188 1080.476562 1011.679688 1080.792969 1012.0625 C 1081.105469 1012.441406 1081.320312 1012.917969 1081.449219 1013.496094 C 1081.515625 1013.855469 1081.550781 1014.503906 1081.550781 1015.441406 L 1081.550781 1018.253906 C 1081.550781 1020.21875 1081.597656 1021.457031 1081.6875 1021.972656 C 1081.777344 1022.492188 1081.957031 1022.992188 1082.21875 1023.46875 L 1080.015625 1023.46875 C 1079.800781 1023.03125 1079.65625 1022.519531 1079.597656 1021.933594 Z M 1079.421875 1017.21875 C 1078.652344 1017.535156 1077.503906 1017.800781 1075.976562 1018.019531 C 1075.109375 1018.144531 1074.492188 1018.285156 1074.136719 1018.441406 C 1073.777344 1018.597656 1073.496094 1018.824219 1073.304688 1019.128906 C 1073.109375 1019.429688 1073.007812 1019.761719 1073.007812 1020.128906 C 1073.007812 1020.691406 1073.222656 1021.160156 1073.648438 1021.535156 C 1074.070312 1021.910156 1074.695312 1022.097656 1075.515625 1022.097656 C 1076.328125 1022.097656 1077.050781 1021.921875 1077.683594 1021.566406 C 1078.316406 1021.207031 1078.785156 1020.722656 1079.082031 1020.105469 C 1079.308594 1019.628906 1079.421875 1018.925781 1079.421875 1017.996094 Z M 1093.789062 1023.46875 L 1089.980469 1011.023438 L 1092.160156 1011.023438 L 1094.140625 1018.207031 L 1094.875 1020.878906 C 1094.910156 1020.746094 1095.125 1019.890625 1095.519531 1018.3125 L 1097.5 1011.023438 L 1099.667969 1011.023438 L 1101.53125 1018.242188 L 1102.15625 1020.621094 L 1102.867188 1018.214844 L 1105 1011.023438 L 1107.050781 1011.023438 L 1103.160156 1023.46875 L 1100.972656 1023.46875 L 1098.992188 1016.015625 L 1098.507812 1013.894531 L 1095.992188 1023.46875 Z M 1108.800781 1016.742188 L 1107.277344 1018.03125 L 1107.277344 1016.179688 L 1108.800781 1014.890625 L 1108.800781 1006.289062 L 1110.898438 1006.289062 L 1110.898438 1013.109375 L 1112.480469 1011.761719 L 1112.480469 1013.601562 L 1110.898438 1014.949219 L 1110.898438 1023.46875 L 1108.800781 1023.46875 Z M 1122.277344 1021.933594 C 1121.492188 1022.597656 1120.742188 1023.066406 1120.019531 1023.339844 C 1119.296875 1023.613281 1118.519531 1023.75 1117.691406 1023.75 C 1116.324219 1023.75 1115.277344 1023.417969 1114.539062 1022.75 C 1113.808594 1022.082031 1113.441406 1021.226562 1113.441406 1020.1875 C 1113.441406 1019.578125 1113.578125 1019.019531 1113.855469 1018.515625 C 1114.132812 1018.011719 1114.496094 1017.609375 1114.945312 1017.304688 C 1115.394531 1017 1115.898438 1016.769531 1116.464844 1016.613281 C 1116.875 1016.503906 1117.5 1016.398438 1118.335938 1016.296875 C 1120.039062 1016.09375 1121.296875 1015.851562 1122.101562 1015.570312 C 1122.109375 1015.28125 1122.113281 1015.097656 1122.113281 1015.019531 C 1122.113281 1014.160156 1121.914062 1013.550781 1121.511719 1013.203125 C 1120.976562 1012.722656 1120.171875 1012.488281 1119.113281 1012.488281 C 1118.121094 1012.488281 1117.386719 1012.660156 1116.914062 1013.007812 C 1116.441406 1013.355469 1116.09375 1013.972656 1115.863281 1014.855469 L 1113.804688 1014.574219 C 1113.992188 1013.691406 1114.300781 1012.976562 1114.726562 1012.4375 C 1115.15625 1011.894531 1115.78125 1011.472656 1116.59375 1011.179688 C 1117.40625 1010.886719 1118.34375 1010.742188 1119.417969 1010.742188 C 1120.480469 1010.742188 1121.339844 1010.867188 1122.003906 1011.117188 C 1122.667969 1011.367188 1123.15625 1011.679688 1123.472656 1012.0625 C 1123.785156 1012.441406 1124 1012.917969 1124.128906 1013.496094 C 1124.195312 1013.855469 1124.230469 1014.503906 1124.230469 1015.441406 L 1124.230469 1018.253906 C 1124.230469 1020.21875 1124.277344 1021.457031 1124.367188 1021.972656 C 1124.457031 1022.492188 1124.636719 1022.992188 1124.902344 1023.46875 L 1122.695312 1023.46875 C 1122.480469 1023.03125 1122.335938 1022.519531 1122.277344 1021.933594 Z M 1122.101562 1017.21875 C 1121.332031 1017.535156 1120.183594 1017.800781 1118.65625 1018.019531 C 1117.789062 1018.144531 1117.171875 1018.285156 1116.816406 1018.441406 C 1116.457031 1018.597656 1116.175781 1018.824219 1115.984375 1019.128906 C 1115.789062 1019.429688 1115.6875 1019.761719 1115.6875 1020.128906 C 1115.6875 1020.691406 1115.90625 1021.160156 1116.328125 1021.535156 C 1116.753906 1021.910156 1117.375 1022.097656 1118.195312 1022.097656 C 1119.007812 1022.097656 1119.730469 1021.921875 1120.363281 1021.566406 C 1120.996094 1021.207031 1121.464844 1020.722656 1121.761719 1020.105469 C 1121.988281 1019.628906 1122.101562 1018.925781 1122.101562 1017.996094 Z M 1126.660156 1019.753906 L 1128.746094 1019.425781 C 1128.859375 1020.261719 1129.1875 1020.902344 1129.722656 1021.347656 C 1130.257812 1021.792969 1131.003906 1022.015625 1131.96875 1022.015625 C 1132.9375 1022.015625 1133.65625 1021.816406 1134.125 1021.425781 C 1134.59375 1021.027344 1134.828125 1020.566406 1134.828125 1020.035156 C 1134.828125 1019.558594 1134.621094 1019.183594 1134.203125 1018.910156 C 1133.917969 1018.71875 1133.195312 1018.484375 1132.046875 1018.195312 C 1130.503906 1017.804688 1129.429688 1017.46875 1128.832031 1017.179688 C 1128.234375 1016.898438 1127.78125 1016.5 1127.472656 1015.996094 C 1127.164062 1015.492188 1127.007812 1014.9375 1127.007812 1014.328125 C 1127.007812 1013.773438 1127.136719 1013.261719 1127.390625 1012.789062 C 1127.644531 1012.3125 1127.992188 1011.921875 1128.429688 1011.609375 C 1128.757812 1011.367188 1129.203125 1011.160156 1129.769531 1010.992188 C 1130.335938 1010.824219 1130.945312 1010.742188 1131.59375 1010.742188 C 1132.570312 1010.742188 1133.425781 1010.882812 1134.164062 1011.164062 C 1134.90625 1011.445312 1135.449219 1011.824219 1135.800781 1012.304688 C 1136.152344 1012.789062 1136.390625 1013.429688 1136.523438 1014.234375 L 1134.464844 1014.515625 C 1134.367188 1013.875 1134.097656 1013.375 1133.648438 1013.015625 C 1133.199219 1012.65625 1132.566406 1012.476562 1131.746094 1012.476562 C 1130.777344 1012.476562 1130.085938 1012.636719 1129.671875 1012.957031 C 1129.257812 1013.277344 1129.046875 1013.652344 1129.046875 1014.082031 C 1129.046875 1014.355469 1129.136719 1014.601562 1129.308594 1014.820312 C 1129.480469 1015.046875 1129.75 1015.234375 1130.117188 1015.382812 C 1130.328125 1015.460938 1130.949219 1015.640625 1131.980469 1015.921875 C 1133.472656 1016.320312 1134.511719 1016.644531 1135.101562 1016.902344 C 1135.691406 1017.152344 1136.15625 1017.523438 1136.492188 1018.007812 C 1136.828125 1018.492188 1136.996094 1019.09375 1136.996094 1019.8125 C 1136.996094 1020.515625 1136.789062 1021.175781 1136.378906 1021.800781 C 1135.96875 1022.421875 1135.375 1022.902344 1134.605469 1023.242188 C 1133.832031 1023.582031 1132.957031 1023.75 1131.980469 1023.75 C 1130.359375 1023.75 1129.128906 1023.414062 1128.28125 1022.742188 C 1127.433594 1022.070312 1126.890625 1021.074219 1126.660156 1019.753906 Z M 1139.503906 1023.46875 L 1139.503906 1011.023438 L 1141.402344 1011.023438 L 1141.402344 1012.792969 C 1142.316406 1011.425781 1143.636719 1010.742188 1145.359375 1010.742188 C 1146.113281 1010.742188 1146.800781 1010.875 1147.429688 1011.144531 C 1148.0625 1011.417969 1148.527344 1011.769531 1148.839844 1012.207031 C 1149.15625 1012.644531 1149.371094 1013.164062 1149.5 1013.765625 C 1149.578125 1014.15625 1149.617188 1014.839844 1149.617188 1015.816406 L 1149.617188 1023.46875 L 1147.503906 1023.46875 L 1147.503906 1015.898438 C 1147.503906 1015.039062 1147.425781 1014.398438 1147.261719 1013.96875 C 1147.097656 1013.542969 1146.804688 1013.203125 1146.386719 1012.953125 C 1145.96875 1012.695312 1145.480469 1012.570312 1144.917969 1012.570312 C 1144.015625 1012.570312 1143.246094 1012.855469 1142.589844 1013.425781 C 1141.9375 1013.996094 1141.613281 1015.078125 1141.613281 1016.671875 L 1141.613281 1023.46875 Z M 1161.367188 1019.460938 L 1163.546875 1019.730469 C 1163.203125 1021.003906 1162.570312 1021.992188 1161.640625 1022.695312 C 1160.707031 1023.398438 1159.519531 1023.75 1158.078125 1023.75 C 1156.257812 1023.75 1154.8125 1023.1875 1153.75 1022.070312 C 1152.679688 1020.949219 1152.148438 1019.375 1152.148438 1017.351562 C 1152.148438 1015.257812 1152.6875 1013.632812 1153.765625 1012.476562 C 1154.84375 1011.320312 1156.242188 1010.742188 1157.960938 1010.742188 C 1159.625 1010.742188 1160.984375 1011.308594 1162.035156 1012.441406 C 1163.09375 1013.574219 1163.621094 1015.167969 1163.621094 1017.21875 C 1163.621094 1017.347656 1163.617188 1017.535156 1163.609375 1017.785156 L 1154.328125 1017.785156 C 1154.40625 1019.152344 1154.792969 1020.199219 1155.488281 1020.925781 C 1156.183594 1021.652344 1157.046875 1022.015625 1158.089844 1022.015625 C 1158.859375 1022.015625 1159.519531 1021.8125 1160.070312 1021.40625 C 1160.617188 1021 1161.046875 1020.351562 1161.367188 1019.460938 Z M 1154.445312 1016.046875 L 1161.394531 1016.046875 C 1161.300781 1015.003906 1161.03125 1014.21875 1160.597656 1013.695312 C 1159.925781 1012.886719 1159.050781 1012.476562 1157.984375 1012.476562 C 1157.015625 1012.476562 1156.199219 1012.800781 1155.539062 1013.449219 C 1154.878906 1014.097656 1154.515625 1014.964844 1154.445312 1016.046875 Z M 1172.867188 1028.238281 L 1172.867188 1011.023438 L 1174.789062 1011.023438 L 1174.789062 1012.640625 C 1175.242188 1012.007812 1175.753906 1011.53125 1176.324219 1011.214844 C 1176.894531 1010.902344 1177.585938 1010.742188 1178.398438 1010.742188 C 1179.460938 1010.742188 1180.398438 1011.015625 1181.207031 1011.5625 C 1182.023438 1012.109375 1182.636719 1012.878906 1183.046875 1013.875 C 1183.464844 1014.871094 1183.671875 1015.964844 1183.671875 1017.152344 C 1183.671875 1018.425781 1183.445312 1019.574219 1182.984375 1020.59375 C 1182.527344 1021.613281 1181.863281 1022.394531 1180.992188 1022.9375 C 1180.121094 1023.476562 1179.203125 1023.75 1178.246094 1023.75 C 1177.539062 1023.75 1176.914062 1023.601562 1176.351562 1023.304688 C 1175.792969 1023.007812 1175.335938 1022.632812 1174.976562 1022.179688 L 1174.976562 1028.238281 Z M 1174.777344 1017.316406 C 1174.777344 1018.917969 1175.101562 1020.101562 1175.75 1020.867188 C 1176.398438 1021.632812 1177.183594 1022.015625 1178.105469 1022.015625 C 1179.039062 1022.015625 1179.84375 1021.621094 1180.511719 1020.824219 C 1181.179688 1020.03125 1181.515625 1018.804688 1181.515625 1017.140625 C 1181.515625 1015.550781 1181.1875 1014.367188 1180.535156 1013.578125 C 1179.882812 1012.789062 1179.105469 1012.394531 1178.199219 1012.394531 C 1177.300781 1012.394531 1176.503906 1012.8125 1175.8125 1013.652344 C 1175.121094 1014.492188 1174.777344 1015.71875 1174.777344 1017.316406 Z M 1185.429688 1017.246094 C 1185.429688 1014.941406 1186.070312 1013.234375 1187.351562 1012.125 C 1188.421875 1011.203125 1189.726562 1010.742188 1191.265625 1010.742188 C 1192.976562 1010.742188 1194.375 1011.300781 1195.460938 1012.425781 C 1196.546875 1013.542969 1197.089844 1015.09375 1197.089844 1017.070312 C 1197.089844 1018.671875 1196.847656 1019.933594 1196.367188 1020.847656 C 1195.890625 1021.769531 1195.1875 1022.480469 1194.273438 1022.988281 C 1193.351562 1023.496094 1192.351562 1023.75 1191.265625 1023.75 C 1189.523438 1023.75 1188.117188 1023.191406 1187.039062 1022.074219 C 1185.964844 1020.957031 1185.429688 1019.347656 1185.429688 1017.246094 Z M 1187.597656 1017.246094 C 1187.597656 1018.839844 1187.945312 1020.03125 1188.640625 1020.824219 C 1189.335938 1021.621094 1190.210938 1022.015625 1191.265625 1022.015625 C 1192.3125 1022.015625 1193.183594 1021.617188 1193.878906 1020.820312 C 1194.574219 1020.023438 1194.921875 1018.808594 1194.921875 1017.175781 C 1194.921875 1015.636719 1194.574219 1014.46875 1193.871094 1013.675781 C 1193.171875 1012.886719 1192.304688 1012.488281 1191.265625 1012.488281 C 1190.210938 1012.488281 1189.335938 1012.886719 1188.640625 1013.671875 C 1187.945312 1014.460938 1187.597656 1015.652344 1187.597656 1017.246094 Z M 1204.167969 1021.582031 L 1204.472656 1023.445312 C 1203.878906 1023.570312 1203.347656 1023.632812 1202.878906 1023.632812 C 1202.113281 1023.632812 1201.519531 1023.511719 1201.097656 1023.269531 C 1200.675781 1023.027344 1200.382812 1022.707031 1200.207031 1022.3125 C 1200.035156 1021.921875 1199.949219 1021.089844 1199.949219 1019.824219 L 1199.949219 1012.664062 L 1198.402344 1012.664062 L 1198.402344 1011.023438 L 1199.949219 1011.023438 L 1199.949219 1007.941406 L 1202.046875 1006.675781 L 1202.046875 1011.023438 L 1204.167969 1011.023438 L 1204.167969 1012.664062 L 1202.046875 1012.664062 L 1202.046875 1019.941406 C 1202.046875 1020.542969 1202.085938 1020.929688 1202.15625 1021.101562 C 1202.234375 1021.273438 1202.351562 1021.410156 1202.519531 1021.511719 C 1202.6875 1021.613281 1202.929688 1021.664062 1203.242188 1021.664062 C 1203.476562 1021.664062 1203.785156 1021.636719 1204.167969 1021.582031 Z M 1206.207031 1023.46875 L 1206.207031 1011.023438 L 1208.105469 1011.023438 L 1208.105469 1012.910156 C 1208.589844 1012.027344 1209.035156 1011.445312 1209.449219 1011.164062 C 1209.855469 1010.882812 1210.308594 1010.742188 1210.800781 1010.742188 C 1211.511719 1010.742188 1212.234375 1010.96875 1212.96875 1011.421875 L 1212.242188 1013.378906 C 1211.730469 1013.074219 1211.210938 1012.921875 1210.695312 1012.921875 C 1210.234375 1012.921875 1209.820312 1013.0625 1209.453125 1013.335938 C 1209.085938 1013.617188 1208.824219 1014 1208.667969 1014.492188 C 1208.433594 1015.242188 1208.316406 1016.0625 1208.316406 1016.953125 L 1208.316406 1023.46875 Z M 1213.109375 1023.46875 L 1213.109375 1021.757812 L 1221.03125 1012.664062 C 1220.132812 1012.710938 1219.339844 1012.734375 1218.652344 1012.734375 L 1213.578125 1012.734375 L 1213.578125 1011.023438 L 1223.75 1011.023438 L 1223.75 1012.417969 L 1217.011719 1020.316406 L 1215.710938 1021.757812 C 1216.65625 1021.6875 1217.542969 1021.652344 1218.371094 1021.652344 L 1224.125 1021.652344 L 1224.125 1023.46875 Z M 1234.742188 1019.460938 L 1236.921875 1019.730469 C 1236.578125 1021.003906 1235.941406 1021.992188 1235.011719 1022.695312 C 1234.082031 1023.398438 1232.894531 1023.75 1231.449219 1023.75 C 1229.628906 1023.75 1228.183594 1023.1875 1227.121094 1022.070312 C 1226.054688 1020.949219 1225.519531 1019.375 1225.519531 1017.351562 C 1225.519531 1015.257812 1226.0625 1013.632812 1227.136719 1012.476562 C 1228.21875 1011.320312 1229.613281 1010.742188 1231.332031 1010.742188 C 1232.996094 1010.742188 1234.355469 1011.308594 1235.410156 1012.441406 C 1236.464844 1013.574219 1236.992188 1015.167969 1236.992188 1017.21875 C 1236.992188 1017.347656 1236.988281 1017.535156 1236.980469 1017.785156 L 1227.699219 1017.785156 C 1227.777344 1019.152344 1228.164062 1020.199219 1228.859375 1020.925781 C 1229.558594 1021.652344 1230.421875 1022.015625 1231.460938 1022.015625 C 1232.234375 1022.015625 1232.894531 1021.8125 1233.441406 1021.40625 C 1233.988281 1021 1234.421875 1020.351562 1234.742188 1019.460938 Z M 1227.816406 1016.046875 L 1234.765625 1016.046875 C 1234.671875 1015.003906 1234.40625 1014.21875 1233.96875 1013.695312 C 1233.296875 1012.886719 1232.425781 1012.476562 1231.355469 1012.476562 C 1230.390625 1012.476562 1229.574219 1012.800781 1228.914062 1013.449219 C 1228.253906 1014.097656 1227.890625 1014.964844 1227.816406 1016.046875 Z M 1241.515625 1023.46875 L 1239.5625 1023.46875 L 1239.5625 1006.289062 L 1241.667969 1006.289062 L 1241.667969 1012.417969 C 1242.5625 1011.300781 1243.695312 1010.742188 1245.078125 1010.742188 C 1245.84375 1010.742188 1246.570312 1010.898438 1247.253906 1011.203125 C 1247.9375 1011.511719 1248.496094 1011.949219 1248.941406 1012.503906 C 1249.382812 1013.066406 1249.730469 1013.738281 1249.976562 1014.527344 C 1250.230469 1015.316406 1250.351562 1016.160156 1250.351562 1017.058594 C 1250.351562 1019.191406 1249.824219 1020.839844 1248.769531 1022.003906 C 1247.71875 1023.167969 1246.449219 1023.75 1244.972656 1023.75 C 1243.503906 1023.75 1242.351562 1023.136719 1241.515625 1021.910156 Z M 1241.492188 1017.152344 C 1241.492188 1018.644531 1241.695312 1019.722656 1242.101562 1020.382812 C 1242.765625 1021.472656 1243.664062 1022.015625 1244.796875 1022.015625 C 1245.722656 1022.015625 1246.515625 1021.617188 1247.1875 1020.8125 C 1247.859375 1020.011719 1248.195312 1018.820312 1248.195312 1017.234375 C 1248.195312 1015.609375 1247.875 1014.410156 1247.230469 1013.636719 C 1246.585938 1012.863281 1245.804688 1012.476562 1244.894531 1012.476562 C 1243.96875 1012.476562 1243.171875 1012.875 1242.5 1013.675781 C 1241.828125 1014.476562 1241.492188 1015.636719 1241.492188 1017.152344 Z M 1252.824219 1028.261719 L 1252.589844 1026.28125 C 1253.054688 1026.40625 1253.453125 1026.46875 1253.796875 1026.46875 C 1254.265625 1026.46875 1254.640625 1026.390625 1254.921875 1026.234375 C 1255.203125 1026.078125 1255.433594 1025.859375 1255.613281 1025.578125 C 1255.75 1025.367188 1255.960938 1024.84375 1256.257812 1024.007812 C 1256.296875 1023.890625 1256.359375 1023.722656 1256.445312 1023.492188 L 1251.726562 1011.023438 L 1253.996094 1011.023438 L 1256.589844 1018.230469 C 1256.921875 1019.144531 1257.226562 1020.105469 1257.488281 1021.113281 C 1257.734375 1020.144531 1258.019531 1019.199219 1258.355469 1018.277344 L 1261.015625 1011.023438 L 1263.125 1011.023438 L 1258.394531 1023.679688 C 1257.886719 1025.046875 1257.488281 1025.988281 1257.210938 1026.503906 C 1256.832031 1027.199219 1256.40625 1027.707031 1255.921875 1028.03125 C 1255.433594 1028.355469 1254.855469 1028.519531 1254.183594 1028.519531 C 1253.777344 1028.519531 1253.324219 1028.433594 1252.824219 1028.261719 Z M 1263.738281 1023.46875 L 1263.738281 1021.066406 L 1266.140625 1021.066406 L 1266.140625 1023.46875 "/>
<path fill-rule="evenodd" fill="rgb(11.999512%, 9.999084%, 8.999634%)" fill-opacity="1" d="M 1333.316406 748.09375 L 1336.945312 747.777344 C 1337.117188 749.230469 1337.515625 750.421875 1338.144531 751.355469 C 1338.773438 752.292969 1339.75 753.042969 1341.070312 753.617188 C 1342.390625 754.195312 1343.878906 754.476562 1345.53125 754.476562 C 1347 754.476562 1348.292969 754.261719 1349.417969 753.828125 C 1350.542969 753.386719 1351.382812 752.792969 1351.929688 752.035156 C 1352.476562 751.269531 1352.753906 750.441406 1352.753906 749.542969 C 1352.753906 748.628906 1352.492188 747.835938 1351.957031 747.152344 C 1351.429688 746.46875 1350.554688 745.898438 1349.34375 745.441406 C 1348.558594 745.136719 1346.839844 744.660156 1344.164062 744.019531 C 1341.496094 743.375 1339.621094 742.773438 1338.550781 742.203125 C 1337.164062 741.480469 1336.128906 740.570312 1335.445312 739.496094 C 1334.765625 738.417969 1334.429688 737.214844 1334.429688 735.871094 C 1334.429688 734.410156 1334.839844 733.035156 1335.675781 731.761719 C 1336.507812 730.484375 1337.726562 729.515625 1339.324219 728.851562 C 1340.925781 728.195312 1342.703125 727.863281 1344.660156 727.863281 C 1346.816406 727.863281 1348.714844 728.207031 1350.367188 728.90625 C 1352.011719 729.597656 1353.277344 730.621094 1354.164062 731.964844 C 1355.042969 733.3125 1355.523438 734.84375 1355.59375 736.550781 L 1351.902344 736.828125 C 1351.699219 734.992188 1351.03125 733.597656 1349.886719 732.664062 C 1348.742188 731.722656 1347.054688 731.253906 1344.820312 731.253906 C 1342.492188 731.253906 1340.800781 731.683594 1339.730469 732.535156 C 1338.667969 733.386719 1338.132812 734.417969 1338.132812 735.617188 C 1338.132812 736.664062 1338.511719 737.523438 1339.261719 738.195312 C 1340.007812 738.871094 1341.9375 739.5625 1345.066406 740.265625 C 1348.191406 740.976562 1350.339844 741.59375 1351.503906 742.121094 C 1353.195312 742.90625 1354.449219 743.894531 1355.253906 745.085938 C 1356.058594 746.285156 1356.460938 747.667969 1356.460938 749.222656 C 1356.460938 750.773438 1356.019531 752.230469 1355.132812 753.597656 C 1354.246094 754.964844 1352.972656 756.027344 1351.3125 756.792969 C 1349.65625 757.550781 1347.785156 757.929688 1345.714844 757.929688 C 1343.082031 757.929688 1340.875 757.550781 1339.101562 756.78125 C 1337.320312 756.015625 1335.925781 754.863281 1334.910156 753.320312 C 1333.898438 751.785156 1333.363281 750.035156 1333.316406 748.09375 Z M 1361.28125 757.4375 L 1361.28125 728.359375 L 1364.855469 728.359375 L 1364.855469 744.9375 L 1373.304688 736.375 L 1377.921875 736.375 L 1369.871094 744.1875 L 1378.742188 757.4375 L 1374.332031 757.4375 L 1367.371094 746.664062 L 1364.855469 749.089844 L 1364.855469 757.4375 Z M 1395.320312 754.835938 C 1393.996094 755.960938 1392.722656 756.753906 1391.503906 757.21875 C 1390.277344 757.679688 1388.964844 757.910156 1387.5625 757.910156 C 1385.246094 757.910156 1383.472656 757.347656 1382.226562 756.21875 C 1380.988281 755.085938 1380.367188 753.640625 1380.367188 751.886719 C 1380.367188 750.847656 1380.59375 749.90625 1381.070312 749.054688 C 1381.535156 748.203125 1382.152344 747.519531 1382.910156 747.003906 C 1383.675781 746.488281 1384.53125 746.097656 1385.484375 745.832031 C 1386.179688 745.648438 1387.238281 745.46875 1388.652344 745.296875 C 1391.535156 744.953125 1393.664062 744.546875 1395.023438 744.066406 C 1395.035156 743.578125 1395.042969 743.265625 1395.042969 743.136719 C 1395.042969 741.683594 1394.707031 740.652344 1394.027344 740.0625 C 1393.121094 739.25 1391.761719 738.851562 1389.964844 738.851562 C 1388.285156 738.851562 1387.046875 739.144531 1386.242188 739.730469 C 1385.441406 740.320312 1384.855469 741.363281 1384.46875 742.859375 L 1380.980469 742.378906 C 1381.300781 740.890625 1381.820312 739.679688 1382.546875 738.765625 C 1383.269531 737.84375 1384.328125 737.132812 1385.699219 736.636719 C 1387.074219 736.144531 1388.667969 735.894531 1390.480469 735.894531 C 1392.28125 735.894531 1393.738281 736.109375 1394.859375 736.53125 C 1395.984375 736.957031 1396.8125 737.484375 1397.347656 738.128906 C 1397.875 738.769531 1398.238281 739.578125 1398.457031 740.558594 C 1398.570312 741.167969 1398.632812 742.265625 1398.632812 743.847656 L 1398.632812 748.609375 C 1398.632812 751.933594 1398.707031 754.03125 1398.863281 754.90625 C 1399.011719 755.785156 1399.316406 756.632812 1399.761719 757.4375 L 1396.03125 757.4375 C 1395.667969 756.699219 1395.421875 755.832031 1395.320312 754.835938 Z M 1395.023438 746.863281 C 1393.722656 747.394531 1391.78125 747.84375 1389.195312 748.214844 C 1387.726562 748.425781 1386.683594 748.664062 1386.078125 748.925781 C 1385.46875 749.191406 1384.996094 749.578125 1384.671875 750.089844 C 1384.339844 750.597656 1384.171875 751.160156 1384.171875 751.785156 C 1384.171875 752.738281 1384.535156 753.53125 1385.253906 754.167969 C 1385.972656 754.796875 1387.027344 755.113281 1388.414062 755.113281 C 1389.789062 755.113281 1391.015625 754.816406 1392.085938 754.214844 C 1393.15625 753.613281 1393.945312 752.785156 1394.449219 751.742188 C 1394.835938 750.9375 1395.023438 749.746094 1395.023438 748.175781 Z M 1404.089844 757.4375 L 1404.089844 728.359375 L 1407.65625 728.359375 L 1407.65625 757.4375 Z M 1426.9375 754.835938 C 1425.613281 755.960938 1424.339844 756.753906 1423.121094 757.21875 C 1421.894531 757.679688 1420.582031 757.910156 1419.179688 757.910156 C 1416.863281 757.910156 1415.089844 757.347656 1413.84375 756.21875 C 1412.605469 755.085938 1411.984375 753.640625 1411.984375 751.886719 C 1411.984375 750.847656 1412.214844 749.90625 1412.6875 749.054688 C 1413.15625 748.203125 1413.769531 747.519531 1414.53125 747.003906 C 1415.292969 746.488281 1416.148438 746.097656 1417.101562 745.832031 C 1417.800781 745.648438 1418.855469 745.46875 1420.269531 745.296875 C 1423.15625 744.953125 1425.28125 744.546875 1426.640625 744.066406 C 1426.65625 743.578125 1426.660156 743.265625 1426.660156 743.136719 C 1426.660156 741.683594 1426.324219 740.652344 1425.644531 740.0625 C 1424.738281 739.25 1423.378906 738.851562 1421.582031 738.851562 C 1419.90625 738.851562 1418.664062 739.144531 1417.859375 739.730469 C 1417.0625 740.320312 1416.472656 741.363281 1416.085938 742.859375 L 1412.597656 742.378906 C 1412.917969 740.890625 1413.4375 739.679688 1414.164062 738.765625 C 1414.886719 737.84375 1415.945312 737.132812 1417.320312 736.636719 C 1418.691406 736.144531 1420.285156 735.894531 1422.097656 735.894531 C 1423.898438 735.894531 1425.355469 736.109375 1426.480469 736.53125 C 1427.601562 736.957031 1428.429688 737.484375 1428.964844 738.128906 C 1429.492188 738.769531 1429.855469 739.578125 1430.074219 740.558594 C 1430.1875 741.167969 1430.25 742.265625 1430.25 743.847656 L 1430.25 748.609375 C 1430.25 751.933594 1430.324219 754.03125 1430.480469 754.90625 C 1430.628906 755.785156 1430.933594 756.632812 1431.382812 757.4375 L 1427.648438 757.4375 C 1427.285156 756.699219 1427.039062 755.832031 1426.9375 754.835938 Z M 1426.640625 746.863281 C 1425.339844 747.394531 1423.398438 747.84375 1420.8125 748.214844 C 1419.34375 748.425781 1418.300781 748.664062 1417.699219 748.925781 C 1417.089844 749.191406 1416.613281 749.578125 1416.289062 750.089844 C 1415.957031 750.597656 1415.789062 751.160156 1415.789062 751.785156 C 1415.789062 752.738281 1416.152344 753.53125 1416.871094 754.167969 C 1417.589844 754.796875 1418.644531 755.113281 1420.035156 755.113281 C 1421.40625 755.113281 1422.632812 754.816406 1423.703125 754.214844 C 1424.773438 753.613281 1425.566406 752.785156 1426.066406 751.742188 C 1426.453125 750.9375 1426.640625 749.746094 1426.640625 748.175781 Z M 1459.527344 757.4375 L 1455.957031 757.4375 L 1455.957031 734.6875 C 1455.097656 735.507812 1453.972656 736.328125 1452.578125 737.144531 C 1451.175781 737.964844 1449.925781 738.582031 1448.816406 738.988281 L 1448.816406 735.542969 C 1450.8125 734.601562 1452.558594 733.460938 1454.054688 732.128906 C 1455.542969 730.789062 1456.609375 729.496094 1457.230469 728.234375 L 1459.527344 728.234375 Z M 1470.65625 740.4375 L 1470.65625 736.375 L 1474.726562 736.375 L 1474.726562 740.4375 Z M 1470.65625 757.4375 L 1470.65625 753.367188 L 1474.726562 753.367188 L 1474.726562 757.4375 Z M 1493.40625 757.4375 L 1489.835938 757.4375 L 1489.835938 734.6875 C 1488.976562 735.507812 1487.851562 736.328125 1486.457031 737.144531 C 1485.058594 737.964844 1483.804688 738.582031 1482.695312 738.988281 L 1482.695312 735.542969 C 1484.691406 734.601562 1486.4375 733.460938 1487.933594 732.128906 C 1489.425781 730.789062 1490.488281 729.496094 1491.109375 728.234375 L 1493.40625 728.234375 "/>
</svg>
