<?xml version="1.0" encoding="UTF-8" standalone="no"?>
<!-- Created with Inkscape (http://www.inkscape.org/) -->

<svg
   width="53.438889mm"
   height="55.471851mm"
   viewBox="0 0 53.438889 55.471851"
   version="1.1"
   id="svg1"
   inkscape:version="1.4.3 (0d15f75042, 2025-12-25)"
   sodipodi:docname="profile-12th-fret.svg"
   xmlns:inkscape="http://www.inkscape.org/namespaces/inkscape"
   xmlns:sodipodi="http://sodipodi.sourceforge.net/DTD/sodipodi-0.dtd"
   xmlns="http://www.w3.org/2000/svg"
   xmlns:svg="http://www.w3.org/2000/svg">
  <sodipodi:namedview
     id="namedview1"
     pagecolor="#ffffff"
     bordercolor="#000000"
     borderopacity="0.25"
     inkscape:showpageshadow="2"
     inkscape:pageopacity="0.0"
     inkscape:pagecheckerboard="0"
     inkscape:deskcolor="#d1d1d1"
     inkscape:document-units="mm"
     inkscape:zoom="1.6748036"
     inkscape:cx="139.12079"
     inkscape:cy="365.41598"
     inkscape:window-width="3840"
     inkscape:window-height="2091"
     inkscape:window-x="0"
     inkscape:window-y="0"
     inkscape:window-maximized="1"
     inkscape:current-layer="layer1" />
  <defs
     id="defs1" />
  <g
     inkscape:label="Layer 1"
     inkscape:groupmode="layer"
     id="layer1"
     transform="translate(-68.262512,-51.8583)">
    <path
       fill="none"
       stroke-width="0.0571429"
       stroke-linecap="round"
       stroke-linejoin="round"
       stroke="#000000"
       stroke-opacity="1"
       stroke-miterlimit="4"
       d="M 95.670289,66.018326 V 62.860892"
       id="path1458" />
    <path
       fill="none"
       stroke-width="0.0571429"
       stroke-linecap="round"
       stroke-linejoin="round"
       stroke="#000000"
       stroke-opacity="1"
       stroke-miterlimit="4"
       d="m 95.670289,101.15621 v -0.56429"
       id="path1459" />
    <path
       fill="none"
       stroke-width="0.0571429"
       stroke-linecap="round"
       stroke-linejoin="round"
       stroke="#000000"
       stroke-opacity="1"
       stroke-miterlimit="4"
       d="M 95.670289,52.451183 V 51.886871"
       id="path1460" />
    <path
       fill="none"
       stroke-width="0.0571429"
       stroke-linecap="round"
       stroke-linejoin="round"
       stroke="#000000"
       stroke-opacity="1"
       stroke-miterlimit="4"
       d="M 95.670289,85.352532 V 84.898801"
       id="path1461" />
    <path
       fill="none"
       stroke-width="0.0571429"
       stroke-linecap="round"
       stroke-linejoin="round"
       stroke="#000000"
       stroke-opacity="1"
       stroke-miterlimit="4"
       d="M 95.670289,98.809066 V 94.615018"
       id="path1465" />
    <path
       fill="none"
       stroke-width="0.0571429"
       stroke-linecap="round"
       stroke-linejoin="round"
       stroke="#000000"
       stroke-opacity="1"
       stroke-miterlimit="4"
       d="M 95.670289,68.612479 V 67.91277"
       id="path1466" />
    <path
       fill="none"
       stroke-width="0.0571429"
       stroke-linecap="round"
       stroke-linejoin="round"
       stroke="#000000"
       stroke-opacity="1"
       stroke-miterlimit="4"
       d="M 95.670289,58.597585 V 54.403511"
       id="path1467" />
    <path
       fill="none"
       stroke-width="0.0571429"
       stroke-linecap="round"
       stroke-linejoin="round"
       stroke="#000000"
       stroke-opacity="1"
       stroke-miterlimit="4"
       d="M 95.670289,61.008802 V 60.55404"
       id="path1468" />
    <path
       fill="none"
       stroke-width="0.0571429"
       stroke-linecap="round"
       stroke-linejoin="round"
       stroke="#000000"
       stroke-opacity="1"
       stroke-miterlimit="4"
       d="M 95.670289,82.941315 V 78.747241"
       id="path1469" />
    <path
       fill="none"
       stroke-width="0.0571429"
       stroke-linecap="round"
       stroke-linejoin="round"
       stroke="#000000"
       stroke-opacity="1"
       stroke-miterlimit="4"
       d="m 95.670289,107.30158 v -4.19405"
       id="path1471" />
    <path
       fill="none"
       stroke-width="0.0571429"
       stroke-linecap="round"
       stroke-linejoin="round"
       stroke="#000000"
       stroke-opacity="1"
       stroke-miterlimit="4"
       d="M 95.670289,76.795944 V 76.2306"
       id="path1475" />
    <path
       fill="none"
       stroke-width="0.0571429"
       stroke-linecap="round"
       stroke-linejoin="round"
       stroke="#000000"
       stroke-opacity="1"
       stroke-miterlimit="4"
       d="M 95.670289,74.448802 V 70.254754"
       id="path1477" />
    <path
       fill="none"
       stroke-width="0.0571429"
       stroke-linecap="round"
       stroke-linejoin="round"
       stroke="#000000"
       stroke-opacity="1"
       stroke-miterlimit="4"
       d="m 95.670289,90.470574 v -3.23082"
       id="path1478" />
    <path
       fill="none"
       stroke-width="0.0571429"
       stroke-linecap="round"
       stroke-linejoin="round"
       stroke="#000000"
       stroke-opacity="1"
       stroke-miterlimit="4"
       d="M 95.670289,92.972743 V 92.274066"
       id="path1482" />
    <path
       fill="none"
       stroke-width="0.0571429"
       stroke-linecap="round"
       stroke-linejoin="round"
       stroke="#000000"
       stroke-opacity="1"
       stroke-miterlimit="4"
       d="m 76.106613,82.250918 v -3.44373"
       id="path1483" />
    <path
       fill="none"
       stroke-width="0.0571429"
       stroke-linecap="round"
       stroke-linejoin="round"
       stroke="#000000"
       stroke-opacity="1"
       stroke-miterlimit="4"
       d="m 115.23497,82.250918 v -3.44373"
       id="path1484" />
    <path
       fill="none"
       stroke-width="0.0571429"
       stroke-linecap="round"
       stroke-linejoin="round"
       stroke="#000000"
       stroke-opacity="1"
       stroke-miterlimit="4"
       d="M 76.106613,82.250918 H 115.23497"
       id="path1485" />
    <path
       fill="none"
       stroke-width="0.0571429"
       stroke-linecap="round"
       stroke-linejoin="round"
       stroke="#000000"
       stroke-opacity="1"
       stroke-miterlimit="4"
       d="m 115.23497,78.807188 c -13.11754,-1.427302 -26.010818,-1.427302 -39.128357,0"
       id="path1486" />
    <path
       fill="none"
       stroke-width="0.0571429"
       stroke-linecap="round"
       stroke-linejoin="round"
       stroke="#000000"
       stroke-opacity="1"
       stroke-miterlimit="4"
       d="m 115.23497,82.250918 c -0.96635,4.247804 -3.83026,7.379391 -7.56026,9.343095 -3.66387,1.928571 -7.954024,2.649973 -12.004421,2.649973 -4.049365,0 -8.340581,-0.721402 -12.003412,-2.649973 -3.73,-1.963704 -6.594947,-5.095291 -7.560264,-9.343095"
       id="path1487" />
    <path
       fill="none"
       stroke-width="0.0571429"
       stroke-linecap="round"
       stroke-linejoin="round"
       stroke="#000000"
       stroke-opacity="1"
       stroke-miterlimit="4"
       d="M 97.733199,94.180944 V 86.81187 h -4.124814 v 7.369074"
       id="path1488" />
    <path
       fill="none"
       stroke-width="0.0571429"
       stroke-linecap="round"
       stroke-linejoin="round"
       stroke="#000000"
       stroke-opacity="1"
       stroke-miterlimit="4"
       d="M 97.733199,90.936685 H 93.608385"
       id="path1489" />
    <path
       fill="none"
       stroke-width="0.0571429"
       stroke-linecap="round"
       stroke-linejoin="round"
       stroke="#000000"
       stroke-opacity="1"
       stroke-miterlimit="4"
       d="m 97.733199,88.874807 c 0,-1.138969 -0.923968,-2.062937 -2.06291,-2.062937 -1.138968,0 -2.061904,0.923968 -2.061904,2.062937 0,1.138941 0.922936,2.061878 2.061904,2.061878 1.138942,0 2.06291,-0.922937 2.06291,-2.061878"
       id="path1490" />
    <path
       fill="none"
       stroke-width="0.0571429"
       stroke-linecap="round"
       stroke-linejoin="round"
       stroke="#000000"
       stroke-opacity="1"
       stroke-miterlimit="4"
       d="m 114.44018,77.672373 c -12.57907,-1.312566 -24.959705,-1.312566 -37.539811,0"
       id="path1491" />
    <path
       fill="none"
       stroke-width="0.0571429"
       stroke-linecap="round"
       stroke-linejoin="round"
       stroke="#000000"
       stroke-opacity="1"
       stroke-miterlimit="4"
       d="m 76.106613,78.807188 0.793756,-1.134815"
       id="path1492" />
    <path
       fill="none"
       stroke-width="0.0571429"
       stroke-linecap="round"
       stroke-linejoin="round"
       stroke="#000000"
       stroke-opacity="1"
       stroke-miterlimit="4"
       d="m 115.23497,78.807188 -0.79479,-1.134815"
       id="path1493" />
    <path
       fill="none"
       stroke-width="0.0571429"
       stroke-linecap="butt"
       stroke-linejoin="miter"
       stroke="#000000"
       stroke-opacity="1"
       stroke-miterlimit="4"
       d="M 94.920977,77.745759 H 71.6273"
       id="path2148" />
    <path
       fill="none"
       stroke-width="0.0571429"
       stroke-linecap="butt"
       stroke-linejoin="miter"
       stroke="#000000"
       stroke-opacity="1"
       stroke-miterlimit="4"
       d="M 94.920977,94.243986 H 71.6273"
       id="path2149" />
    <path
       fill="none"
       stroke-width="0.0571429"
       stroke-linecap="butt"
       stroke-linejoin="miter"
       stroke="#000000"
       stroke-opacity="1"
       stroke-miterlimit="4"
       d="M 72.376613,94.243986 V 77.745759"
       id="path2150" />
    <path
       fill-rule="nonzero"
       fill="#000000"
       fill-opacity="1"
       stroke-width="0.0571429"
       stroke-linecap="butt"
       stroke-linejoin="miter"
       stroke="#000000"
       stroke-opacity="1"
       stroke-miterlimit="22.9256"
       d="m 72.376613,94.243986 0.600476,-2.399867 h -1.199921 z m 0,0"
       id="path2151" />
    <path
       fill-rule="nonzero"
       fill="#000000"
       fill-opacity="1"
       stroke-width="0.0571429"
       stroke-linecap="butt"
       stroke-linejoin="miter"
       stroke="#000000"
       stroke-opacity="1"
       stroke-miterlimit="22.9256"
       d="m 72.376613,77.745759 -0.599445,2.399868 h 1.199921 z m 0,0"
       id="path2152" />
    <path
       fill-rule="nonzero"
       fill="#000000"
       fill-opacity="1"
       stroke-width="0.0571429"
       stroke-linecap="butt"
       stroke-linejoin="miter"
       stroke="#000000"
       stroke-opacity="1"
       stroke-miterlimit="22.9256"
       d="m 70.573094,88.230918 h 0.303863 v 1.702222 c -0.07545,0.0032 -0.148836,-0.0093 -0.219101,-0.03619 -0.116799,-0.04339 -0.230476,-0.112645 -0.343122,-0.207724 -0.11164,-0.09611 -0.241852,-0.234604 -0.389656,-0.414445 -0.229444,-0.280079 -0.411349,-0.469233 -0.545688,-0.567407 -0.133333,-0.0982 -0.260449,-0.147804 -0.380344,-0.147804 -0.125052,0 -0.230476,0.04548 -0.317301,0.134365 -0.08579,0.08992 -0.12918,0.206693 -0.12918,0.351402 0,0.151931 0.04651,0.273889 0.13746,0.364841 0.09095,0.09198 0.218069,0.13746 0.379286,0.138492 l -0.03307,0.325556 c -0.242883,-0.02169 -0.427883,-0.106455 -0.555,-0.251138 -0.127116,-0.144709 -0.190158,-0.341085 -0.190158,-0.585 0,-0.247011 0.06923,-0.443386 0.205661,-0.587037 0.13746,-0.144683 0.306958,-0.216005 0.509524,-0.216005 0.10336,0 0.204656,0.02063 0.303862,0.06304 0.100265,0.04238 0.20463,0.112646 0.314206,0.209815 0.110582,0.09817 0.261482,0.26045 0.453704,0.487831 0.159154,0.189127 0.267699,0.311084 0.324524,0.364814 0.05582,0.05479 0.112672,0.09923 0.170529,0.134365 z m 0,-2.000926 h 0.303863 v 1.702222 c -0.07545,0.0032 -0.148836,-0.0093 -0.219101,-0.03616 -0.116799,-0.04341 -0.230476,-0.112645 -0.343122,-0.207751 -0.11164,-0.09611 -0.241852,-0.234603 -0.389656,-0.414445 -0.229444,-0.280079 -0.411349,-0.469206 -0.545688,-0.567407 -0.133333,-0.09817 -0.260449,-0.147778 -0.380344,-0.147778 -0.125052,0 -0.230476,0.04548 -0.317301,0.134339 -0.08579,0.08992 -0.12918,0.206719 -0.12918,0.351402 0,0.151931 0.04651,0.273889 0.13746,0.364841 0.09095,0.09198 0.218069,0.13746 0.379286,0.138492 l -0.03307,0.325556 c -0.242883,-0.02275 -0.427883,-0.106455 -0.555,-0.251138 -0.127116,-0.145714 -0.190158,-0.341058 -0.190158,-0.584973 0,-0.247011 0.06923,-0.443387 0.205661,-0.587037 0.13746,-0.144709 0.306958,-0.216006 0.509524,-0.216006 0.10336,0 0.204656,0.02063 0.303862,0.06304 0.100265,0.04235 0.20463,0.112645 0.314206,0.209788 0.110582,0.0982 0.261482,0.26045 0.453704,0.487831 0.159154,0.189127 0.267699,0.311084 0.324524,0.364841 0.05582,0.05479 0.112672,0.09817 0.170529,0.134365 z m 0.303863,-0.515714 H 70.5173 v -0.360715 h 0.359657 z m -1.270212,-0.822699 c -0.303836,0 -0.549815,-0.031 -0.734841,-0.09405 -0.186032,-0.06201 -0.328651,-0.156059 -0.429947,-0.279048 -0.100239,-0.124021 -0.150873,-0.279048 -0.150873,-0.466138 0,-0.138492 0.02788,-0.259418 0.0837,-0.363783 0.05582,-0.104391 0.135397,-0.190185 0.24082,-0.258386 0.104392,-0.06823 0.23254,-0.120926 0.383439,-0.160212 0.149868,-0.03823 0.352434,-0.05786 0.607699,-0.05786 0.302831,0 0.545714,0.03101 0.731746,0.09302 0.186032,0.06201 0.329709,0.155027 0.430979,0.279048 0.101296,0.122989 0.151931,0.279047 0.151931,0.468174 0,0.248043 -0.08889,0.443387 -0.267672,0.584974 -0.213942,0.169497 -0.56328,0.254259 -1.046984,0.254259 z m 0,-0.324524 c 0.422725,0 0.704868,-0.0496 0.844391,-0.148836 0.140582,-0.09921 0.209815,-0.221164 0.209815,-0.365873 0,-0.145714 -0.07026,-0.267672 -0.210846,-0.365873 -0.140556,-0.09921 -0.421667,-0.148809 -0.84336,-0.148809 -0.42373,0 -0.704868,0.0496 -0.844392,0.148809 -0.139523,0.0982 -0.209788,0.221191 -0.209788,0.368995 0,0.145714 0.06201,0.261482 0.185,0.348281 0.15709,0.108518 0.446481,0.163306 0.86918,0.163306 z m 0,-1.676375 c -0.303836,0 -0.549815,-0.03101 -0.734841,-0.09407 -0.186032,-0.06201 -0.328651,-0.156059 -0.429947,-0.279048 -0.100239,-0.124021 -0.150873,-0.279048 -0.150873,-0.466111 0,-0.138492 0.02788,-0.259418 0.0837,-0.36381 0.05582,-0.104391 0.135397,-0.190158 0.24082,-0.258386 0.104392,-0.0682 0.23254,-0.121957 0.383439,-0.160185 0.149868,-0.03825 0.352434,-0.05788 0.607699,-0.05788 0.302831,0 0.545714,0.03101 0.731746,0.09302 0.186032,0.06201 0.329709,0.155027 0.430979,0.279048 0.101296,0.122989 0.151931,0.279074 0.151931,0.468201 0,0.248042 -0.08889,0.443386 -0.267672,0.584973 -0.213942,0.169498 -0.56328,0.25426 -1.046984,0.25426 z m 0,-0.324551 c 0.422725,0 0.704868,-0.0496 0.844391,-0.148809 0.140582,-0.09923 0.209815,-0.221191 0.209815,-0.365873 0,-0.145741 -0.07026,-0.267698 -0.210846,-0.366905 -0.140556,-0.09817 -0.421667,-0.147804 -0.84336,-0.147804 -0.42373,0 -0.704868,0.04963 -0.844392,0.147804 -0.139523,0.09921 -0.209788,0.222196 -0.209788,0.37 0,0.145741 0.06201,0.261482 0.185,0.348307 0.15709,0.108519 0.446481,0.16328 0.86918,0.16328 z m 0,0"
       id="path2153" />
    <path
       fill="none"
       stroke-width="0.0571429"
       stroke-linecap="butt"
       stroke-linejoin="miter"
       stroke="#000000"
       stroke-opacity="1"
       stroke-miterlimit="4"
       d="m 103.99637,77.938008 0.34625,-7.371138"
       id="path2164" />
    <path
       fill="none"
       stroke-width="0.0571429"
       stroke-linecap="butt"
       stroke-linejoin="miter"
       stroke="#000000"
       stroke-opacity="1"
       stroke-miterlimit="4"
       d="m 104.34262,70.56687 h 2.39986"
       id="path2165" />
    <path
       fill-rule="nonzero"
       fill="#000000"
       fill-opacity="1"
       stroke-width="0.0571429"
       stroke-linecap="butt"
       stroke-linejoin="miter"
       stroke="#000000"
       stroke-opacity="1"
       stroke-miterlimit="22.9256"
       d="m 103.99637,77.938008 0.71109,-2.368863 -1.19786,-0.05683 z m 0,0"
       id="path2166" />
    <path
       fill-rule="nonzero"
       fill="#000000"
       fill-opacity="1"
       stroke-width="0.0571429"
       stroke-linecap="butt"
       stroke-linejoin="miter"
       stroke="#000000"
       stroke-opacity="1"
       stroke-miterlimit="22.9256"
       d="m 108.52532,71.766791 v -2.575555 h 1.141 c 0.22945,0 0.4041,0.02381 0.524,0.07029 0.11886,0.04548 0.21497,0.127116 0.28629,0.243915 0.0713,0.117831 0.10646,0.24701 0.10646,0.388598 0,0.182936 -0.0579,0.336931 -0.17675,0.461984 -0.11884,0.125053 -0.30177,0.205688 -0.54878,0.239788 0.091,0.04238 0.15915,0.08579 0.20566,0.128148 0.10026,0.09095 0.19431,0.205688 0.28317,0.342117 l 0.44858,0.700714 h -0.42892 l -0.34106,-0.53537 c -0.0992,-0.155027 -0.1819,-0.272831 -0.246,-0.354498 -0.0641,-0.08267 -0.12193,-0.139523 -0.1726,-0.172592 -0.0517,-0.03307 -0.10336,-0.05582 -0.15605,-0.06923 -0.0382,-0.0071 -0.1013,-0.01138 -0.19016,-0.01138 h -0.39482 v 1.143069 z m 0.34002,-1.438651 h 0.73278 c 0.15503,0 0.27802,-0.01561 0.36481,-0.0486 0.0889,-0.03204 0.15506,-0.0837 0.20053,-0.153994 0.0455,-0.0713 0.0682,-0.147778 0.0682,-0.231508 0,-0.120926 -0.0434,-0.221164 -0.1323,-0.299709 -0.0878,-0.07854 -0.22735,-0.117831 -0.41857,-0.117831 h -0.81545 z m 3.78582,1.134815 v 0.303836 h -1.70222 c -0.003,-0.07545 0.0103,-0.148809 0.0372,-0.2191 0.0424,-0.116799 0.11267,-0.230477 0.20775,-0.343122 0.0961,-0.11164 0.23357,-0.241852 0.41341,-0.389656 0.28008,-0.229445 0.47024,-0.411349 0.56844,-0.545688 0.0982,-0.133333 0.14778,-0.26045 0.14778,-0.380344 0,-0.125053 -0.0455,-0.230476 -0.13434,-0.317302 -0.0899,-0.08577 -0.20775,-0.128148 -0.3514,-0.128148 -0.15194,0 -0.27389,0.04548 -0.36485,0.136429 -0.092,0.09198 -0.13849,0.218069 -0.13952,0.379286 l -0.32452,-0.03307 c 0.0217,-0.242884 0.10542,-0.427884 0.25113,-0.555 0.14469,-0.127117 0.34003,-0.190159 0.58498,-0.190159 0.24701,0 0.44235,0.06923 0.58704,0.205661 0.14367,0.137461 0.21603,0.306958 0.21603,0.509524 0,0.10336 -0.0206,0.204656 -0.0641,0.303863 -0.0413,0.100264 -0.11162,0.204656 -0.20979,0.314206 -0.0972,0.110582 -0.25942,0.261481 -0.4868,0.453704 -0.19016,0.15918 -0.31109,0.267698 -0.36587,0.324524 -0.0537,0.05582 -0.0982,0.112671 -0.13334,0.170555 z m 1.35289,0.303836 v -0.615979 h -1.11725 v -0.290423 l 1.17513,-1.669153 h 0.25839 v 1.669153 h 0.34828 v 0.290423 h -0.34828 v 0.615979 z m 0,-0.906402 v -1.160635 l -0.80617,1.160635 z m 2.17867,0.906402 h -0.31627 v -2.014339 c -0.0765,0.07236 -0.17568,0.144683 -0.29971,0.217037 -0.12402,0.07339 -0.2346,0.128149 -0.3328,0.163307 v -0.304894 c 0.17675,-0.08373 0.33074,-0.183968 0.46405,-0.301799 0.13127,-0.118862 0.22531,-0.233571 0.28114,-0.345185 h 0.20359 z m 0.98701,0 v -0.359656 h 0.36072 v 0.359656 z m 0.82373,-0.680053 0.31627,-0.04135 c 0.0362,0.178809 0.0982,0.307989 0.185,0.387593 0.0878,0.07855 0.19429,0.117804 0.31937,0.117804 0.14881,0 0.27489,-0.05063 0.37722,-0.153995 0.10233,-0.10336 0.15296,-0.231508 0.15296,-0.383439 0,-0.144683 -0.0465,-0.264577 -0.14158,-0.359656 -0.0951,-0.09405 -0.21601,-0.140556 -0.36175,-0.140556 -0.06,0 -0.13434,0.01138 -0.22323,0.03513 l 0.0351,-0.278016 c 0.0206,0.0032 0.0382,0.0042 0.0506,0.0042 0.13437,0 0.25529,-0.03616 0.36381,-0.105423 0.10749,-0.07026 0.16124,-0.178809 0.16124,-0.325555 0,-0.115768 -0.0393,-0.211879 -0.11783,-0.287328 -0.0785,-0.07648 -0.17984,-0.114709 -0.30386,-0.114709 -0.12299,0 -0.22532,0.03926 -0.30696,0.11574 -0.0827,0.07751 -0.13539,0.193281 -0.15812,0.348307 l -0.31627,-0.05685 c 0.0383,-0.211878 0.12609,-0.37619 0.26355,-0.492989 0.13746,-0.115741 0.30695,-0.174656 0.51161,-0.174656 0.13952,0 0.26973,0.03101 0.38757,0.09095 0.11783,0.05995 0.20878,0.142619 0.27182,0.247011 0.062,0.104391 0.0941,0.213942 0.0941,0.331746 0,0.110608 -0.03,0.211878 -0.0899,0.303862 -0.06,0.09095 -0.14781,0.164339 -0.26561,0.218069 0.15296,0.03413 0.27077,0.107487 0.35553,0.219127 0.0837,0.10955 0.12608,0.248042 0.12608,0.414445 0,0.225291 -0.0816,0.415476 -0.24598,0.572566 -0.1633,0.156058 -0.37103,0.233571 -0.62219,0.233571 -0.22632,0 -0.41341,-0.06717 -0.56326,-0.201534 -0.14883,-0.134365 -0.23359,-0.309021 -0.25529,-0.523995 z m 1.99987,-0.590132 c 0,-0.303863 0.031,-0.549841 0.0941,-0.734841 0.062,-0.186059 0.15605,-0.328678 0.27904,-0.429947 0.12402,-0.100265 0.27905,-0.1509 0.46611,-0.1509 0.1385,0 0.25942,0.02791 0.36381,0.0837 0.1044,0.05582 0.19016,0.135397 0.25839,0.24082 0.0682,0.104391 0.12093,0.23254 0.15915,0.383439 0.0393,0.149868 0.0589,0.352434 0.0589,0.607725 0,0.302804 -0.031,0.545688 -0.093,0.731719 -0.063,0.186032 -0.15502,0.329709 -0.27904,0.430979 -0.12403,0.101297 -0.27908,0.151931 -0.46821,0.151931 -0.24804,0 -0.44338,-0.08889 -0.58497,-0.267671 -0.1695,-0.213942 -0.25426,-0.563281 -0.25426,-1.046958 z m 0.32455,0 c 0,0.422698 0.0496,0.704841 0.14881,0.844391 0.0992,0.140556 0.22016,0.209789 0.36587,0.209789 0.14574,0 0.2677,-0.07027 0.36588,-0.210847 0.0992,-0.140555 0.14883,-0.421666 0.14883,-0.843333 0,-0.423757 -0.0496,-0.704868 -0.14883,-0.844418 -0.0982,-0.139524 -0.22117,-0.208757 -0.36897,-0.208757 -0.14574,0 -0.26148,0.06098 -0.34831,0.183969 -0.10852,0.157089 -0.16328,0.446481 -0.16328,0.869206 z m 0,0"
       id="path2167" />
  </g>
</svg>
