<?xml version="1.0" encoding="UTF-8" standalone="no"?>
<!-- Created with Inkscape (http://www.inkscape.org/) -->

<svg
   width="49.589092mm"
   height="39.05529mm"
   viewBox="0 0 49.589092 39.05529"
   version="1.1"
   id="svg1"
   inkscape:version="1.4.3 (0d15f75042, 2025-12-25)"
   sodipodi:docname="profile-1st-fret.svg"
   xmlns:inkscape="http://www.inkscape.org/namespaces/inkscape"
   xmlns:sodipodi="http://sodipodi.sourceforge.net/DTD/sodipodi-0.dtd"
   xmlns="http://www.w3.org/2000/svg"
   xmlns:svg="http://www.w3.org/2000/svg">
  <sodipodi:namedview
     id="namedview1"
     pagecolor="#ffffff"
     bordercolor="#000000"
     borderopacity="0.25"
     inkscape:showpageshadow="2"
     inkscape:pageopacity="0.0"
     inkscape:pagecheckerboard="0"
     inkscape:deskcolor="#d1d1d1"
     inkscape:document-units="mm"
     inkscape:zoom="1.6748036"
     inkscape:cx="-71.650193"
     inkscape:cy="489.01256"
     inkscape:window-width="3840"
     inkscape:window-height="2091"
     inkscape:window-x="0"
     inkscape:window-y="0"
     inkscape:window-maximized="1"
     inkscape:current-layer="layer1" />
  <defs
     id="defs1" />
  <g
     inkscape:label="Layer 1"
     inkscape:groupmode="layer"
     id="layer1"
     transform="translate(-124.08957,-19.049995)">
    <path
       fill="none"
       stroke-width="0.0571429"
       stroke-linecap="round"
       stroke-linejoin="round"
       stroke="#000000"
       stroke-opacity="1"
       stroke-miterlimit="4"
       d="M 148.12909,50.216714 V 49.545973"
       id="path1424" />
    <path
       fill="none"
       stroke-width="0.0571429"
       stroke-linecap="round"
       stroke-linejoin="round"
       stroke="#000000"
       stroke-opacity="1"
       stroke-miterlimit="4"
       d="M 148.12909,58.076714 V 57.535126"
       id="path1425" />
    <path
       fill="none"
       stroke-width="0.0571429"
       stroke-linecap="round"
       stroke-linejoin="round"
       stroke="#000000"
       stroke-opacity="1"
       stroke-miterlimit="4"
       d="M 148.12909,47.813777 V 44.710074"
       id="path1430" />
    <path
       fill="none"
       stroke-width="0.0571429"
       stroke-linecap="round"
       stroke-linejoin="round"
       stroke="#000000"
       stroke-opacity="1"
       stroke-miterlimit="4"
       d="M 148.12909,26.81764 V 26.146873"
       id="path1436" />
    <path
       fill="none"
       stroke-width="0.0571429"
       stroke-linecap="round"
       stroke-linejoin="round"
       stroke="#000000"
       stroke-opacity="1"
       stroke-miterlimit="4"
       d="M 148.12909,55.822587 V 51.794915"
       id="path1437" />
    <path
       fill="none"
       stroke-width="0.0571429"
       stroke-linecap="round"
       stroke-linejoin="round"
       stroke="#000000"
       stroke-opacity="1"
       stroke-miterlimit="4"
       d="M 148.12909,40.581132 V 36.55346"
       id="path1438" />
    <path
       fill="none"
       stroke-width="0.0571429"
       stroke-linecap="round"
       stroke-linejoin="round"
       stroke="#000000"
       stroke-opacity="1"
       stroke-miterlimit="4"
       d="M 148.12909,34.678645 V 34.136053"
       id="path1440" />
    <path
       fill="none"
       stroke-width="0.0571429"
       stroke-linecap="round"
       stroke-linejoin="round"
       stroke="#000000"
       stroke-opacity="1"
       stroke-miterlimit="4"
       d="M 148.12909,19.51473 V 19.078566"
       id="path1441" />
    <path
       fill="none"
       stroke-width="0.0571429"
       stroke-linecap="round"
       stroke-linejoin="round"
       stroke="#000000"
       stroke-opacity="1"
       stroke-miterlimit="4"
       d="M 148.12909,32.424518 V 28.395841"
       id="path1443" />
    <path
       fill="none"
       stroke-width="0.0571429"
       stroke-linecap="round"
       stroke-linejoin="round"
       stroke="#000000"
       stroke-opacity="1"
       stroke-miterlimit="4"
       d="M 148.12909,24.32682 V 21.293434"
       id="path1444" />
    <path
       fill="none"
       stroke-width="0.0571429"
       stroke-linecap="round"
       stroke-linejoin="round"
       stroke="#000000"
       stroke-opacity="1"
       stroke-miterlimit="4"
       d="M 148.12909,42.897269 V 42.461132"
       id="path1447" />
    <path
       fill="none"
       stroke-width="0.0571429"
       stroke-linecap="round"
       stroke-linejoin="round"
       stroke="#000000"
       stroke-opacity="1"
       stroke-miterlimit="4"
       d="m 131.59264,37.342058 h 33.07394"
       id="path1449" />
    <path
       fill="none"
       stroke-width="0.0571429"
       stroke-linecap="round"
       stroke-linejoin="round"
       stroke="#000000"
       stroke-opacity="1"
       stroke-miterlimit="4"
       d="m 131.59264,33.592402 v 3.749656"
       id="path1450" />
    <path
       fill="none"
       stroke-width="0.0571429"
       stroke-linecap="round"
       stroke-linejoin="round"
       stroke="#000000"
       stroke-opacity="1"
       stroke-miterlimit="4"
       d="m 164.66555,33.592402 c -11.07013,-1.015953 -22.00278,-1.015953 -33.07291,0"
       id="path1451" />
    <path
       fill="none"
       stroke-width="0.0571429"
       stroke-linecap="round"
       stroke-linejoin="round"
       stroke="#000000"
       stroke-opacity="1"
       stroke-miterlimit="4"
       d="M 164.66658,37.342058 V 33.592402"
       id="path1452" />
    <path
       fill="none"
       stroke-width="0.0571429"
       stroke-linecap="round"
       stroke-linejoin="round"
       stroke="#000000"
       stroke-opacity="1"
       stroke-miterlimit="4"
       d="m 150.07936,39.697455 c 0,-1.076932 -0.87334,-1.950265 -1.95027,-1.950265 -1.07693,0 -1.95026,0.873333 -1.95026,1.950265 0,1.075926 0.87333,1.949259 1.95026,1.949259 1.07693,0 1.95027,-0.873333 1.95027,-1.949259"
       id="path1453" />
    <path
       fill="none"
       stroke-width="0.0571429"
       stroke-linecap="round"
       stroke-linejoin="round"
       stroke="#000000"
       stroke-opacity="1"
       stroke-miterlimit="4"
       d="m 163.88214,32.472058 c -10.54199,-0.920873 -20.9641,-0.920873 -31.50609,0"
       id="path1454" />
    <path
       fill="none"
       stroke-width="0.0571429"
       stroke-linecap="round"
       stroke-linejoin="round"
       stroke="#000000"
       stroke-opacity="1"
       stroke-miterlimit="4"
       d="m 164.66555,33.592402 -0.78341,-1.120344"
       id="path1455" />
    <path
       fill="none"
       stroke-width="0.0571429"
       stroke-linecap="round"
       stroke-linejoin="round"
       stroke="#000000"
       stroke-opacity="1"
       stroke-miterlimit="4"
       d="m 131.59264,33.592402 0.78341,-1.120344"
       id="path1456" />
    <path
       fill="none"
       stroke-width="0.0571429"
       stroke-linecap="round"
       stroke-linejoin="round"
       stroke="#000000"
       stroke-opacity="1"
       stroke-miterlimit="4"
       d="m 164.66658,37.342058 c -2.10735,7.480688 -9.3059,11.241693 -16.53749,11.241693 -7.23161,0 -14.43013,-3.761005 -16.53645,-11.241693"
       id="path1457" />
    <path
       fill="none"
       stroke-width="0.0571429"
       stroke-linecap="butt"
       stroke-linejoin="miter"
       stroke="#000000"
       stroke-opacity="1"
       stroke-miterlimit="4"
       d="M 147.37875,32.835867 H 127.45438"
       id="path2154" />
    <path
       fill="none"
       stroke-width="0.0571429"
       stroke-linecap="butt"
       stroke-linejoin="miter"
       stroke="#000000"
       stroke-opacity="1"
       stroke-miterlimit="4"
       d="M 147.37875,48.583751 H 127.45438"
       id="path2155" />
    <path
       fill="none"
       stroke-width="0.0571429"
       stroke-linecap="butt"
       stroke-linejoin="miter"
       stroke="#000000"
       stroke-opacity="1"
       stroke-miterlimit="4"
       d="M 128.20473,48.583751 V 32.835867"
       id="path2156" />
    <path
       fill-rule="nonzero"
       fill="#000000"
       fill-opacity="1"
       stroke-width="0.0571429"
       stroke-linecap="butt"
       stroke-linejoin="miter"
       stroke="#000000"
       stroke-opacity="1"
       stroke-miterlimit="22.9256"
       d="m 128.20473,48.583751 0.59944,-2.399868 h -1.19992 z m 0,0"
       id="path2157" />
    <path
       fill-rule="nonzero"
       fill="#000000"
       fill-opacity="1"
       stroke-width="0.0571429"
       stroke-linecap="butt"
       stroke-linejoin="miter"
       stroke="#000000"
       stroke-opacity="1"
       stroke-miterlimit="22.9256"
       d="m 128.20473,32.835867 -0.60048,2.39881 h 1.19992 z m 0,0"
       id="path2158" />
    <path
       fill-rule="nonzero"
       fill="#000000"
       fill-opacity="1"
       stroke-width="0.0571429"
       stroke-linecap="butt"
       stroke-linejoin="miter"
       stroke="#000000"
       stroke-opacity="1"
       stroke-miterlimit="22.9256"
       d="m 126.40121,42.945841 h 0.30386 v 1.702222 c -0.0765,0.0026 -0.14987,-0.0093 -0.22013,-0.0372 -0.11577,-0.04238 -0.22944,-0.112672 -0.34315,-0.207751 -0.11161,-0.09611 -0.24182,-0.233571 -0.38963,-0.413413 -0.22944,-0.280079 -0.41135,-0.469206 -0.54571,-0.568439 -0.13331,-0.09817 -0.26045,-0.146746 -0.37929,-0.146746 -0.12611,0 -0.23151,0.04444 -0.3173,0.134339 -0.0858,0.08992 -0.12918,0.206719 -0.12918,0.35037 0,0.151931 0.0455,0.273889 0.13746,0.364841 0.0909,0.09198 0.21704,0.138492 0.37826,0.139524 l -0.032,0.324524 c -0.24289,-0.02169 -0.42789,-0.105423 -0.555,-0.251138 -0.12712,-0.144709 -0.19122,-0.340026 -0.19122,-0.584973 0,-0.247011 0.0693,-0.442355 0.20569,-0.586005 0.13746,-0.144709 0.30696,-0.217064 0.50952,-0.217064 0.10336,0 0.20463,0.02063 0.3049,0.0641 0.0992,0.04132 0.20463,0.111613 0.31418,0.209788 0.10957,0.09717 0.26148,0.26045 0.4527,0.487831 0.16018,0.189127 0.26767,0.311084 0.32452,0.364841 0.0568,0.05373 0.1137,0.09817 0.17156,0.133333 z m 0.30386,-1.52963 v 0.315238 h -2.01537 c 0.0723,0.07648 0.14572,0.175688 0.21807,0.299736 0.0724,0.124021 0.12712,0.234603 0.16331,0.333809 h -0.30593 c -0.0827,-0.177751 -0.18397,-0.331746 -0.3018,-0.465079 -0.11886,-0.13127 -0.23357,-0.225318 -0.34521,-0.281111 v -0.202593 z m 0,-0.988042 h -0.36069 v -0.360688 h 0.36069 z m -1.27021,-0.821667 c -0.30489,0 -0.54984,-0.03101 -0.73484,-0.09405 -0.18603,-0.06304 -0.32968,-0.156059 -0.42995,-0.28008 -0.10127,-0.122989 -0.15193,-0.279047 -0.15193,-0.466111 0,-0.138492 0.0289,-0.259418 0.0848,-0.363809 0.0548,-0.104392 0.1354,-0.190159 0.23979,-0.258387 0.1054,-0.06717 0.23254,-0.120926 0.38344,-0.159153 0.15087,-0.03929 0.35347,-0.05788 0.60873,-0.05788 0.3018,0 0.54572,0.03101 0.73175,0.09302 0.185,0.06201 0.32865,0.155027 0.42994,0.278016 0.1013,0.124021 0.15194,0.280079 0.15194,0.468201 0,0.249074 -0.0889,0.443386 -0.26665,0.584974 -0.21394,0.169497 -0.56431,0.255264 -1.04698,0.255264 z m 0,-0.325555 c 0.42273,0 0.70384,-0.0496 0.84439,-0.14881 0.13953,-0.0982 0.20982,-0.220159 0.20982,-0.365873 0,-0.145741 -0.0713,-0.266666 -0.21085,-0.365873 -0.14055,-0.09923 -0.42167,-0.148836 -0.84336,-0.148836 -0.42373,0 -0.7059,0.0496 -0.84542,0.148836 -0.13953,0.09921 -0.20876,0.222196 -0.20876,0.368968 0,0.145715 0.062,0.261482 0.185,0.348307 0.15606,0.108519 0.44648,0.163281 0.86918,0.163281 z m 0,-1.675344 c -0.30489,0 -0.54984,-0.03204 -0.73484,-0.09405 -0.18603,-0.06304 -0.32968,-0.156058 -0.42995,-0.280079 -0.10127,-0.12299 -0.15193,-0.279074 -0.15193,-0.466138 0,-0.138492 0.0289,-0.259418 0.0848,-0.363783 0.0548,-0.104391 0.1354,-0.190185 0.23979,-0.258386 0.1054,-0.0672 0.23254,-0.120926 0.38344,-0.15918 0.15087,-0.03926 0.35347,-0.05786 0.60873,-0.05786 0.3018,0 0.54572,0.03101 0.73175,0.09198 0.185,0.06304 0.32865,0.156058 0.42994,0.279048 0.1013,0.124021 0.15194,0.280079 0.15194,0.468174 0,0.249074 -0.0889,0.443387 -0.26665,0.584974 -0.21394,0.169497 -0.56431,0.255291 -1.04698,0.255291 z m 0,-0.325556 c 0.42273,0 0.70384,-0.0496 0.84439,-0.148836 0.13953,-0.09817 0.20982,-0.220132 0.20982,-0.365873 0,-0.145714 -0.0713,-0.26664 -0.21085,-0.365873 -0.14055,-0.09921 -0.42167,-0.148809 -0.84336,-0.148809 -0.42373,0 -0.7059,0.0496 -0.84542,0.148809 -0.13953,0.09923 -0.20876,0.222222 -0.20876,0.368969 0,0.14574 0.062,0.261507 0.185,0.348306 0.15606,0.108519 0.44648,0.163307 0.86918,0.163307 z m 0,0"
       id="path2159" />
    <path
       fill="none"
       stroke-width="0.0571429"
       stroke-linecap="butt"
       stroke-linejoin="miter"
       stroke="#000000"
       stroke-opacity="1"
       stroke-miterlimit="4"
       d="m 155.97047,33.005365 0.34934,-7.96127"
       id="path2160" />
    <path
       fill="none"
       stroke-width="0.0571429"
       stroke-linecap="butt"
       stroke-linejoin="miter"
       stroke="#000000"
       stroke-opacity="1"
       stroke-miterlimit="4"
       d="m 156.31981,25.044095 h 2.39984"
       id="path2161" />
    <path
       fill-rule="nonzero"
       fill="#000000"
       fill-opacity="1"
       stroke-width="0.0571429"
       stroke-linecap="butt"
       stroke-linejoin="miter"
       stroke="#000000"
       stroke-opacity="1"
       stroke-miterlimit="22.9256"
       d="m 155.97047,33.005365 0.70383,-2.3709 -1.19785,-0.05272 z m 0,0"
       id="path2162" />
    <path
       fill-rule="nonzero"
       fill="#000000"
       fill-opacity="1"
       stroke-width="0.0571429"
       stroke-linecap="butt"
       stroke-linejoin="miter"
       stroke="#000000"
       stroke-opacity="1"
       stroke-miterlimit="22.9256"
       d="M 160.50251,26.244016 V 23.66846 h 1.14203 c 0.22945,0 0.4041,0.02381 0.52297,0.07029 0.11989,0.04548 0.21497,0.127117 0.28629,0.243916 0.0713,0.11783 0.10749,0.24701 0.10749,0.388597 0,0.182937 -0.0589,0.336932 -0.17778,0.461985 -0.1178,0.125052 -0.30074,0.204656 -0.54775,0.238756 0.0899,0.04341 0.15812,0.08577 0.20566,0.12918 0.0992,0.09095 0.19328,0.205688 0.28318,0.342116 l 0.44754,0.700715 h -0.42892 l -0.34005,-0.536402 c -0.10024,-0.153995 -0.18188,-0.272831 -0.24701,-0.353466 -0.0641,-0.08267 -0.12196,-0.140556 -0.1726,-0.172593 -0.0506,-0.03307 -0.10232,-0.05582 -0.15502,-0.06923 -0.0393,-0.0071 -0.10233,-0.01138 -0.19016,-0.01138 h -0.39585 v 1.143069 z m 0.34002,-1.438678 h 0.73278 c 0.15606,0 0.27802,-0.01561 0.36585,-0.04857 0.0879,-0.03204 0.15399,-0.0837 0.2005,-0.153995 0.0455,-0.0713 0.0682,-0.147777 0.0682,-0.231508 0,-0.121957 -0.0445,-0.221164 -0.13334,-0.299709 -0.0879,-0.0796 -0.22738,-0.11783 -0.41857,-0.11783 h -0.81545 z m 3.78685,1.134815 v 0.303863 h -1.70222 c -0.003,-0.07648 0.009,-0.14881 0.0362,-0.219101 0.0434,-0.116799 0.11264,-0.230476 0.20775,-0.343121 0.0961,-0.112672 0.2346,-0.242884 0.41444,-0.389657 0.28008,-0.229444 0.46921,-0.411349 0.56741,-0.545687 0.0982,-0.134365 0.14778,-0.261482 0.14778,-0.380344 0,-0.125053 -0.0455,-0.230476 -0.13437,-0.317302 -0.0899,-0.08577 -0.20669,-0.12918 -0.35137,-0.12918 -0.15194,0 -0.27389,0.04548 -0.36485,0.137461 -0.092,0.09095 -0.13746,0.218068 -0.13952,0.379285 l -0.32452,-0.03307 c 0.0228,-0.242883 0.10643,-0.427883 0.25113,-0.555 0.14572,-0.127116 0.34106,-0.190158 0.58498,-0.190158 0.24701,0 0.44338,0.06923 0.58704,0.205661 0.1447,0.13746 0.216,0.306958 0.216,0.509524 0,0.10336 -0.0206,0.204656 -0.063,0.303862 -0.0424,0.09923 -0.11265,0.20463 -0.20979,0.314207 -0.0982,0.110582 -0.26045,0.261481 -0.48783,0.453703 -0.18915,0.15918 -0.31109,0.266667 -0.36484,0.324524 -0.0548,0.05582 -0.0992,0.112672 -0.13437,0.170529 z m 1.35186,0.303863 v -0.615979 h -1.11725 v -0.290423 l 1.17513,-1.669154 h 0.25836 v 1.669154 h 0.34831 v 0.290423 h -0.34831 v 0.615979 z m 0,-0.906402 v -1.160635 l -0.80617,1.160635 z m 2.17867,0.906402 h -0.31627 v -2.014339 c -0.0765,0.07236 -0.17568,0.144683 -0.29867,0.217037 -0.12506,0.07339 -0.23567,0.127117 -0.33384,0.163307 v -0.304894 c 0.17675,-0.08373 0.33177,-0.183968 0.46405,-0.302831 0.1323,-0.117831 0.22635,-0.23254 0.28114,-0.344153 h 0.20359 z m 0.98701,0 v -0.360688 h 0.36072 v 0.360688 z m 0.82477,-0.680053 0.31523,-0.04135 c 0.0372,0.178809 0.0982,0.307989 0.18604,0.386534 0.0868,0.0796 0.19325,0.118862 0.3183,0.118862 0.14884,0 0.27492,-0.05167 0.37725,-0.153994 0.10233,-0.10336 0.154,-0.231508 0.154,-0.383439 0,-0.145715 -0.0475,-0.265609 -0.14262,-0.359657 -0.0951,-0.09405 -0.21601,-0.141613 -0.36175,-0.141613 -0.0599,0 -0.13436,0.01243 -0.22323,0.03619 l 0.0351,-0.278016 c 0.0217,0.0026 0.0382,0.0032 0.0506,0.0032 0.1354,0 0.25632,-0.03513 0.36381,-0.105423 0.10852,-0.07029 0.16225,-0.17881 0.16225,-0.324524 0,-0.115767 -0.0403,-0.211878 -0.11884,-0.28836 -0.0785,-0.07545 -0.17984,-0.113677 -0.30386,-0.113677 -0.12299,0 -0.22532,0.03823 -0.30696,0.115741 -0.0816,0.07648 -0.13436,0.19328 -0.15812,0.348306 l -0.31627,-0.05685 c 0.0382,-0.211879 0.12712,-0.376191 0.26355,-0.49299 0.13746,-0.115741 0.30799,-0.174656 0.51161,-0.174656 0.14056,0 0.26973,0.02997 0.38757,0.08992 0.11886,0.06098 0.20875,0.142619 0.27182,0.24701 0.062,0.104365 0.0941,0.214974 0.0941,0.332778 0,0.110609 -0.03,0.211878 -0.0899,0.303863 -0.06,0.09095 -0.14781,0.163306 -0.26458,0.218068 0.15191,0.03413 0.26974,0.107487 0.3545,0.218096 0.0837,0.110582 0.12608,0.249074 0.12608,0.415476 0,0.224259 -0.0816,0.415476 -0.24598,0.571534 -0.1633,0.15709 -0.37103,0.234603 -0.62116,0.234603 -0.22632,0 -0.41444,-0.06717 -0.56325,-0.201534 -0.14987,-0.134365 -0.23463,-0.309021 -0.25529,-0.523995 z m 1.99883,-0.590159 c 0,-0.303836 0.031,-0.549815 0.0941,-0.734815 0.062,-0.186058 0.15608,-0.329709 0.27907,-0.429947 0.12402,-0.100264 0.27905,-0.150899 0.46611,-0.150899 0.1385,0 0.25942,0.02791 0.36381,0.0837 0.1044,0.05479 0.19016,0.135397 0.25839,0.240821 0.0682,0.104391 0.12196,0.232539 0.16019,0.382407 0.0383,0.150899 0.0579,0.353466 0.0579,0.60873 0,0.302831 -0.031,0.545714 -0.093,0.731746 -0.062,0.186032 -0.15502,0.329709 -0.27904,0.430979 -0.12299,0.101296 -0.27908,0.150899 -0.46821,0.150899 -0.24804,0 -0.44338,-0.08786 -0.58497,-0.26664 -0.1695,-0.213942 -0.25426,-0.56328 -0.25426,-1.046984 z m 0.32453,0 c 0,0.422725 0.0507,0.703836 0.14883,0.844418 0.0992,0.139524 0.22119,0.209788 0.36587,0.209788 0.14572,0 0.26768,-0.07026 0.36691,-0.210846 0.0982,-0.140556 0.1478,-0.421667 0.1478,-0.84336 0,-0.42373 -0.0496,-0.705899 -0.1478,-0.844391 -0.0992,-0.139524 -0.22222,-0.209789 -0.37,-0.209789 -0.14574,0 -0.26148,0.06201 -0.34831,0.185 -0.10852,0.156058 -0.1633,0.446482 -0.1633,0.86918 z m 0,0"
       id="path2163" />
  </g>
</svg>
