<?xml version="1.0" encoding="UTF-8" standalone="no"?>
<!-- Created with Inkscape (http://www.inkscape.org/) -->

<svg
   width="522.48767mm"
   height="46.362328mm"
   viewBox="0 0 522.48767 46.362328"
   version="1.1"
   id="svg1"
   inkscape:version="1.4.3 (0d15f75042, 2025-12-25)"
   sodipodi:docname="side-neck.svg"
   xmlns:inkscape="http://www.inkscape.org/namespaces/inkscape"
   xmlns:sodipodi="http://sodipodi.sourceforge.net/DTD/sodipodi-0.dtd"
   xmlns="http://www.w3.org/2000/svg"
   xmlns:svg="http://www.w3.org/2000/svg">
  <sodipodi:namedview
     id="namedview1"
     pagecolor="#ffffff"
     bordercolor="#000000"
     borderopacity="0.25"
     inkscape:showpageshadow="2"
     inkscape:pageopacity="0.0"
     inkscape:pagecheckerboard="0"
     inkscape:deskcolor="#d1d1d1"
     inkscape:document-units="mm"
     inkscape:zoom="0.8374018"
     inkscape:cx="582.7549"
     inkscape:cy="268.68822"
     inkscape:window-width="3840"
     inkscape:window-height="2091"
     inkscape:window-x="0"
     inkscape:window-y="0"
     inkscape:window-maximized="1"
     inkscape:current-layer="layer1" />
  <defs
     id="defs1" />
  <g
     inkscape:label="Layer 1"
     inkscape:groupmode="layer"
     id="layer1"
     transform="translate(383.64586,19.314589)">
    <path
       fill="none"
       stroke-width="0.0571429"
       stroke-linecap="round"
       stroke-linejoin="round"
       stroke="#000000"
       stroke-opacity="1"
       stroke-miterlimit="4"
       d="M -39.783987,-2.1759654 V -2.718558"
       id="path1422" />
    <path
       fill="none"
       stroke-width="0.0571429"
       stroke-linecap="round"
       stroke-linejoin="round"
       stroke="#000000"
       stroke-opacity="1"
       stroke-miterlimit="4"
       d="M -39.783987,10.959167 V 7.855463"
       id="path1423" />
    <path
       fill="none"
       stroke-width="0.0571429"
       stroke-linecap="round"
       stroke-linejoin="round"
       stroke="#000000"
       stroke-opacity="1"
       stroke-miterlimit="4"
       d="M -39.783987,13.362103 V 12.691362"
       id="path1426" />
    <path
       fill="none"
       stroke-width="0.0571429"
       stroke-linecap="round"
       stroke-linejoin="round"
       stroke="#000000"
       stroke-opacity="1"
       stroke-miterlimit="4"
       d="M -39.783987,3.727553 V -0.30115061"
       id="path1428" />
    <path
       fill="none"
       stroke-width="0.0571429"
       stroke-linecap="round"
       stroke-linejoin="round"
       stroke="#000000"
       stroke-opacity="1"
       stroke-miterlimit="4"
       d="m -39.783987,-10.035939 v -0.671799"
       id="path1429" />
    <path
       fill="none"
       stroke-width="0.0571429"
       stroke-linecap="round"
       stroke-linejoin="round"
       stroke="#000000"
       stroke-opacity="1"
       stroke-miterlimit="4"
       d="m -39.783987,-12.527791 v -3.032354"
       id="path1432" />
    <path
       fill="none"
       stroke-width="0.0571429"
       stroke-linecap="round"
       stroke-linejoin="round"
       stroke="#000000"
       stroke-opacity="1"
       stroke-miterlimit="4"
       d="m -39.783987,-17.33988 v -0.436164"
       id="path1433" />
    <path
       fill="none"
       stroke-width="0.0571429"
       stroke-linecap="round"
       stroke-linejoin="round"
       stroke="#000000"
       stroke-opacity="1"
       stroke-miterlimit="4"
       d="M -39.783987,-4.4300923 V -8.4587695"
       id="path1435" />
    <path
       fill="none"
       stroke-width="0.0571429"
       stroke-linecap="round"
       stroke-linejoin="round"
       stroke="#000000"
       stroke-opacity="1"
       stroke-miterlimit="4"
       d="M -39.783987,6.0436905 V 5.6065212"
       id="path1442" />
    <path
       fill="none"
       stroke-width="0.0571429"
       stroke-linecap="round"
       stroke-linejoin="round"
       stroke="#000000"
       stroke-opacity="1"
       stroke-miterlimit="4"
       d="M -39.783987,18.969008 V 14.940304"
       id="path1445" />
    <path
       fill="none"
       stroke-width="0.0571429"
       stroke-linecap="round"
       stroke-linejoin="round"
       stroke="#000000"
       stroke-opacity="1"
       stroke-miterlimit="4"
       d="M -255.38012,10.630489 V 7.3986376"
       id="path1462" />
    <path
       fill="none"
       stroke-width="0.0571429"
       stroke-linecap="round"
       stroke-linejoin="round"
       stroke="#000000"
       stroke-opacity="1"
       stroke-miterlimit="4"
       d="M -255.38012,-3.0451453 V -3.6094574"
       id="path1463" />
    <path
       fill="none"
       stroke-width="0.0571429"
       stroke-linecap="round"
       stroke-linejoin="round"
       stroke="#000000"
       stroke-opacity="1"
       stroke-miterlimit="4"
       d="M -255.38012,13.131627 V 12.432976"
       id="path1464" />
    <path
       fill="none"
       stroke-width="0.0571429"
       stroke-linecap="round"
       stroke-linejoin="round"
       stroke="#000000"
       stroke-opacity="1"
       stroke-miterlimit="4"
       d="M -255.38012,18.969008 V 14.774934"
       id="path1470" />
    <path
       fill="none"
       stroke-width="0.0571429"
       stroke-linecap="round"
       stroke-linejoin="round"
       stroke="#000000"
       stroke-opacity="1"
       stroke-miterlimit="4"
       d="m -255.38012,-18.832314 v -0.453704"
       id="path1472" />
    <path
       fill="none"
       stroke-width="0.0571429"
       stroke-linecap="round"
       stroke-linejoin="round"
       stroke="#000000"
       stroke-opacity="1"
       stroke-miterlimit="4"
       d="m -255.38012,-13.821759 v -3.157434"
       id="path1473" />
    <path
       fill="none"
       stroke-width="0.0571429"
       stroke-linecap="round"
       stroke-linejoin="round"
       stroke="#000000"
       stroke-opacity="1"
       stroke-miterlimit="4"
       d="M -255.38012,-5.3922881 V -9.5853303"
       id="path1476" />
    <path
       fill="none"
       stroke-width="0.0571429"
       stroke-linecap="round"
       stroke-linejoin="round"
       stroke="#000000"
       stroke-opacity="1"
       stroke-miterlimit="4"
       d="m -255.38012,-11.228637 v -0.698677"
       id="path1479" />
    <path
       fill="none"
       stroke-width="0.0571429"
       stroke-linecap="round"
       stroke-linejoin="round"
       stroke="#000000"
       stroke-opacity="1"
       stroke-miterlimit="4"
       d="M -255.38012,3.1012303 V -1.0928173"
       id="path1480" />
    <path
       fill="none"
       stroke-width="0.0571429"
       stroke-linecap="round"
       stroke-linejoin="round"
       stroke="#000000"
       stroke-opacity="1"
       stroke-miterlimit="4"
       d="M -255.38012,5.5124736 V 5.0577117"
       id="path1481" />
    <path
       fill="none"
       stroke-width="0.0571429"
       stroke-linecap="round"
       stroke-linejoin="round"
       stroke="#000000"
       stroke-opacity="1"
       stroke-miterlimit="4"
       d="M -363.71356,2.6082409 H -3.5340138"
       id="path1674" />
    <path
       fill="none"
       stroke-width="0.0571429"
       stroke-linecap="round"
       stroke-linejoin="round"
       stroke="#000000"
       stroke-opacity="1"
       stroke-miterlimit="4"
       d="M -363.71356,-1.1300395 H -12.522612"
       id="path1675" />
    <path
       fill="none"
       stroke-width="0.0571429"
       stroke-linecap="round"
       stroke-linejoin="round"
       stroke="#000000"
       stroke-opacity="1"
       stroke-miterlimit="4"
       d="m 8.0828643,6.3578969 c 20.8617717,0 41.7235447,0 62.5842847,0 10.827248,0 21.654497,0 32.481741,0 5.5118,0 11.02463,0 16.53749,0 2.78122,0 5.5614,0 8.34265,0 0.34933,0 0.69762,0 1.04695,0 0.17363,0 0.34831,0 0.52297,0 0.0393,0 0.1168,-0.065132 0.1168,0.013492 0,0.040291 0,0.080608 0,0.1219312 0,0.081667 0,0.1622751 0,0.2439153 0,0.6511376 0,1.3022487 0,1.9533862 0,1.3022487 0,2.6044974 0,3.9067194 0,1.301217 0,2.601402 0,3.902619 0,0.08164 0,0.162249 0,0.243916 0,0.03823 0.0661,0.112645 -0.009,0.112645 -0.0434,0 -0.0868,0 -0.13022,0 -0.17261,0 -0.34521,0 -0.5178,0 -0.34624,0 -0.69143,0 -1.03767,0 -0.6904,0 -1.38079,0 -2.07119,0 -2.75537,0 -5.50974,0 -8.2641,0 -5.47148,0 -10.94299,0 -16.4145,0 -10.788994,0 -21.579046,0 -32.369073,0 -20.97029,0 -41.939549,0 -62.9098663,0 -4.5981481,0 -9.1973543,0 -13.7965606,0 -0.1426191,0 -0.2852646,0 -0.4289154,0 -0.035132,0 -0.071323,0 -0.1074867,0 -0.086825,0 -0.1395238,-0.05788 -0.2077513,-0.08992 -0.1736244,-0.08164 -0.3472487,-0.161217 -0.5219313,-0.239761 -0.3514021,-0.157117 -0.7048677,-0.306958 -1.0614284,-0.451667 -1.46037,-0.589101 -2.945556,-1.063492 -4.474153,-1.440741 -3.476773,-0.856799 -6.931879,-1.141005 -10.491349,-1.128598 -0.584974,0.0026 -1.168916,0.0042 -1.753889,0.0061 -1.168916,0.0042 -2.337831,0.0082 -3.506773,0.01243 -2.33783,0.0082 -4.675661,0.0164 -7.013518,0.02487 -9.350317,0.03206 -18.701693,0.0641 -28.053068,0.09717 -18.701693,0.06511 -37.403387,0.130211 -56.106137,0.195344 -42.67749,0.147778 -85.355,0.296613 -128.03248,0.445449 -4.39871,0.01455 -8.79844,0.02997 -13.19715,0.04548 -0.54981,0.0026 -1.09965,0.0042 -1.64949,0.0061 -7.19852,0.02487 -14.2317,0.685238 -21.29276,2.129074 -0.71933,0.146746 -1.41076,0.388598 -2.16732,0.388598 -0.13746,0 -0.27492,0 -0.41238,0 -1.10069,0 -2.20037,0 -3.30006,0 -2.19934,0 -4.39867,0 -6.59804,0 -8.79841,0 -17.59685,0 -26.39426,0 -8.79841,0 -17.59685,0 -26.39426,0 -2.20037,0 -4.39971,0 -6.59907,0 -1.09966,0 -2.19934,0 -3.29902,0 -0.54984,0 -1.09968,0 -1.6495,0 -0.27492,0 -0.54984,0 -0.82476,0 -0.0693,0 -0.13746,0 -0.20672,0 -0.06,0 -0.16534,0.06926 -0.16534,-0.04135 0,-0.13746 0,-0.274921 0,-0.412354 0,-4.398704 0,-8.7974078 0,-13.1971432 0,-1.3311904 0,-2.66235445 0,-3.99251315 0,-0.33280425 0,-0.66560845 0,-0.99838625 0,-0.08373 0,-0.1664021 0,-0.2501323 0,-0.041323 0,-0.082672 0,-0.1250529 0,-0.06201 0.0579,-0.031005 0.094,-0.031005 0.1664,0 0.33278,0 0.49918,0 0.66561,0 1.33119,0 1.99677,0 2.66239,0 5.32477,0 7.98712,0 5.32474,0 10.64844,0 15.9732,0 10.64947,0 21.29791,0 31.94738,0 21.29794,0 42.59587,0 63.89378,0 42.65683,0 85.31365,0 127.97154,0 21.335129,0 42.67026,0 64.005392,0 10.668069,0 21.336164,0 32.003201,0 1.333254,0 2.666508,0 4.000793,0 0.166403,0 0.332805,0 0.500239,0 0.08267,0 0.166375,0 0.249074,0 0.121957,0 0.06923,0.1095503 0.06923,0.1819048 0,0.333836 0,0.6666402 0,1.0004497 0,0.16640214 0,0.33280425 0,0.49920637 0,0.0733862 -0.07233,0.19325396 0.05685,0.19325396 0.08267,0 0.166402,0 0.250106,0 0.332804,0 0.66664,0 0.999418,0 0.333836,0 0.66664,0 1.000476,0 0.117804,0 0.07442,-0.10230158 0.07442,-0.17568783 0,-0.0837037 0,-0.16640211 0,-0.25010581 0,-0.16640211 0,-0.33280419 0,-0.50023809 0,-0.1664021 0,-0.3328042 0,-0.5002381 0,-0.082672 0,-0.1663756 0,-0.2490741 0,-0.073386 -0.08167,-0.1994709 0.05063,-0.1994709 0.3338361,0 0.6666138,0 1.0004498,0 0.1664021,0 0.333836,0 0.5002381,0 0.083704,0 0.1664021,0 0.2501058,0 0.1054233,0 0.1302117,0.076481 0.1788095,0.1415873 0.1984392,0.2635715 0.3937566,0.5271164 0.597381,0.7865344 0.4030688,0.51468256 0.8288889,1.00664022 1.2805291,1.48 3.749656,3.9222486 8.9400263,6.1412433 14.3660579,6.1412433"
       id="path1676" />
    <path
       fill="none"
       stroke-width="0.0571429"
       stroke-linecap="round"
       stroke-linejoin="round"
       stroke="#000000"
       stroke-opacity="1"
       stroke-miterlimit="22.9256"
       d="m -298.24676,16.948452 c 0,0 6.95563,-9.5973541 27.40608,-12.4684916"
       id="path1677" />
    <path
       fill="none"
       stroke-width="0.0571429"
       stroke-linecap="butt"
       stroke-linejoin="miter"
       stroke="#000000"
       stroke-opacity="1"
       stroke-miterlimit="4"
       d="m -10.141342,-1.1300395 h 2.6819844"
       id="path1678" />
    <path
       fill="none"
       stroke-width="0.0571429"
       stroke-linecap="round"
       stroke-linejoin="round"
       stroke="#000000"
       stroke-opacity="1"
       stroke-miterlimit="4"
       d="m 129.71575,17.606812 v 9.412354"
       id="path1699" />
    <path
       fill="none"
       stroke-width="0.0571429"
       stroke-linecap="round"
       stroke-linejoin="round"
       stroke="#000000"
       stroke-opacity="1"
       stroke-miterlimit="4"
       d="m -363.71356,17.606812 v 9.412354"
       id="path1700" />
    <path
       fill="none"
       stroke-width="0.0571429"
       stroke-linecap="round"
       stroke-linejoin="round"
       stroke="#000000"
       stroke-opacity="1"
       stroke-miterlimit="4"
       d="M -363.71356,26.268822 H 129.71575"
       id="path1701" />
    <path
       fill-rule="nonzero"
       fill="#000000"
       fill-opacity="1"
       stroke-width="0.0571429"
       stroke-linecap="round"
       stroke-linejoin="round"
       stroke="#000000"
       stroke-opacity="1"
       stroke-miterlimit="22.9256"
       d="m -363.71356,26.268822 2.39984,0.600477 v -1.199921 z m 0,0"
       id="path1702" />
    <path
       fill-rule="nonzero"
       fill="#000000"
       fill-opacity="1"
       stroke-width="0.0571429"
       stroke-linecap="round"
       stroke-linejoin="round"
       stroke="#000000"
       stroke-opacity="1"
       stroke-miterlimit="22.9256"
       d="m 129.71575,26.268822 -2.39987,-0.599444 v 1.199921 z m 0,0"
       id="path1703" />
    <path
       fill-rule="nonzero"
       fill="#000000"
       fill-opacity="1"
       stroke-width="0.0571429"
       stroke-linecap="round"
       stroke-linejoin="round"
       stroke="#000000"
       stroke-opacity="1"
       stroke-miterlimit="22.9256"
       d="m -120.16668,22.825092 -0.31522,0.02381 c -0.0279,-0.124021 -0.0672,-0.213942 -0.11886,-0.269762 -0.0858,-0.09095 -0.19121,-0.135397 -0.31627,-0.135397 -0.10127,0 -0.18912,0.02791 -0.26561,0.08373 -0.0992,0.07339 -0.17777,0.178783 -0.23563,0.318334 -0.0568,0.139523 -0.0868,0.337963 -0.0889,0.595291 0.0755,-0.115741 0.16847,-0.201535 0.27905,-0.25836 0.10955,-0.05582 0.22532,-0.08373 0.34624,-0.08373 0.21082,0 0.39066,0.07751 0.53847,0.232539 0.14777,0.155027 0.22219,0.355529 0.22219,0.601508 0,0.162275 -0.0351,0.312143 -0.10439,0.450635 -0.0703,0.138492 -0.1664,0.244947 -0.2873,0.319365 -0.12196,0.07336 -0.26045,0.110582 -0.41445,0.110582 -0.26357,0 -0.47854,-0.09714 -0.64492,-0.291455 -0.1664,-0.19328 -0.2491,-0.512645 -0.2491,-0.958095 0,-0.497116 0.092,-0.858862 0.27596,-1.085185 0.16021,-0.196376 0.37518,-0.295609 0.64804,-0.295609 0.20153,0 0.36793,0.05685 0.49711,0.170556 0.13022,0.113677 0.20773,0.270767 0.23358,0.47127 z m -1.29191,1.110027 c 0,0.108518 0.0238,0.212883 0.0703,0.312116 0.0455,0.100265 0.11058,0.175688 0.19326,0.227381 0.0837,0.0527 0.17053,0.07854 0.26251,0.07854 0.13333,0 0.24804,-0.05376 0.34418,-0.161243 0.0951,-0.108519 0.14365,-0.254233 0.14365,-0.439233 0,-0.177778 -0.0475,-0.318333 -0.14262,-0.420661 -0.094,-0.102302 -0.21394,-0.153995 -0.35762,-0.153995 -0.14365,0 -0.26457,0.05169 -0.36378,0.153995 -0.10027,0.102328 -0.14987,0.236693 -0.14987,0.403095 z m 1.65159,0.160185 0.33278,-0.02894 c 0.0238,0.162275 0.0806,0.283201 0.17053,0.364841 0.0899,0.08164 0.1974,0.121958 0.32455,0.121958 0.1519,0 0.28111,-0.05685 0.3855,-0.171561 0.10645,-0.115767 0.15915,-0.267698 0.15915,-0.456825 0,-0.180873 -0.0506,-0.32246 -0.15193,-0.426852 -0.10127,-0.104391 -0.23357,-0.15709 -0.39791,-0.15709 -0.1023,0 -0.19428,0.02381 -0.27595,0.07026 -0.0827,0.04548 -0.14675,0.105423 -0.19326,0.179841 l -0.29664,-0.03926 0.2491,-1.321905 h 1.28053 v 0.301799 h -1.02732 l -0.13953,0.69246 c 0.15503,-0.108518 0.3173,-0.162249 0.4868,-0.162249 0.22529,0 0.41445,0.07751 0.56947,0.233572 0.15503,0.156058 0.23254,0.356561 0.23254,0.601508 0,0.23254 -0.0693,0.434074 -0.20463,0.603571 -0.16537,0.208783 -0.39069,0.313175 -0.67592,0.313175 -0.23463,0 -0.42582,-0.06614 -0.57363,-0.197408 -0.14883,-0.131269 -0.23357,-0.304894 -0.25423,-0.520899 z m 2.4877,-0.722434 c -0.13127,-0.04754 -0.22842,-0.116799 -0.29146,-0.205661 -0.063,-0.08889 -0.0951,-0.195344 -0.0951,-0.319365 0,-0.188122 0.0672,-0.345212 0.20257,-0.472328 0.13436,-0.128148 0.31315,-0.192249 0.5364,-0.192249 0.22529,0 0.40617,0.06513 0.54363,0.196376 0.13642,0.130238 0.20568,0.289391 0.20568,0.476455 0,0.119894 -0.032,0.223254 -0.094,0.312143 -0.0631,0.08783 -0.15815,0.157089 -0.28527,0.204629 0.15709,0.05167 0.27802,0.134365 0.36069,0.249074 0.0827,0.114736 0.12405,0.252196 0.12405,0.411349 0,0.220133 -0.0786,0.405133 -0.2336,0.555 -0.15606,0.149868 -0.36069,0.225318 -0.61495,0.225318 -0.25423,0 -0.45889,-0.07545 -0.61495,-0.226349 -0.15605,-0.149868 -0.23357,-0.337963 -0.23357,-0.562249 0,-0.167407 0.0424,-0.307989 0.12712,-0.421667 0.0848,-0.112645 0.20569,-0.190158 0.36278,-0.230476 z m -0.0631,-0.536402 c 0,0.121958 0.0393,0.221164 0.11781,0.298677 0.0786,0.07754 0.17984,0.116799 0.30489,0.116799 0.12196,0 0.22223,-0.03823 0.30077,-0.115741 0.0775,-0.07648 0.11574,-0.170555 0.11574,-0.281137 0,-0.116773 -0.0393,-0.213942 -0.11987,-0.292487 -0.0806,-0.07958 -0.17984,-0.118862 -0.29973,-0.118862 -0.12093,0 -0.22117,0.03825 -0.30077,0.115767 -0.0796,0.07751 -0.11884,0.169497 -0.11884,0.276984 z m -0.10232,1.189603 c 0,0.08989 0.0217,0.177752 0.0641,0.261482 0.0424,0.08474 0.10646,0.149841 0.19122,0.196349 0.0847,0.04651 0.17465,0.06926 0.2718,0.06926 0.1509,0 0.27595,-0.04857 0.37415,-0.145741 0.0982,-0.09714 0.14778,-0.221164 0.14778,-0.371031 0,-0.151932 -0.0506,-0.278016 -0.15191,-0.377223 -0.10129,-0.100264 -0.22841,-0.149867 -0.38034,-0.149867 -0.14884,0 -0.27183,0.0496 -0.37,0.147777 -0.0972,0.09923 -0.14677,0.222223 -0.14677,0.368995 z m 1.85725,0.743095 V 24.40951 h 0.36071 v 0.359656 z m 0.82166,-1.270211 c 0,-0.303863 0.032,-0.549841 0.0951,-0.734841 0.062,-0.186032 0.15503,-0.328651 0.27905,-0.429948 0.12299,-0.100238 0.27905,-0.150899 0.46611,-0.150899 0.13849,0 0.25942,0.02791 0.36381,0.08373 0.10439,0.05579 0.19018,0.135397 0.25839,0.24082 0.0682,0.104365 0.12092,0.23254 0.15915,0.383439 0.0393,0.149842 0.0589,0.352434 0.0589,0.607699 0,0.30283 -0.032,0.545714 -0.093,0.731746 -0.063,0.186032 -0.15606,0.329682 -0.27905,0.430979 -0.12402,0.101296 -0.28008,0.151931 -0.4682,0.151931 -0.24804,0 -0.44336,-0.08889 -0.58497,-0.267699 -0.1695,-0.213941 -0.25527,-0.563254 -0.25527,-1.046957 z m 0.32556,0 c 0,0.422725 0.0496,0.704868 0.14883,0.844391 0.0992,0.140556 0.22014,0.209815 0.36585,0.209815 0.14574,0 0.26667,-0.07029 0.36587,-0.210846 0.0992,-0.140556 0.14884,-0.421667 0.14884,-0.84336 0,-0.42373 -0.0496,-0.704868 -0.14884,-0.844392 -0.0992,-0.139524 -0.22116,-0.209815 -0.36897,-0.209815 -0.14571,0 -0.26148,0.06201 -0.34828,0.185027 -0.10854,0.15709 -0.1633,0.446481 -0.1633,0.86918 z m 1.67637,0 c 0,-0.303863 0.031,-0.549841 0.0941,-0.734841 0.062,-0.186032 0.15503,-0.328651 0.27907,-0.429948 0.12403,-0.100238 0.27905,-0.150899 0.46612,-0.150899 0.13849,0 0.25941,0.02791 0.36381,0.08373 0.10436,0.05579 0.19015,0.135397 0.25836,0.24082 0.0682,0.104365 0.12092,0.23254 0.15918,0.383439 0.0392,0.149842 0.0589,0.352434 0.0589,0.607699 0,0.30283 -0.032,0.545714 -0.093,0.731746 -0.063,0.186032 -0.15608,0.329682 -0.27907,0.430979 -0.12402,0.101296 -0.27905,0.151931 -0.46817,0.151931 -0.24805,0 -0.44339,-0.08889 -0.58498,-0.267699 -0.16949,-0.213941 -0.25426,-0.563254 -0.25426,-1.046957 z m 0.32453,0 c 0,0.422725 0.0496,0.704868 0.14883,0.844391 0.0992,0.140556 0.22014,0.209815 0.36588,0.209815 0.14571,0 0.26767,-0.07029 0.36587,-0.210846 0.0992,-0.140556 0.14881,-0.421667 0.14881,-0.84336 0,-0.42373 -0.0496,-0.704868 -0.14881,-0.844392 -0.0982,-0.139524 -0.22119,-0.209815 -0.36897,-0.209815 -0.14574,0 -0.26148,0.06201 -0.34831,0.185027 -0.10851,0.15709 -0.1633,0.446481 -0.1633,0.86918 z m 0,0"
       id="path1704" />
    <path
       fill="none"
       stroke-width="0.0571429"
       stroke-linecap="round"
       stroke-linejoin="round"
       stroke="#000000"
       stroke-opacity="1"
       stroke-miterlimit="4"
       d="M -2.5325059,3.2851985 -6.1870825,9.067791"
       id="path1705" />
    <path
       fill="none"
       stroke-width="0.0571429"
       stroke-linecap="round"
       stroke-linejoin="round"
       stroke="#000000"
       stroke-opacity="1"
       stroke-miterlimit="4"
       d="M -6.1870825,9.067791 H -8.5869238"
       id="path1706" />
    <path
       fill-rule="nonzero"
       fill="#000000"
       fill-opacity="1"
       stroke-width="0.0571429"
       stroke-linecap="round"
       stroke-linejoin="round"
       stroke="#000000"
       stroke-opacity="1"
       stroke-miterlimit="22.9256"
       d="m -2.5325059,3.2851985 -1.7890476,1.7084392 1.0138889,0.6407671 z m 0,0"
       id="path1707" />
    <path
       fill-rule="nonzero"
       fill="#000000"
       fill-opacity="1"
       stroke-width="0.0571429"
       stroke-linecap="round"
       stroke-linejoin="round"
       stroke="#000000"
       stroke-opacity="1"
       stroke-miterlimit="22.9256"
       d="M -20.12523,10.267738 V 7.6921826 h 1.142037 c 0.229444,0 0.4041,0.02381 0.522963,0.070265 0.118862,0.045476 0.214973,0.1271164 0.286296,0.2439154 0.0713,0.1178307 0.107487,0.2470106 0.107487,0.3885978 0,0.1829366 -0.05892,0.3369313 -0.177778,0.4620106 -0.117804,0.1250529 -0.300741,0.2056614 -0.547752,0.2397619 0.08989,0.042381 0.158122,0.085794 0.205662,0.1281746 0.09921,0.090926 0.19328,0.2056614 0.282143,0.34209 l 0.448571,0.7007401 h -0.428915 l -0.340053,-0.5353698 c -0.100238,-0.1550264 -0.181878,-0.2728571 -0.247011,-0.3544973 -0.06407,-0.082698 -0.121957,-0.1395503 -0.172592,-0.1726191 -0.05063,-0.033069 -0.102328,-0.055794 -0.155027,-0.069233 -0.03928,-0.00714 -0.102328,-0.011376 -0.190158,-0.011376 h -0.395847 v 1.1430952 z m 0.340026,-1.4386771 h 0.732778 c 0.156058,0 0.278016,-0.015609 0.365846,-0.048571 0.08786,-0.032063 0.153995,-0.08373 0.200503,-0.1539947 0.04548,-0.071323 0.06823,-0.1478042 0.06823,-0.2315344 0,-0.1208994 -0.04444,-0.221164 -0.133333,-0.2997089 -0.08786,-0.078545 -0.227381,-0.1178307 -0.418571,-0.1178307 h -0.81545 z m 3.786852,1.1348148 v 0.3038623 h -1.703254 c -0.0026,-0.07545 0.01032,-0.148836 0.0372,-0.219127 0.04341,-0.1167724 0.112645,-0.2304761 0.207751,-0.3431216 0.09611,-0.1126455 0.233571,-0.2418518 0.414444,-0.3896561 0.279048,-0.2294179 0.469207,-0.4113227 0.567408,-0.5456878 0.09817,-0.1333333 0.147778,-0.2604497 0.147778,-0.3803439 0,-0.1250529 -0.04548,-0.2304762 -0.134366,-0.3173016 -0.08989,-0.085767 -0.206693,-0.1291799 -0.351375,-0.1291799 -0.151931,0 -0.273889,0.046508 -0.364841,0.1374604 -0.09199,0.090952 -0.137461,0.2180687 -0.139524,0.3793121 l -0.324524,-0.033069 c 0.02169,-0.2428836 0.106429,-0.4278835 0.251138,-0.5550264 0.144682,-0.1271164 0.341058,-0.1901587 0.584973,-0.1901587 0.247011,0 0.442355,0.069233 0.587037,0.2056613 0.144709,0.1374604 0.216005,0.3069577 0.216005,0.5095503 0,0.1033333 -0.02063,0.2046296 -0.06304,0.303836 -0.04235,0.099233 -0.112645,0.2046561 -0.209788,0.3142063 -0.0982,0.110582 -0.26045,0.2614815 -0.487831,0.4537037 -0.189153,0.1591799 -0.311085,0.2676984 -0.364841,0.3245503 -0.05479,0.055794 -0.09921,0.1126455 -0.134365,0.1705291 z m 1.979206,-1.6402116 -0.314206,0.02381 c -0.02791,-0.1240212 -0.0682,-0.2139418 -0.119894,-0.2697355 -0.08577,-0.090952 -0.191191,-0.1353968 -0.316244,-0.1353968 -0.100264,0 -0.189153,0.02791 -0.264577,0.083704 -0.100264,0.073386 -0.178809,0.1788095 -0.235661,0.3183333 -0.05788,0.1395238 -0.08786,0.337963 -0.08992,0.5953175 0.07648,-0.1157672 0.169498,-0.2015344 0.279048,-0.2583862 0.110609,-0.05582 0.226349,-0.083704 0.346243,-0.083704 0.210847,0 0.390688,0.077513 0.538466,0.2325397 0.148836,0.1550265 0.222222,0.3555291 0.222222,0.601508 0,0.1612433 -0.03516,0.3121163 -0.104391,0.4506084 -0.06926,0.1384925 -0.165371,0.2449475 -0.287328,0.3193655 -0.121958,0.07339 -0.259418,0.110582 -0.414445,0.110582 -0.263545,0 -0.478518,-0.09714 -0.64492,-0.291455 -0.166402,-0.1932544 -0.249074,-0.5126195 -0.249074,-0.9580692 0,-0.4971164 0.09198,-0.8588624 0.275952,-1.0852116 0.160185,-0.1963757 0.37619,-0.295582 0.648016,-0.295582 0.202566,0 0.367936,0.056852 0.498174,0.1705291 0.12918,0.1136772 0.206694,0.2707936 0.23254,0.4712963 z m -1.290873,1.1099999 c 0,0.1085186 0.02275,0.2129101 0.06923,0.3121429 0.04651,0.1002381 0.110582,0.1756878 0.19328,0.2273545 0.0837,0.052725 0.171561,0.078545 0.262514,0.078545 0.133306,0 0.248042,-0.05373 0.344153,-0.1612154 0.09611,-0.1085185 0.143677,-0.2542592 0.143677,-0.4392592 0,-0.1777513 -0.04757,-0.3183069 -0.141614,-0.4206349 -0.09508,-0.1023281 -0.213941,-0.1539947 -0.358624,-0.1539947 -0.142619,0 -0.264577,0.051667 -0.363809,0.1539947 -0.09921,0.102328 -0.14881,0.2366666 -0.14881,0.4030687 z m 1.828307,0.834074 V 9.9080556 h 0.360688 v 0.3596824 z m 0.822672,-0.6748941 0.331772,-0.02791 c 0.02487,0.1622486 0.08164,0.2831746 0.170529,0.3648412 0.08992,0.08164 0.19844,0.1219309 0.324524,0.1219309 0.152963,0 0.281138,-0.056825 0.386535,-0.1715605 0.105423,-0.1157407 0.158148,-0.2676719 0.158148,-0.4568254 0,-0.1808465 -0.05066,-0.3224603 -0.151931,-0.4268254 -0.101297,-0.1043915 -0.233572,-0.1571164 -0.39791,-0.1571164 -0.102328,0 -0.193281,0.02381 -0.275953,0.070291 -0.08164,0.045476 -0.145741,0.1054233 -0.19328,0.1798413 l -0.296614,-0.039286 0.250106,-1.3218783 h 1.280555 v 0.3017989 h -1.028359 l -0.138492,0.6924603 c 0.153994,-0.1085185 0.317275,-0.1622751 0.486772,-0.1622751 0.225317,0 0.414444,0.077513 0.569497,0.2335714 0.153995,0.1560847 0.231508,0.3565873 0.231508,0.6015344 0,0.2325397 -0.06823,0.4340741 -0.203624,0.6035714 -0.165344,0.2087834 -0.390661,0.3131484 -0.676958,0.3131484 -0.234603,0 -0.425793,-0.06614 -0.573598,-0.197381 -0.147804,-0.13127 -0.232539,-0.3048943 -0.253227,-0.5219311 z m 2.000926,-0.5953174 c 0,-0.3038625 0.031,-0.5498413 0.09405,-0.7348413 0.06201,-0.1860317 0.156059,-0.3286772 0.279048,-0.4299471 0.124021,-0.1002645 0.279048,-0.1508994 0.4661376,-0.1508994 0.138492,0 0.2593915,0.02791 0.363783,0.083704 0.1043916,0.05582 0.1901852,0.1353968 0.2583863,0.2408201 0.068227,0.1043915 0.1209259,0.2325397 0.1602116,0.3834391 0.038228,0.1498677 0.057857,0.3524339 0.057857,0.6077249 0,0.3028042 -0.031005,0.5456878 -0.093016,0.7317195 -0.062011,0.1860582 -0.1550265,0.3297087 -0.2790476,0.4310047 -0.1229894,0.10127 -0.2790476,0.151905 -0.4681746,0.151905 -0.2480683,0 -0.4433863,-0.08886 -0.5849993,-0.267672 -0.169498,-0.2139414 -0.254233,-0.56328 -0.254233,-1.0469572 z m 0.324524,0 c 0,0.4226984 0.0496,0.7048677 0.148836,0.8443915 0.09921,0.1395238 0.2211636,0.209788 0.3658726,0.209788 0.1457143,0 0.2676719,-0.070264 0.3658465,-0.2108197 0.099233,-0.1405556 0.148836,-0.4216932 0.148836,-0.8433598 0,-0.4237566 -0.049603,-0.7048677 -0.148836,-0.8443915 -0.098175,-0.1395239 -0.221164,-0.2098149 -0.3689682,-0.2098149 -0.1457143,0 -0.2614819,0.062011 -0.3482809,0.185 -0.108518,0.15709 -0.163306,0.4464815 -0.163306,0.8692064 z m 0,0"
       id="path1708" />
    <path
       fill="none"
       stroke-width="0.0571429"
       stroke-linecap="round"
       stroke-linejoin="round"
       stroke="#000000"
       stroke-opacity="1"
       stroke-miterlimit="4"
       d="M -10.141342,-2.9407802 V -13.693611"
       id="path1709" />
    <path
       fill="none"
       stroke-width="0.0571429"
       stroke-linecap="round"
       stroke-linejoin="round"
       stroke="#000000"
       stroke-opacity="1"
       stroke-miterlimit="4"
       d="M -8.2665269,-2.9407802 V -13.693611"
       id="path1710" />
    <path
       fill="none"
       stroke-width="0.0571429"
       stroke-linecap="round"
       stroke-linejoin="round"
       stroke="#000000"
       stroke-opacity="1"
       stroke-miterlimit="4"
       d="M -10.141342,-12.944299 H -13.74113"
       id="path1711" />
    <path
       fill="none"
       stroke-width="0.0571429"
       stroke-linecap="round"
       stroke-linejoin="round"
       stroke="#000000"
       stroke-opacity="1"
       stroke-miterlimit="4"
       d="M -4.6677968,-12.944299 H -8.2665269"
       id="path1712" />
    <path
       fill-rule="nonzero"
       fill="#000000"
       fill-opacity="1"
       stroke-width="0.0571429"
       stroke-linecap="round"
       stroke-linejoin="round"
       stroke="#000000"
       stroke-opacity="1"
       stroke-miterlimit="22.9256"
       d="m -10.141342,-12.944299 -2.399867,-0.599444 v 1.199921 z m 0,0"
       id="path1713" />
    <path
       fill-rule="nonzero"
       fill="#000000"
       fill-opacity="1"
       stroke-width="0.0571429"
       stroke-linecap="round"
       stroke-linejoin="round"
       stroke="#000000"
       stroke-opacity="1"
       stroke-miterlimit="22.9256"
       d="m -8.2665269,-12.944299 2.3988094,0.600477 v -1.199921 z m 0,0"
       id="path1714" />
    <path
       fill-rule="nonzero"
       fill="#000000"
       fill-opacity="1"
       stroke-width="0.0571429"
       stroke-linecap="round"
       stroke-linejoin="round"
       stroke="#000000"
       stroke-opacity="1"
       stroke-miterlimit="22.9256"
       d="m -10.515495,-14.747791 v 0.303836 h -1.702222 c -0.0026,-0.07648 0.0093,-0.148809 0.03616,-0.2191 0.04341,-0.116773 0.112672,-0.230476 0.208783,-0.343122 0.09508,-0.112672 0.233571,-0.242883 0.413412,-0.389656 0.28008,-0.229444 0.469233,-0.411323 0.567408,-0.545688 0.09923,-0.134365 0.147804,-0.261481 0.147804,-0.380344 0,-0.125053 -0.04444,-0.230476 -0.134365,-0.317301 -0.08992,-0.08577 -0.20672,-0.12918 -0.35037,-0.12918 -0.152963,0 -0.273889,0.04548 -0.365873,0.13746 -0.09095,0.09095 -0.137461,0.218069 -0.138492,0.379312 l -0.325556,-0.03309 c 0.02275,-0.242857 0.106455,-0.427883 0.251138,-0.555 0.14574,-0.127116 0.341084,-0.190159 0.586031,-0.190159 0.247011,0 0.442328,0.0682 0.586006,0.205662 0.144682,0.13746 0.217037,0.306957 0.217037,0.509524 0,0.103359 -0.02169,0.204656 -0.06407,0.303862 -0.04238,0.09923 -0.111641,0.204656 -0.209815,0.314206 -0.09817,0.110582 -0.26045,0.261482 -0.487831,0.453704 -0.189127,0.15918 -0.311085,0.266667 -0.364841,0.324524 -0.05373,0.05582 -0.09817,0.112672 -0.133307,0.170555 z m 0.5167723,0.303836 v -0.360687 h 0.3596561 v 0.360687 z m 0.8216402,-0.674894 0.3317725,-0.02788 c 0.024868,0.162248 0.08164,0.283174 0.1715608,0.364814 0.089921,0.08167 0.1974074,0.121958 0.3245238,0.121958 0.1519313,0 0.2811376,-0.05682 0.3855027,-0.171561 0.106455,-0.11574 0.1591799,-0.267672 0.1591799,-0.456825 0,-0.180847 -0.050635,-0.323492 -0.1519312,-0.426826 -0.1012963,-0.104391 -0.2346032,-0.157116 -0.3979101,-0.157116 -0.102328,0 -0.1943122,0.02381 -0.2759524,0.06926 -0.082672,0.04651 -0.1467724,0.106455 -0.1932804,0.179842 l -0.2966137,-0.03825 0.249074,-1.32291 h 1.2805556 v 0.30283 h -1.0273281 l -0.1395238,0.691429 c 0.1550265,-0.107487 0.3172752,-0.161244 0.4867725,-0.161244 0.2253175,0 0.4144445,0.07751 0.5694974,0.233572 0.1550264,0.156058 0.2315079,0.356587 0.2315079,0.600476 0,0.233598 -0.068227,0.435132 -0.2036243,0.60463 -0.165344,0.207725 -0.3906614,0.312116 -0.675926,0.312116 -0.2346031,0 -0.4257936,-0.06511 -0.5746296,-0.196376 -0.1478042,-0.131243 -0.2325397,-0.304867 -0.2532275,-0.521931 z m 2.0009259,-0.595291 c 0,-0.303862 0.031005,-0.549841 0.094048,-0.734841 0.063042,-0.186032 0.1560582,-0.329709 0.2800794,-0.429947 0.1229894,-0.101296 0.2780159,-0.1509 0.4651058,-0.1509 0.1384921,0 0.2604497,0.02791 0.3648148,0.0837 0.1043915,0.05479 0.1891534,0.135397 0.2583862,0.24082 0.067196,0.104392 0.120926,0.23254 0.1591799,0.382408 0.039259,0.150899 0.057857,0.353465 0.057857,0.608756 0,0.302804 -0.031005,0.545688 -0.093016,0.73172 -0.062011,0.186032 -0.1550264,0.329709 -0.2780159,0.430979 -0.1240211,0.101296 -0.2800793,0.150899 -0.4692063,0.150899 -0.2480688,0 -0.4423545,-0.08783 -0.5839682,-0.26664 -0.1694974,-0.213942 -0.2552646,-0.563281 -0.2552646,-1.046958 z m 0.3255556,0 c 0,0.422699 0.049603,0.70381 0.1478042,0.844392 0.099206,0.139524 0.221164,0.209788 0.365873,0.209788 0.1457143,0 0.2676719,-0.07026 0.3668783,-0.21082 0.099233,-0.140582 0.148836,-0.421693 0.148836,-0.84336 0,-0.423756 -0.049603,-0.705899 -0.148836,-0.844391 -0.099206,-0.139551 -0.2221958,-0.209815 -0.3689683,-0.209815 -0.1457142,0 -0.2614814,0.06201 -0.3493121,0.185 -0.1085185,0.156058 -0.1622751,0.446481 -0.1622751,0.869206 z m 0,0"
       id="path1715" />
    <path
       fill="none"
       stroke-width="0.0571429"
       stroke-linecap="butt"
       stroke-linejoin="miter"
       stroke="#000000"
       stroke-opacity="1"
       stroke-miterlimit="4"
       d="m -364.46287,2.6082409 h -7.52926"
       id="path2577" />
    <path
       fill="none"
       stroke-width="0.0571429"
       stroke-linecap="butt"
       stroke-linejoin="miter"
       stroke="#000000"
       stroke-opacity="1"
       stroke-miterlimit="4"
       d="m -364.46287,16.856468 h -7.52926"
       id="path2578" />
    <path
       fill="none"
       stroke-width="0.0571429"
       stroke-linecap="butt"
       stroke-linejoin="miter"
       stroke="#000000"
       stroke-opacity="1"
       stroke-miterlimit="4"
       d="M -371.24282,16.856468 V 2.6082409"
       id="path2579" />
    <path
       fill-rule="nonzero"
       fill="#000000"
       fill-opacity="1"
       stroke-width="0.0571429"
       stroke-linecap="butt"
       stroke-linejoin="miter"
       stroke="#000000"
       stroke-opacity="1"
       stroke-miterlimit="22.9256"
       d="m -371.24282,16.856468 0.60048,-2.399841 h -1.19992 z m 0,0"
       id="path2580" />
    <path
       fill-rule="nonzero"
       fill="#000000"
       fill-opacity="1"
       stroke-width="0.0571429"
       stroke-linecap="butt"
       stroke-linejoin="miter"
       stroke="#000000"
       stroke-opacity="1"
       stroke-miterlimit="22.9256"
       d="m -371.24282,2.6082409 -0.59944,2.3998677 h 1.19992 z m 0,0"
       id="path2581" />
    <path
       fill-rule="nonzero"
       fill="#000000"
       fill-opacity="1"
       stroke-width="0.0571429"
       stroke-linecap="butt"
       stroke-linejoin="miter"
       stroke="#000000"
       stroke-opacity="1"
       stroke-miterlimit="22.9256"
       d="m -372.74247,12.309987 v 0.316243 h -2.01434 c 0.0723,0.07648 0.14468,0.175714 0.21704,0.298704 0.0734,0.124021 0.12711,0.235635 0.16328,0.333836 h -0.30487 c -0.0837,-0.176746 -0.18397,-0.331773 -0.3018,-0.464074 -0.11886,-0.132275 -0.23357,-0.226323 -0.34521,-0.281111 v -0.203598 z m -0.59532,-0.857831 -0.0279,-0.303862 c 0.14264,-0.02593 0.24598,-0.07442 0.31111,-0.146773 0.0641,-0.07336 0.0961,-0.166376 0.0961,-0.280079 0,-0.09714 -0.0217,-0.181905 -0.0672,-0.255291 -0.0444,-0.07336 -0.10334,-0.133307 -0.17776,-0.179815 -0.0744,-0.04754 -0.17468,-0.08683 -0.30076,-0.117831 -0.12712,-0.03101 -0.25527,-0.04754 -0.38654,-0.04754 -0.0145,0 -0.0362,0 -0.063,0.0026 0.10024,0.06304 0.18191,0.149868 0.24392,0.258386 0.063,0.109551 0.0951,0.228413 0.0951,0.355529 0,0.213942 -0.0775,0.393784 -0.23254,0.541561 -0.15503,0.147805 -0.3576,0.221191 -0.61082,0.221191 -0.26149,0 -0.4713,-0.07648 -0.63149,-0.230476 -0.15915,-0.153995 -0.23875,-0.347276 -0.23875,-0.579815 0,-0.166402 0.0455,-0.319365 0.13539,-0.458889 0.0899,-0.138492 0.2191,-0.2439155 0.38551,-0.3162435 0.1664,-0.071323 0.40825,-0.1075132 0.72555,-0.1075132 0.32762,0 0.59013,0.035159 0.78548,0.106455 0.19534,0.072355 0.34312,0.1777777 0.44545,0.3193647 0.10127,0.141588 0.15296,0.305926 0.15296,0.496111 0,0.201535 -0.0558,0.365847 -0.16846,0.494022 -0.11162,0.127116 -0.26873,0.203598 -0.4713,0.229444 z m -1.13688,-1.293995 c -0.18087,0 -0.32555,0.04754 -0.43201,0.144709 -0.10645,0.09714 -0.16021,0.21291 -0.16021,0.348307 0,0.140556 0.0579,0.262513 0.17262,0.366879 0.11471,0.104391 0.26354,0.157116 0.44648,0.157116 0.16431,0 0.29661,-0.04963 0.39997,-0.148836 0.10233,-0.09921 0.15297,-0.221164 0.15297,-0.365873 0,-0.146746 -0.0506,-0.26664 -0.15297,-0.360688 -0.10336,-0.09511 -0.24494,-0.141614 -0.42685,-0.141614 z m 1.7322,-0.8371425 h -0.35969 V 8.961336 h 0.35969 z m -1.27021,-0.8216666 c -0.30387,0 -0.54985,-0.031005 -0.73485,-0.094048 -0.18603,-0.062011 -0.32865,-0.1560582 -0.42994,-0.2790476 -0.10024,-0.1240212 -0.1509,-0.2790477 -0.1509,-0.4661112 0,-0.1385185 0.0279,-0.2594179 0.0837,-0.3638095 0.0558,-0.1043915 0.13539,-0.1901852 0.24082,-0.2583862 0.10436,-0.068201 0.23254,-0.1219577 0.38341,-0.1601852 0.14987,-0.038254 0.35243,-0.057884 0.60773,-0.057884 0.30283,0 0.54571,0.031005 0.73174,0.093016 0.18603,0.062011 0.32968,0.1550264 0.43098,0.2790476 0.1013,0.1229894 0.15193,0.2790476 0.15193,0.468201 0,0.2480424 -0.0889,0.4423281 -0.2677,0.5839418 -0.21394,0.1705291 -0.56325,0.2552646 -1.04695,0.2552646 z m 0,-0.3245238 c 0.42272,0 0.70486,-0.050635 0.84439,-0.148836 0.14055,-0.099206 0.20981,-0.221164 0.20981,-0.3658466 0,-0.1457407 -0.0703,-0.2676984 -0.21084,-0.3669047 -0.14056,-0.098201 -0.42167,-0.148836 -0.84336,-0.148836 -0.42376,0 -0.70487,0.050635 -0.8444,0.148836 -0.13952,0.099206 -0.20981,0.2221958 -0.20981,0.37 0,0.1457143 0.062,0.2614815 0.185,0.3482804 0.15712,0.108545 0.44651,0.1633069 0.86921,0.1633069 z m 0,-1.6763757 c -0.30387,0 -0.54985,-0.031005 -0.73485,-0.094048 -0.18603,-0.062011 -0.32865,-0.1560846 -0.42994,-0.2801058 -0.10024,-0.1229894 -0.1509,-0.2780159 -0.1509,-0.4650793 0,-0.1384921 0.0279,-0.2604498 0.0837,-0.3638096 0.0558,-0.104365 0.13539,-0.1901587 0.24082,-0.2594179 0.10436,-0.067169 0.23254,-0.1208995 0.38341,-0.1591535 0.14987,-0.039259 0.35243,-0.057884 0.60773,-0.057884 0.30283,0 0.54571,0.031005 0.73174,0.093016 0.18603,0.062011 0.32968,0.1550264 0.43098,0.2790741 0.1013,0.1229894 0.15193,0.2790476 0.15193,0.4681746 0,0.2480423 -0.0889,0.4423544 -0.2677,0.5839417 -0.21394,0.1705291 -0.56325,0.255291 -1.04695,0.255291 z m 0,-0.3255555 c 0.42272,0 0.70486,-0.04963 0.84439,-0.1478042 0.14055,-0.099233 0.20981,-0.2211641 0.20981,-0.365873 0,-0.1457143 -0.0703,-0.267672 -0.21084,-0.3669048 -0.14056,-0.099206 -0.42167,-0.148836 -0.84336,-0.148836 -0.42376,0 -0.70487,0.04963 -0.8444,0.148836 -0.13952,0.099233 -0.20981,0.2222222 -0.20981,0.37 0,0.1457407 0.062,0.2614815 0.185,0.3483069 0.15712,0.1085185 0.44651,0.1622751 0.86921,0.1622751 z m 0,0"
       id="path2582" />
    <path
       fill="none"
       stroke-width="0.0571429"
       stroke-linecap="butt"
       stroke-linejoin="miter"
       stroke="#000000"
       stroke-opacity="1"
       stroke-miterlimit="4"
       d="M -12.522612,-2.9407802 V -10.347023"
       id="path2620" />
    <path
       fill="none"
       stroke-width="0.0571429"
       stroke-linecap="butt"
       stroke-linejoin="miter"
       stroke="#000000"
       stroke-opacity="1"
       stroke-miterlimit="4"
       d="M -363.71356,-2.9407802 V -10.347023"
       id="path2621" />
    <path
       fill="none"
       stroke-width="0.0571429"
       stroke-linecap="butt"
       stroke-linejoin="miter"
       stroke="#000000"
       stroke-opacity="1"
       stroke-miterlimit="4"
       d="M -363.71356,-9.596706 H -12.522612"
       id="path2622" />
    <path
       fill-rule="nonzero"
       fill="#000000"
       fill-opacity="1"
       stroke-width="0.0571429"
       stroke-linecap="butt"
       stroke-linejoin="miter"
       stroke="#000000"
       stroke-opacity="1"
       stroke-miterlimit="22.9256"
       d="m -363.71356,-9.596706 2.39984,0.5994709 v -1.1999469 z m 0,0"
       id="path2623" />
    <path
       fill-rule="nonzero"
       fill="#000000"
       fill-opacity="1"
       stroke-width="0.0571429"
       stroke-linecap="butt"
       stroke-linejoin="miter"
       stroke="#000000"
       stroke-opacity="1"
       stroke-miterlimit="22.9256"
       d="m -12.522612,-9.596706 -2.399841,-0.600476 v 1.1999469 z m 0,0"
       id="path2624" />
    <path
       fill-rule="nonzero"
       fill="#000000"
       fill-opacity="1"
       stroke-width="0.0571429"
       stroke-linecap="butt"
       stroke-linejoin="miter"
       stroke="#000000"
       stroke-opacity="1"
       stroke-miterlimit="22.9256"
       d="m -191.9566,-11.096336 v -0.617037 h -1.11725 v -0.290423 l 1.1751,-1.668095 h 0.25839 v 1.668095 h 0.34728 v 0.290423 h -0.34728 v 0.617037 z m 0,-0.90746 v -1.160635 l -0.80617,1.160635 z m 2.62825,-1.037645 -0.31418,0.02487 c -0.0289,-0.124021 -0.0682,-0.214973 -0.11989,-0.270767 -0.0858,-0.08992 -0.19122,-0.135397 -0.31627,-0.135397 -0.1013,0 -0.18913,0.02791 -0.26561,0.08476 -0.0992,0.07233 -0.17778,0.178783 -0.23566,0.317275 -0.0568,0.139524 -0.0868,0.337963 -0.0889,0.595318 0.0765,-0.114709 0.16847,-0.201535 0.27905,-0.258386 0.10955,-0.05579 0.22532,-0.0837 0.34622,-0.0837 0.21085,0 0.39069,0.07751 0.53849,0.23254 0.14778,0.156058 0.2222,0.355529 0.2222,0.601507 0,0.162276 -0.0351,0.312117 -0.10439,0.451667 -0.0703,0.138492 -0.16537,0.244947 -0.28733,0.318307 -0.12196,0.07442 -0.25939,0.110582 -0.41445,0.110582 -0.26354,0 -0.47852,-0.09611 -0.64492,-0.290397 -0.16637,-0.194312 -0.24907,-0.513677 -0.24907,-0.959127 0,-0.497116 0.092,-0.858862 0.27595,-1.085211 0.16021,-0.196376 0.37519,-0.295582 0.64802,-0.295582 0.20156,0 0.36793,0.05685 0.49714,0.17156 0.13021,0.112672 0.20772,0.269762 0.23357,0.470265 z m -1.2919,1.11 c 0,0.10955 0.0238,0.213941 0.0703,0.313174 0.0455,0.09921 0.11061,0.174656 0.19328,0.227355 0.0837,0.05169 0.17053,0.07857 0.26251,0.07857 0.13334,0 0.24805,-0.05376 0.34418,-0.162275 0.0961,-0.107487 0.14365,-0.254259 0.14365,-0.439259 0,-0.177752 -0.0475,-0.318307 -0.14261,-0.420635 -0.0941,-0.102328 -0.21395,-0.152963 -0.35762,-0.152963 -0.14365,0 -0.26458,0.05063 -0.36379,0.152963 -0.0992,0.102328 -0.14986,0.236666 -0.14986,0.403069 z m 2.13836,-0.562223 c -0.13125,-0.04757 -0.22842,-0.115767 -0.29146,-0.205687 -0.063,-0.08786 -0.0951,-0.195344 -0.0951,-0.319366 0,-0.187063 0.0672,-0.344153 0.20257,-0.472301 0.13436,-0.128175 0.31317,-0.192249 0.53743,-0.192249 0.22429,0 0.40516,0.06614 0.54262,0.196376 0.13643,0.130212 0.20566,0.289391 0.20566,0.477487 0,0.118862 -0.032,0.223227 -0.0941,0.312116 -0.063,0.08786 -0.15812,0.156058 -0.28526,0.203624 0.15712,0.05167 0.27802,0.134339 0.36071,0.250106 0.0827,0.114709 0.12403,0.251138 0.12403,0.410318 0,0.221164 -0.0786,0.405132 -0.23358,0.555 -0.15605,0.149867 -0.36071,0.225291 -0.61494,0.225291 -0.25426,0 -0.45889,-0.07542 -0.61498,-0.225291 -0.15606,-0.1509 -0.23357,-0.337963 -0.23357,-0.563281 0,-0.167434 0.0424,-0.307989 0.12714,-0.420635 0.0847,-0.112672 0.20567,-0.190185 0.36276,-0.231508 z m -0.0631,-0.53537 c 0,0.121958 0.0393,0.221164 0.11783,0.298677 0.0786,0.07648 0.17985,0.115767 0.3049,0.115767 0.12196,0 0.22219,-0.03825 0.30074,-0.114735 0.0775,-0.07648 0.11577,-0.171561 0.11577,-0.282143 0,-0.115767 -0.0393,-0.21291 -0.1199,-0.292487 -0.0806,-0.07958 -0.17984,-0.118862 -0.29973,-0.118862 -0.1209,0 -0.22117,0.03929 -0.30074,0.115767 -0.0796,0.07751 -0.11887,0.170529 -0.11887,0.278016 z m -0.10232,1.189577 c 0,0.08992 0.0217,0.177777 0.0641,0.261481 0.0423,0.08476 0.10645,0.149868 0.19119,0.195344 0.0848,0.04651 0.17465,0.07029 0.27182,0.07029 0.1509,0 0.27595,-0.0486 0.37413,-0.146772 0.0982,-0.09714 0.1478,-0.220133 0.1478,-0.37 0,-0.152963 -0.0506,-0.279048 -0.15193,-0.378281 -0.10129,-0.09921 -0.22841,-0.148809 -0.38034,-0.148809 -0.14884,0 -0.27183,0.04857 -0.37,0.146746 -0.0971,0.09923 -0.14677,0.222222 -0.14677,0.370001 z m 1.85727,0.743121 v -0.360714 h 0.36069 v 0.360714 z m 0.8237,-0.680079 0.31627,-0.04235 c 0.0362,0.179814 0.0982,0.307989 0.185,0.387566 0.0879,0.07958 0.19432,0.118862 0.31937,0.118862 0.14881,0 0.27492,-0.05169 0.37722,-0.155053 0.1013,-0.103333 0.15296,-0.230476 0.15296,-0.383439 0,-0.144682 -0.0465,-0.264577 -0.14158,-0.358624 -0.0951,-0.09405 -0.21601,-0.141588 -0.36278,-0.141588 -0.0599,0 -0.13434,0.01138 -0.2222,0.03513 l 0.0351,-0.276984 c 0.0206,0.0026 0.0372,0.0032 0.0507,0.0032 0.13434,0 0.25526,-0.03513 0.36378,-0.105423 0.10749,-0.07026 0.16124,-0.178783 0.16124,-0.325556 0,-0.11574 -0.0393,-0.211878 -0.11783,-0.287328 -0.0785,-0.07648 -0.17984,-0.114709 -0.30386,-0.114709 -0.12299,0 -0.22529,0.03929 -0.30696,0.115768 -0.0827,0.07751 -0.13539,0.193253 -0.15812,0.34828 l -0.31627,-0.05579 c 0.0383,-0.21291 0.12611,-0.377248 0.26355,-0.493016 0.13746,-0.116772 0.30698,-0.175687 0.51161,-0.175687 0.13952,0 0.26974,0.03101 0.38757,0.09095 0.11783,0.06098 0.20878,0.142619 0.27182,0.247011 0.062,0.104391 0.094,0.214973 0.094,0.331772 0,0.111614 -0.03,0.21291 -0.0899,0.303836 -0.06,0.09198 -0.14781,0.164339 -0.26561,0.218095 0.15296,0.03513 0.27077,0.108519 0.35553,0.219101 0.0837,0.110582 0.12608,0.249074 0.12608,0.414444 0,0.225318 -0.0816,0.415476 -0.24598,0.572566 -0.16433,0.156085 -0.37103,0.23463 -0.62216,0.23463 -0.22635,0 -0.41342,-0.0672 -0.56328,-0.202593 -0.14884,-0.134338 -0.23358,-0.309021 -0.2553,-0.522963 z m 1.9999,-0.590132 c 0,-0.304894 0.031,-0.549841 0.094,-0.734841 0.062,-0.186032 0.15502,-0.329709 0.27904,-0.429948 0.12402,-0.101296 0.27905,-0.151931 0.46611,-0.151931 0.1385,0 0.25942,0.02894 0.36381,0.08476 0.1044,0.05476 0.19016,0.13537 0.25839,0.239762 0.0682,0.105423 0.12093,0.23254 0.15915,0.383439 0.0393,0.1509 0.0589,0.353466 0.0589,0.608757 0,0.301799 -0.031,0.545688 -0.093,0.731746 -0.063,0.185 -0.15605,0.328651 -0.27904,0.429947 -0.12403,0.10127 -0.27905,0.151905 -0.46821,0.151905 -0.24804,0 -0.44338,-0.08886 -0.58497,-0.266641 -0.1695,-0.213941 -0.25423,-0.564312 -0.25423,-1.046957 z m 0.32452,0 c 0,0.422698 0.0496,0.703836 0.14881,0.844391 0.0992,0.139524 0.22016,0.209815 0.36587,0.209815 0.14575,0 0.2677,-0.07132 0.36588,-0.210846 0.0992,-0.140556 0.14883,-0.421694 0.14883,-0.84336 0,-0.423757 -0.0496,-0.7059 -0.14883,-0.845423 -0.0982,-0.139524 -0.22117,-0.208784 -0.36897,-0.208784 -0.14571,0 -0.26148,0.06201 -0.34831,0.185 -0.10852,0.156059 -0.16328,0.446482 -0.16328,0.869207 z m 0,0"
       id="path2625" />
    <path
       fill="none"
       stroke-width="0.0571429"
       stroke-linecap="butt"
       stroke-linejoin="miter"
       stroke="#000000"
       stroke-opacity="1"
       stroke-miterlimit="4"
       d="m 130.46609,6.3578969 h 8.37571"
       id="path2687" />
    <path
       fill="none"
       stroke-width="0.0571429"
       stroke-linecap="butt"
       stroke-linejoin="miter"
       stroke="#000000"
       stroke-opacity="1"
       stroke-miterlimit="4"
       d="m 130.46609,16.856468 h 8.37571"
       id="path2688" />
    <path
       fill="none"
       stroke-width="0.0571429"
       stroke-linecap="butt"
       stroke-linejoin="miter"
       stroke="#000000"
       stroke-opacity="1"
       stroke-miterlimit="4"
       d="M 138.09146,16.856468 V 6.3578969"
       id="path2689" />
    <path
       fill-rule="nonzero"
       fill="#000000"
       fill-opacity="1"
       stroke-width="0.0571429"
       stroke-linecap="butt"
       stroke-linejoin="miter"
       stroke="#000000"
       stroke-opacity="1"
       stroke-miterlimit="22.9256"
       d="m 138.09146,16.856468 0.60048,-2.399841 h -1.19992 z m 0,0"
       id="path2690" />
    <path
       fill-rule="nonzero"
       fill="#000000"
       fill-opacity="1"
       stroke-width="0.0571429"
       stroke-linecap="butt"
       stroke-linejoin="miter"
       stroke="#000000"
       stroke-opacity="1"
       stroke-miterlimit="22.9256"
       d="m 138.09146,6.3578969 -0.59944,2.3998412 h 1.19992 z m 0,0"
       id="path2691" />
    <path
       fill-rule="nonzero"
       fill="#000000"
       fill-opacity="1"
       stroke-width="0.0571429"
       stroke-linecap="butt"
       stroke-linejoin="miter"
       stroke="#000000"
       stroke-opacity="1"
       stroke-miterlimit="22.9256"
       d="m 136.5918,14.184802 v 0.316269 h -2.01433 c 0.0723,0.07542 0.14468,0.175688 0.21703,0.298678 0.0724,0.124021 0.12712,0.235635 0.16331,0.333836 h -0.30489 c -0.0837,-0.176746 -0.18397,-0.331773 -0.30284,-0.464048 -0.11886,-0.132302 -0.23254,-0.226349 -0.34415,-0.281138 v -0.203597 z m 0,-1.823149 h -0.61597 v 1.116217 h -0.29043 l -1.66915,-1.175132 v -0.258386 h 1.66915 v -0.347249 h 0.29043 v 0.347249 h 0.61597 z m -0.9064,0 h -1.16066 l 1.16066,0.805133 z m 0.9064,-1.16582 h -0.36068 v -0.359656 h 0.36068 z m -1.27021,-0.821666 c -0.30489,0 -0.54984,-0.03101 -0.73484,-0.09405 -0.18603,-0.06304 -0.32968,-0.156058 -0.42995,-0.280079 -0.10127,-0.1229897 -0.15087,-0.2780162 -0.15087,-0.4650797 0,-0.138492 0.0279,-0.2604497 0.0837,-0.3648412 0.0548,-0.1043916 0.1354,-0.1901588 0.23979,-0.2583863 0.1054,-0.067169 0.23357,-0.1209259 0.38344,-0.1591534 0.15088,-0.039286 0.35347,-0.057884 0.60873,-0.057884 0.30283,0 0.54572,0.031005 0.73175,0.093016 0.18603,0.062011 0.32865,0.1550264 0.43098,0.2780158 0.10129,0.1240212 0.1509,0.2800794 0.1509,0.4692328 0,0.2480424 -0.0889,0.4423545 -0.26664,0.583942 -0.21395,0.169497 -0.56328,0.255265 -1.04699,0.255265 z m 0,-0.325556 c 0.42273,0 0.70384,-0.049603 0.84439,-0.1488094 0.13953,-0.098201 0.20982,-0.2201587 0.20982,-0.3648413 0,-0.1457407 -0.0703,-0.2676984 -0.21085,-0.3669047 -0.14055,-0.099233 -0.42166,-0.148836 -0.84336,-0.148836 -0.42373,0 -0.7059,0.049603 -0.84439,0.148836 -0.14055,0.099206 -0.20979,0.2221957 -0.20979,0.3689682 0,0.1457143 0.062,0.2614815 0.185,0.3493386 0.15606,0.1085186 0.44648,0.1622486 0.86918,0.1622486 z m 0,-1.6753438 c -0.30489,0 -0.54984,-0.031005 -0.73484,-0.094048 -0.18603,-0.063042 -0.32968,-0.1560582 -0.42995,-0.2800793 -0.10127,-0.1229895 -0.15087,-0.2780159 -0.15087,-0.4661376 0,-0.1384921 0.0279,-0.259418 0.0837,-0.3637831 0.0548,-0.1043915 0.1354,-0.1901852 0.23979,-0.2583862 0.1054,-0.067196 0.23357,-0.1209259 0.38344,-0.1591799 0.15088,-0.039259 0.35347,-0.057857 0.60873,-0.057857 0.30283,0 0.54572,0.031005 0.73175,0.093016 0.18603,0.062011 0.32865,0.1550265 0.43098,0.2780159 0.10129,0.1240212 0.1509,0.2800794 0.1509,0.4681746 0,0.2490741 -0.0889,0.4433862 -0.26664,0.5849735 -0.21395,0.1694974 -0.56328,0.255291 -1.04699,0.2552911 z m 0,-0.3255555 c 0.42273,0 0.70384,-0.049603 0.84439,-0.148836 0.13953,-0.098175 0.20982,-0.2201323 0.20982,-0.365873 0,-0.1457143 -0.0703,-0.2666402 -0.21085,-0.365873 -0.14055,-0.099206 -0.42166,-0.1488095 -0.84336,-0.1488095 -0.42373,0 -0.7059,0.049603 -0.84439,0.1488095 -0.14055,0.099233 -0.20979,0.2222222 -0.20979,0.3689682 0,0.1457408 0.062,0.2614815 0.185,0.3483069 0.15606,0.1085185 0.44648,0.1633069 0.86918,0.1633069 z m 0,0"
       id="path2692" />
    <path
       fill="none"
       stroke-width="0.0571429"
       stroke-linecap="butt"
       stroke-linejoin="miter"
       stroke="#000000"
       stroke-opacity="1"
       stroke-miterlimit="4"
       d="m -364.46287,-2.191468 h -15.81817"
       id="path2693" />
    <path
       fill="none"
       stroke-width="0.0571429"
       stroke-linecap="butt"
       stroke-linejoin="miter"
       stroke="#000000"
       stroke-opacity="1"
       stroke-miterlimit="4"
       d="m -364.46287,16.856468 h -15.81817"
       id="path2694" />
    <path
       fill="none"
       stroke-width="0.0571429"
       stroke-linecap="butt"
       stroke-linejoin="miter"
       stroke="#000000"
       stroke-opacity="1"
       stroke-miterlimit="4"
       d="M -379.5307,16.856468 V -2.191468"
       id="path2695" />
    <path
       fill-rule="nonzero"
       fill="#000000"
       fill-opacity="1"
       stroke-width="0.0571429"
       stroke-linecap="butt"
       stroke-linejoin="miter"
       stroke="#000000"
       stroke-opacity="1"
       stroke-miterlimit="22.9256"
       d="m -379.5307,16.856468 0.59944,-2.399841 h -1.19992 z m 0,0"
       id="path2696" />
    <path
       fill-rule="nonzero"
       fill="#000000"
       fill-opacity="1"
       stroke-width="0.0571429"
       stroke-linecap="butt"
       stroke-linejoin="miter"
       stroke="#000000"
       stroke-opacity="1"
       stroke-miterlimit="22.9256"
       d="m -379.5307,-2.191468 -0.60048,2.39986764 h 1.19992 z m 0,0"
       id="path2697" />
    <path
       fill-rule="nonzero"
       fill="#000000"
       fill-opacity="1"
       stroke-width="0.0571429"
       stroke-linecap="butt"
       stroke-linejoin="miter"
       stroke="#000000"
       stroke-opacity="1"
       stroke-miterlimit="22.9256"
       d="m -381.33522,9.5690609 h 0.30386 v 1.7022221 c -0.0754,0.0032 -0.14884,-0.0093 -0.21913,-0.03616 -0.11677,-0.04341 -0.23047,-0.112672 -0.34312,-0.208783 -0.11161,-0.09508 -0.24185,-0.233571 -0.38966,-0.413413 -0.22941,-0.280079 -0.41132,-0.469233 -0.54568,-0.567407 -0.13334,-0.098175 -0.26045,-0.1478044 -0.38035,-0.1478044 -0.12505,0 -0.23047,0.044445 -0.3173,0.1343654 -0.0858,0.08992 -0.12815,0.206719 -0.12815,0.35037 0,0.152963 0.0455,0.274921 0.13643,0.365873 0.092,0.09095 0.21807,0.13746 0.37931,0.138492 l -0.0331,0.325556 c -0.24288,-0.02275 -0.42788,-0.106455 -0.55502,-0.251138 -0.12712,-0.145741 -0.19016,-0.341058 -0.19016,-0.586005 0,-0.247037 0.0692,-0.4423546 0.20566,-0.5860319 0.13746,-0.1446825 0.30696,-0.2160053 0.50955,-0.2160053 0.10333,0 0.20463,0.020635 0.30384,0.063042 0.10026,0.042381 0.20465,0.1116402 0.3142,0.2098148 0.11058,0.098175 0.26148,0.2604504 0.45371,0.4878314 0.15918,0.189127 0.26769,0.311084 0.32455,0.364841 0.0558,0.05373 0.11264,0.09817 0.17053,0.134339 z m -0.37,-0.3389947 -0.029,-0.3317725 c 0.16225,-0.024868 0.28318,-0.08164 0.36482,-0.1715609 0.0817,-0.089921 0.12196,-0.1974074 0.12196,-0.323492 0,-0.152963 -0.0568,-0.2821429 -0.17156,-0.3865344 -0.11575,-0.1054233 -0.26768,-0.1581482 -0.45683,-0.1581482 -0.18085,0 -0.32246,0.04963 -0.42683,0.1519313 -0.10439,0.1012963 -0.15711,0.2335978 -0.15711,0.39791 0,0.1012963 0.0238,0.1932804 0.0703,0.2759524 0.0455,0.081667 0.10542,0.1457407 0.17984,0.1922487 l -0.0383,0.2976455 -1.32291,-0.2501059 V 7.6435847 h 0.3018 v 1.0283598 l 0.69246,0.1385185 c -0.10852,-0.1550529 -0.16228,-0.3173016 -0.16228,-0.4867989 0,-0.2253175 0.0775,-0.4144445 0.23357,-0.5694709 0.15609,-0.1539947 0.35659,-0.231508 0.60154,-0.231508 0.23254,0 0.43407,0.068201 0.60357,0.2035979 0.20878,0.1653704 0.31315,0.3906614 0.31315,0.6769577 0,0.2335714 -0.0661,0.4258201 -0.19738,0.5735978 -0.13127,0.1478043 -0.3049,0.2325662 -0.5209,0.2532276 z m 0.67386,-2.1786773 h -0.35968 V 6.6917064 h 0.35968 z m 0,-1.8355555 h -0.61601 v 1.1172487 h -0.29042 l -1.66913,-1.1751323 V 4.89959 h 1.66913 V 4.5523149 h 0.29042 V 4.89959 h 0.61601 z m -0.90643,0 h -1.16064 l 1.16064,0.806164 z m -0.36378,-0.9870105 c -0.30387,0 -0.54984,-0.031005 -0.73484,-0.094048 -0.18604,-0.063042 -0.32868,-0.1560582 -0.42995,-0.2801058 -0.10027,-0.1229894 -0.1509,-0.2780158 -0.1509,-0.4650793 0,-0.1384921 0.0279,-0.2604498 0.0837,-0.3638096 0.0558,-0.104365 0.1354,-0.1901587 0.24082,-0.2594179 0.10439,-0.067169 0.23254,-0.1208995 0.38344,-0.1591535 0.14987,-0.039259 0.35244,-0.057884 0.60773,-0.057884 0.3028,0 0.54568,0.031005 0.73172,0.093016 0.18605,0.062011 0.32971,0.1550265 0.431,0.2790741 0.10127,0.1229894 0.15191,0.2790476 0.15191,0.4681746 0,0.2480423 -0.0889,0.4423545 -0.26768,0.5839418 -0.21394,0.1705291 -0.56328,0.255291 -1.04695,0.2552916 z m 0,-0.3255556 c 0.42269,0 0.70486,-0.04963 0.84439,-0.1478042 0.14055,-0.099233 0.20979,-0.221164 0.20979,-0.365873 0,-0.1457143 -0.0703,-0.267672 -0.21082,-0.3669048 -0.14056,-0.099206 -0.4217,-0.148836 -0.84336,-0.148836 -0.42376,0 -0.70487,0.04963 -0.84439,0.148836 -0.13953,0.099233 -0.20879,0.2222222 -0.20879,0.37 0,0.1457407 0.061,0.2614815 0.18397,0.3483069 0.15709,0.1085185 0.44648,0.1622751 0.86921,0.1622751 z m 0,0"
       id="path2698" />
  </g>
</svg>
